<svg xmlns="http://www.w3.org/2000/svg" xmlns:xlink="http://www.w3.org/1999/xlink" viewBox="0 0 1920 1080"><defs><style>.cls-1{fill:none;}.cls-2{fill:#696977;}.cls-3{clip-path:url(#clip-path);}.cls-4{opacity:0.08;}.cls-5{fill:#f3f3f3;}.cls-6{opacity:0.04;}.cls-7,.cls-9{opacity:0.02;}.cls-8,.cls-9{fill:#fff;}.cls-8{opacity:0.01;}.cls-10{clip-path:url(#clip-path-6);}</style><clipPath id="clip-path"><rect class="cls-1" x="-0.79" y="-3.13" width="1923.27" height="1087.72"/></clipPath><clipPath id="clip-path-6"><rect class="cls-1" x="2096.82" width="1500" height="1500"/></clipPath></defs><g id="FondoHeader_copia_4" data-name="FondoHeader copia 4"><rect class="cls-2" x="-0.79" y="-3.13" width="1923.27" height="1087.72"/><g id="LogoCentroCompleto_copia_16" data-name="LogoCentroCompleto copia 16"><g id="SignoTeksi_copia_20" data-name="SignoTeksi copia 20"><g class="cls-3"><g class="cls-4"><polygon class="cls-5" points="-39.52 749.78 372.11 5.12 -542.75 245.01 -39.52 749.78"/></g><g class="cls-6"><polygon class="cls-5" points="-38.05 749.66 612.77 174.67 -335.13 117.09 -38.05 749.66"/></g><g class="cls-7"><polygon class="cls-5" points="-39.34 750.47 779.64 414.52 -92.36 60.96 -39.34 750.47"/></g></g></g><g id="SignoTeksi_copia_20-2" data-name="SignoTeksi copia 20"><g class="cls-3"><g class="cls-4"><polygon class="cls-5" points="-39.52 297.88 372.11 1042.54 -542.75 802.64 -39.52 297.88"/></g><g class="cls-6"><polygon class="cls-5" points="-38.05 298 612.77 872.99 -335.13 930.57 -38.05 298"/></g><g class="cls-7"><polygon class="cls-5" points="-39.34 297.19 779.64 633.13 -92.36 986.7 -39.34 297.19"/></g></g></g></g><g id="LogoCentroCompleto_copia_16-2" data-name="LogoCentroCompleto copia 16"><g id="SignoTeksi_copia_20-3" data-name="SignoTeksi copia 20"><g class="cls-3"><g class="cls-4"><polygon class="cls-5" points="1868.56 749.78 1456.93 5.12 2371.79 245.01 1868.56 749.78"/></g><g class="cls-6"><polygon class="cls-5" points="1867.09 749.66 1216.27 174.67 2164.16 117.09 1867.09 749.66"/></g><g class="cls-7"><polygon class="cls-5" points="1868.38 750.47 1049.4 414.52 1921.4 60.96 1868.38 750.47"/></g></g></g><g id="SignoTeksi_copia_20-4" data-name="SignoTeksi copia 20"><g class="cls-3"><g class="cls-4"><polygon class="cls-5" points="1868.56 297.88 1456.93 1042.54 2371.79 802.64 1868.56 297.88"/></g><g class="cls-6"><polygon class="cls-5" points="1867.09 298 1216.27 872.99 2164.16 930.57 1867.09 298"/></g><g class="cls-7"><polygon class="cls-5" points="1868.38 297.19 1049.4 633.13 1921.4 986.7 1868.38 297.19"/></g></g></g></g><g id="Poligonos_copia_4" data-name="Poligonos copia 4"><g class="cls-3"><polygon class="cls-8" points="654.28 -4.61 654.28 126.53 770.16 192.1 886.04 126.53 886.04 -4.61 770.16 -70.18 654.28 -4.61"/><polygon class="cls-9" points="817.64 101.29 817.64 232.43 933.52 298 1049.4 232.43 1049.4 101.29 933.52 35.72 817.64 101.29"/><polygon class="cls-8" points="895.91 232.43 895.91 363.57 1011.79 429.14 1127.66 363.57 1127.66 232.43 1011.79 166.86 895.91 232.43"/><polygon class="cls-8" points="612.77 877.81 612.77 1008.95 728.65 1074.52 844.53 1008.95 844.53 877.81 728.65 812.24 612.77 877.81"/><polygon class="cls-9" points="758.3 844.23 758.3 975.37 874.18 1040.94 990.05 975.37 990.05 844.23 874.18 778.66 758.3 844.23"/><polygon class="cls-8" points="892.01 746.67 892.01 877.81 1007.89 943.38 1123.77 877.81 1123.77 746.67 1007.89 681.1 892.01 746.67"/><polygon class="cls-8" points="829.52 490.86 829.52 554.82 886.04 586.8 942.55 554.82 942.55 490.86 886.04 458.88 829.52 490.86"/><polygon class="cls-9" points="886.04 554.82 886.04 618.78 942.55 650.76 999.07 618.78 999.07 554.82 942.55 522.84 886.04 554.82"/><polygon class="cls-9" points="1238.23 984.58 1238.23 1048.54 1294.75 1080.52 1351.27 1048.54 1351.27 984.58 1294.75 952.6 1238.23 984.58"/><polygon class="cls-9" points="1146.55 975.36 1146.55 1039.33 1203.07 1071.31 1259.59 1039.33 1259.59 975.36 1203.07 943.38 1146.55 975.36"/><polygon class="cls-9" points="1038.1 782.45 1038.1 846.42 1094.61 878.4 1151.13 846.42 1151.13 782.45 1094.61 750.47 1038.1 782.45"/></g></g></g><g id="FondoHeader_copia" data-name="FondoHeader copia"><g id="LogoCentroCompleto_copia_13" data-name="LogoCentroCompleto copia 13"><g id="SignoTeksi_copia_19" data-name="SignoTeksi copia 19"><g class="cls-10"><g class="cls-4"><polygon class="cls-5" points="2094.1 528.5 2441.03 1469.98 1669.96 1166.68 2094.1 528.5"/></g><g class="cls-6"><polygon class="cls-5" points="2095.34 528.65 2643.88 1255.63 1844.95 1328.42 2095.34 528.65"/></g></g></g><g id="SignoTeksi_copia_19-2" data-name="SignoTeksi copia 19"><g class="cls-10"><g class="cls-4"><polygon class="cls-5" points="2094.1 971.5 2441.03 30.02 1669.96 333.32 2094.1 971.5"/></g><g class="cls-6"><polygon class="cls-5" points="2095.34 971.35 2643.88 244.37 1844.95 171.58 2095.34 971.35"/></g></g></g></g></g></svg>