<svg xmlns="http://www.w3.org/2000/svg" xmlns:xlink="http://www.w3.org/1999/xlink" viewBox="0 0 1366 823.06"><defs><style>.cls-1{fill:url(#Degradado_sin_nombre_40);}.cls-2{opacity:0.08;}.cls-3{fill:#f3f3f3;}.cls-4{opacity:0.04;}.cls-5,.cls-7{opacity:0.02;}.cls-6,.cls-7{fill:#fff;}.cls-6{opacity:0.01;}</style><linearGradient id="Degradado_sin_nombre_40" x1="683" y1="-25.28" x2="683" y2="858.64" gradientUnits="userSpaceOnUse"><stop offset="0" stop-color="#2f2f7f"/><stop offset="0.5" stop-color="#353187"/><stop offset="1" stop-color="#3e3494"/></linearGradient></defs><g id="FondoHeader"><rect class="cls-1" width="1366" height="823.06"/><g id="LogoCentroCompleto_copia_10" data-name="LogoCentroCompleto copia 10"><g id="SignoTeksi_copia_13" data-name="SignoTeksi copia 13"><g class="cls-2"><polygon class="cls-3" points="-27.5 569.71 264.85 6.24 -384.92 187.76 -27.5 569.71"/></g><g class="cls-4"><polygon class="cls-3" points="-26.46 569.62 435.79 134.53 -237.46 90.97 -26.46 569.62"/></g><g class="cls-5"><polygon class="cls-3" points="-27.38 570.24 554.3 316.03 -65.04 48.49 -27.38 570.24"/></g></g><g id="SignoTeksi_copia_13-2" data-name="SignoTeksi copia 13"><g class="cls-2"><polygon class="cls-3" points="-27.5 227.76 264.85 791.23 -384.92 609.71 -27.5 227.76"/></g><g class="cls-4"><polygon class="cls-3" points="-26.46 227.86 435.79 662.94 -237.46 706.51 -26.46 227.86"/></g><g class="cls-5"><polygon class="cls-3" points="-27.38 227.24 554.3 481.45 -65.04 748.98 -27.38 227.24"/></g></g></g><g id="LogoCentroCompleto_copia_11" data-name="LogoCentroCompleto copia 11"><g id="SignoTeksi_copia_14" data-name="SignoTeksi copia 14"><g class="cls-2"><polygon class="cls-3" points="1327.71 569.71 1035.35 6.24 1685.13 187.76 1327.71 569.71"/></g><g class="cls-4"><polygon class="cls-3" points="1326.66 569.62 864.42 134.53 1537.66 90.97 1326.66 569.62"/></g><g class="cls-5"><polygon class="cls-3" points="1327.58 570.24 745.9 316.03 1365.24 48.49 1327.58 570.24"/></g></g><g id="SignoTeksi_copia_14-2" data-name="SignoTeksi copia 14"><g class="cls-2"><polygon class="cls-3" points="1327.71 227.76 1035.35 791.23 1685.13 609.71 1327.71 227.76"/></g><g class="cls-4"><polygon class="cls-3" points="1326.66 227.86 864.42 662.94 1537.66 706.51 1326.66 227.86"/></g><g class="cls-5"><polygon class="cls-3" points="1327.58 227.24 745.9 481.45 1365.24 748.98 1327.58 227.24"/></g></g></g><polygon class="cls-6" points="465.27 -1.12 465.27 98.11 547.57 147.73 629.87 98.11 629.87 -1.12 547.57 -50.74 465.27 -1.12"/><polygon class="cls-7" points="581.3 79.01 581.3 178.24 663.6 227.86 745.9 178.24 745.9 79.01 663.6 29.39 581.3 79.01"/><polygon class="cls-6" points="636.88 178.24 636.88 277.47 719.19 327.09 801.49 277.47 801.49 178.24 719.19 128.62 636.88 178.24"/><polygon class="cls-6" points="300.67 741.62 300.67 840.85 382.97 890.47 465.27 840.85 465.27 741.62 382.97 692 300.67 741.62"/><polygon class="cls-7" points="404.02 716.21 404.02 815.44 486.33 865.05 568.63 815.44 568.63 716.21 486.33 666.59 404.02 716.21"/><polygon class="cls-6" points="498.99 642.38 498.99 741.62 581.3 791.23 663.6 741.62 663.6 642.38 581.3 592.77 498.99 642.38"/><polygon class="cls-6" points="589.73 373.79 589.73 422.19 629.87 446.39 670.01 422.19 670.01 373.79 629.87 349.59 589.73 373.79"/><polygon class="cls-7" points="629.87 422.19 629.87 470.59 670.01 494.79 710.16 470.59 710.16 422.19 670.01 397.99 629.87 422.19"/><polygon class="cls-7" points="912.58 779.54 912.58 827.94 952.72 852.14 992.86 827.94 992.86 779.54 952.72 755.34 912.58 779.54"/><polygon class="cls-7" points="847.46 772.57 847.46 820.96 887.6 845.16 927.75 820.96 927.75 772.57 887.6 748.37 847.46 772.57"/><polygon class="cls-7" points="737.87 594.43 737.87 642.83 778.01 667.03 818.16 642.83 818.16 594.43 778.01 570.24 737.87 594.43"/></g></svg>