<svg xmlns="http://www.w3.org/2000/svg" viewBox="0 0 488.43 488.43"><defs><style>.cls-1{fill:#f3f3f3;}</style></defs><g id="Capa_2" data-name="Capa 2"><g id="IconosMesaAyuda"><g id="Gris"><g id="IconoAreas"><path id="Circulo" class="cls-1" d="M244.21,488.43A244.21,244.21,0,0,1,71.53,71.53,244.21,244.21,0,1,1,416.9,416.9,242.66,242.66,0,0,1,244.21,488.43Zm0-464.43C122.79,24,24,122.79,24,244.21s98.79,220.22,220.21,220.22,220.22-98.79,220.22-220.22S365.64,24,244.21,24Z"/><path class="cls-1" d="M226.36,276.44,149.1,229.88l-14.84,8.92a6.25,6.25,0,0,0,0,10.89l92.1,55.5a17.14,17.14,0,0,0,17.57,0l92.1-55.5a6.25,6.25,0,0,0,0-10.89l-14.83-8.92-77.26,46.56A17.19,17.19,0,0,1,226.36,276.44Z"/><path class="cls-1" d="M226.36,320.77,149.1,274.21l-14.84,8.93a6.24,6.24,0,0,0,0,10.88l92.1,55.51a17.19,17.19,0,0,0,17.57,0L336,294a6.24,6.24,0,0,0,0-10.88l-14.83-8.93-77.26,46.56A17.19,17.19,0,0,1,226.36,320.77Z"/><path class="cls-1" d="M225.51,259.92,138.2,207.3a9,9,0,0,1,0-15.64l87.31-52.53a18.82,18.82,0,0,1,19.25,0l87.31,52.53a9,9,0,0,1,0,15.64l-87.3,52.62A18.86,18.86,0,0,1,225.51,259.92Z"/></g></g></g></g></svg>