<?xml version="1.0" encoding="utf-8"?>
<!-- Generator: Adobe Illustrator 16.0.0, SVG Export Plug-In . SVG Version: 6.00 Build 0)  -->
<!DOCTYPE svg PUBLIC "-//W3C//DTD SVG 1.1//EN" "http://www.w3.org/Graphics/SVG/1.1/DTD/svg11.dtd">
<svg version="1.1" id="Capa_1" xmlns="http://www.w3.org/2000/svg" xmlns:xlink="http://www.w3.org/1999/xlink" x="0px" y="0px"
	 width="40px" height="40px" viewBox="0 0 40 40" enable-background="new 0 0 40 40" xml:space="preserve">
<g>
	<g>
		<path opacity="0" fill-rule="evenodd" clip-rule="evenodd" fill="#EDEDED" d="M31.507,40.937c-1.531,0-2.772-1.242-2.772-2.773
			c0-1.083,0.626-2.01,1.531-2.467v-1.794h2.482v1.796c0.905,0.458,1.531,1.384,1.531,2.465
			C34.28,39.694,33.039,40.937,31.507,40.937z M26.374,25.541c0-2.834,2.303-5.136,5.135-5.136c2.83,0,5.133,2.302,5.133,5.136
			v3.936H26.374V25.541z M38.072,29.477v-3.936c0-3.622-2.944-6.567-6.564-6.567c-3.621,0-6.565,2.945-6.565,6.567v3.936h-1.841
			v16.19h16.811v-16.19H38.072z"/>
		<path opacity="0.0012" fill-rule="evenodd" clip-rule="evenodd" fill="#EBEBEB" d="M31.371,40.826
			c-1.531,0-2.772-1.242-2.772-2.773c0-1.083,0.626-2.01,1.531-2.467v-1.794h2.482v1.796c0.905,0.458,1.531,1.384,1.531,2.465
			C34.144,39.584,32.902,40.826,31.371,40.826z M26.237,25.431c0-2.834,2.303-5.136,5.135-5.136c2.831,0,5.133,2.302,5.133,5.136
			v3.936H26.237V25.431z M37.936,29.366v-3.936c0-3.622-2.944-6.567-6.564-6.567c-3.621,0-6.565,2.945-6.565,6.567v3.936h-1.841
			v16.19h16.811v-16.19H37.936z"/>
		<path opacity="0.0024" fill-rule="evenodd" clip-rule="evenodd" fill="#EAEAEA" d="M31.234,40.716
			c-1.531,0-2.772-1.242-2.772-2.773c0-1.083,0.626-2.01,1.531-2.467v-1.794h2.482v1.796c0.905,0.458,1.531,1.384,1.531,2.465
			C34.007,39.474,32.765,40.716,31.234,40.716z M26.1,25.32c0-2.834,2.303-5.136,5.135-5.136c2.83,0,5.132,2.302,5.132,5.136v3.936
			H26.1V25.32z M37.799,29.256V25.32c0-3.622-2.944-6.567-6.564-6.567c-3.621,0-6.565,2.945-6.565,6.567v3.936h-1.841v16.19h16.811
			v-16.19H37.799z"/>
		<path opacity="0.0036" fill-rule="evenodd" clip-rule="evenodd" fill="#E9E9E9" d="M31.097,40.605
			c-1.531,0-2.771-1.242-2.771-2.773c0-1.083,0.626-2.01,1.531-2.467v-1.794h2.483v1.796c0.904,0.458,1.531,1.384,1.531,2.465
			C33.87,39.363,32.628,40.605,31.097,40.605z M25.963,25.21c0-2.834,2.303-5.135,5.135-5.135c2.83,0,5.133,2.301,5.133,5.135v3.936
			H25.963V25.21z M37.662,29.146V25.21c0-3.622-2.944-6.567-6.564-6.567c-3.621,0-6.565,2.945-6.565,6.567v3.936h-1.841v16.19
			h16.811v-16.19H37.662z"/>
		<path opacity="0.0047" fill-rule="evenodd" clip-rule="evenodd" fill="#E8E7E8" d="M30.96,40.495
			c-1.531,0-2.772-1.242-2.772-2.773c0-1.083,0.626-2.01,1.531-2.467v-1.794h2.482v1.796c0.905,0.458,1.531,1.384,1.531,2.465
			C33.733,39.253,32.491,40.495,30.96,40.495z M25.827,25.1c0-2.834,2.303-5.136,5.135-5.136c2.83,0,5.133,2.302,5.133,5.136v3.936
			H25.827V25.1z M37.525,29.035V25.1c0-3.622-2.944-6.567-6.563-6.567c-3.621,0-6.565,2.945-6.565,6.567v3.936h-1.841v16.19h16.811
			v-16.19H37.525z"/>
		<path opacity="0.0059" fill-rule="evenodd" clip-rule="evenodd" fill="#E6E6E6" d="M30.824,40.385
			c-1.532,0-2.772-1.242-2.772-2.773c0-1.083,0.626-2.01,1.531-2.467v-1.794h2.482v1.796c0.905,0.458,1.532,1.384,1.532,2.465
			C33.597,39.143,32.355,40.385,30.824,40.385z M25.69,24.989c0-2.834,2.303-5.136,5.135-5.136c2.83,0,5.132,2.302,5.132,5.136
			v3.936H25.69V24.989z M37.389,28.925v-3.936c0-3.622-2.944-6.567-6.563-6.567c-3.621,0-6.566,2.945-6.566,6.567v3.936h-1.841
			v16.19h16.811v-16.19H37.389z"/>
		<path opacity="0.0071" fill-rule="evenodd" clip-rule="evenodd" fill="#E5E5E5" d="M30.687,40.274
			c-1.531,0-2.772-1.242-2.772-2.773c0-1.083,0.626-2.01,1.531-2.467V33.24h2.482v1.796c0.905,0.458,1.532,1.384,1.532,2.465
			C33.46,39.032,32.218,40.274,30.687,40.274z M25.553,24.879c0-2.834,2.303-5.136,5.134-5.136c2.831,0,5.133,2.302,5.133,5.136
			v3.936H25.553V24.879z M37.252,28.814v-3.936c0-3.622-2.945-6.567-6.564-6.567c-3.62,0-6.565,2.945-6.565,6.567v3.936h-1.841
			v16.19h16.81v-16.19H37.252z"/>
		<path opacity="0.0083" fill-rule="evenodd" clip-rule="evenodd" fill="#E4E3E4" d="M30.55,40.164
			c-1.531,0-2.771-1.242-2.771-2.773c0-1.083,0.626-2.009,1.531-2.467V33.13h2.482v1.796c0.905,0.458,1.531,1.384,1.531,2.465
			C33.323,38.922,32.082,40.164,30.55,40.164z M25.417,24.769c0-2.834,2.304-5.136,5.135-5.136c2.83,0,5.133,2.302,5.133,5.136
			v3.936H25.417V24.769z M37.116,28.704v-3.936c0-3.622-2.945-6.567-6.564-6.567c-3.621,0-6.565,2.945-6.565,6.567v3.936h-1.841
			v16.19h16.811v-16.19H37.116z"/>
		<path opacity="0.0095" fill-rule="evenodd" clip-rule="evenodd" fill="#E3E2E3" d="M30.414,40.055
			c-1.531,0-2.771-1.242-2.771-2.773c0-1.083,0.626-2.01,1.531-2.468V33.02h2.482v1.797c0.905,0.458,1.531,1.384,1.531,2.465
			C33.187,38.812,31.945,40.055,30.414,40.055z M25.28,24.659c0-2.834,2.303-5.136,5.134-5.136c2.831,0,5.133,2.302,5.133,5.136
			v3.935H25.28V24.659z M36.979,28.594v-3.935c0-3.622-2.945-6.568-6.564-6.568c-3.621,0-6.565,2.946-6.565,6.568v3.935h-1.841
			v16.191h16.81V28.594H36.979z"/>
		<path opacity="0.0107" fill-rule="evenodd" clip-rule="evenodd" fill="#E1E1E1" d="M30.277,39.944
			c-1.531,0-2.771-1.243-2.771-2.774c0-1.083,0.626-2.01,1.531-2.467v-1.794h2.482v1.796c0.905,0.458,1.531,1.384,1.531,2.465
			C33.05,38.701,31.808,39.944,30.277,39.944z M25.143,24.548c0-2.833,2.303-5.135,5.135-5.135c2.83,0,5.133,2.302,5.133,5.135
			v3.936H25.143V24.548z M36.842,28.483v-3.936c0-3.622-2.944-6.567-6.564-6.567c-3.621,0-6.565,2.945-6.565,6.567v3.936h-1.841
			v16.191h16.811V28.483H36.842z"/>
		<path opacity="0.0118" fill-rule="evenodd" clip-rule="evenodd" fill="#E0DFE0" d="M30.14,39.833
			c-1.531,0-2.772-1.242-2.772-2.773c0-1.083,0.626-2.01,1.531-2.467v-1.794h2.482v1.796c0.905,0.458,1.531,1.384,1.531,2.465
			C32.913,38.591,31.671,39.833,30.14,39.833z M25.006,24.438c0-2.834,2.304-5.136,5.135-5.136c2.83,0,5.133,2.302,5.133,5.136
			v3.936H25.006V24.438z M36.705,28.373v-3.936c0-3.622-2.945-6.567-6.564-6.567c-3.621,0-6.565,2.945-6.565,6.567v3.936h-1.841
			v16.191h16.811V28.373H36.705z"/>
		<path opacity="0.013" fill-rule="evenodd" clip-rule="evenodd" fill="#DFDEDF" d="M30.003,39.723
			c-1.531,0-2.771-1.241-2.771-2.773c0-1.083,0.626-2.01,1.531-2.467v-1.794h2.482v1.797c0.904,0.458,1.531,1.383,1.531,2.464
			C32.776,38.481,31.535,39.723,30.003,39.723z M24.87,24.328c0-2.835,2.303-5.136,5.135-5.136c2.831,0,5.133,2.301,5.133,5.136
			v3.935H24.87V24.328z M36.568,28.263v-3.935c0-3.623-2.944-6.568-6.564-6.568c-3.62,0-6.565,2.945-6.565,6.568v3.935h-1.84v16.191
			h16.811V28.263H36.568z"/>
		<path opacity="0.0142" fill-rule="evenodd" clip-rule="evenodd" fill="#DDDDDD" d="M29.867,39.613
			c-1.531,0-2.772-1.242-2.772-2.773c0-1.083,0.626-2.01,1.531-2.467v-1.794h2.482v1.796c0.905,0.458,1.532,1.383,1.532,2.465
			C32.64,38.371,31.398,39.613,29.867,39.613z M24.733,24.218c0-2.834,2.303-5.136,5.135-5.136c2.83,0,5.133,2.302,5.133,5.136
			v3.936H24.733V24.218z M36.432,28.153v-3.936c0-3.623-2.944-6.567-6.563-6.567c-3.621,0-6.565,2.945-6.565,6.567v3.936h-1.841
			v16.19h16.811v-16.19H36.432z"/>
		<path opacity="0.0154" fill-rule="evenodd" clip-rule="evenodd" fill="#DCDBDC" d="M29.73,39.502
			c-1.532,0-2.772-1.241-2.772-2.772c0-1.083,0.626-2.01,1.531-2.467v-1.795h2.482v1.796c0.905,0.458,1.531,1.384,1.531,2.466
			C32.503,38.261,31.262,39.502,29.73,39.502z M24.597,24.107c0-2.834,2.303-5.136,5.135-5.136c2.83,0,5.132,2.302,5.132,5.136
			v3.936H24.597V24.107z M36.295,28.043v-3.936c0-3.623-2.944-6.568-6.564-6.568c-3.621,0-6.566,2.945-6.566,6.568v3.936h-1.841
			v16.19h16.811v-16.19H36.295z"/>
		<path opacity="0.0166" fill-rule="evenodd" clip-rule="evenodd" fill="#DBDADB" d="M29.593,39.393
			c-1.531,0-2.772-1.243-2.772-2.774c0-1.083,0.626-2.01,1.531-2.466v-1.795h2.482v1.796c0.905,0.458,1.531,1.384,1.531,2.465
			C32.366,38.149,31.125,39.393,29.593,39.393z M24.459,23.996c0-2.834,2.303-5.135,5.135-5.135c2.83,0,5.133,2.301,5.133,5.135
			v3.936H24.459V23.996z M36.158,27.932v-3.936c0-3.622-2.944-6.567-6.564-6.567c-3.621,0-6.565,2.945-6.565,6.567v3.936h-1.841
			v16.191h16.811V27.932H36.158z"/>
		<path opacity="0.0178" fill-rule="evenodd" clip-rule="evenodd" fill="#DAD9DA" d="M29.457,39.282
			c-1.532,0-2.772-1.242-2.772-2.773c0-1.083,0.626-2.011,1.531-2.467v-1.794h2.482v1.795c0.905,0.459,1.532,1.385,1.532,2.466
			C32.23,38.04,30.988,39.282,29.457,39.282z M24.323,23.887c0-2.834,2.303-5.136,5.135-5.136c2.83,0,5.133,2.302,5.133,5.136v3.936
			H24.323V23.887z M36.021,27.822v-3.936c0-3.622-2.944-6.568-6.563-6.568c-3.621,0-6.566,2.946-6.566,6.568v3.936h-1.84v16.19
			h16.811v-16.19H36.021z"/>
		<path opacity="0.0189" fill-rule="evenodd" clip-rule="evenodd" fill="#D8D7D8" d="M29.32,39.172
			c-1.531,0-2.772-1.242-2.772-2.773c0-1.083,0.626-2.01,1.531-2.467v-1.794h2.482v1.796c0.905,0.458,1.531,1.384,1.531,2.465
			C32.093,37.93,30.852,39.172,29.32,39.172z M24.187,23.776c0-2.834,2.304-5.136,5.135-5.136c2.83,0,5.133,2.302,5.133,5.136v3.936
			H24.187V23.776z M35.885,27.712v-3.936c0-3.622-2.944-6.567-6.564-6.567c-3.62,0-6.565,2.945-6.565,6.567v3.936h-1.841v16.19
			h16.811v-16.19H35.885z"/>
		<path opacity="0.0201" fill-rule="evenodd" clip-rule="evenodd" fill="#D7D6D7" d="M29.184,39.062
			c-1.531,0-2.772-1.242-2.772-2.773c0-1.083,0.626-2.01,1.531-2.467v-1.794h2.483v1.796c0.904,0.458,1.531,1.384,1.531,2.465
			C31.956,37.819,30.715,39.062,29.184,39.062z M24.049,23.665c0-2.833,2.304-5.135,5.135-5.135c2.83,0,5.133,2.302,5.133,5.135
			v3.937H24.049V23.665z M35.748,27.602v-3.937c0-3.621-2.944-6.567-6.564-6.567c-3.621,0-6.565,2.946-6.565,6.567v3.937h-1.841
			v16.19h16.811v-16.19H35.748z"/>
		<path opacity="0.0213" fill-rule="evenodd" clip-rule="evenodd" fill="#D6D5D6" d="M29.047,38.951
			c-1.531,0-2.772-1.242-2.772-2.773c0-1.084,0.627-2.01,1.531-2.468v-1.794h2.482v1.797c0.905,0.457,1.531,1.383,1.531,2.465
			C31.819,37.709,30.578,38.951,29.047,38.951z M23.913,23.555c0-2.833,2.303-5.135,5.135-5.135c2.83,0,5.133,2.302,5.133,5.135
			v3.936H23.913V23.555z M35.612,27.49v-3.936c0-3.621-2.945-6.567-6.564-6.567c-3.621,0-6.565,2.946-6.565,6.567v3.936h-1.841
			v16.191h16.811V27.49H35.612z"/>
		<path opacity="0.0225" fill-rule="evenodd" clip-rule="evenodd" fill="#D5D4D5" d="M28.91,38.841
			c-1.531,0-2.772-1.242-2.772-2.773c0-1.083,0.626-2.01,1.531-2.467v-1.795h2.482v1.797c0.905,0.457,1.531,1.384,1.531,2.465
			C31.683,37.599,30.441,38.841,28.91,38.841z M23.776,23.445c0-2.834,2.303-5.136,5.134-5.136c2.831,0,5.133,2.302,5.133,5.136
			v3.936H23.776V23.445z M35.475,27.381v-3.936c0-3.623-2.944-6.567-6.564-6.567s-6.565,2.945-6.565,6.567v3.936h-1.841v16.19
			h16.811v-16.19H35.475z"/>
		<path opacity="0.0237" fill-rule="evenodd" clip-rule="evenodd" fill="#D3D2D3" d="M28.773,38.73
			c-1.531,0-2.772-1.242-2.772-2.773c0-1.083,0.626-2.01,1.531-2.467v-1.794h2.482v1.796c0.905,0.458,1.531,1.384,1.531,2.465
			C31.546,37.488,30.305,38.73,28.773,38.73z M23.64,23.335c0-2.834,2.303-5.136,5.135-5.136c2.83,0,5.133,2.302,5.133,5.136v3.936
			H23.64V23.335z M35.338,27.271v-3.936c0-3.622-2.944-6.567-6.564-6.567c-3.62,0-6.565,2.945-6.565,6.567v3.936h-1.84v16.19h16.81
			v-16.19H35.338z"/>
		<path opacity="0.0249" fill-rule="evenodd" clip-rule="evenodd" fill="#D2D1D2" d="M28.636,38.62
			c-1.531,0-2.771-1.242-2.771-2.773c0-1.083,0.626-2.01,1.531-2.467v-1.795h2.482v1.797c0.905,0.458,1.532,1.384,1.532,2.465
			C31.41,37.378,30.168,38.62,28.636,38.62z M23.503,23.225c0-2.833,2.303-5.136,5.135-5.136c2.83,0,5.133,2.302,5.133,5.136v3.936
			H23.503V23.225z M35.202,27.16v-3.936c0-3.622-2.944-6.567-6.564-6.567c-3.621,0-6.565,2.945-6.565,6.567v3.936h-1.841v16.191
			h16.811V27.16H35.202z"/>
		<path opacity="0.026" fill-rule="evenodd" clip-rule="evenodd" fill="#D1D0D1" d="M28.5,38.51c-1.531,0-2.772-1.242-2.772-2.773
			c0-1.083,0.626-2.01,1.531-2.467v-1.795h2.482v1.797c0.905,0.457,1.531,1.383,1.531,2.465C31.272,37.268,30.031,38.51,28.5,38.51z
			 M23.366,23.113c0-2.833,2.303-5.135,5.135-5.135c2.831,0,5.133,2.302,5.133,5.135v3.937H23.366V23.113z M35.064,27.05v-3.937
			c0-3.621-2.944-6.566-6.564-6.566c-3.621,0-6.565,2.945-6.565,6.566v3.937h-1.841v16.19h16.811V27.05H35.064z"/>
		<path opacity="0.0272" fill-rule="evenodd" clip-rule="evenodd" fill="#D0CED0" d="M28.363,38.399
			c-1.531,0-2.772-1.242-2.772-2.773c0-1.083,0.626-2.01,1.531-2.467v-1.794h2.482v1.796c0.905,0.458,1.531,1.384,1.531,2.465
			C31.136,37.157,29.895,38.399,28.363,38.399z M23.229,23.004c0-2.834,2.303-5.136,5.135-5.136c2.83,0,5.133,2.302,5.133,5.136
			v3.936H23.229V23.004z M34.928,26.939v-3.936c0-3.622-2.944-6.567-6.563-6.567c-3.621,0-6.565,2.945-6.565,6.567v3.936h-1.841
			v16.191h16.811V26.939H34.928z"/>
		<path opacity="0.0284" fill-rule="evenodd" clip-rule="evenodd" fill="#CECDCE" d="M28.227,38.289
			c-1.531,0-2.772-1.242-2.772-2.773c0-1.083,0.626-2.01,1.532-2.467v-1.794h2.482v1.796C30.374,33.509,31,34.435,31,35.516
			C31,37.047,29.758,38.289,28.227,38.289z M23.093,22.894c0-2.833,2.303-5.135,5.135-5.135c2.831,0,5.133,2.302,5.133,5.135v3.936
			H23.093V22.894z M34.792,26.829v-3.936c0-3.622-2.945-6.567-6.564-6.567c-3.62,0-6.565,2.945-6.565,6.567v3.936h-1.841v16.191
			h16.811V26.829H34.792z"/>
		<path opacity="0.0296" fill-rule="evenodd" clip-rule="evenodd" fill="#CDCCCD" d="M28.09,38.179
			c-1.531,0-2.772-1.242-2.772-2.773c0-1.083,0.626-2.01,1.531-2.467v-1.794h2.482v1.796c0.905,0.458,1.531,1.384,1.531,2.465
			C30.863,36.937,29.621,38.179,28.09,38.179z M22.956,22.783c0-2.833,2.303-5.136,5.135-5.136c2.83,0,5.133,2.302,5.133,5.136
			v3.936H22.956V22.783z M34.655,26.719v-3.936c0-3.622-2.944-6.567-6.564-6.567c-3.62,0-6.565,2.945-6.565,6.567v3.936h-1.841
			V42.91h16.811V26.719H34.655z"/>
		<path opacity="0.0308" fill-rule="evenodd" clip-rule="evenodd" fill="#CCCBCC" d="M27.953,38.068
			c-1.532,0-2.772-1.242-2.772-2.773c0-1.083,0.627-2.01,1.532-2.467v-1.794h2.482v1.796c0.905,0.458,1.531,1.384,1.531,2.465
			C30.726,36.826,29.484,38.068,27.953,38.068z M22.819,22.673c0-2.834,2.303-5.136,5.135-5.136c2.83,0,5.132,2.302,5.132,5.136
			v3.936H22.819V22.673z M34.518,26.608v-3.936c0-3.622-2.945-6.567-6.564-6.567c-3.621,0-6.566,2.945-6.566,6.567v3.936h-1.841
			v16.19h16.811v-16.19H34.518z"/>
		<path opacity="0.032" fill-rule="evenodd" clip-rule="evenodd" fill="#CBC9CA" d="M27.816,37.958
			c-1.531,0-2.772-1.242-2.772-2.773c0-1.083,0.626-2.01,1.532-2.467v-1.794h2.482v1.796c0.905,0.458,1.532,1.384,1.532,2.465
			C30.59,36.716,29.348,37.958,27.816,37.958z M22.683,22.562c0-2.833,2.303-5.135,5.135-5.135c2.83,0,5.133,2.302,5.133,5.135
			v3.936H22.683V22.562z M34.381,26.498v-3.936c0-3.622-2.944-6.567-6.564-6.567c-3.621,0-6.565,2.945-6.565,6.567v3.936h-1.841
			v16.191h16.811V26.498H34.381z"/>
		<path opacity="0.0331" fill-rule="evenodd" clip-rule="evenodd" fill="#CAC8C9" d="M27.68,37.848
			c-1.532,0-2.772-1.241-2.772-2.773c0-1.082,0.627-2.01,1.532-2.467v-1.794h2.482v1.796c0.905,0.458,1.532,1.384,1.532,2.465
			C30.453,36.606,29.211,37.848,27.68,37.848z M22.546,22.452c0-2.833,2.303-5.135,5.134-5.135c2.83,0,5.133,2.302,5.133,5.135
			v3.937H22.546V22.452z M34.245,26.389v-3.937c0-3.622-2.944-6.566-6.564-6.566c-3.62,0-6.565,2.945-6.565,6.566v3.937h-1.84v16.19
			h16.811v-16.19H34.245z"/>
		<path opacity="0.0343" fill-rule="evenodd" clip-rule="evenodd" fill="#C9C7C8" d="M27.543,37.738
			c-1.531,0-2.772-1.242-2.772-2.774c0-1.083,0.626-2.009,1.532-2.467v-1.794h2.482v1.796c0.905,0.458,1.531,1.384,1.531,2.465
			C30.316,36.496,29.075,37.738,27.543,37.738z M22.409,22.342c0-2.833,2.304-5.135,5.135-5.135c2.83,0,5.133,2.302,5.133,5.135
			v3.936H22.409V22.342z M34.108,26.277v-3.936c0-3.622-2.945-6.567-6.564-6.567c-3.62,0-6.565,2.945-6.565,6.567v3.936h-1.841
			v16.191h16.811V26.277H34.108z"/>
		<path opacity="0.0355" fill-rule="evenodd" clip-rule="evenodd" fill="#C7C6C7" d="M27.406,37.627
			c-1.532,0-2.772-1.242-2.772-2.773c0-1.083,0.627-2.01,1.532-2.467v-1.795h2.482v1.797c0.905,0.458,1.532,1.384,1.532,2.465
			C30.179,36.385,28.938,37.627,27.406,37.627z M22.272,22.231c0-2.834,2.303-5.136,5.134-5.136c2.83,0,5.133,2.302,5.133,5.136
			v3.936H22.272V22.231z M33.971,26.167v-3.936c0-3.622-2.945-6.567-6.564-6.567c-3.62,0-6.565,2.945-6.565,6.567v3.936h-1.841
			v16.191h16.811V26.167H33.971z"/>
		<path opacity="0.0367" fill-rule="evenodd" clip-rule="evenodd" fill="#C6C4C5" d="M27.27,37.517
			c-1.531,0-2.772-1.241-2.772-2.773c0-1.083,0.626-2.01,1.532-2.467v-1.794h2.482v1.796c0.905,0.458,1.532,1.384,1.532,2.465
			C30.043,36.275,28.801,37.517,27.27,37.517z M22.136,22.121c0-2.833,2.303-5.136,5.135-5.136c2.83,0,5.133,2.303,5.133,5.136
			v3.936H22.136V22.121z M33.834,26.057v-3.936c0-3.622-2.944-6.567-6.564-6.567c-3.621,0-6.565,2.945-6.565,6.567v3.936h-1.841
			v16.191h16.811V26.057H33.834z"/>
		<path opacity="0.0379" fill-rule="evenodd" clip-rule="evenodd" fill="#C5C3C4" d="M27.133,37.407
			c-1.532,0-2.772-1.242-2.772-2.773c0-1.083,0.627-2.01,1.532-2.467v-1.795h2.482v1.796c0.905,0.459,1.531,1.385,1.531,2.466
			C29.906,36.165,28.665,37.407,27.133,37.407z M21.999,22.011c0-2.833,2.304-5.135,5.135-5.135c2.831,0,5.133,2.302,5.133,5.135
			v3.937H21.999V22.011z M33.698,25.947v-3.937c0-3.621-2.945-6.566-6.564-6.566c-3.62,0-6.565,2.945-6.565,6.566v3.937h-1.84v16.19
			h16.811v-16.19H33.698z"/>
		<path opacity="0.0391" fill-rule="evenodd" clip-rule="evenodd" fill="#C4C2C3" d="M26.996,37.296
			c-1.531,0-2.772-1.241-2.772-2.772c0-1.084,0.626-2.011,1.532-2.467v-1.795h2.482v1.796c0.905,0.458,1.532,1.384,1.532,2.466
			C29.77,36.055,28.527,37.296,26.996,37.296z M21.863,21.9c0-2.833,2.303-5.135,5.134-5.135c2.83,0,5.133,2.302,5.133,5.135v3.936
			H21.863V21.9z M33.561,25.836V21.9c0-3.621-2.944-6.567-6.564-6.567s-6.565,2.946-6.565,6.567v3.936h-1.841v16.191h16.811V25.836
			H33.561z"/>
		<path opacity="0.0402" fill-rule="evenodd" clip-rule="evenodd" fill="#C3C1C2" d="M26.859,37.186
			c-1.531,0-2.772-1.242-2.772-2.773c0-1.082,0.626-2.01,1.532-2.467v-1.794h2.482v1.796c0.905,0.458,1.531,1.384,1.531,2.465
			C29.632,35.943,28.391,37.186,26.859,37.186z M21.726,21.79c0-2.833,2.303-5.135,5.135-5.135c2.83,0,5.133,2.302,5.133,5.135
			v3.936H21.726V21.79z M33.424,25.726V21.79c0-3.622-2.944-6.567-6.563-6.567c-3.621,0-6.565,2.945-6.565,6.567v3.936h-1.841
			v16.191h16.811V25.726H33.424z"/>
		<path opacity="0.0414" fill-rule="evenodd" clip-rule="evenodd" fill="#C1C0C1" d="M26.723,37.076
			c-1.531,0-2.772-1.242-2.772-2.773c0-1.083,0.626-2.01,1.532-2.467v-1.795h2.482v1.797c0.905,0.457,1.531,1.383,1.531,2.465
			C29.496,35.834,28.254,37.076,26.723,37.076z M21.589,21.68c0-2.833,2.304-5.135,5.135-5.135c2.831,0,5.133,2.302,5.133,5.135
			v3.936H21.589V21.68z M33.288,25.615V21.68c0-3.622-2.944-6.567-6.564-6.567s-6.565,2.945-6.565,6.567v3.936h-1.841v16.191h16.811
			V25.615H33.288z"/>
		<path opacity="0.0426" fill-rule="evenodd" clip-rule="evenodd" fill="#C0BEBF" d="M26.586,36.966
			c-1.532,0-2.772-1.242-2.772-2.773c0-1.083,0.626-2.01,1.532-2.467v-1.795h2.482v1.797c0.905,0.458,1.531,1.384,1.531,2.465
			C29.359,35.724,28.118,36.966,26.586,36.966z M21.453,21.57c0-2.834,2.303-5.136,5.135-5.136c2.83,0,5.133,2.302,5.133,5.136
			v3.936H21.453V21.57z M33.151,25.506V21.57c0-3.622-2.944-6.567-6.564-6.567c-3.621,0-6.565,2.945-6.565,6.567v3.936h-1.841
			v16.191h16.811V25.506H33.151z"/>
		<path opacity="0.0438" fill-rule="evenodd" clip-rule="evenodd" fill="#BFBDBE" d="M26.449,36.855
			c-1.531,0-2.772-1.242-2.772-2.773c0-1.083,0.626-2.01,1.531-2.468V29.82h2.482v1.797c0.905,0.457,1.532,1.383,1.532,2.465
			C29.223,35.613,27.981,36.855,26.449,36.855z M21.315,21.459c0-2.833,2.303-5.135,5.135-5.135c2.83,0,5.132,2.302,5.132,5.135
			v3.936H21.315V21.459z M33.015,25.395v-3.936c0-3.621-2.944-6.566-6.564-6.566c-3.621,0-6.565,2.945-6.565,6.566v3.936h-1.841
			v16.191h16.811V25.395H33.015z"/>
		<path opacity="0.045" fill-rule="evenodd" clip-rule="evenodd" fill="#BEBCBD" d="M26.312,36.744
			c-1.531,0-2.772-1.241-2.772-2.773c0-1.082,0.626-2.01,1.531-2.467V29.71h2.482v1.796c0.905,0.458,1.531,1.384,1.531,2.465
			C29.085,35.503,27.844,36.744,26.312,36.744z M21.179,21.349c0-2.833,2.304-5.135,5.135-5.135c2.83,0,5.133,2.302,5.133,5.135
			v3.937H21.179V21.349z M32.877,25.285v-3.937c0-3.621-2.944-6.566-6.564-6.566c-3.621,0-6.565,2.945-6.565,6.566v3.937h-1.841
			v16.19h16.811v-16.19H32.877z"/>
		<path opacity="0.0462" fill-rule="evenodd" clip-rule="evenodd" fill="#BDBBBC" d="M26.176,36.635
			c-1.531,0-2.771-1.242-2.771-2.773c0-1.083,0.626-2.01,1.531-2.467V29.6h2.482v1.796c0.905,0.458,1.531,1.384,1.531,2.466
			C28.949,35.393,27.708,36.635,26.176,36.635z M21.042,21.238c0-2.833,2.304-5.135,5.135-5.135c2.83,0,5.133,2.302,5.133,5.135
			v3.937H21.042V21.238z M32.741,25.175v-3.937c0-3.621-2.944-6.566-6.563-6.566c-3.621,0-6.565,2.945-6.565,6.566v3.937h-1.841
			v16.19h16.811v-16.19H32.741z"/>
		<path opacity="0.0473" fill-rule="evenodd" clip-rule="evenodd" fill="#BCBABB" d="M26.04,36.524
			c-1.531,0-2.772-1.242-2.772-2.773c0-1.083,0.626-2.01,1.531-2.467V29.49h2.482v1.796c0.905,0.457,1.531,1.384,1.531,2.465
			C28.812,35.282,27.571,36.524,26.04,36.524z M20.905,21.129c0-2.833,2.304-5.136,5.135-5.136s5.133,2.303,5.133,5.136v3.936
			H20.905V21.129z M32.604,25.064v-3.936c0-3.622-2.944-6.567-6.564-6.567s-6.565,2.945-6.565,6.567v3.936h-1.841v16.191h16.811
			V25.064H32.604z"/>
		<path opacity="0.0485" fill-rule="evenodd" clip-rule="evenodd" fill="#BAB8B9" d="M25.903,36.414
			c-1.531,0-2.772-1.242-2.772-2.773c0-1.083,0.626-2.01,1.531-2.467v-1.795h2.482v1.797c0.904,0.457,1.531,1.384,1.531,2.465
			C28.676,35.172,27.434,36.414,25.903,36.414z M20.769,21.019c0-2.833,2.303-5.136,5.134-5.136c2.83,0,5.133,2.302,5.133,5.136
			v3.935H20.769V21.019z M32.468,24.953v-3.935c0-3.622-2.944-6.567-6.564-6.567s-6.565,2.945-6.565,6.567v3.935h-1.841v16.192
			h16.812V24.953H32.468z"/>
		<path opacity="0.0497" fill-rule="evenodd" clip-rule="evenodd" fill="#B9B7B8" d="M25.766,36.304
			c-1.531,0-2.771-1.242-2.771-2.773c0-1.083,0.626-2.011,1.531-2.467v-1.795h2.482v1.796c0.905,0.458,1.531,1.385,1.531,2.466
			C28.539,35.062,27.297,36.304,25.766,36.304z M20.632,20.908c0-2.833,2.304-5.135,5.135-5.135c2.83,0,5.133,2.302,5.133,5.135
			v3.936H20.632V20.908z M32.331,24.844v-3.936c0-3.622-2.944-6.567-6.564-6.567c-3.621,0-6.565,2.945-6.565,6.567v3.936H17.36
			v16.19h16.811v-16.19H32.331z"/>
		<path opacity="0.0509" fill-rule="evenodd" clip-rule="evenodd" fill="#B8B6B7" d="M25.629,36.193
			c-1.531,0-2.772-1.242-2.772-2.773c0-1.083,0.626-2.01,1.531-2.467v-1.795h2.482v1.797c0.905,0.457,1.531,1.384,1.531,2.465
			C28.402,34.951,27.161,36.193,25.629,36.193z M20.496,20.798c0-2.834,2.303-5.136,5.134-5.136c2.83,0,5.134,2.302,5.134,5.136
			v3.936H20.496V20.798z M32.194,24.733v-3.936c0-3.622-2.944-6.567-6.564-6.567s-6.565,2.945-6.565,6.567v3.936h-1.84v16.191
			h16.811V24.733H32.194z"/>
		<path opacity="0.0521" fill-rule="evenodd" clip-rule="evenodd" fill="#B7B5B6" d="M25.493,36.084
			c-1.532,0-2.772-1.242-2.772-2.774c0-1.083,0.627-2.01,1.531-2.467v-1.795h2.483v1.797c0.904,0.458,1.531,1.384,1.531,2.465
			C28.266,34.842,27.024,36.084,25.493,36.084z M20.359,20.688c0-2.833,2.303-5.136,5.135-5.136c2.83,0,5.133,2.303,5.133,5.136
			v3.936H20.359V20.688z M32.058,24.623v-3.936c0-3.622-2.944-6.567-6.564-6.567c-3.62,0-6.565,2.945-6.565,6.567v3.936h-1.841
			v16.191h16.811V24.623H32.058z"/>
		<path opacity="0.0533" fill-rule="evenodd" clip-rule="evenodd" fill="#B6B4B5" d="M25.356,35.973
			c-1.531,0-2.772-1.242-2.772-2.773c0-1.083,0.626-2.01,1.531-2.467v-1.795h2.482v1.797c0.905,0.457,1.531,1.384,1.531,2.465
			C28.129,34.73,26.888,35.973,25.356,35.973z M20.222,20.577c0-2.833,2.304-5.136,5.135-5.136c2.831,0,5.133,2.302,5.133,5.136
			v3.935H20.222V20.577z M31.921,24.512v-3.935c0-3.622-2.944-6.567-6.564-6.567s-6.565,2.945-6.565,6.567v3.935H16.95v16.192
			h16.812V24.512H31.921z"/>
		<path opacity="0.0544" fill-rule="evenodd" clip-rule="evenodd" fill="#B5B2B3" d="M25.219,35.862
			c-1.532,0-2.772-1.242-2.772-2.773c0-1.083,0.626-2.01,1.531-2.467v-1.795h2.482v1.796c0.905,0.458,1.532,1.385,1.532,2.466
			C27.992,34.62,26.75,35.862,25.219,35.862z M20.085,20.467c0-2.834,2.303-5.136,5.135-5.136c2.83,0,5.133,2.302,5.133,5.136v3.936
			H20.085V20.467z M31.784,24.402v-3.936c0-3.622-2.945-6.567-6.564-6.567c-3.62,0-6.565,2.945-6.565,6.567v3.936h-1.841v16.191
			h16.811V24.402H31.784z"/>
		<path opacity="0.0556" fill-rule="evenodd" clip-rule="evenodd" fill="#B3B1B2" d="M25.082,35.752
			c-1.53,0-2.771-1.242-2.771-2.773c0-1.083,0.626-2.01,1.531-2.467v-1.795h2.482v1.797c0.905,0.458,1.531,1.384,1.531,2.465
			C27.855,34.51,26.614,35.752,25.082,35.752z M19.948,20.356c0-2.833,2.304-5.135,5.135-5.135c2.83,0,5.132,2.302,5.132,5.135
			v3.936H19.948V20.356z M31.647,24.292v-3.936c0-3.622-2.944-6.567-6.564-6.567c-3.621,0-6.566,2.945-6.566,6.567v3.936h-1.84
			v16.191h16.811V24.292H31.647z"/>
		<path opacity="0.0568" fill-rule="evenodd" clip-rule="evenodd" fill="#B2B0B1" d="M24.946,35.642
			c-1.531,0-2.772-1.241-2.772-2.772c0-1.084,0.626-2.01,1.532-2.468v-1.794h2.482v1.796c0.905,0.458,1.531,1.384,1.531,2.466
			C27.719,34.4,26.478,35.642,24.946,35.642z M19.812,20.246c0-2.833,2.303-5.135,5.135-5.135c2.83,0,5.133,2.302,5.133,5.135v3.936
			H19.812V20.246z M31.511,24.182v-3.936c0-3.622-2.945-6.566-6.564-6.566c-3.621,0-6.565,2.945-6.565,6.566v3.936h-1.841v16.191
			h16.811V24.182H31.511z"/>
		<path opacity="0.058" fill-rule="evenodd" clip-rule="evenodd" fill="#B1AFB0" d="M24.809,35.531c-1.53,0-2.771-1.242-2.771-2.772
			c0-1.083,0.626-2.011,1.531-2.468v-1.794h2.482v1.796c0.905,0.457,1.531,1.383,1.531,2.466
			C27.582,34.289,26.341,35.531,24.809,35.531z M19.675,20.136c0-2.833,2.303-5.136,5.135-5.136c2.83,0,5.133,2.303,5.133,5.136
			v3.936H19.675V20.136z M31.374,24.071v-3.936c0-3.622-2.944-6.567-6.564-6.567c-3.621,0-6.566,2.945-6.566,6.567v3.936h-1.841
			v16.191h16.812V24.071H31.374z"/>
		<path opacity="0.0592" fill-rule="evenodd" clip-rule="evenodd" fill="#B0AEAF" d="M24.672,35.421
			c-1.531,0-2.771-1.241-2.771-2.772c0-1.084,0.626-2.011,1.531-2.468v-1.795h2.482v1.797c0.905,0.457,1.531,1.384,1.531,2.466
			C27.445,34.18,26.203,35.421,24.672,35.421z M19.538,20.025c0-2.833,2.303-5.135,5.135-5.135c2.83,0,5.133,2.303,5.133,5.135
			v3.936H19.538V20.025z M31.237,23.961v-3.936c0-3.622-2.944-6.566-6.563-6.566c-3.621,0-6.566,2.945-6.566,6.566v3.936h-1.841
			v16.191h16.811V23.961H31.237z"/>
		<path opacity="0.0604" fill-rule="evenodd" clip-rule="evenodd" fill="#AFADAE" d="M24.536,35.311
			c-1.532,0-2.772-1.242-2.772-2.772c0-1.083,0.626-2.011,1.531-2.468v-1.795h2.482v1.797c0.905,0.458,1.531,1.384,1.531,2.466
			C27.309,34.068,26.067,35.311,24.536,35.311z M19.402,19.915c0-2.833,2.303-5.135,5.135-5.135c2.829,0,5.132,2.302,5.132,5.135
			v3.936H19.402V19.915z M31.101,23.851v-3.936c0-3.622-2.944-6.566-6.563-6.566c-3.621,0-6.566,2.945-6.566,6.566v3.936H16.13
			v16.191h16.811V23.851H31.101z"/>
		<path opacity="0.0615" fill-rule="evenodd" clip-rule="evenodd" fill="#AEABAC" d="M24.399,35.201
			c-1.531,0-2.772-1.242-2.772-2.773c0-1.083,0.627-2.01,1.532-2.467v-1.795h2.482v1.797c0.905,0.457,1.531,1.383,1.531,2.465
			C27.172,33.959,25.931,35.201,24.399,35.201z M19.266,19.805c0-2.833,2.303-5.135,5.134-5.135c2.831,0,5.133,2.302,5.133,5.135
			v3.936H19.266V19.805z M30.964,23.74v-3.936c0-3.621-2.944-6.566-6.564-6.566c-3.62,0-6.565,2.945-6.565,6.566v3.936h-1.841
			v16.192h16.811V23.74H30.964z"/>
		<path opacity="0.0627" fill-rule="evenodd" clip-rule="evenodd" fill="#ADAAAB" d="M24.262,35.09
			c-1.532,0-2.772-1.241-2.772-2.772c0-1.083,0.626-2.011,1.532-2.468v-1.795h2.482v1.797c0.905,0.457,1.531,1.384,1.531,2.466
			C27.035,33.849,25.793,35.09,24.262,35.09z M19.128,19.694c0-2.833,2.303-5.135,5.134-5.135s5.134,2.302,5.134,5.135v3.936H19.128
			V19.694z M30.827,23.63v-3.936c0-3.621-2.944-6.566-6.564-6.566s-6.565,2.945-6.565,6.566v3.936h-1.841v16.192h16.812V23.63
			H30.827z"/>
		<path opacity="0.0639" fill-rule="evenodd" clip-rule="evenodd" fill="#ACA9AA" d="M24.125,34.98
			c-1.531,0-2.771-1.242-2.771-2.773c0-1.084,0.626-2.011,1.531-2.468v-1.794h2.482v1.796c0.904,0.458,1.531,1.384,1.531,2.466
			C26.898,33.738,25.657,34.98,24.125,34.98z M18.991,19.583c0-2.833,2.304-5.135,5.135-5.135c2.83,0,5.133,2.303,5.133,5.135v3.936
			H18.991V19.583z M30.69,23.52v-3.936c0-3.621-2.944-6.566-6.564-6.566s-6.565,2.945-6.565,6.566v3.936H15.72v16.191h16.812V23.52
			H30.69z"/>
		<path opacity="0.0651" fill-rule="evenodd" clip-rule="evenodd" fill="#AAA8A9" d="M23.989,34.869
			c-1.532,0-2.772-1.241-2.772-2.772c0-1.083,0.627-2.011,1.532-2.468v-1.795h2.482v1.797c0.905,0.458,1.532,1.384,1.532,2.466
			C26.762,33.628,25.521,34.869,23.989,34.869z M18.855,19.474c0-2.833,2.303-5.135,5.134-5.135c2.831,0,5.133,2.302,5.133,5.135
			v3.936H18.855V19.474z M30.554,23.409v-3.936c0-3.621-2.944-6.566-6.564-6.566c-3.621,0-6.565,2.945-6.565,6.566v3.936h-1.841
			v16.192h16.811V23.409H30.554z"/>
		<path opacity="0.0663" fill-rule="evenodd" clip-rule="evenodd" fill="#A9A7A8" d="M23.853,34.76
			c-1.531,0-2.772-1.242-2.772-2.773c0-1.083,0.626-2.01,1.532-2.467v-1.795h2.481v1.796c0.905,0.458,1.532,1.384,1.532,2.466
			C26.625,33.518,25.384,34.76,23.853,34.76z M18.719,19.363c0-2.832,2.303-5.135,5.135-5.135c2.83,0,5.133,2.303,5.133,5.135V23.3
			H18.719V19.363z M30.417,23.3v-3.937c0-3.621-2.944-6.566-6.564-6.566c-3.621,0-6.565,2.945-6.565,6.566V23.3h-1.841v16.191
			h16.811V23.3H30.417z"/>
		<path opacity="0.0675" fill-rule="evenodd" clip-rule="evenodd" fill="#A8A6A7" d="M23.716,34.649
			c-1.532,0-2.772-1.242-2.772-2.773c0-1.083,0.627-2.011,1.532-2.467v-1.795h2.482v1.796c0.905,0.458,1.531,1.384,1.531,2.466
			C26.488,33.407,25.247,34.649,23.716,34.649z M18.582,19.253c0-2.833,2.303-5.135,5.135-5.135c2.83,0,5.133,2.302,5.133,5.135
			v3.937H18.582V19.253z M30.28,23.189v-3.937c0-3.621-2.944-6.566-6.563-6.566c-3.621,0-6.566,2.945-6.566,6.566v3.937h-1.84
			v16.191h16.811V23.189H30.28z"/>
		<path opacity="0.0686" fill-rule="evenodd" clip-rule="evenodd" fill="#A7A5A6" d="M23.579,34.538
			c-1.531,0-2.772-1.241-2.772-2.772c0-1.083,0.626-2.011,1.532-2.468v-1.795h2.482V29.3c0.905,0.458,1.531,1.384,1.531,2.466
			C26.352,33.297,25.11,34.538,23.579,34.538z M18.445,19.143c0-2.833,2.303-5.135,5.135-5.135c2.83,0,5.133,2.302,5.133,5.135
			v3.936H18.445V19.143z M30.144,23.078v-3.936c0-3.622-2.944-6.566-6.564-6.566c-3.621,0-6.565,2.945-6.565,6.566v3.936h-1.841
			V39.27h16.812V23.078H30.144z"/>
		<path opacity="0.0698" fill-rule="evenodd" clip-rule="evenodd" fill="#A6A3A4" d="M23.442,34.429
			c-1.532,0-2.772-1.242-2.772-2.773c0-1.083,0.627-2.01,1.532-2.468v-1.794h2.481v1.796c0.905,0.458,1.532,1.385,1.532,2.466
			C26.215,33.187,24.974,34.429,23.442,34.429z M18.308,19.032c0-2.833,2.303-5.135,5.135-5.135c2.83,0,5.133,2.302,5.133,5.135
			v3.936H18.308V19.032z M30.007,22.968v-3.936c0-3.621-2.944-6.566-6.563-6.566c-3.621,0-6.565,2.945-6.565,6.566v3.936h-1.841
			V39.16h16.811V22.968H30.007z"/>
		<path opacity="0.071" fill-rule="evenodd" clip-rule="evenodd" fill="#A5A2A3" d="M23.306,34.318
			c-1.531,0-2.772-1.242-2.772-2.773c0-1.083,0.626-2.01,1.532-2.467v-1.795h2.482v1.797c0.904,0.457,1.531,1.384,1.531,2.465
			C26.079,33.076,24.837,34.318,23.306,34.318z M18.172,18.922c0-2.833,2.304-5.135,5.135-5.135c2.83,0,5.133,2.303,5.133,5.135
			v3.936H18.172V18.922z M29.871,22.858v-3.936c0-3.622-2.944-6.566-6.564-6.566c-3.621,0-6.565,2.945-6.565,6.566v3.936H14.9V39.05
			h16.811V22.858H29.871z"/>
		<path opacity="0.0722" fill-rule="evenodd" clip-rule="evenodd" fill="#A4A1A2" d="M23.168,34.207
			c-1.531,0-2.772-1.241-2.772-2.772c0-1.083,0.626-2.011,1.532-2.468v-1.795h2.481v1.798c0.905,0.457,1.532,1.384,1.532,2.465
			C25.942,32.966,24.7,34.207,23.168,34.207z M18.035,18.812c0-2.833,2.303-5.135,5.135-5.135c2.83,0,5.133,2.302,5.133,5.135v3.937
			H18.035V18.812z M29.733,22.748v-3.937c0-3.621-2.944-6.566-6.563-6.566c-3.621,0-6.565,2.945-6.565,6.566v3.937h-1.841v16.191
			h16.811V22.748H29.733z"/>
		<path opacity="0.0734" fill-rule="evenodd" clip-rule="evenodd" fill="#A3A0A1" d="M23.031,34.098
			c-1.531,0-2.771-1.242-2.771-2.773c0-1.083,0.626-2.01,1.532-2.467v-1.795h2.482v1.797c0.905,0.457,1.531,1.383,1.531,2.465
			C25.805,32.855,24.563,34.098,23.031,34.098z M17.898,18.701c0-2.833,2.303-5.135,5.135-5.135c2.83,0,5.133,2.302,5.133,5.135
			v3.936H17.898V18.701z M29.597,22.637v-3.936c0-3.621-2.944-6.566-6.563-6.566c-3.621,0-6.566,2.945-6.566,6.566v3.936h-1.84
			v16.192h16.811V22.637H29.597z"/>
		<path opacity="0.0746" fill-rule="evenodd" clip-rule="evenodd" fill="#A29FA0" d="M22.896,33.987
			c-1.532,0-2.772-1.241-2.772-2.773c0-1.083,0.626-2.01,1.531-2.467v-1.795h2.482v1.796c0.905,0.458,1.531,1.385,1.531,2.466
			C25.668,32.746,24.427,33.987,22.896,33.987z M17.762,18.591c0-2.832,2.303-5.135,5.134-5.135c2.831,0,5.133,2.303,5.133,5.135
			v3.936H17.762V18.591z M29.46,22.526v-3.936c0-3.621-2.944-6.566-6.564-6.566c-3.62,0-6.565,2.945-6.565,6.566v3.936H14.49v16.192
			h16.811V22.526H29.46z"/>
		<path opacity="0.0757" fill-rule="evenodd" clip-rule="evenodd" fill="#A19E9F" d="M22.759,33.877
			c-1.531,0-2.772-1.242-2.772-2.773c0-1.082,0.626-2.01,1.532-2.467v-1.795H24v1.797c0.905,0.457,1.531,1.383,1.531,2.465
			C25.532,32.635,24.291,33.877,22.759,33.877z M17.625,18.481c0-2.833,2.303-5.136,5.135-5.136c2.83,0,5.133,2.303,5.133,5.136
			v3.936H17.625V18.481z M29.323,22.417v-3.936c0-3.622-2.944-6.566-6.563-6.566c-3.621,0-6.565,2.944-6.565,6.566v3.936h-1.841
			v16.192h16.811V22.417H29.323z"/>
		<path opacity="0.0769" fill-rule="evenodd" clip-rule="evenodd" fill="#A09D9E" d="M22.622,33.767
			c-1.531,0-2.772-1.241-2.772-2.772c0-1.084,0.626-2.011,1.531-2.468v-1.795h2.482v1.796c0.905,0.458,1.532,1.384,1.532,2.467
			C25.395,32.525,24.153,33.767,22.622,33.767z M17.488,18.371c0-2.833,2.303-5.135,5.135-5.135c2.83,0,5.133,2.302,5.133,5.135
			v3.936H17.488V18.371z M29.187,22.307v-3.936c0-3.622-2.944-6.566-6.563-6.566c-3.621,0-6.565,2.945-6.565,6.566v3.936h-1.841
			v16.191h16.811V22.307H29.187z"/>
		<path opacity="0.0781" fill-rule="evenodd" clip-rule="evenodd" fill="#9F9C9D" d="M22.485,33.656
			c-1.531,0-2.772-1.242-2.772-2.773c0-1.083,0.626-2.01,1.531-2.467v-1.795h2.482v1.797c0.905,0.457,1.531,1.383,1.531,2.465
			C25.258,32.414,24.017,33.656,22.485,33.656z M17.351,18.26c0-2.832,2.303-5.135,5.135-5.135c2.831,0,5.133,2.303,5.133,5.135
			v3.936H17.351V18.26z M29.05,22.195V18.26c0-3.621-2.944-6.566-6.564-6.566c-3.621,0-6.565,2.945-6.565,6.566v3.936h-1.84v16.192
			h16.811V22.195H29.05z"/>
		<path opacity="0.0793" fill-rule="evenodd" clip-rule="evenodd" fill="#9D9B9C" d="M22.349,33.546
			c-1.531,0-2.772-1.242-2.772-2.772c0-1.084,0.626-2.011,1.531-2.468v-1.795h2.482v1.797c0.905,0.457,1.531,1.383,1.531,2.466
			C25.121,32.304,23.88,33.546,22.349,33.546z M17.215,18.15c0-2.833,2.303-5.135,5.135-5.135c2.83,0,5.133,2.302,5.133,5.135v3.936
			H17.215V18.15z M28.914,22.086V18.15c0-3.621-2.945-6.566-6.564-6.566c-3.621,0-6.565,2.945-6.565,6.566v3.936h-1.841v16.191
			h16.811V22.086H28.914z"/>
		<path opacity="0.0805" fill-rule="evenodd" clip-rule="evenodd" fill="#9C9A9B" d="M22.212,33.436
			c-1.531,0-2.772-1.241-2.772-2.772c0-1.083,0.626-2.011,1.532-2.468V26.4h2.482v1.797c0.904,0.457,1.531,1.384,1.531,2.466
			C24.985,32.194,23.744,33.436,22.212,33.436z M17.078,18.04c0-2.833,2.303-5.135,5.135-5.135c2.83,0,5.133,2.302,5.133,5.135
			v3.936H17.078V18.04z M28.777,21.976V18.04c0-3.621-2.944-6.566-6.564-6.566c-3.62,0-6.565,2.945-6.565,6.566v3.936h-1.841v16.192
			h16.811V21.976H28.777z"/>
		<path opacity="0.0817" fill-rule="evenodd" clip-rule="evenodd" fill="#9B9899" d="M22.075,33.326
			c-1.531,0-2.772-1.242-2.772-2.773c0-1.084,0.626-2.011,1.532-2.468V26.29h2.481v1.797c0.905,0.457,1.532,1.384,1.532,2.466
			C24.848,32.084,23.606,33.326,22.075,33.326z M16.941,17.93c0-2.833,2.303-5.136,5.135-5.136c2.83,0,5.133,2.303,5.133,5.136
			v3.936H16.941V17.93z M28.64,21.865V17.93c0-3.622-2.944-6.566-6.563-6.566c-3.621,0-6.565,2.945-6.565,6.566v3.936H13.67v16.191
			h16.811V21.865H28.64z"/>
		<path opacity="0.0828" fill-rule="evenodd" clip-rule="evenodd" fill="#9A9798" d="M21.938,33.215
			c-1.531,0-2.772-1.242-2.772-2.773c0-1.083,0.627-2.01,1.532-2.467V26.18h2.482v1.797c0.905,0.457,1.531,1.383,1.531,2.465
			C24.711,31.973,23.47,33.215,21.938,33.215z M16.805,17.819c0-2.833,2.303-5.135,5.135-5.135c2.83,0,5.133,2.303,5.133,5.135
			v3.935H16.805V17.819z M28.503,21.754v-3.935c0-3.622-2.944-6.566-6.563-6.566c-3.621,0-6.566,2.944-6.566,6.566v3.935h-1.84
			v16.192h16.811V21.754H28.503z"/>
		<path opacity="0.084" fill-rule="evenodd" clip-rule="evenodd" fill="#999697" d="M21.802,33.104
			c-1.531,0-2.772-1.241-2.772-2.772c0-1.083,0.626-2.011,1.532-2.468v-1.795h2.481v1.797c0.905,0.457,1.532,1.384,1.532,2.466
			C24.575,31.863,23.333,33.104,21.802,33.104z M16.668,17.709c0-2.833,2.303-5.135,5.135-5.135c2.83,0,5.133,2.302,5.133,5.135
			v3.936H16.668V17.709z M28.366,21.645v-3.936c0-3.622-2.944-6.566-6.563-6.566c-3.62,0-6.565,2.944-6.565,6.566v3.936h-1.841
			v16.191h16.811V21.645H28.366z"/>
		<path opacity="0.0852" fill-rule="evenodd" clip-rule="evenodd" fill="#989596" d="M21.666,32.995
			c-1.531,0-2.772-1.242-2.772-2.773c0-1.083,0.627-2.011,1.532-2.468v-1.795h2.482v1.797c0.905,0.458,1.532,1.384,1.532,2.466
			C24.438,31.753,23.196,32.995,21.666,32.995z M16.531,17.599c0-2.832,2.303-5.135,5.135-5.135c2.83,0,5.133,2.303,5.133,5.135
			v3.936H16.531V17.599z M28.23,21.534v-3.936c0-3.621-2.944-6.566-6.564-6.566c-3.62,0-6.565,2.945-6.565,6.566v3.936H13.26v16.192
			h16.812V21.534H28.23z"/>
		<path opacity="0.0864" fill-rule="evenodd" clip-rule="evenodd" fill="#979495" d="M21.528,32.884
			c-1.531,0-2.772-1.241-2.772-2.772c0-1.083,0.626-2.011,1.532-2.468v-1.795h2.482v1.797c0.905,0.457,1.531,1.384,1.531,2.466
			C24.301,31.643,23.06,32.884,21.528,32.884z M16.395,17.488c0-2.833,2.304-5.135,5.135-5.135c2.83,0,5.133,2.302,5.133,5.135
			v3.936H16.395V17.488z M28.093,21.424v-3.936c0-3.622-2.944-6.566-6.564-6.566s-6.565,2.945-6.565,6.566v3.936h-1.841v16.191
			h16.811V21.424H28.093z"/>
		<path opacity="0.0876" fill-rule="evenodd" clip-rule="evenodd" fill="#969394" d="M21.391,32.773
			c-1.531,0-2.772-1.241-2.772-2.773c0-1.082,0.626-2.01,1.532-2.467v-1.795h2.481v1.797c0.905,0.457,1.532,1.383,1.532,2.465
			C24.165,31.532,22.923,32.773,21.391,32.773z M16.258,17.378c0-2.833,2.303-5.136,5.135-5.136c2.83,0,5.133,2.303,5.133,5.136
			v3.936H16.258V17.378z M27.956,21.313v-3.936c0-3.622-2.944-6.566-6.563-6.566c-3.621,0-6.565,2.945-6.565,6.566v3.936h-1.841
			v16.192h16.811V21.313H27.956z"/>
		<path opacity="0.0888" fill-rule="evenodd" clip-rule="evenodd" fill="#959293" d="M21.255,32.664
			c-1.531,0-2.771-1.242-2.771-2.773c0-1.083,0.626-2.011,1.531-2.468v-1.795h2.482v1.797c0.905,0.458,1.532,1.384,1.532,2.466
			C24.028,31.422,22.787,32.664,21.255,32.664z M16.121,17.268c0-2.832,2.303-5.135,5.135-5.135c2.83,0,5.133,2.303,5.133,5.135
			v3.936H16.121V17.268z M27.82,21.203v-3.936c0-3.621-2.944-6.566-6.564-6.566s-6.565,2.945-6.565,6.566v3.936H12.85v16.192h16.811
			V21.203H27.82z"/>
		<path opacity="0.0899" fill-rule="evenodd" clip-rule="evenodd" fill="#949192" d="M21.118,32.553
			c-1.531,0-2.771-1.24-2.771-2.772c0-1.083,0.626-2.01,1.531-2.467v-1.796h2.482v1.797c0.904,0.457,1.531,1.384,1.531,2.466
			C23.892,31.312,22.65,32.553,21.118,32.553z M15.984,17.157c0-2.832,2.304-5.135,5.135-5.135c2.83,0,5.133,2.303,5.133,5.135
			v3.936H15.984V17.157z M27.684,21.093v-3.936c0-3.621-2.944-6.566-6.564-6.566s-6.565,2.945-6.565,6.566v3.936h-1.841v16.192
			h16.812V21.093H27.684z"/>
		<path opacity="0.0911" fill-rule="evenodd" clip-rule="evenodd" fill="#939091" d="M20.981,32.443
			c-1.531,0-2.771-1.242-2.771-2.773c0-1.083,0.626-2.011,1.531-2.467v-1.795h2.482v1.796c0.904,0.457,1.531,1.384,1.531,2.466
			C23.755,31.201,22.513,32.443,20.981,32.443z M15.848,17.047c0-2.833,2.303-5.135,5.135-5.135c2.83,0,5.133,2.302,5.133,5.135
			v3.936H15.848V17.047z M27.546,20.982v-3.936c0-3.621-2.944-6.566-6.564-6.566s-6.565,2.945-6.565,6.566v3.936h-1.841v16.192
			h16.811V20.982H27.546z"/>
		<path opacity="0.0923" fill-rule="evenodd" clip-rule="evenodd" fill="#928F90" d="M20.845,32.332
			c-1.531,0-2.772-1.241-2.772-2.772c0-1.083,0.627-2.011,1.532-2.468v-1.795h2.481v1.797c0.905,0.457,1.532,1.384,1.532,2.466
			C23.618,31.091,22.376,32.332,20.845,32.332z M15.711,16.937c0-2.833,2.303-5.135,5.135-5.135c2.83,0,5.133,2.302,5.133,5.135
			v3.936H15.711V16.937z M27.41,20.872v-3.936c0-3.622-2.944-6.566-6.564-6.566c-3.62,0-6.565,2.945-6.565,6.566v3.936h-1.841
			v16.192H29.25V20.872H27.41z"/>
		<path opacity="0.0935" fill-rule="evenodd" clip-rule="evenodd" fill="#918E8F" d="M20.708,32.223
			c-1.531,0-2.771-1.242-2.771-2.773c0-1.083,0.626-2.01,1.531-2.468v-1.795h2.482v1.798c0.905,0.457,1.532,1.383,1.532,2.465
			C23.481,30.98,22.24,32.223,20.708,32.223z M15.574,16.826c0-2.832,2.304-5.135,5.135-5.135c2.83,0,5.133,2.303,5.133,5.135v3.936
			H15.574V16.826z M27.273,20.762v-3.936c0-3.621-2.944-6.566-6.564-6.566s-6.565,2.945-6.565,6.566v3.936h-1.841v16.192h16.811
			V20.762H27.273z"/>
		<path opacity="0.0947" fill-rule="evenodd" clip-rule="evenodd" fill="#908D8E" d="M20.572,32.112
			c-1.531,0-2.772-1.242-2.772-2.773c0-1.083,0.626-2.011,1.532-2.468v-1.794h2.482v1.796c0.905,0.457,1.531,1.384,1.531,2.466
			C23.345,30.87,22.104,32.112,20.572,32.112z M15.438,16.716c0-2.833,2.304-5.135,5.135-5.135c2.831,0,5.134,2.302,5.134,5.135
			v3.936H15.438V16.716z M27.137,20.652v-3.936c0-3.622-2.944-6.566-6.564-6.566s-6.565,2.944-6.565,6.566v3.936h-1.841v16.192
			h16.812V20.652H27.137z"/>
		<path opacity="0.0959" fill-rule="evenodd" clip-rule="evenodd" fill="#8F8C8D" d="M20.435,32.002
			c-1.531,0-2.771-1.242-2.771-2.773c0-1.083,0.626-2.01,1.531-2.467v-1.796h2.482v1.797c0.905,0.458,1.532,1.384,1.532,2.466
			C23.208,30.76,21.967,32.002,20.435,32.002z M15.301,16.605c0-2.833,2.304-5.135,5.135-5.135c2.83,0,5.133,2.302,5.133,5.135
			v3.936H15.301V16.605z M27,20.541v-3.936c0-3.621-2.944-6.566-6.564-6.566s-6.565,2.945-6.565,6.566v3.936h-1.841v16.192h16.812
			V20.541H27z"/>
		<path opacity="0.097" fill-rule="evenodd" clip-rule="evenodd" fill="#8E8B8C" d="M20.298,31.892
			c-1.531,0-2.772-1.242-2.772-2.773c0-1.083,0.626-2.011,1.532-2.468v-1.795h2.482v1.797c0.905,0.457,1.532,1.384,1.532,2.466
			C23.071,30.649,21.829,31.892,20.298,31.892z M15.164,16.495c0-2.832,2.303-5.135,5.135-5.135c2.83,0,5.133,2.303,5.133,5.135
			v3.936H15.164V16.495z M26.862,20.431v-3.936c0-3.621-2.944-6.566-6.563-6.566c-3.621,0-6.565,2.945-6.565,6.566v3.936h-1.841
			v16.192h16.811V20.431H26.862z"/>
		<path opacity="0.0982" fill-rule="evenodd" clip-rule="evenodd" fill="#8D8A8B" d="M20.161,31.781
			c-1.531,0-2.771-1.242-2.771-2.773c0-1.083,0.626-2.01,1.531-2.467v-1.796h2.482v1.797c0.904,0.458,1.531,1.384,1.531,2.466
			C22.935,30.539,21.693,31.781,20.161,31.781z M15.027,16.385c0-2.833,2.304-5.135,5.135-5.135c2.83,0,5.133,2.303,5.133,5.135
			v3.935H15.027V16.385z M26.727,20.32v-3.935c0-3.622-2.944-6.566-6.564-6.566s-6.565,2.945-6.565,6.566v3.935h-1.841v16.192
			h16.812V20.32H26.727z"/>
		<path opacity="0.0994" fill-rule="evenodd" clip-rule="evenodd" fill="#8C8889" d="M20.024,31.671
			c-1.531,0-2.771-1.241-2.771-2.772c0-1.084,0.626-2.011,1.531-2.468v-1.795h2.482v1.797c0.905,0.457,1.531,1.383,1.531,2.466
			C22.798,30.43,21.557,31.671,20.024,31.671z M14.891,16.274c0-2.832,2.303-5.135,5.134-5.135c2.831,0,5.133,2.303,5.133,5.135
			v3.936H14.891V16.274z M26.59,20.21v-3.936c0-3.62-2.944-6.565-6.564-6.565s-6.565,2.945-6.565,6.565v3.936h-1.841v16.192h16.812
			V20.21H26.59z"/>
		<path opacity="0.1006" fill-rule="evenodd" clip-rule="evenodd" fill="#8B8788" d="M19.888,31.561
			c-1.531,0-2.771-1.242-2.771-2.773c0-1.083,0.626-2.01,1.531-2.467v-1.795h2.482v1.797c0.905,0.457,1.531,1.383,1.531,2.465
			C22.661,30.318,21.42,31.561,19.888,31.561z M14.754,16.164c0-2.832,2.303-5.135,5.135-5.135c2.83,0,5.133,2.303,5.133,5.135V20.1
			H14.754V16.164z M26.453,20.1v-3.936c0-3.621-2.944-6.565-6.564-6.565s-6.565,2.944-6.565,6.565V20.1h-1.841v16.193h16.812V20.1
			H26.453z"/>
		<path opacity="0.1018" fill-rule="evenodd" clip-rule="evenodd" fill="#8A8687" d="M19.751,31.45
			c-1.531,0-2.771-1.241-2.771-2.772c0-1.084,0.626-2.011,1.531-2.468v-1.795h2.482v1.796c0.905,0.458,1.531,1.384,1.531,2.467
			C22.524,30.209,21.283,31.45,19.751,31.45z M14.617,16.054c0-2.832,2.304-5.134,5.135-5.134c2.83,0,5.133,2.302,5.133,5.134v3.936
			H14.617V16.054z M26.316,19.99v-3.936c0-3.621-2.944-6.565-6.564-6.565s-6.565,2.944-6.565,6.565v3.936h-1.841v16.193h16.812
			V19.99H26.316z"/>
		<path opacity="0.103" fill-rule="evenodd" clip-rule="evenodd" fill="#898586" d="M19.614,31.34c-1.531,0-2.771-1.241-2.771-2.773
			c0-1.082,0.626-2.01,1.531-2.467v-1.795h2.482v1.796c0.905,0.458,1.531,1.384,1.531,2.466
			C22.388,30.099,21.146,31.34,19.614,31.34z M14.48,15.943c0-2.832,2.304-5.134,5.135-5.134c2.83,0,5.133,2.302,5.133,5.134v3.936
			H14.48V15.943z M26.18,19.879v-3.936c0-3.621-2.944-6.565-6.564-6.565s-6.565,2.945-6.565,6.565v3.936h-1.841v16.193h16.812
			V19.879H26.18z"/>
		<path opacity="0.1041" fill-rule="evenodd" clip-rule="evenodd" fill="#888485" d="M19.478,31.229
			c-1.532,0-2.772-1.241-2.772-2.772c0-1.084,0.626-2.011,1.531-2.468v-1.796h2.482v1.798c0.905,0.457,1.531,1.384,1.531,2.466
			C22.251,29.988,21.01,31.229,19.478,31.229z M14.344,15.833c0-2.832,2.304-5.134,5.135-5.134c2.83,0,5.133,2.302,5.133,5.134
			v3.937H14.344V15.833z M26.043,19.77v-3.937c0-3.621-2.944-6.565-6.564-6.565s-6.565,2.945-6.565,6.565v3.937h-1.841v16.192
			h16.812V19.77H26.043z"/>
		<path opacity="0.1053" fill-rule="evenodd" clip-rule="evenodd" fill="#878384" d="M19.341,31.119
			c-1.531,0-2.771-1.241-2.771-2.773c0-1.082,0.626-2.01,1.532-2.467v-1.795h2.482v1.797c0.905,0.457,1.531,1.383,1.531,2.465
			C22.114,29.878,20.873,31.119,19.341,31.119z M14.207,15.723c0-2.832,2.304-5.135,5.135-5.135c2.831,0,5.133,2.303,5.133,5.135
			v3.937H14.207V15.723z M25.906,19.659v-3.937c0-3.621-2.944-6.565-6.564-6.565s-6.565,2.945-6.565,6.565v3.937h-1.841v16.192
			h16.812V19.659H25.906z"/>
		<path opacity="0.1065" fill-rule="evenodd" clip-rule="evenodd" fill="#868283" d="M19.205,31.009
			c-1.532,0-2.772-1.241-2.772-2.772c0-1.084,0.626-2.011,1.531-2.468v-1.796h2.482v1.798c0.905,0.457,1.531,1.384,1.531,2.466
			C21.978,29.768,20.736,31.009,19.205,31.009z M14.07,15.613c0-2.833,2.303-5.136,5.135-5.136c2.83,0,5.133,2.303,5.133,5.136
			v3.935H14.07V15.613z M25.77,19.548v-3.935c0-3.622-2.945-6.566-6.564-6.566c-3.621,0-6.566,2.944-6.566,6.566v3.935h-1.841
			v16.193H27.61V19.548H25.77z"/>
		<path opacity="0.1077" fill-rule="evenodd" clip-rule="evenodd" fill="#858182" d="M19.068,30.898
			c-1.532,0-2.772-1.241-2.772-2.773c0-1.082,0.626-2.01,1.532-2.467v-1.795h2.482v1.797c0.905,0.457,1.531,1.383,1.531,2.465
			C21.841,29.657,20.6,30.898,19.068,30.898z M13.934,15.503c0-2.833,2.304-5.135,5.135-5.135c2.83,0,5.133,2.302,5.133,5.135v3.936
			H13.934V15.503z M25.633,19.438v-3.936c0-3.622-2.945-6.566-6.564-6.566c-3.621,0-6.565,2.944-6.565,6.566v3.936h-1.841v16.192
			h16.811V19.438H25.633z"/>
		<path opacity="0.1089" fill-rule="evenodd" clip-rule="evenodd" fill="#838081" d="M18.931,30.789
			c-1.531,0-2.772-1.242-2.772-2.773c0-1.083,0.626-2.011,1.532-2.468v-1.795h2.482v1.796c0.905,0.458,1.531,1.385,1.531,2.467
			C21.704,29.547,20.463,30.789,18.931,30.789z M13.797,15.393c0-2.833,2.304-5.135,5.135-5.135c2.83,0,5.133,2.303,5.133,5.135
			v3.936H13.797V15.393z M25.496,19.328v-3.936c0-3.621-2.944-6.566-6.564-6.566c-3.621,0-6.566,2.945-6.566,6.566v3.936h-1.84
			v16.192h16.811V19.328H25.496z"/>
		<path opacity="0.1101" fill-rule="evenodd" clip-rule="evenodd" fill="#827F80" d="M18.794,30.678
			c-1.532,0-2.772-1.241-2.772-2.773c0-1.082,0.626-2.01,1.532-2.467v-1.795h2.482v1.797c0.905,0.457,1.531,1.384,1.531,2.465
			C21.567,29.437,20.326,30.678,18.794,30.678z M13.66,15.282c0-2.832,2.304-5.134,5.135-5.134c2.831,0,5.133,2.302,5.133,5.134
			v3.936H13.66V15.282z M25.359,19.218v-3.936c0-3.621-2.944-6.566-6.564-6.566s-6.565,2.945-6.565,6.566v3.936h-1.841V35.41H27.2
			V19.218H25.359z"/>
		<path opacity="0.1112" fill-rule="evenodd" clip-rule="evenodd" fill="#817E7F" d="M18.657,30.567
			c-1.531,0-2.771-1.241-2.771-2.772c0-1.083,0.626-2.011,1.532-2.468v-1.795h2.482v1.797c0.905,0.457,1.531,1.384,1.531,2.466
			C21.431,29.326,20.189,30.567,18.657,30.567z M13.523,15.171c0-2.832,2.304-5.134,5.135-5.134c2.83,0,5.134,2.303,5.134,5.134
			v3.936H13.523V15.171z M25.223,19.107v-3.936c0-3.621-2.944-6.566-6.564-6.566s-6.565,2.945-6.565,6.566v3.936h-1.841V35.3h16.812
			V19.107H25.223z"/>
		<path opacity="0.1124" fill-rule="evenodd" clip-rule="evenodd" fill="#807D7E" d="M18.521,30.457
			c-1.531,0-2.771-1.241-2.771-2.773c0-1.082,0.626-2.01,1.532-2.467v-1.795h2.482v1.797c0.905,0.457,1.531,1.384,1.531,2.465
			C21.294,29.216,20.053,30.457,18.521,30.457z M13.387,15.061c0-2.832,2.303-5.134,5.134-5.134s5.134,2.302,5.134,5.134v3.936
			H13.387V15.061z M25.086,18.997v-3.936c0-3.621-2.944-6.565-6.564-6.565s-6.565,2.944-6.565,6.565v3.936h-1.841v16.192h16.811
			V18.997H25.086z"/>
		<path opacity="0.1136" fill-rule="evenodd" clip-rule="evenodd" fill="#7F7C7D" d="M18.384,30.347
			c-1.531,0-2.771-1.241-2.771-2.772c0-1.083,0.626-2.011,1.532-2.467v-1.796h2.482v1.797c0.905,0.457,1.531,1.384,1.531,2.466
			C21.157,29.105,19.916,30.347,18.384,30.347z M13.25,14.951c0-2.832,2.303-5.134,5.135-5.134c2.83,0,5.132,2.302,5.132,5.134
			v3.936H13.25V14.951z M24.949,18.887v-3.936c0-3.621-2.944-6.566-6.563-6.566c-3.621,0-6.565,2.945-6.565,6.566v3.936H9.979
			v16.192H26.79V18.887H24.949z"/>
		<path opacity="0.1148" fill-rule="evenodd" clip-rule="evenodd" fill="#7F7C7C" d="M18.248,30.236
			c-1.531,0-2.772-1.241-2.772-2.772c0-1.083,0.627-2.011,1.532-2.468v-1.795h2.482v1.797c0.905,0.457,1.532,1.384,1.532,2.466
			C21.021,28.995,19.779,30.236,18.248,30.236z M13.114,14.84c0-2.832,2.303-5.134,5.135-5.134c2.83,0,5.133,2.303,5.133,5.134
			v3.936H13.114V14.84z M24.812,18.776V14.84c0-3.621-2.944-6.565-6.564-6.565c-3.621,0-6.566,2.945-6.566,6.565v3.936H9.842v16.192
			h16.812V18.776H24.812z"/>
		<path opacity="0.116" fill-rule="evenodd" clip-rule="evenodd" fill="#7E7B7C" d="M18.111,30.127
			c-1.531,0-2.772-1.242-2.772-2.773c0-1.083,0.627-2.01,1.531-2.468v-1.795h2.482v1.797c0.905,0.457,1.531,1.384,1.531,2.466
			C20.884,28.885,19.643,30.127,18.111,30.127z M12.977,14.73c0-2.832,2.303-5.134,5.135-5.134c2.83,0,5.133,2.303,5.133,5.134
			v3.936H12.977V14.73z M24.676,18.666V14.73c0-3.621-2.944-6.566-6.564-6.566c-3.62,0-6.565,2.945-6.565,6.566v3.936h-1.84v16.192
			h16.811V18.666H24.676z"/>
		<path opacity="0.1172" fill-rule="evenodd" clip-rule="evenodd" fill="#7D7A7B" d="M17.974,30.017
			c-1.531,0-2.772-1.242-2.772-2.773c0-1.083,0.626-2.011,1.532-2.468V22.98h2.481v1.797c0.905,0.457,1.531,1.383,1.531,2.466
			C20.747,28.774,19.506,30.017,17.974,30.017z M12.84,14.62c0-2.832,2.303-5.134,5.135-5.134c2.83,0,5.133,2.303,5.133,5.134v3.936
			H12.84V14.62z M24.539,18.556V14.62c0-3.621-2.944-6.565-6.564-6.565c-3.621,0-6.566,2.945-6.566,6.565v3.936h-1.84v16.192H26.38
			V18.556H24.539z"/>
		<path opacity="0.1183" fill-rule="evenodd" clip-rule="evenodd" fill="#7C797A" d="M17.837,29.906
			c-1.532,0-2.772-1.242-2.772-2.773c0-1.083,0.626-2.011,1.532-2.468V22.87h2.481v1.797c0.905,0.457,1.531,1.384,1.531,2.466
			C20.61,28.664,19.369,29.906,17.837,29.906z M12.704,14.51c0-2.832,2.303-5.135,5.134-5.135c2.831,0,5.133,2.303,5.133,5.135
			v3.936H12.704V14.51z M24.402,18.445V14.51c0-3.621-2.944-6.565-6.564-6.565c-3.621,0-6.565,2.944-6.565,6.565v3.936H9.432v16.192
			h16.811V18.445H24.402z"/>
		<path opacity="0.1195" fill-rule="evenodd" clip-rule="evenodd" fill="#7B7879" d="M17.701,29.796
			c-1.531,0-2.772-1.241-2.772-2.773c0-1.083,0.626-2.011,1.532-2.467V22.76h2.481v1.797c0.905,0.457,1.532,1.384,1.532,2.466
			C20.474,28.555,19.233,29.796,17.701,29.796z M12.567,14.399c0-2.832,2.303-5.135,5.134-5.135c2.831,0,5.134,2.303,5.134,5.135
			v3.936H12.567V14.399z M24.266,18.335v-3.936c0-3.621-2.944-6.566-6.564-6.566s-6.564,2.945-6.564,6.566v3.936H9.295v16.192
			h16.812V18.335H24.266z"/>
		<path opacity="0.1207" fill-rule="evenodd" clip-rule="evenodd" fill="#7A7778" d="M17.564,29.686
			c-1.531,0-2.772-1.242-2.772-2.773c0-1.083,0.626-2.01,1.532-2.467v-1.796h2.481v1.798c0.905,0.456,1.531,1.383,1.531,2.465
			C20.337,28.443,19.096,29.686,17.564,29.686z M12.431,14.289c0-2.832,2.303-5.135,5.135-5.135c2.83,0,5.133,2.303,5.133,5.135
			v3.936H12.431V14.289z M24.129,18.225v-3.936c0-3.621-2.944-6.565-6.563-6.565c-3.621,0-6.566,2.944-6.566,6.565v3.936h-1.84
			v16.193H25.97V18.225H24.129z"/>
		<path opacity="0.1219" fill-rule="evenodd" clip-rule="evenodd" fill="#797677" d="M17.427,29.575
			c-1.531,0-2.771-1.241-2.771-2.773c0-1.083,0.626-2.011,1.532-2.468v-1.795h2.481v1.797c0.905,0.457,1.531,1.384,1.531,2.466
			C20.2,28.334,18.959,29.575,17.427,29.575z M12.293,14.179c0-2.832,2.304-5.135,5.136-5.135c2.83,0,5.133,2.303,5.133,5.135v3.936
			H12.293V14.179z M23.992,18.114v-3.936c0-3.621-2.944-6.565-6.563-6.565c-3.621,0-6.565,2.944-6.565,6.565v3.936H9.022v16.193
			h16.811V18.114H23.992z"/>
		<path opacity="0.1231" fill-rule="evenodd" clip-rule="evenodd" fill="#787576" d="M17.291,29.465
			c-1.531,0-2.772-1.241-2.772-2.773c0-1.083,0.627-2.01,1.532-2.467v-1.796h2.481v1.797c0.905,0.457,1.532,1.384,1.532,2.466
			C20.064,28.224,18.823,29.465,17.291,29.465z M12.157,14.068c0-2.832,2.303-5.135,5.135-5.135c2.83,0,5.133,2.303,5.133,5.135
			v3.936H12.157V14.068z M23.855,18.004v-3.936c0-3.621-2.944-6.565-6.563-6.565c-3.621,0-6.566,2.945-6.566,6.565v3.936H8.885
			v16.193h16.811V18.004H23.855z"/>
		<path opacity="0.1243" fill-rule="evenodd" clip-rule="evenodd" fill="#777475" d="M17.154,29.354
			c-1.532,0-2.772-1.241-2.772-2.773c0-1.083,0.627-2.01,1.532-2.468v-1.795h2.481v1.797c0.905,0.457,1.532,1.384,1.532,2.466
			C19.927,28.113,18.686,29.354,17.154,29.354z M12.02,13.958c0-2.832,2.303-5.135,5.135-5.135c2.83,0,5.133,2.303,5.133,5.135
			v3.936H12.02V13.958z M23.719,17.894v-3.936c0-3.621-2.944-6.565-6.563-6.565c-3.62,0-6.565,2.944-6.565,6.565v3.936H8.749v16.193
			H25.56V17.894H23.719z"/>
		<path opacity="0.1254" fill-rule="evenodd" clip-rule="evenodd" fill="#767374" d="M17.018,29.244
			c-1.531,0-2.772-1.242-2.772-2.773c0-1.083,0.627-2.01,1.532-2.467v-1.796h2.482v1.797c0.905,0.458,1.531,1.384,1.531,2.466
			C19.79,28.002,18.549,29.244,17.018,29.244z M11.883,13.848c0-2.832,2.303-5.134,5.135-5.134c2.831,0,5.133,2.302,5.133,5.134
			v3.936H11.883V13.848z M23.582,17.783v-3.936c0-3.621-2.944-6.565-6.564-6.565c-3.62,0-6.565,2.944-6.565,6.565v3.936H8.612
			v16.193h16.811V17.783H23.582z"/>
		<path opacity="0.1266" fill-rule="evenodd" clip-rule="evenodd" fill="#757273" d="M16.881,29.134
			c-1.531,0-2.772-1.241-2.772-2.773c0-1.083,0.627-2.011,1.532-2.467v-1.796h2.482v1.798c0.905,0.456,1.531,1.383,1.531,2.465
			C19.653,27.893,18.413,29.134,16.881,29.134z M11.747,13.737c0-2.832,2.303-5.134,5.135-5.134c2.831,0,5.133,2.302,5.133,5.134
			v3.936H11.747V13.737z M23.446,17.673v-3.936c0-3.621-2.945-6.565-6.564-6.565c-3.62,0-6.565,2.944-6.565,6.565v3.936H8.475
			v16.193h16.811V17.673H23.446z"/>
		<path opacity="0.1278" fill-rule="evenodd" clip-rule="evenodd" fill="#747172" d="M16.744,29.023
			c-1.531,0-2.772-1.242-2.772-2.773c0-1.083,0.626-2.01,1.532-2.467v-1.796h2.481v1.798c0.905,0.456,1.532,1.383,1.532,2.465
			C19.517,27.781,18.276,29.023,16.744,29.023z M11.61,13.627c0-2.832,2.304-5.135,5.135-5.135c2.83,0,5.133,2.303,5.133,5.135
			v3.936H11.61V13.627z M23.309,17.563v-3.936c0-3.62-2.944-6.565-6.564-6.565c-3.621,0-6.565,2.945-6.565,6.565v3.936H8.338v16.193
			h16.811V17.563H23.309z"/>
		<path opacity="0.129" fill-rule="evenodd" clip-rule="evenodd" fill="#737071" d="M16.607,28.913
			c-1.531,0-2.772-1.241-2.772-2.772c0-1.084,0.626-2.011,1.532-2.468v-1.796h2.481v1.797c0.905,0.457,1.532,1.384,1.532,2.467
			C19.381,27.672,18.139,28.913,16.607,28.913z M11.474,13.517c0-2.832,2.303-5.135,5.135-5.135c2.83,0,5.133,2.303,5.133,5.135
			v3.936H11.474V13.517z M23.172,17.453v-3.936c0-3.621-2.944-6.566-6.563-6.566c-3.62,0-6.566,2.945-6.566,6.566v3.936h-1.84
			v16.192h16.811V17.453H23.172z"/>
		<path opacity="0.1302" fill-rule="evenodd" clip-rule="evenodd" fill="#726F70" d="M16.47,28.803
			c-1.531,0-2.772-1.241-2.772-2.773c0-1.082,0.626-2.01,1.532-2.467v-1.795h2.482v1.797c0.905,0.457,1.532,1.383,1.532,2.465
			C19.244,27.562,18.002,28.803,16.47,28.803z M11.337,13.406c0-2.832,2.303-5.134,5.135-5.134c2.83,0,5.133,2.302,5.133,5.134
			v3.936H11.337V13.406z M23.036,17.342v-3.936c0-3.621-2.945-6.565-6.564-6.565c-3.621,0-6.565,2.945-6.565,6.565v3.936H8.065
			v16.193h16.811V17.342H23.036z"/>
		<path opacity="0.1314" fill-rule="evenodd" clip-rule="evenodd" fill="#716E6F" d="M16.334,28.692
			c-1.531,0-2.772-1.241-2.772-2.772c0-1.084,0.627-2.011,1.532-2.468v-1.796h2.481v1.797c0.905,0.457,1.532,1.384,1.532,2.467
			C19.107,27.451,17.866,28.692,16.334,28.692z M11.2,13.296c0-2.832,2.303-5.134,5.135-5.134c2.83,0,5.133,2.303,5.133,5.134v3.936
			H11.2V13.296z M22.898,17.232v-3.936c0-3.621-2.944-6.565-6.563-6.565c-3.621,0-6.565,2.945-6.565,6.565v3.936H7.928v16.193
			h16.811V17.232H22.898z"/>
		<path opacity="0.1325" fill-rule="evenodd" clip-rule="evenodd" fill="#706D6E" d="M16.197,28.582
			c-1.532,0-2.772-1.241-2.772-2.772c0-1.083,0.627-2.011,1.532-2.468v-1.796h2.481v1.798c0.905,0.457,1.532,1.383,1.532,2.466
			C18.97,27.341,17.729,28.582,16.197,28.582z M11.063,13.186c0-2.832,2.303-5.134,5.135-5.134c2.83,0,5.133,2.303,5.133,5.134
			v3.936H11.063V13.186z M22.762,17.122v-3.936c0-3.621-2.944-6.565-6.563-6.565c-3.62,0-6.565,2.945-6.565,6.565v3.936H7.792
			v16.193h16.811V17.122H22.762z"/>
		<path opacity="0.1337" fill-rule="evenodd" clip-rule="evenodd" fill="#6F6D6D" d="M16.061,28.472
			c-1.531,0-2.772-1.241-2.772-2.772c0-1.083,0.627-2.011,1.532-2.468v-1.796h2.481v1.798c0.905,0.457,1.532,1.383,1.532,2.466
			C18.834,27.23,17.592,28.472,16.061,28.472z M10.927,13.075c0-2.831,2.303-5.134,5.135-5.134c2.83,0,5.133,2.303,5.133,5.134
			v3.937H10.927V13.075z M22.625,17.012v-3.937c0-3.62-2.945-6.565-6.564-6.565c-3.62,0-6.565,2.945-6.565,6.565v3.937H7.655v16.192
			h16.811V17.012H22.625z"/>
		<path opacity="0.1349" fill-rule="evenodd" clip-rule="evenodd" fill="#6F6C6C" d="M15.924,28.361
			c-1.531,0-2.772-1.241-2.772-2.772c0-1.083,0.626-2.011,1.532-2.468v-1.796h2.481v1.798c0.905,0.457,1.532,1.383,1.532,2.466
			C18.697,27.12,17.456,28.361,15.924,28.361z M10.79,12.965c0-2.831,2.303-5.134,5.135-5.134c2.83,0,5.133,2.303,5.133,5.134v3.937
			H10.79V12.965z M22.488,16.901v-3.937c0-3.62-2.944-6.565-6.563-6.565c-3.621,0-6.565,2.945-6.565,6.565v3.937H7.519v16.192H24.33
			V16.901H22.488z"/>
		<path opacity="0.1361" fill-rule="evenodd" clip-rule="evenodd" fill="#6E6B6C" d="M15.787,28.252
			c-1.531,0-2.772-1.242-2.772-2.773c0-1.083,0.627-2.011,1.532-2.468v-1.796h2.482v1.798c0.905,0.456,1.531,1.384,1.531,2.466
			C18.56,27.01,17.319,28.252,15.787,28.252z M10.653,12.854c0-2.832,2.303-5.134,5.135-5.134c2.83,0,5.133,2.302,5.133,5.134v3.937
			H10.653V12.854z M22.352,16.791v-3.937c0-3.62-2.944-6.565-6.563-6.565c-3.62,0-6.565,2.945-6.565,6.565v3.937H7.381v16.193
			h16.812V16.791H22.352z"/>
		<path opacity="0.1373" fill-rule="evenodd" clip-rule="evenodd" fill="#6D6A6B" d="M15.65,28.141c-1.531,0-2.772-1.24-2.772-2.772
			c0-1.083,0.626-2.011,1.532-2.468v-1.795h2.482v1.797c0.905,0.457,1.532,1.383,1.532,2.466
			C18.424,26.9,17.182,28.141,15.65,28.141z M10.517,12.744c0-2.831,2.303-5.134,5.135-5.134c2.83,0,5.133,2.303,5.133,5.134v3.936
			H10.517V12.744z M22.215,16.68v-3.936c0-3.621-2.944-6.565-6.564-6.565c-3.62,0-6.565,2.945-6.565,6.565v3.936H7.245v16.193
			h16.811V16.68H22.215z"/>
		<path opacity="0.1385" fill-rule="evenodd" clip-rule="evenodd" fill="#6C696A" d="M15.514,28.031
			c-1.531,0-2.772-1.242-2.772-2.773c0-1.083,0.627-2.011,1.532-2.468v-1.796h2.482v1.798c0.905,0.457,1.532,1.384,1.532,2.466
			C18.287,26.789,17.045,28.031,15.514,28.031z M10.38,12.634c0-2.831,2.303-5.134,5.135-5.134c2.83,0,5.133,2.303,5.133,5.134
			v3.937H10.38V12.634z M22.079,16.57v-3.937c0-3.62-2.944-6.565-6.564-6.565c-3.62,0-6.565,2.945-6.565,6.565v3.937H7.108v16.193
			h16.811V16.57H22.079z"/>
		<path opacity="0.1396" fill-rule="evenodd" clip-rule="evenodd" fill="#6B6869" d="M15.377,27.921
			c-1.531,0-2.772-1.242-2.772-2.773c0-1.083,0.626-2.011,1.532-2.468v-1.795h2.481v1.797c0.906,0.457,1.532,1.383,1.532,2.466
			C18.15,26.679,16.909,27.921,15.377,27.921z M10.243,12.524c0-2.832,2.303-5.135,5.135-5.135c2.83,0,5.133,2.303,5.133,5.135
			v3.936H10.243V12.524z M21.941,16.46v-3.936c0-3.621-2.944-6.565-6.563-6.565c-3.621,0-6.565,2.944-6.565,6.565v3.936H6.972
			v16.192h16.811V16.46H21.941z"/>
		<path opacity="0.1408" fill-rule="evenodd" clip-rule="evenodd" fill="#6A6768" d="M15.24,27.811
			c-1.531,0-2.772-1.242-2.772-2.773c0-1.083,0.627-2.011,1.532-2.468v-1.796h2.481v1.798c0.905,0.457,1.532,1.384,1.532,2.466
			C18.014,26.568,16.772,27.811,15.24,27.811z M10.106,12.414c0-2.832,2.303-5.135,5.135-5.135c2.83,0,5.133,2.303,5.133,5.135
			v3.936H10.106V12.414z M21.805,16.35v-3.936c0-3.621-2.944-6.566-6.564-6.566c-3.62,0-6.565,2.945-6.565,6.566v3.936H6.835v16.193
			h16.811V16.35H21.805z"/>
		<path opacity="0.142" fill-rule="evenodd" clip-rule="evenodd" fill="#696667" d="M15.104,27.699
			c-1.531,0-2.772-1.241-2.772-2.772c0-1.083,0.626-2.011,1.532-2.468v-1.795h2.482v1.797c0.904,0.457,1.531,1.384,1.531,2.466
			C17.877,26.458,16.635,27.699,15.104,27.699z M9.97,12.304c0-2.832,2.303-5.135,5.135-5.135c2.83,0,5.133,2.303,5.133,5.135v3.936
			H9.97V12.304z M21.668,16.239v-3.936c0-3.621-2.944-6.565-6.564-6.565c-3.62,0-6.565,2.944-6.565,6.565v3.936H6.698v16.192h16.811
			V16.239H21.668z"/>
		<path opacity="0.1432" fill-rule="evenodd" clip-rule="evenodd" fill="#686566" d="M14.967,27.59
			c-1.531,0-2.772-1.242-2.772-2.773c0-1.083,0.627-2.011,1.532-2.468v-1.795h2.482v1.797c0.905,0.457,1.532,1.384,1.532,2.466
			C17.74,26.348,16.499,27.59,14.967,27.59z M9.833,12.193c0-2.832,2.304-5.135,5.135-5.135c2.83,0,5.133,2.303,5.133,5.135v3.936
			H9.833V12.193z M21.531,16.129v-3.936c0-3.621-2.944-6.565-6.563-6.565c-3.62,0-6.565,2.944-6.565,6.565v3.936H6.562v16.193
			h16.811V16.129H21.531z"/>
		<path opacity="0.1444" fill-rule="evenodd" clip-rule="evenodd" fill="#676465" d="M14.83,27.479
			c-1.531,0-2.772-1.241-2.772-2.772c0-1.083,0.626-2.011,1.532-2.468v-1.795h2.482v1.797c0.905,0.457,1.532,1.384,1.532,2.466
			C17.604,26.237,16.362,27.479,14.83,27.479z M9.696,12.083c0-2.832,2.303-5.135,5.135-5.135c2.83,0,5.133,2.303,5.133,5.135v3.936
			H9.696V12.083z M21.395,16.019v-3.936c0-3.621-2.944-6.565-6.564-6.565c-3.62,0-6.565,2.944-6.565,6.565v3.936H6.425v16.193
			h16.811V16.019H21.395z"/>
		<path opacity="0.1456" fill-rule="evenodd" clip-rule="evenodd" fill="#666464" d="M14.693,27.369
			c-1.531,0-2.771-1.242-2.771-2.773c0-1.083,0.626-2.01,1.531-2.467v-1.796h2.482v1.797c0.905,0.457,1.532,1.384,1.532,2.466
			C17.467,26.127,16.226,27.369,14.693,27.369z M9.56,11.973c0-2.832,2.303-5.135,5.135-5.135c2.83,0,5.133,2.303,5.133,5.135v3.936
			H9.56V11.973z M21.259,15.908v-3.936c0-3.621-2.945-6.565-6.564-6.565c-3.62,0-6.565,2.944-6.565,6.565v3.936H6.288v16.193h16.811
			V15.908H21.259z"/>
		<path opacity="0.1467" fill-rule="evenodd" clip-rule="evenodd" fill="#666364" d="M14.557,27.259
			c-1.531,0-2.772-1.241-2.772-2.773c0-1.083,0.626-2.01,1.532-2.468v-1.795h2.481v1.797c0.906,0.457,1.532,1.384,1.532,2.466
			C17.33,26.018,16.089,27.259,14.557,27.259z M9.423,11.862c0-2.832,2.303-5.135,5.135-5.135c2.83,0,5.133,2.303,5.133,5.135v3.936
			H9.423V11.862z M21.121,15.798v-3.936c0-3.621-2.944-6.565-6.563-6.565c-3.62,0-6.565,2.944-6.565,6.565v3.936H6.151v16.193
			h16.811V15.798H21.121z"/>
		<path opacity="0.1479" fill-rule="evenodd" clip-rule="evenodd" fill="#656263" d="M14.42,27.148
			c-1.531,0-2.771-1.242-2.771-2.773c0-1.082,0.626-2.01,1.532-2.467v-1.796h2.482v1.797c0.905,0.457,1.531,1.384,1.531,2.466
			C17.193,25.906,15.952,27.148,14.42,27.148z M9.286,11.752c0-2.832,2.303-5.134,5.135-5.134c2.83,0,5.133,2.303,5.133,5.134v3.936
			H9.286V11.752z M20.985,15.688v-3.936c0-3.621-2.944-6.565-6.564-6.565c-3.62,0-6.565,2.945-6.565,6.565v3.936H6.015v16.193
			h16.811V15.688H20.985z"/>
		<path opacity="0.1491" fill-rule="evenodd" clip-rule="evenodd" fill="#646162" d="M14.283,27.038
			c-1.531,0-2.772-1.241-2.772-2.773c0-1.083,0.626-2.011,1.532-2.468v-1.795h2.482v1.797c0.905,0.457,1.531,1.384,1.531,2.466
			C17.057,25.797,15.815,27.038,14.283,27.038z M9.149,11.642c0-2.832,2.304-5.134,5.135-5.134c2.83,0,5.133,2.302,5.133,5.134
			v3.936H9.149V11.642z M20.848,15.577v-3.936c0-3.621-2.944-6.565-6.564-6.565c-3.62,0-6.565,2.945-6.565,6.565v3.936H5.878v16.193
			h16.811V15.577H20.848z"/>
		<path opacity="0.1503" fill-rule="evenodd" clip-rule="evenodd" fill="#636061" d="M14.146,26.928
			c-1.531,0-2.771-1.241-2.771-2.773c0-1.083,0.626-2.01,1.532-2.467v-1.796h2.481v1.798c0.905,0.456,1.532,1.383,1.532,2.465
			C16.92,25.687,15.679,26.928,14.146,26.928z M9.013,11.531c0-2.831,2.304-5.134,5.135-5.134c2.83,0,5.133,2.303,5.133,5.134v3.936
			H9.013V11.531z M20.712,15.467v-3.936c0-3.62-2.945-6.564-6.564-6.564c-3.62,0-6.565,2.944-6.565,6.564v3.936H5.741V31.66h16.811
			V15.467H20.712z"/>
		<path opacity="0.1515" fill-rule="evenodd" clip-rule="evenodd" fill="#625F60" d="M14.01,26.817
			c-1.531,0-2.772-1.241-2.772-2.773c0-1.083,0.626-2.011,1.532-2.468v-1.795h2.481v1.797c0.905,0.457,1.532,1.384,1.532,2.466
			C16.783,25.576,15.542,26.817,14.01,26.817z M8.876,11.421c0-2.832,2.303-5.135,5.135-5.135c2.83,0,5.133,2.303,5.133,5.135v3.936
			H8.876V11.421z M20.575,15.356v-3.936c0-3.621-2.944-6.565-6.563-6.565c-3.621,0-6.565,2.944-6.565,6.565v3.936H5.604V31.55
			h16.811V15.356H20.575z"/>
		<path opacity="0.1527" fill-rule="evenodd" clip-rule="evenodd" fill="#615E5F" d="M13.873,26.707
			c-1.531,0-2.771-1.241-2.771-2.773c0-1.083,0.626-2.01,1.532-2.467V19.67h2.481v1.797c0.906,0.457,1.532,1.384,1.532,2.466
			C16.646,25.466,15.405,26.707,13.873,26.707z M8.739,11.311c0-2.831,2.303-5.134,5.135-5.134c2.83,0,5.133,2.303,5.133,5.134
			v3.936H8.739V11.311z M20.438,15.247v-3.936c0-3.621-2.944-6.565-6.564-6.565c-3.62,0-6.565,2.944-6.565,6.565v3.936h-1.84v16.193
			h16.811V15.247H20.438z"/>
		<path opacity="0.1538" fill-rule="evenodd" clip-rule="evenodd" fill="#605D5E" d="M13.736,26.597
			c-1.531,0-2.772-1.241-2.772-2.772c0-1.084,0.626-2.011,1.532-2.468v-1.796h2.482v1.797c0.905,0.457,1.531,1.384,1.531,2.467
			C16.51,25.355,15.269,26.597,13.736,26.597z M8.603,11.2c0-2.831,2.303-5.134,5.134-5.134c2.83,0,5.133,2.303,5.133,5.134v3.936
			H8.603V11.2z M20.302,15.136V11.2c0-3.621-2.945-6.565-6.564-6.565c-3.62,0-6.565,2.945-6.565,6.565v3.936H5.331V31.33h16.812
			V15.136H20.302z"/>
		<path opacity="0.155" fill-rule="evenodd" clip-rule="evenodd" fill="#5F5D5E" d="M13.6,26.486c-1.531,0-2.771-1.241-2.771-2.772
			c0-1.084,0.626-2.011,1.531-2.468V19.45h2.482v1.797c0.905,0.457,1.531,1.384,1.531,2.467
			C16.373,25.245,15.132,26.486,13.6,26.486z M8.466,11.09c0-2.832,2.303-5.134,5.134-5.134c2.83,0,5.133,2.303,5.133,5.134v3.936
			H8.466V11.09z M20.165,15.025V11.09c0-3.621-2.944-6.565-6.564-6.565c-3.62,0-6.565,2.944-6.565,6.565v3.936H5.194v16.193h16.812
			V15.025H20.165z"/>
		<path opacity="0.1562" fill-rule="evenodd" clip-rule="evenodd" fill="#5F5C5D" d="M13.463,26.376
			c-1.532,0-2.772-1.241-2.772-2.772c0-1.084,0.626-2.011,1.532-2.468V19.34h2.481v1.798c0.905,0.456,1.531,1.383,1.531,2.466
			C16.236,25.135,14.995,26.376,13.463,26.376z M8.33,10.979c0-2.831,2.303-5.134,5.134-5.134c2.83,0,5.134,2.303,5.134,5.134v3.936
			H8.33V10.979z M20.028,14.916v-3.936c0-3.621-2.944-6.565-6.564-6.565c-3.62,0-6.565,2.945-6.565,6.565v3.936H5.058v16.194h16.812
			V14.916H20.028z"/>
		<path opacity="0.1574" fill-rule="evenodd" clip-rule="evenodd" fill="#5E5B5C" d="M13.327,26.266
			c-1.531,0-2.772-1.241-2.772-2.772c0-1.083,0.626-2.011,1.532-2.468v-1.796h2.481v1.798c0.905,0.457,1.532,1.383,1.532,2.466
			C16.1,25.024,14.858,26.266,13.327,26.266z M8.192,10.869c0-2.831,2.304-5.134,5.135-5.134c2.831,0,5.133,2.303,5.133,5.134v3.936
			H8.192V10.869z M19.892,14.805v-3.936c0-3.621-2.945-6.565-6.564-6.565c-3.62,0-6.565,2.944-6.565,6.565v3.936H4.921v16.194
			h16.811V14.805H19.892z"/>
		<path opacity="0.1586" fill-rule="evenodd" clip-rule="evenodd" fill="#5D5A5B" d="M13.189,26.156
			c-1.531,0-2.771-1.242-2.771-2.773c0-1.083,0.626-2.011,1.532-2.468v-1.796h2.481v1.797c0.905,0.457,1.532,1.383,1.532,2.466
			C15.963,24.914,14.722,26.156,13.189,26.156z M8.056,10.759c0-2.831,2.303-5.134,5.135-5.134c2.83,0,5.133,2.303,5.133,5.134
			v3.936H8.056V10.759z M19.754,14.695v-3.936c0-3.62-2.944-6.565-6.563-6.565c-3.621,0-6.566,2.945-6.566,6.565v3.936H4.784v16.194
			h16.812V14.695H19.754z"/>
		<path opacity="0.1598" fill-rule="evenodd" clip-rule="evenodd" fill="#5C595A" d="M13.053,26.045
			c-1.531,0-2.772-1.241-2.772-2.772c0-1.083,0.626-2.011,1.532-2.468v-1.796h2.481v1.797c0.905,0.457,1.532,1.383,1.532,2.466
			C15.826,24.804,14.585,26.045,13.053,26.045z M7.919,10.648c0-2.831,2.303-5.134,5.135-5.134c2.83,0,5.133,2.303,5.133,5.134
			v3.937H7.919V10.648z M19.618,14.585v-3.937c0-3.62-2.944-6.565-6.563-6.565c-3.621,0-6.565,2.945-6.565,6.565v3.937H4.647v16.193
			h16.812V14.585H19.618z"/>
		<path opacity="0.1609" fill-rule="evenodd" clip-rule="evenodd" fill="#5B5959" d="M12.916,25.935
			c-1.531,0-2.771-1.241-2.771-2.772c0-1.083,0.626-2.011,1.532-2.468v-1.796h2.482v1.797c0.905,0.457,1.531,1.383,1.531,2.466
			C15.689,24.693,14.448,25.935,12.916,25.935z M7.782,10.538c0-2.831,2.304-5.134,5.135-5.134c2.83,0,5.133,2.303,5.133,5.134
			v3.936H7.782V10.538z M19.481,14.474v-3.936c0-3.62-2.945-6.564-6.564-6.564c-3.62,0-6.566,2.944-6.566,6.564v3.936h-1.84v16.194
			h16.812V14.474H19.481z"/>
		<path opacity="0.1621" fill-rule="evenodd" clip-rule="evenodd" fill="#5A5859" d="M12.779,25.824
			c-1.531,0-2.772-1.241-2.772-2.772c0-1.083,0.626-2.011,1.532-2.468v-1.796h2.482v1.798c0.905,0.457,1.531,1.383,1.531,2.466
			C15.553,24.583,14.312,25.824,12.779,25.824z M7.646,10.428c0-2.832,2.304-5.135,5.135-5.135c2.83,0,5.133,2.303,5.133,5.135
			v3.936H7.646V10.428z M19.345,14.364v-3.936c0-3.621-2.945-6.565-6.564-6.565c-3.62,0-6.565,2.944-6.565,6.565v3.936H4.375v16.194
			h16.812V14.364H19.345z"/>
		<path opacity="0.1633" fill-rule="evenodd" clip-rule="evenodd" fill="#595758" d="M12.643,25.715
			c-1.531,0-2.772-1.242-2.772-2.773c0-1.083,0.626-2.011,1.532-2.468v-1.796h2.482v1.798c0.905,0.457,1.532,1.383,1.532,2.466
			C15.417,24.473,14.175,25.715,12.643,25.715z M7.509,10.318c0-2.832,2.304-5.134,5.135-5.134c2.831,0,5.134,2.303,5.134,5.134
			v3.936H7.509V10.318z M19.208,14.253v-3.936c0-3.621-2.945-6.565-6.564-6.565c-3.62,0-6.565,2.944-6.565,6.565v3.936H4.237v16.194
			h16.812V14.253H19.208z"/>
		<path opacity="0.1645" fill-rule="evenodd" clip-rule="evenodd" fill="#585657" d="M12.506,25.604
			c-1.532,0-2.772-1.241-2.772-2.772c0-1.083,0.627-2.011,1.532-2.468v-1.795h2.482v1.797c0.905,0.457,1.531,1.383,1.531,2.466
			C15.279,24.362,14.039,25.604,12.506,25.604z M7.373,10.208c0-2.832,2.303-5.134,5.134-5.134c2.83,0,5.134,2.303,5.134,5.134
			v3.936H7.373V10.208z M19.071,14.144v-3.936c0-3.621-2.945-6.565-6.564-6.565c-3.62,0-6.565,2.945-6.565,6.565v3.936H4.101v16.193
			h16.812V14.144H19.071z"/>
		<path opacity="0.1657" fill-rule="evenodd" clip-rule="evenodd" fill="#575556" d="M12.37,25.494
			c-1.531,0-2.772-1.242-2.772-2.773c0-1.083,0.626-2.011,1.532-2.467v-1.796h2.481v1.798c0.905,0.457,1.532,1.383,1.532,2.466
			C15.143,24.252,13.901,25.494,12.37,25.494z M7.236,10.097c0-2.831,2.303-5.134,5.134-5.134c2.831,0,5.133,2.303,5.133,5.134
			v3.936H7.236V10.097z M18.935,14.033v-3.936c0-3.621-2.945-6.565-6.564-6.565s-6.565,2.944-6.565,6.565v3.936H3.964v16.193h16.812
			V14.033H18.935z"/>
		<path opacity="0.1669" fill-rule="evenodd" clip-rule="evenodd" fill="#575455" d="M12.233,25.384
			c-1.531,0-2.772-1.241-2.772-2.773c0-1.083,0.626-2.01,1.532-2.467v-1.796h2.481v1.797c0.905,0.457,1.532,1.383,1.532,2.466
			C15.006,24.143,13.765,25.384,12.233,25.384z M7.099,9.987c0-2.832,2.303-5.134,5.135-5.134c2.83,0,5.133,2.303,5.133,5.134v3.936
			H7.099V9.987z M18.798,13.922V9.987c0-3.621-2.945-6.565-6.564-6.565c-3.62,0-6.566,2.944-6.566,6.565v3.936h-1.84v16.194h16.812
			V13.922H18.798z"/>
		<path opacity="0.168" fill-rule="evenodd" clip-rule="evenodd" fill="#565455" d="M12.096,25.273
			c-1.531,0-2.772-1.242-2.772-2.773c0-1.083,0.626-2.01,1.532-2.468v-1.796h2.481v1.798c0.905,0.457,1.532,1.384,1.532,2.466
			C14.87,24.031,13.628,25.273,12.096,25.273z M6.962,9.876c0-2.832,2.303-5.134,5.135-5.134c2.83,0,5.133,2.303,5.133,5.134v3.936
			H6.962V9.876z M18.661,13.812V9.876c0-3.62-2.944-6.565-6.564-6.565c-3.621,0-6.565,2.945-6.565,6.565v3.936H3.69v16.193h16.812
			V13.812H18.661z"/>
		<path opacity="0.1692" fill-rule="evenodd" clip-rule="evenodd" fill="#555354" d="M11.959,25.163
			c-1.531,0-2.772-1.241-2.772-2.773c0-1.083,0.626-2.011,1.532-2.468v-1.796h2.481v1.798c0.905,0.457,1.531,1.383,1.531,2.466
			C14.732,23.922,13.491,25.163,11.959,25.163z M6.826,9.766c0-2.831,2.303-5.134,5.135-5.134c2.83,0,5.133,2.303,5.133,5.134v3.936
			H6.826V9.766z M18.524,13.702V9.766c0-3.621-2.944-6.565-6.564-6.565c-3.62,0-6.565,2.944-6.565,6.565v3.936H3.554v16.194h16.812
			V13.702H18.524z"/>
		<path opacity="0.1704" fill-rule="evenodd" clip-rule="evenodd" fill="#545253" d="M11.822,25.053
			c-1.531,0-2.771-1.241-2.771-2.773c0-1.083,0.626-2.01,1.532-2.468v-1.795h2.481v1.797c0.905,0.457,1.532,1.384,1.532,2.466
			C14.596,23.812,13.354,25.053,11.822,25.053z M6.689,9.656c0-2.831,2.303-5.134,5.135-5.134c2.83,0,5.133,2.303,5.133,5.134v3.936
			H6.689V9.656z M18.388,13.592V9.656c0-3.621-2.944-6.565-6.564-6.565c-3.62,0-6.565,2.944-6.565,6.565v3.936H3.417v16.193h16.812
			V13.592H18.388z"/>
		<path opacity="0.1716" fill-rule="evenodd" clip-rule="evenodd" fill="#535152" d="M11.687,24.942
			c-1.532,0-2.772-1.241-2.772-2.773c0-1.083,0.627-2.01,1.532-2.467v-1.796h2.481v1.798c0.905,0.457,1.532,1.384,1.532,2.466
			C14.459,23.701,13.218,24.942,11.687,24.942z M6.552,9.545c0-2.831,2.303-5.134,5.135-5.134c2.83,0,5.133,2.303,5.133,5.134v3.936
			H6.552V9.545z M18.251,13.481V9.545c0-3.621-2.944-6.564-6.564-6.564c-3.62,0-6.565,2.944-6.565,6.564v3.936H3.281v16.194h16.812
			V13.481H18.251z"/>
		<path opacity="0.1728" fill-rule="evenodd" clip-rule="evenodd" fill="#525151" d="M11.549,24.832
			c-1.532,0-2.772-1.241-2.772-2.773c0-1.083,0.626-2.011,1.532-2.467v-1.796h2.481v1.798c0.905,0.457,1.532,1.384,1.532,2.466
			C14.323,23.591,13.082,24.832,11.549,24.832z M6.416,9.436c0-2.832,2.303-5.135,5.134-5.135s5.134,2.303,5.134,5.135v3.936H6.416
			V9.436z M18.114,13.371V9.436c0-3.621-2.944-6.565-6.564-6.565S4.985,5.815,4.985,9.436v3.936H3.144v16.194h16.812V13.371H18.114z
			"/>
		<path opacity="0.174" fill-rule="evenodd" clip-rule="evenodd" fill="#515051" d="M11.413,24.722
			c-1.531,0-2.772-1.241-2.772-2.773c0-1.083,0.626-2.01,1.532-2.467v-1.796h2.481v1.797c0.905,0.457,1.531,1.384,1.531,2.466
			C14.186,23.48,12.944,24.722,11.413,24.722z M6.279,9.325c0-2.832,2.303-5.135,5.135-5.135c2.83,0,5.133,2.303,5.133,5.135v3.936
			H6.279V9.325z M17.978,13.261V9.325c0-3.621-2.944-6.565-6.563-6.565c-3.621,0-6.566,2.944-6.566,6.565v3.936H3.007v16.194h16.812
			V13.261H17.978z"/>
		<path opacity="0.1751" fill-rule="evenodd" clip-rule="evenodd" fill="#514F50" d="M11.276,24.611
			c-1.531,0-2.772-1.241-2.772-2.773c0-1.083,0.626-2.01,1.532-2.467v-1.796h2.482v1.798c0.905,0.457,1.532,1.384,1.532,2.466
			C14.049,23.37,12.808,24.611,11.276,24.611z M6.142,9.215c0-2.832,2.303-5.134,5.135-5.134c2.831,0,5.133,2.303,5.133,5.134v3.936
			H6.142V9.215z M17.841,13.15V9.215c0-3.621-2.944-6.565-6.564-6.565c-3.62,0-6.565,2.945-6.565,6.565v3.936H2.871v16.194h16.812
			V13.15H17.841z"/>
		<path opacity="0.1763" fill-rule="evenodd" clip-rule="evenodd" fill="#504E4F" d="M11.139,24.501
			c-1.531,0-2.772-1.241-2.772-2.773c0-1.083,0.626-2.01,1.532-2.467v-1.796h2.481v1.797c0.905,0.457,1.532,1.384,1.532,2.466
			C13.913,23.26,12.671,24.501,11.139,24.501z M6.005,9.104c0-2.831,2.303-5.134,5.135-5.134c2.83,0,5.133,2.303,5.133,5.134v3.936
			H6.005V9.104z M17.704,13.04V9.104c0-3.621-2.944-6.565-6.564-6.565c-3.62,0-6.565,2.944-6.565,6.565v3.936H2.734v16.194h16.812
			V13.04H17.704z"/>
		<path opacity="0.1775" fill-rule="evenodd" clip-rule="evenodd" fill="#4F4D4E" d="M11.002,24.391
			c-1.531,0-2.772-1.241-2.772-2.773c0-1.083,0.626-2.01,1.532-2.467v-1.796h2.481v1.797c0.905,0.457,1.532,1.384,1.532,2.466
			C13.776,23.149,12.534,24.391,11.002,24.391z M5.869,8.994c0-2.831,2.303-5.134,5.135-5.134c2.83,0,5.133,2.303,5.133,5.134v3.936
			H5.869V8.994z M17.567,12.93V8.994c0-3.621-2.944-6.565-6.564-6.565c-3.62,0-6.565,2.945-6.565,6.565v3.936H2.598v16.194h16.811
			V12.93H17.567z"/>
		<path opacity="0.1787" fill-rule="evenodd" clip-rule="evenodd" fill="#4E4D4E" d="M10.866,24.28
			c-1.531,0-2.772-1.241-2.772-2.773c0-1.082,0.626-2.01,1.532-2.467v-1.796h2.482v1.797c0.905,0.457,1.531,1.384,1.531,2.466
			C13.639,23.039,12.398,24.28,10.866,24.28z M5.732,8.884c0-2.832,2.303-5.134,5.135-5.134C13.697,3.75,16,6.052,16,8.884v3.936
			H5.732V8.884z M17.431,12.82V8.884c0-3.62-2.944-6.565-6.564-6.565S4.301,5.264,4.301,8.884v3.936H2.46v16.194h16.812V12.82
			H17.431z"/>
		<path opacity="0.1799" fill-rule="evenodd" clip-rule="evenodd" fill="#4D4C4D" d="M10.729,24.17
			c-1.532,0-2.772-1.241-2.772-2.773c0-1.082,0.626-2.01,1.532-2.467v-1.796h2.481v1.798c0.905,0.457,1.532,1.383,1.532,2.465
			C13.502,22.929,12.261,24.17,10.729,24.17z M5.595,8.773c0-2.831,2.304-5.134,5.135-5.134c2.83,0,5.133,2.303,5.133,5.134v3.936
			H5.595V8.773z M17.294,12.709V8.773c0-3.621-2.944-6.564-6.564-6.564S4.165,5.153,4.165,8.773v3.936H2.324v16.194h16.812V12.709
			H17.294z"/>
		<path opacity="0.1811" fill-rule="evenodd" clip-rule="evenodd" fill="#4C4B4C" d="M10.593,24.06
			c-1.531,0-2.772-1.241-2.772-2.772c0-1.083,0.627-2.011,1.532-2.468v-1.796h2.481v1.798c0.905,0.457,1.532,1.383,1.532,2.466
			C13.366,22.818,12.125,24.06,10.593,24.06z M5.458,8.663c0-2.831,2.304-5.134,5.135-5.134c2.831,0,5.133,2.303,5.133,5.134v3.936
			H5.458V8.663z M17.157,12.599V8.663c0-3.621-2.944-6.565-6.564-6.565S4.028,5.042,4.028,8.663v3.936H2.187v16.194h16.812V12.599
			H17.157z"/>
		<path opacity="0.1822" fill-rule="evenodd" clip-rule="evenodd" fill="#4C4A4B" d="M10.456,23.949
			c-1.532,0-2.772-1.241-2.772-2.772c0-1.083,0.626-2.011,1.532-2.468v-1.796h2.481v1.798c0.906,0.457,1.532,1.383,1.532,2.466
			C13.229,22.708,11.988,23.949,10.456,23.949z M5.322,8.553c0-2.831,2.303-5.134,5.135-5.134c2.83,0,5.133,2.303,5.133,5.134v3.936
			H5.322V8.553z M17.021,12.489V8.553c0-3.621-2.944-6.564-6.563-6.564c-3.62,0-6.566,2.944-6.566,6.564v3.936h-1.84v16.194h16.811
			V12.489H17.021z"/>
		<path opacity="0.1834" fill-rule="evenodd" clip-rule="evenodd" fill="#4B4A4B" d="M10.319,23.839
			c-1.531,0-2.772-1.241-2.772-2.772c0-1.083,0.626-2.011,1.532-2.468v-1.796h2.481V18.6c0.906,0.457,1.532,1.383,1.532,2.466
			C13.092,22.598,11.851,23.839,10.319,23.839z M5.186,8.442c0-2.83,2.303-5.134,5.135-5.134c2.83,0,5.133,2.304,5.133,5.134v3.937
			H5.186V8.442z M16.884,12.378V8.442c0-3.62-2.944-6.564-6.563-6.564c-3.621,0-6.565,2.945-6.565,6.564v3.937H1.914v16.194h16.812
			V12.378H16.884z"/>
		<path opacity="0.1846" fill-rule="evenodd" clip-rule="evenodd" fill="#4A494A" d="M10.182,23.729
			c-1.531,0-2.771-1.24-2.771-2.772c0-1.083,0.626-2.011,1.532-2.468v-1.796h2.482v1.797c0.905,0.457,1.531,1.384,1.531,2.467
			C12.956,22.488,11.715,23.729,10.182,23.729z M5.049,8.332c0-2.831,2.303-5.134,5.135-5.134c2.83,0,5.133,2.304,5.133,5.134v3.936
			H5.049V8.332z M16.747,12.268V8.332c0-3.62-2.944-6.564-6.563-6.564c-3.621,0-6.566,2.944-6.566,6.564v3.936H1.777v16.194h16.812
			V12.268H16.747z"/>
		<path opacity="0.1858" fill-rule="evenodd" clip-rule="evenodd" fill="#494849" d="M10.045,23.619
			c-1.531,0-2.772-1.242-2.772-2.773c0-1.083,0.626-2.011,1.533-2.468v-1.796h2.481v1.798c0.905,0.457,1.532,1.383,1.532,2.466
			C12.819,22.377,11.578,23.619,10.045,23.619z M4.912,8.222c0-2.831,2.303-5.134,5.134-5.134c2.831,0,5.134,2.303,5.134,5.134
			v3.936H4.912V8.222z M16.611,12.158V8.222c0-3.62-2.944-6.565-6.564-6.565c-3.62,0-6.565,2.945-6.565,6.565v3.936H1.641v16.194
			h16.812V12.158H16.611z"/>
		<path opacity="0.187" fill-rule="evenodd" clip-rule="evenodd" fill="#484849" d="M9.909,23.508c-1.531,0-2.771-1.24-2.771-2.772
			c0-1.083,0.626-2.011,1.532-2.468v-1.796h2.481v1.798c0.905,0.457,1.532,1.383,1.532,2.466
			C12.683,22.268,11.441,23.508,9.909,23.508z M4.775,8.111c0-2.831,2.303-5.134,5.134-5.134c2.831,0,5.133,2.303,5.133,5.134v3.936
			H4.775V8.111z M16.474,12.047V8.111c0-3.62-2.944-6.564-6.564-6.564c-3.62,0-6.565,2.944-6.565,6.564v3.936h-1.84v16.194h16.812
			V12.047H16.474z"/>
		<path opacity="0.1882" fill-rule="evenodd" clip-rule="evenodd" fill="#484748" d="M9.772,23.397C8.241,23.397,7,22.156,7,20.625
			c0-1.083,0.627-2.011,1.533-2.468v-1.796h2.481v1.797c0.905,0.457,1.532,1.383,1.532,2.466
			C12.545,22.156,11.305,23.397,9.772,23.397z M4.639,8.001c0-2.831,2.303-5.134,5.134-5.134c2.83,0,5.133,2.303,5.133,5.134v3.936
			H4.639V8.001z M16.337,11.937V8.001c0-3.62-2.944-6.565-6.564-6.565S3.208,4.381,3.208,8.001v3.936H1.367v16.194h16.812V11.937
			H16.337z"/>
		<path opacity="0.1893" fill-rule="evenodd" clip-rule="evenodd" fill="#474647" d="M9.636,23.288
			c-1.531,0-2.772-1.242-2.772-2.773c0-1.083,0.626-2.01,1.532-2.468V16.25h2.481v1.798c0.906,0.457,1.532,1.383,1.532,2.466
			C12.409,22.046,11.168,23.288,9.636,23.288z M4.502,7.891c0-2.831,2.303-5.134,5.135-5.134c2.83,0,5.133,2.303,5.133,5.134v3.937
			H4.502V7.891z M16.201,11.827V7.891c0-3.62-2.944-6.564-6.564-6.564c-3.621,0-6.565,2.944-6.565,6.564v3.937H1.23v16.194h16.812
			V11.827H16.201z"/>
		<path opacity="0.1905" fill-rule="evenodd" clip-rule="evenodd" fill="#464546" d="M9.499,23.177c-1.532,0-2.772-1.24-2.772-2.772
			c0-1.083,0.626-2.011,1.532-2.467v-1.796h2.481v1.797c0.906,0.457,1.532,1.383,1.532,2.466
			C12.272,21.937,11.031,23.177,9.499,23.177z M4.365,7.78c0-2.83,2.303-5.134,5.135-5.134c2.83,0,5.133,2.304,5.133,5.134v3.937
			H4.365V7.78z M16.063,11.717V7.78c0-3.62-2.944-6.564-6.563-6.564c-3.62,0-6.566,2.944-6.566,6.564v3.937h-1.84v16.194h16.812
			V11.717H16.063z"/>
		<path opacity="0.1917" fill-rule="evenodd" clip-rule="evenodd" fill="#454546" d="M9.362,23.067
			c-1.531,0-2.772-1.242-2.772-2.773c0-1.083,0.626-2.011,1.532-2.467V16.03h2.482v1.798c0.905,0.457,1.532,1.383,1.532,2.466
			C12.136,21.825,10.895,23.067,9.362,23.067z M4.228,7.67c0-2.831,2.304-5.133,5.135-5.133c2.83,0,5.133,2.303,5.133,5.133v3.936
			H4.228V7.67z M15.927,11.606V7.67c0-3.62-2.944-6.564-6.564-6.564c-3.62,0-6.565,2.944-6.565,6.564v3.936H0.957v16.195h16.812
			V11.606H15.927z"/>
		<path opacity="0.1929" fill-rule="evenodd" clip-rule="evenodd" fill="#444445" d="M9.226,22.957
			c-1.532,0-2.772-1.241-2.772-2.773c0-1.083,0.626-2.01,1.532-2.467V15.92h2.482v1.798c0.905,0.457,1.531,1.383,1.531,2.466
			C11.999,21.716,10.758,22.957,9.226,22.957z M4.091,7.56c0-2.831,2.304-5.133,5.135-5.133c2.83,0,5.133,2.303,5.133,5.133v3.936
			H4.091V7.56z M15.791,11.496V7.56c0-3.62-2.944-6.564-6.564-6.564c-3.621,0-6.566,2.944-6.566,6.564v3.936H0.82V27.69h16.812
			V11.496H15.791z"/>
		<path opacity="0.1941" fill-rule="evenodd" clip-rule="evenodd" fill="#444344" d="M9.089,22.847
			c-1.531,0-2.772-1.241-2.772-2.773c0-1.083,0.626-2.011,1.532-2.468V15.81h2.482v1.798c0.905,0.456,1.532,1.383,1.532,2.466
			C11.862,21.605,10.621,22.847,9.089,22.847z M3.955,7.449c0-2.831,2.304-5.133,5.135-5.133c2.83,0,5.133,2.303,5.133,5.133v3.937
			H3.955V7.449z M15.653,11.386V7.449c0-3.62-2.944-6.564-6.563-6.564c-3.62,0-6.565,2.945-6.565,6.564v3.937H0.684V27.58h16.812
			V11.386H15.653z"/>
		<path opacity="0.1953" fill-rule="evenodd" clip-rule="evenodd" fill="#434344" d="M8.952,22.736
			c-1.531,0-2.771-1.241-2.771-2.773c0-1.083,0.626-2.011,1.532-2.468v-1.796h2.481v1.798c0.905,0.457,1.532,1.384,1.532,2.467
			C11.726,21.495,10.484,22.736,8.952,22.736z M3.818,7.339c0-2.831,2.303-5.134,5.134-5.134c2.831,0,5.134,2.304,5.134,5.134v3.936
			H3.818V7.339z M15.517,11.275V7.339c0-3.62-2.944-6.564-6.564-6.564c-3.62,0-6.565,2.944-6.565,6.564v3.936H0.547V27.47h16.812
			V11.275H15.517z"/>
		<path opacity="0.1964" fill-rule="evenodd" clip-rule="evenodd" fill="#424243" d="M8.815,22.626
			c-1.531,0-2.772-1.241-2.772-2.773c0-1.083,0.626-2.011,1.532-2.468v-1.796h2.481v1.797c0.906,0.457,1.532,1.384,1.532,2.467
			C11.589,21.385,10.348,22.626,8.815,22.626z M3.682,7.229c0-2.831,2.303-5.134,5.135-5.134c2.83,0,5.133,2.304,5.133,5.134v3.936
			H3.682V7.229z M15.38,11.165V7.229c0-3.621-2.944-6.565-6.564-6.565c-3.62,0-6.565,2.944-6.565,6.565v3.936H0.41v16.194h16.812
			V11.165H15.38z"/>
		<path opacity="0.1976" fill-rule="evenodd" clip-rule="evenodd" fill="#414142" d="M8.679,22.516
			c-1.531,0-2.772-1.241-2.772-2.773c0-1.083,0.626-2.011,1.532-2.468v-1.796H9.92v1.798c0.905,0.457,1.531,1.383,1.531,2.466
			C11.452,21.274,10.211,22.516,8.679,22.516z M3.545,7.119c0-2.831,2.303-5.134,5.135-5.134c2.83,0,5.133,2.303,5.133,5.134v3.936
			H3.545V7.119z M15.244,11.054V7.119c0-3.62-2.944-6.564-6.564-6.564c-3.621,0-6.565,2.944-6.565,6.564v3.936H0.273v16.195h16.812
			V11.054H15.244z"/>
		<path opacity="0.1988" fill-rule="evenodd" clip-rule="evenodd" fill="#414142" d="M8.542,22.405
			c-1.531,0-2.772-1.241-2.772-2.773c0-1.083,0.626-2.011,1.532-2.468v-1.796h2.481v1.798c0.905,0.457,1.532,1.383,1.532,2.466
			C11.315,21.164,10.074,22.405,8.542,22.405z M3.408,7.008c0-2.831,2.303-5.134,5.135-5.134c2.83,0,5.133,2.303,5.133,5.134v3.936
			H3.408V7.008z M15.107,10.944V7.008c0-3.62-2.944-6.565-6.564-6.565c-3.62,0-6.565,2.945-6.565,6.565v3.936H0.137v16.194h16.812
			V10.944H15.107z"/>
		<path opacity="0.2" fill-rule="evenodd" clip-rule="evenodd" fill="#404041" d="M8.405,22.295c-1.531,0-2.772-1.241-2.772-2.773
			c0-1.083,0.626-2.011,1.532-2.468v-1.796h2.481v1.798c0.905,0.457,1.532,1.383,1.532,2.466
			C11.179,21.054,9.938,22.295,8.405,22.295z M3.271,6.898c0-2.831,2.303-5.134,5.135-5.134c2.83,0,5.133,2.303,5.133,5.134v3.936
			H3.271V6.898z M14.97,10.834V6.898c0-3.62-2.944-6.564-6.564-6.564c-3.62,0-6.565,2.944-6.565,6.564v3.936H0v16.194h16.812V10.834
			H14.97z"/>
	</g>
</g>
<path fill-rule="evenodd" clip-rule="evenodd" fill="#404042" d="M15.245,10.693V6.686C15.245,2.999,12.246,0,8.56,0
	C4.873,0,1.874,2.999,1.874,6.686v4.008H0v16.491h17.119V10.693H15.245z M3.331,6.686c0-2.883,2.347-5.229,5.229-5.229
	s5.229,2.346,5.229,5.229v4.008H3.331V6.686z M8.559,22.365c-1.559,0-2.823-1.264-2.823-2.824c0-1.103,0.638-2.048,1.561-2.514
	v-1.829h2.528v1.831c0.92,0.465,1.558,1.409,1.558,2.511C11.382,21.102,10.119,22.365,8.559,22.365z"/>
</svg>
