<svg xmlns="http://www.w3.org/2000/svg" viewBox="0 0 500 500"><defs><style>.cls-1{fill:none;stroke:#f3f3f3;stroke-miterlimit:10;stroke-width:10px;}.cls-2{fill:#f3f3f3;}</style></defs><g id="iconoTikesPendientes"><circle class="cls-1" cx="250.18" cy="249.82" r="237.21"/><path class="cls-2" d="M335.32,222.46v-22c0-38.84-29.23-71.25-68.1-78.76V114.4A17.22,17.22,0,0,0,250,97.18h0a17.22,17.22,0,0,0-17.22,17.22v7.27c-38.87,7.51-68.1,39.92-68.1,78.76v22.71a78.16,78.16,0,0,1-30.88,62.29,10.6,10.6,0,0,0-4.25,8.41v16.53A10.46,10.46,0,0,0,140,320.83H360a10.46,10.46,0,0,0,10.46-10.46V293.16a10.6,10.6,0,0,0-4.25-8.41A78.15,78.15,0,0,1,335.32,222.46Z"/><path class="cls-2" d="M250,374.46a35.34,35.34,0,0,0,35.34-35.34H214.66A35.34,35.34,0,0,0,250,374.46Z"/></g></svg>