<?xml version="1.0" encoding="utf-8"?>
<!-- Generator: Adobe Illustrator 16.0.0, SVG Export Plug-In . SVG Version: 6.00 Build 0)  -->
<!DOCTYPE svg PUBLIC "-//W3C//DTD SVG 1.1//EN" "http://www.w3.org/Graphics/SVG/1.1/DTD/svg11.dtd">
<svg version="1.1" id="Capa_1" xmlns="http://www.w3.org/2000/svg" xmlns:xlink="http://www.w3.org/1999/xlink" x="0px" y="0px"
	 width="40px" height="40px" viewBox="0 0 40 40" enable-background="new 0 0 40 40" xml:space="preserve">
<g>
	<g opacity="0.3">
		<path fill="#F6F6F6" d="M13.957,2.791L9.558,0.08H0v2.711v0.34v16.472h14.343c-0.244-0.689-0.379-1.431-0.379-2.203
			c0-3.645,2.965-6.609,6.609-6.609c3.644,0,6.609,2.965,6.609,6.609c0,0.772-0.134,1.514-0.379,2.203h0.447V2.791H13.957z"/>
		<path fill="#F6F6F6" d="M24.629,17.67h-4.327v-4.214h0.542v3.671h3.785V17.67z M20.573,11.4c-3.313,0-5.999,2.686-5.999,5.999
			s2.686,6,5.999,6s5.999-2.687,5.999-6S23.886,11.4,20.573,11.4z"/>
	</g>
	<g opacity="0.297">
		<path fill="#F6F6F6" d="M14.112,2.98L9.718,0.272H0.171V2.98v0.34v16.453h14.326c-0.244-0.689-0.378-1.429-0.378-2.201
			c0-3.64,2.961-6.602,6.602-6.602c3.64,0,6.601,2.961,6.601,6.602c0,0.772-0.134,1.512-0.378,2.201h0.446V2.98H14.112z"/>
		<path fill="#F6F6F6" d="M24.771,17.843h-4.322v-4.209h0.542V17.3h3.78V17.843z M20.721,11.58c-3.309,0-5.992,2.682-5.992,5.992
			s2.683,5.994,5.992,5.994c3.309,0,5.992-2.684,5.992-5.994S24.029,11.58,20.721,11.58z"/>
	</g>
	<g opacity="0.2941">
		<path fill="#F6F6F6" d="M14.267,3.17L9.878,0.465H0.343V3.17v0.339v16.434h14.31c-0.244-0.688-0.378-1.428-0.378-2.198
			c0-3.636,2.958-6.594,6.594-6.594c3.635,0,6.593,2.958,6.593,6.594c0,0.771-0.134,1.51-0.378,2.198h0.446V3.17H14.267z"/>
		<path fill="#F6F6F6" d="M24.914,18.015h-4.317v-4.204h0.542v3.663h3.775V18.015z M20.868,11.759c-3.306,0-5.985,2.679-5.985,5.985
			s2.68,5.986,5.985,5.986c3.305,0,5.985-2.68,5.985-5.986S24.173,11.759,20.868,11.759z"/>
	</g>
	<g opacity="0.2911">
		<path fill="#F6F6F6" d="M14.422,3.36l-4.384-2.702H0.515V3.36v0.339v16.414h14.292c-0.244-0.687-0.378-1.426-0.378-2.196
			c0-3.632,2.955-6.586,6.586-6.586c3.631,0,6.586,2.954,6.586,6.586c0,0.77-0.134,1.509-0.378,2.196h0.445V3.36H14.422z"/>
		<path fill="#F6F6F6" d="M25.057,18.188h-4.312v-4.199h0.541v3.658h3.771V18.188z M21.016,11.939c-3.301,0-5.978,2.676-5.978,5.978
			c0,3.302,2.677,5.979,5.978,5.979c3.302,0,5.978-2.677,5.978-5.979C26.994,14.615,24.317,11.939,21.016,11.939z"/>
	</g>
	<g opacity="0.2881">
		<path fill="#F6F6F6" d="M14.577,3.55l-4.378-2.698H0.686V3.55v0.338v16.395h14.276c-0.243-0.687-0.377-1.424-0.377-2.193
			c0-3.627,2.951-6.579,6.579-6.579c3.627,0,6.578,2.951,6.578,6.579c0,0.769-0.134,1.506-0.377,2.193h0.445V3.55H14.577z"/>
		<path fill="#F6F6F6" d="M25.2,18.36h-4.307v-4.194h0.54v3.654H25.2V18.36z M21.163,12.119c-3.297,0-5.971,2.673-5.971,5.971
			c0,3.298,2.673,5.972,5.971,5.972c3.298,0,5.971-2.674,5.971-5.972C27.134,14.792,24.461,12.119,21.163,12.119z"/>
	</g>
	<g opacity="0.2851">
		<path fill="#F6F6F6" d="M14.732,3.739l-4.373-2.695H0.857v2.695v0.338v16.375h14.259c-0.242-0.686-0.376-1.422-0.376-2.19
			c0-3.623,2.947-6.571,6.57-6.571s6.57,2.948,6.57,6.571c0,0.768-0.133,1.505-0.376,2.19h0.444V3.739H14.732z"/>
		<path fill="#F6F6F6" d="M25.342,18.533h-4.302v-4.189h0.54v3.649h3.762V18.533z M21.311,12.298c-3.294,0-5.964,2.67-5.964,5.964
			s2.67,5.965,5.964,5.965s5.964-2.671,5.964-5.965S24.604,12.298,21.311,12.298z"/>
	</g>
	<g opacity="0.2822">
		<path fill="#F6F6F6" d="M14.888,3.93L10.52,1.238h-9.49V3.93v0.337v16.356h14.242c-0.243-0.685-0.376-1.42-0.376-2.188
			c0-3.619,2.944-6.562,6.563-6.562c3.619,0,6.563,2.944,6.563,6.562c0,0.768-0.134,1.503-0.376,2.188h0.443V3.93H14.888z"/>
		<path fill="#F6F6F6" d="M25.485,18.705h-4.297v-4.184h0.539v3.646h3.758V18.705z M21.458,12.479c-3.29,0-5.957,2.667-5.957,5.957
			c0,3.29,2.667,5.959,5.957,5.959c3.29,0,5.957-2.669,5.957-5.959C27.415,15.146,24.748,12.479,21.458,12.479z"/>
	</g>
	<g opacity="0.2792">
		<path fill="#F6F6F6" d="M15.043,4.119L10.68,1.43H1.201v2.689v0.337v16.337h14.225c-0.242-0.684-0.375-1.419-0.375-2.185
			c0-3.615,2.94-6.555,6.555-6.555s6.555,2.94,6.555,6.555c0,0.766-0.133,1.501-0.376,2.185h0.443V4.119H15.043z"/>
		<path fill="#F6F6F6" d="M25.628,18.877h-4.292v-4.18h0.538v3.641h3.754V18.877z M21.605,12.658c-3.286,0-5.95,2.664-5.95,5.95
			c0,3.286,2.665,5.951,5.95,5.951c3.286,0,5.95-2.665,5.95-5.951C27.556,15.322,24.892,12.658,21.605,12.658z"/>
	</g>
	<g opacity="0.2762">
		<path fill="#F6F6F6" d="M15.198,4.309L10.84,1.623H1.372v2.686v0.337v16.318h14.209c-0.242-0.684-0.376-1.417-0.376-2.183
			c0-3.61,2.938-6.547,6.548-6.547S28.3,15.17,28.3,18.781c0,0.766-0.133,1.5-0.375,2.183h0.442V4.309H15.198z"/>
		<path fill="#F6F6F6" d="M25.771,19.05h-4.287v-4.174h0.538v3.637h3.749V19.05z M21.753,12.838c-3.282,0-5.943,2.661-5.943,5.943
			s2.661,5.944,5.943,5.944c3.282,0,5.943-2.662,5.943-5.944S25.035,12.838,21.753,12.838z"/>
	</g>
	<g opacity="0.2733">
		<path fill="#F6F6F6" d="M15.354,4.499l-4.353-2.683H1.543v2.683v0.336v16.298h14.192c-0.241-0.682-0.375-1.416-0.375-2.18
			c0-3.606,2.934-6.54,6.54-6.54s6.54,2.934,6.54,6.54c0,0.764-0.133,1.498-0.375,2.18h0.442V4.499H15.354z"/>
		<path fill="#F6F6F6" d="M25.914,19.223h-4.282v-4.169h0.537v3.632h3.745V19.223z M21.9,13.018c-3.278,0-5.936,2.658-5.936,5.936
			c0,3.279,2.658,5.938,5.936,5.938c3.278,0,5.937-2.658,5.937-5.938C27.837,15.675,25.179,13.018,21.9,13.018z"/>
	</g>
	<g opacity="0.2703">
		<path fill="#F6F6F6" d="M15.508,4.689l-4.347-2.68H1.715v2.68v0.336v16.279h14.176c-0.242-0.682-0.375-1.414-0.375-2.178
			c0-3.602,2.93-6.532,6.532-6.532c3.602,0,6.532,2.93,6.532,6.532c0,0.764-0.133,1.496-0.375,2.178h0.442V4.689H15.508z"/>
		<path fill="#F6F6F6" d="M26.056,19.395H21.78V15.23h0.536v3.628h3.74V19.395z M22.048,13.198c-3.275,0-5.929,2.654-5.929,5.929
			c0,3.275,2.654,5.93,5.929,5.93c3.274,0,5.929-2.654,5.929-5.93C27.977,15.852,25.322,13.198,22.048,13.198z"/>
	</g>
	<g opacity="0.2673">
		<path fill="#F6F6F6" d="M15.664,4.878l-4.343-2.676H1.887v2.676v0.335v16.26h14.159c-0.241-0.681-0.375-1.413-0.375-2.175
			c0-3.598,2.927-6.524,6.525-6.524c3.597,0,6.524,2.927,6.524,6.524c0,0.762-0.133,1.494-0.375,2.175h0.441V4.878H15.664z"/>
		<path fill="#F6F6F6" d="M26.199,19.567h-4.272v-4.16h0.536v3.624h3.736V19.567z M22.196,13.377c-3.271,0-5.922,2.651-5.922,5.922
			c0,3.271,2.652,5.923,5.922,5.923c3.27,0,5.922-2.651,5.922-5.923C28.118,16.028,25.466,13.377,22.196,13.377z"/>
	</g>
	<g opacity="0.2644">
		<path fill="#F6F6F6" d="M15.819,5.069l-4.337-2.674H2.058v2.674v0.334v16.241H16.2c-0.24-0.679-0.374-1.41-0.374-2.172
			c0-3.593,2.923-6.517,6.517-6.517s6.517,2.924,6.517,6.517c0,0.762-0.132,1.493-0.374,2.172h0.44V5.069H15.819z"/>
		<path fill="#F6F6F6" d="M26.342,19.74h-4.267v-4.155h0.535v3.62h3.731V19.74z M22.343,13.557c-3.267,0-5.915,2.648-5.915,5.915
			c0,3.267,2.648,5.916,5.915,5.916c3.267,0,5.915-2.649,5.915-5.916C28.258,16.205,25.61,13.557,22.343,13.557z"/>
	</g>
	<g opacity="0.2614">
		<path fill="#F6F6F6" d="M15.974,5.258l-4.332-2.67H2.229v2.67v0.334v16.221h14.125c-0.241-0.679-0.374-1.408-0.374-2.169
			c0-3.589,2.92-6.509,6.509-6.509c3.589,0,6.509,2.92,6.509,6.509c0,0.761-0.132,1.491-0.373,2.169h0.44V5.258H15.974z"/>
		<path fill="#F6F6F6" d="M26.484,19.913h-4.261v-4.15h0.534v3.615h3.727V19.913z M22.49,13.737c-3.262,0-5.907,2.645-5.907,5.908
			c0,3.263,2.645,5.91,5.907,5.91c3.263,0,5.908-2.646,5.908-5.91C28.398,16.382,25.753,13.737,22.49,13.737z"/>
	</g>
	<g opacity="0.2584">
		<path fill="#F6F6F6" d="M16.129,5.448l-4.327-2.667H2.401v2.667v0.334v16.203h14.108c-0.24-0.678-0.373-1.408-0.373-2.167
			c0-3.584,2.916-6.501,6.501-6.501c3.584,0,6.5,2.917,6.5,6.501c0,0.76-0.132,1.49-0.373,2.167h0.439V5.448H16.129z"/>
		<path fill="#F6F6F6" d="M26.627,20.084h-4.256V15.94h0.534v3.611h3.723V20.084z M22.638,13.917c-3.259,0-5.901,2.642-5.901,5.901
			s2.642,5.902,5.901,5.902c3.259,0,5.901-2.643,5.901-5.902S25.897,13.917,22.638,13.917z"/>
	</g>
	<g opacity="0.2554">
		<path fill="#F6F6F6" d="M16.285,5.638l-4.322-2.663H2.572v2.663v0.334v16.183h14.092c-0.24-0.678-0.372-1.405-0.372-2.165
			c0-3.581,2.913-6.494,6.494-6.494c3.58,0,6.493,2.913,6.493,6.494c0,0.759-0.132,1.487-0.373,2.165h0.439V5.638H16.285z"/>
		<path fill="#F6F6F6" d="M26.77,20.257h-4.251v-4.14h0.533v3.606h3.718V20.257z M22.786,14.096c-3.255,0-5.894,2.639-5.894,5.894
			s2.639,5.895,5.894,5.895c3.255,0,5.894-2.64,5.894-5.895S26.041,14.096,22.786,14.096z"/>
	</g>
	<g opacity="0.2525">
		<path fill="#F6F6F6" d="M16.44,5.828l-4.317-2.66H2.744v2.66v0.333v16.164h14.075c-0.239-0.676-0.372-1.404-0.372-2.162
			c0-3.577,2.91-6.486,6.486-6.486c3.576,0,6.485,2.909,6.485,6.486c0,0.758-0.132,1.486-0.372,2.162h0.438V5.828H16.44z"/>
		<path fill="#F6F6F6" d="M26.913,20.43h-4.247v-4.135h0.533v3.602h3.714V20.43z M22.933,14.276c-3.251,0-5.887,2.636-5.887,5.887
			s2.636,5.888,5.887,5.888s5.887-2.637,5.887-5.888S26.184,14.276,22.933,14.276z"/>
	</g>
	<g opacity="0.2495">
		<path fill="#F6F6F6" d="M16.595,6.018L12.283,3.36H2.916v2.658v0.333v16.145h14.058c-0.239-0.677-0.371-1.402-0.371-2.16
			c0-3.571,2.906-6.478,6.478-6.478s6.478,2.906,6.478,6.478c0,0.758-0.132,1.483-0.371,2.16h0.438V6.018H16.595z"/>
		<path fill="#F6F6F6" d="M27.056,20.602h-4.241v-4.13h0.532v3.598h3.709V20.602z M23.081,14.456c-3.248,0-5.88,2.632-5.88,5.88
			c0,3.248,2.633,5.882,5.88,5.882c3.247,0,5.88-2.634,5.88-5.882C28.96,17.088,26.328,14.456,23.081,14.456z"/>
	</g>
	<g opacity="0.2465">
		<path fill="#F6F6F6" d="M16.75,6.207l-4.306-2.654H3.087v2.654V6.54v16.126h14.042c-0.239-0.675-0.371-1.4-0.371-2.157
			c0-3.567,2.902-6.47,6.47-6.47c3.568,0,6.47,2.902,6.47,6.47c0,0.757-0.131,1.482-0.371,2.157h0.437V6.207H16.75z"/>
		<path fill="#F6F6F6" d="M27.198,20.774h-4.236v-4.125h0.531v3.594h3.705V20.774z M23.228,14.636c-3.243,0-5.873,2.629-5.873,5.873
			c0,3.244,2.63,5.874,5.873,5.874c3.244,0,5.874-2.63,5.874-5.874C29.101,17.265,26.471,14.636,23.228,14.636z"/>
	</g>
	<g opacity="0.2436">
		<path fill="#F6F6F6" d="M16.906,6.397l-4.301-2.651H3.259v2.651v0.333v16.106h14.024c-0.239-0.674-0.371-1.398-0.371-2.154
			c0-3.563,2.899-6.462,6.463-6.462s6.462,2.899,6.462,6.462c0,0.756-0.131,1.48-0.371,2.154h0.437V6.397H16.906z"/>
		<path fill="#F6F6F6" d="M27.341,20.947H23.11v-4.12h0.531v3.589h3.7V20.947z M23.375,14.815c-3.24,0-5.866,2.626-5.866,5.866
			c0,3.24,2.626,5.867,5.866,5.867c3.239,0,5.866-2.627,5.866-5.867C29.241,17.441,26.615,14.815,23.375,14.815z"/>
	</g>
	<g opacity="0.2406">
		<path fill="#F6F6F6" d="M17.061,6.587l-4.296-2.647H3.43v2.647v0.332v16.087h14.008c-0.239-0.673-0.371-1.396-0.371-2.151
			c0-3.559,2.896-6.455,6.455-6.455c3.559,0,6.455,2.896,6.455,6.455c0,0.755-0.131,1.479-0.37,2.151h0.437V6.587H17.061z"/>
		<path fill="#F6F6F6" d="M27.484,21.12h-4.226v-4.116h0.53v3.585h3.696V21.12z M23.523,14.995c-3.236,0-5.859,2.623-5.859,5.859
			c0,3.236,2.623,5.86,5.859,5.86c3.235,0,5.859-2.624,5.859-5.86C29.382,17.618,26.758,14.995,23.523,14.995z"/>
	</g>
	<g opacity="0.2376">
		<path fill="#F6F6F6" d="M17.216,6.777l-4.292-2.645H3.602v2.645v0.332v16.068h13.991c-0.238-0.673-0.369-1.396-0.369-2.149
			c0-3.555,2.892-6.447,6.447-6.447c3.555,0,6.447,2.892,6.447,6.447c0,0.753-0.131,1.477-0.37,2.149h0.436V6.777H17.216z"/>
		<path fill="#F6F6F6" d="M27.626,21.292h-4.221v-4.11h0.529v3.581h3.691V21.292z M23.67,15.175c-3.232,0-5.852,2.619-5.852,5.852
			s2.62,5.853,5.852,5.853c3.231,0,5.852-2.62,5.852-5.853S26.902,15.175,23.67,15.175z"/>
	</g>
	<g opacity="0.2347">
		<path fill="#F6F6F6" d="M17.371,6.966l-4.286-2.641H3.773v2.641v0.332v16.048h13.974c-0.238-0.672-0.369-1.394-0.369-2.146
			c0-3.551,2.889-6.439,6.439-6.439s6.439,2.889,6.439,6.439c0,0.753-0.131,1.475-0.369,2.146h0.436V6.966H17.371z"/>
		<path fill="#F6F6F6" d="M27.77,21.464h-4.216v-4.106h0.529v3.577h3.688V21.464z M23.818,15.355c-3.228,0-5.845,2.617-5.845,5.845
			c0,3.229,2.617,5.846,5.845,5.846s5.845-2.617,5.845-5.846C29.663,17.972,27.046,15.355,23.818,15.355z"/>
	</g>
	<g opacity="0.2317">
		<path fill="#F6F6F6" d="M17.526,7.157l-4.281-2.639H3.944v2.639v0.33v16.029h13.958c-0.238-0.671-0.369-1.393-0.369-2.144
			c0-3.547,2.885-6.432,6.433-6.432c3.546,0,6.431,2.885,6.431,6.432c0,0.751-0.13,1.473-0.368,2.144h0.435V7.157H17.526z"/>
		<path fill="#F6F6F6" d="M27.912,21.636h-4.211v-4.101h0.528v3.572h3.683V21.636z M23.966,15.534c-3.224,0-5.838,2.614-5.838,5.838
			c0,3.224,2.614,5.839,5.838,5.839c3.224,0,5.838-2.615,5.838-5.839C29.804,18.148,27.189,15.534,23.966,15.534z"/>
	</g>
	<g opacity="0.2287">
		<path fill="#F6F6F6" d="M17.682,7.346l-4.275-2.635h-9.29v2.635v0.331v16.009h13.941c-0.237-0.67-0.369-1.391-0.369-2.141
			c0-3.542,2.882-6.425,6.425-6.425c3.542,0,6.424,2.882,6.424,6.425c0,0.75-0.131,1.471-0.369,2.141h0.434V7.346H17.682z"/>
		<path fill="#F6F6F6" d="M28.055,21.809h-4.206v-4.096h0.527v3.568h3.678V21.809z M24.113,15.714c-3.221,0-5.832,2.61-5.832,5.831
			c0,3.22,2.611,5.832,5.832,5.832c3.22,0,5.83-2.612,5.83-5.832C29.943,18.324,27.333,15.714,24.113,15.714z"/>
	</g>
	<g opacity="0.2257">
		<path fill="#F6F6F6" d="M17.837,7.536l-4.271-2.632H4.288v2.632v0.33v15.99h13.924c-0.237-0.668-0.368-1.388-0.368-2.139
			c0-3.537,2.879-6.416,6.417-6.416c3.538,0,6.417,2.878,6.417,6.416c0,0.751-0.131,1.471-0.368,2.139h0.434V7.536H17.837z"/>
		<path fill="#F6F6F6" d="M28.198,21.982h-4.201v-4.091h0.526v3.563h3.674V21.982z M24.26,15.894c-3.216,0-5.824,2.607-5.824,5.823
			c0,3.217,2.607,5.826,5.824,5.826c3.217,0,5.824-2.609,5.824-5.826C30.084,18.501,27.477,15.894,24.26,15.894z"/>
	</g>
	<g opacity="0.2228">
		<path fill="#F6F6F6" d="M17.992,7.726l-4.266-2.629H4.459v2.629v0.329v15.972h13.907c-0.237-0.669-0.368-1.388-0.368-2.137
			c0-3.533,2.875-6.408,6.409-6.408s6.409,2.875,6.409,6.408c0,0.749-0.13,1.468-0.368,2.137h0.433V7.726H17.992z"/>
		<path fill="#F6F6F6" d="M28.34,22.154h-4.196v-4.086h0.526v3.56h3.67V22.154z M24.408,16.074c-3.212,0-5.817,2.604-5.817,5.816
			c0,3.214,2.604,5.818,5.817,5.818c3.213,0,5.817-2.604,5.817-5.818C30.225,18.678,27.621,16.074,24.408,16.074z"/>
	</g>
	<g opacity="0.2198">
		<path fill="#F6F6F6" d="M18.147,7.916l-4.261-2.625H4.631v2.625v0.329v15.953h13.891c-0.237-0.668-0.367-1.387-0.367-2.135
			c0-3.529,2.872-6.4,6.401-6.4s6.401,2.871,6.401,6.4c0,0.748-0.13,1.467-0.367,2.135h0.433V7.916H18.147z"/>
		<path fill="#F6F6F6" d="M28.483,22.327h-4.19v-4.081h0.525V21.8h3.665V22.327z M24.555,16.253c-3.208,0-5.81,2.602-5.81,5.81
			c0,3.209,2.601,5.812,5.81,5.812c3.209,0,5.81-2.603,5.81-5.812C30.365,18.855,27.764,16.253,24.555,16.253z"/>
	</g>
	<g opacity="0.2168">
		<path fill="#F6F6F6" d="M18.302,8.105l-4.255-2.623H4.802v2.623v0.329v15.934h13.874c-0.235-0.667-0.366-1.385-0.366-2.132
			c0-3.525,2.868-6.393,6.394-6.393c3.524,0,6.393,2.868,6.393,6.393c0,0.747-0.13,1.465-0.367,2.132h0.433V8.105H18.302z"/>
		<path fill="#F6F6F6" d="M28.626,22.499H24.44v-4.076h0.524v3.551h3.661V22.499z M24.703,16.433c-3.205,0-5.803,2.598-5.803,5.803
			c0,3.206,2.598,5.804,5.803,5.804c3.205,0,5.803-2.598,5.803-5.804C30.506,19.031,27.908,16.433,24.703,16.433z"/>
	</g>
	<g opacity="0.2139">
		<path fill="#F6F6F6" d="M18.458,8.295l-4.25-2.619H4.974v2.619v0.328v15.914h13.857c-0.236-0.666-0.367-1.383-0.367-2.129
			c0-3.521,2.865-6.385,6.386-6.385c3.521,0,6.385,2.864,6.385,6.385c0,0.746-0.129,1.463-0.366,2.129h0.432V8.295H18.458z"/>
		<path fill="#F6F6F6" d="M28.769,22.671h-4.18V18.6h0.524v3.547h3.656V22.671z M24.851,16.613c-3.201,0-5.796,2.595-5.796,5.795
			c0,3.201,2.595,5.797,5.796,5.797c3.201,0,5.795-2.596,5.795-5.797C30.646,19.208,28.051,16.613,24.851,16.613z"/>
	</g>
	<g opacity="0.2109">
		<path fill="#F6F6F6" d="M18.613,8.485l-4.245-2.616H5.146v2.616v0.328v15.895h13.84c-0.235-0.665-0.365-1.38-0.365-2.126
			c0-3.517,2.86-6.378,6.378-6.378c3.516,0,6.377,2.861,6.377,6.378c0,0.746-0.13,1.461-0.366,2.126h0.432V8.485H18.613z"/>
		<path fill="#F6F6F6" d="M28.911,22.844h-4.175v-4.066h0.523v3.542h3.652V22.844z M24.998,16.793c-3.197,0-5.789,2.591-5.789,5.789
			s2.592,5.79,5.789,5.79c3.197,0,5.789-2.593,5.789-5.79S28.195,16.793,24.998,16.793z"/>
	</g>
	<g opacity="0.2079">
		<path fill="#F6F6F6" d="M18.769,8.675l-4.24-2.613H5.317v2.613v0.328v15.875h13.824c-0.235-0.664-0.365-1.379-0.365-2.123
			c0-3.512,2.857-6.37,6.37-6.37s6.37,2.858,6.37,6.37c0,0.744-0.129,1.459-0.365,2.123h0.431V8.675H18.769z"/>
		<path fill="#F6F6F6" d="M29.054,23.016h-4.17v-4.061h0.522v3.538h3.648V23.016z M25.145,16.973c-3.193,0-5.782,2.588-5.782,5.781
			s2.589,5.783,5.782,5.783c3.193,0,5.782-2.59,5.782-5.783S28.338,16.973,25.145,16.973z"/>
	</g>
	<g opacity="0.205">
		<path fill="#F6F6F6" d="M18.923,8.865l-4.235-2.609h-9.2v2.609v0.327v15.855h13.807c-0.234-0.663-0.365-1.377-0.365-2.12
			c0-3.508,2.854-6.362,6.363-6.362c3.508,0,6.361,2.854,6.361,6.362c0,0.743-0.129,1.457-0.364,2.12h0.43V8.865H18.923z"/>
		<path fill="#F6F6F6" d="M29.197,23.189h-4.165v-4.057h0.522v3.533h3.643V23.189z M25.293,17.153c-3.189,0-5.775,2.585-5.775,5.774
			s2.586,5.776,5.775,5.776s5.774-2.587,5.774-5.776S28.482,17.153,25.293,17.153z"/>
	</g>
	<g opacity="0.202">
		<path fill="#F6F6F6" d="M19.078,9.054l-4.229-2.606H5.66v2.606v0.327v15.837H19.45c-0.235-0.663-0.365-1.376-0.365-2.118
			c0-3.504,2.852-6.354,6.355-6.354c3.503,0,6.354,2.851,6.354,6.354c0,0.742-0.129,1.455-0.364,2.118h0.429V9.054H19.078z"/>
		<path fill="#F6F6F6" d="M29.34,23.362h-4.161V19.31h0.521v3.529h3.639V23.362z M25.44,17.332c-3.186,0-5.768,2.582-5.768,5.768
			c0,3.186,2.583,5.769,5.768,5.769s5.768-2.583,5.768-5.769C31.208,19.914,28.626,17.332,25.44,17.332z"/>
	</g>
	<g opacity="0.199">
		<path fill="#F6F6F6" d="M19.234,9.245l-4.225-2.604H5.831v2.604v0.326v15.817h13.773c-0.234-0.661-0.363-1.374-0.363-2.116
			c0-3.499,2.847-6.346,6.347-6.346c3.5,0,6.347,2.847,6.347,6.346c0,0.742-0.129,1.455-0.364,2.116H32V9.245H19.234z"/>
		<path fill="#F6F6F6" d="M29.482,23.534h-4.155v-4.047h0.521v3.525h3.635V23.534z M25.588,17.512c-3.182,0-5.761,2.58-5.761,5.76
			c0,3.183,2.579,5.763,5.761,5.763s5.761-2.58,5.761-5.763C31.349,20.091,28.77,17.512,25.588,17.512z"/>
	</g>
	<g opacity="0.196">
		<path fill="#F6F6F6" d="M19.389,9.434L15.17,6.833H6.003v2.601V9.76v15.798H19.76c-0.234-0.661-0.364-1.372-0.364-2.112
			c0-3.496,2.844-6.34,6.339-6.34c3.495,0,6.339,2.844,6.339,6.34c0,0.74-0.129,1.451-0.363,2.112h0.428V9.434H19.389z"/>
		<path fill="#F6F6F6" d="M29.625,23.706h-4.15v-4.041h0.521v3.521h3.63V23.706z M25.735,17.692c-3.178,0-5.754,2.575-5.754,5.754
			c0,3.178,2.576,5.754,5.754,5.754s5.754-2.576,5.754-5.754C31.489,20.267,28.913,17.692,25.735,17.692z"/>
	</g>
	<g opacity="0.1931">
		<path fill="#F6F6F6" d="M19.544,9.625L15.33,7.027H6.175v2.598V9.95v15.779h13.739c-0.233-0.66-0.363-1.371-0.363-2.111
			c0-3.491,2.841-6.331,6.332-6.331c3.491,0,6.331,2.84,6.331,6.331c0,0.74-0.129,1.451-0.363,2.111h0.429V9.625H19.544z"/>
		<path fill="#F6F6F6" d="M29.768,23.878h-4.145v-4.037h0.52v3.516h3.625V23.878z M25.883,17.872c-3.174,0-5.747,2.573-5.747,5.746
			c0,3.175,2.573,5.748,5.747,5.748s5.747-2.573,5.747-5.748C31.629,20.444,29.057,17.872,25.883,17.872z"/>
	</g>
	<g opacity="0.1901">
		<path fill="#F6F6F6" d="M19.699,9.814L15.49,7.22H6.346v2.594v0.325v15.76h13.723c-0.234-0.659-0.363-1.369-0.363-2.108
			c0-3.486,2.837-6.323,6.324-6.323c3.487,0,6.323,2.837,6.323,6.323c0,0.739-0.128,1.449-0.362,2.108h0.427V9.814H19.699z"/>
		<path fill="#F6F6F6" d="M29.911,24.051h-4.14v-4.032h0.519v3.513h3.622V24.051z M26.03,18.051c-3.17,0-5.74,2.569-5.74,5.739
			c0,3.171,2.57,5.741,5.74,5.741s5.74-2.57,5.74-5.741C31.77,20.621,29.2,18.051,26.03,18.051z"/>
	</g>
	<g opacity="0.1871">
		<path fill="#F6F6F6" d="M19.854,10.004l-4.204-2.591H6.517v2.591v0.325v15.74h13.707c-0.233-0.658-0.362-1.367-0.362-2.105
			c0-3.482,2.833-6.315,6.316-6.315c3.482,0,6.316,2.833,6.316,6.315c0,0.738-0.128,1.447-0.363,2.105h0.427V10.004H19.854z"/>
		<path fill="#F6F6F6" d="M30.054,24.223h-4.136v-4.026h0.519v3.508h3.617V24.223z M26.178,18.231c-3.166,0-5.733,2.566-5.733,5.732
			s2.567,5.734,5.733,5.734s5.732-2.568,5.732-5.734S29.344,18.231,26.178,18.231z"/>
	</g>
	<g opacity="0.1842">
		<path fill="#F6F6F6" d="M20.01,10.193l-4.199-2.587H6.689v2.587v0.325v15.721h13.689c-0.233-0.657-0.362-1.365-0.362-2.103
			c0-3.478,2.83-6.308,6.309-6.308c3.478,0,6.308,2.83,6.308,6.308c0,0.737-0.128,1.445-0.362,2.103h0.426V10.193H20.01z"/>
		<path fill="#F6F6F6" d="M30.196,24.396h-4.13v-4.022h0.518v3.504h3.612V24.396z M26.325,18.411c-3.162,0-5.726,2.563-5.726,5.726
			c0,3.163,2.564,5.728,5.726,5.728s5.726-2.564,5.726-5.728C32.051,20.974,29.487,18.411,26.325,18.411z"/>
	</g>
	<g opacity="0.1812">
		<path fill="#F6F6F6" d="M20.165,10.383l-4.193-2.585H6.86v2.585v0.324V26.41h13.673c-0.232-0.657-0.361-1.364-0.361-2.101
			c0-3.474,2.826-6.3,6.301-6.3c3.474,0,6.3,2.826,6.3,6.3c0,0.736-0.128,1.443-0.362,2.101h0.427V10.383H20.165z"/>
		<path fill="#F6F6F6" d="M30.339,24.569h-4.125v-4.018h0.518v3.499h3.607V24.569z M26.473,18.59c-3.158,0-5.719,2.561-5.719,5.719
			s2.561,5.72,5.719,5.72s5.719-2.562,5.719-5.72S29.631,18.59,26.473,18.59z"/>
	</g>
	<g opacity="0.1782">
		<path fill="#F6F6F6" d="M20.32,10.573l-4.188-2.582H7.031v2.582v0.324V26.58h13.656c-0.232-0.656-0.36-1.362-0.36-2.098
			c0-3.47,2.823-6.293,6.293-6.293s6.292,2.823,6.292,6.293c0,0.735-0.127,1.441-0.361,2.098h0.426V10.573H20.32z"/>
		<path fill="#F6F6F6" d="M30.481,24.741h-4.12v-4.012h0.517v3.494h3.604V24.741z M26.62,18.771c-3.154,0-5.712,2.557-5.712,5.711
			s2.558,5.713,5.712,5.713s5.712-2.559,5.712-5.713S29.774,18.771,26.62,18.771z"/>
	</g>
	<g opacity="0.1752">
		<path fill="#F6F6F6" d="M20.476,10.763l-4.184-2.578H7.203v2.578v0.323V26.75h13.64c-0.232-0.655-0.36-1.36-0.36-2.095
			c0-3.466,2.819-6.285,6.285-6.285c3.465,0,6.285,2.819,6.285,6.285c0,0.734-0.127,1.439-0.36,2.095h0.425V10.763H20.476z"/>
		<path fill="#F6F6F6" d="M30.625,24.913H26.51v-4.007h0.516v3.491h3.599V24.913z M26.768,18.95c-3.15,0-5.705,2.555-5.705,5.705
			s2.554,5.706,5.705,5.706s5.705-2.556,5.705-5.706S29.918,18.95,26.768,18.95z"/>
	</g>
	<g opacity="0.1723">
		<path fill="#F6F6F6" d="M20.63,10.953l-4.177-2.575H7.375v2.575v0.323V26.92h13.622c-0.231-0.655-0.359-1.359-0.359-2.093
			c0-3.462,2.816-6.277,6.277-6.277s6.277,2.815,6.277,6.277c0,0.733-0.128,1.438-0.36,2.093h0.424V10.953H20.63z"/>
		<path fill="#F6F6F6" d="M30.767,25.085h-4.11v-4.002h0.516v3.485h3.594V25.085z M26.915,19.129c-3.146,0-5.697,2.551-5.697,5.698
			s2.551,5.698,5.697,5.698s5.698-2.551,5.698-5.698S30.062,19.129,26.915,19.129z"/>
	</g>
	<g opacity="0.1693">
		<path fill="#F6F6F6" d="M20.786,11.142l-4.173-2.571H7.546v2.571v0.323V27.09h13.606c-0.231-0.654-0.359-1.357-0.359-2.09
			c0-3.457,2.812-6.27,6.27-6.27s6.27,2.812,6.27,6.27c0,0.732-0.127,1.436-0.359,2.09h0.423V11.142H20.786z"/>
		<path fill="#F6F6F6" d="M30.91,25.258h-4.105V21.26h0.515v3.482h3.591V25.258z M27.062,19.31c-3.143,0-5.69,2.547-5.69,5.691
			c0,3.143,2.548,5.691,5.69,5.691s5.691-2.549,5.691-5.691C32.753,21.857,30.205,19.31,27.062,19.31z"/>
	</g>
	<g opacity="0.1663">
		<path fill="#F6F6F6" d="M20.941,11.333l-4.167-2.568H7.718v2.568v0.322V27.26h13.589c-0.232-0.652-0.359-1.355-0.359-2.088
			c0-3.452,2.809-6.261,6.262-6.261c3.453,0,6.262,2.809,6.262,6.261c0,0.732-0.127,1.436-0.359,2.088h0.423V11.333H20.941z"/>
		<path fill="#F6F6F6" d="M31.053,25.43h-4.1v-3.992h0.514v3.478h3.586V25.43z M27.21,19.489c-3.139,0-5.684,2.544-5.684,5.683
			c0,3.141,2.544,5.686,5.684,5.686c3.139,0,5.684-2.545,5.684-5.686C32.894,22.034,30.349,19.489,27.21,19.489z"/>
	</g>
	<g opacity="0.1634">
		<path fill="#F6F6F6" d="M21.096,11.522l-4.162-2.565H7.889v2.565v0.322V27.43h13.573c-0.231-0.651-0.358-1.354-0.358-2.085
			c0-3.448,2.805-6.254,6.254-6.254s6.254,2.806,6.254,6.254c0,0.731-0.127,1.434-0.358,2.085h0.423V11.522H21.096z"/>
		<path fill="#F6F6F6" d="M31.195,25.603h-4.095v-3.987h0.514v3.474h3.581V25.603z M27.357,19.669c-3.135,0-5.677,2.541-5.677,5.676
			c0,3.136,2.542,5.679,5.677,5.679s5.677-2.543,5.677-5.679C33.034,22.21,30.492,19.669,27.357,19.669z"/>
	</g>
	<g opacity="0.1604">
		<path fill="#F6F6F6" d="M21.251,11.712l-4.158-2.563H8.061v2.563v0.321V27.6h13.555c-0.23-0.65-0.358-1.352-0.358-2.082
			c0-3.443,2.802-6.246,6.247-6.246s6.246,2.802,6.246,6.246c0,0.73-0.127,1.432-0.358,2.082h0.422V11.712H21.251z"/>
		<path fill="#F6F6F6" d="M31.338,25.776h-4.089v-3.982h0.513v3.469h3.577V25.776z M27.505,19.849c-3.131,0-5.67,2.538-5.67,5.669
			c0,3.132,2.539,5.671,5.67,5.671c3.131,0,5.67-2.539,5.67-5.671C33.175,22.387,30.636,19.849,27.505,19.849z"/>
	</g>
	<g opacity="0.1574">
		<path fill="#F6F6F6" d="M21.406,11.902l-4.152-2.559H8.232v2.559v0.321v15.548h13.539c-0.23-0.65-0.358-1.351-0.358-2.08
			c0-3.439,2.798-6.238,6.239-6.238s6.238,2.799,6.238,6.238c0,0.729-0.126,1.43-0.357,2.08h0.422V11.902H21.406z"/>
		<path fill="#F6F6F6" d="M31.48,25.948h-4.084V21.97h0.512v3.465h3.572V25.948z M27.652,20.029c-3.127,0-5.663,2.535-5.663,5.662
			c0,3.128,2.536,5.664,5.663,5.664c3.127,0,5.663-2.536,5.663-5.664C33.315,22.564,30.78,20.029,27.652,20.029z"/>
	</g>
	<g opacity="0.1545">
		<path fill="#F6F6F6" d="M21.562,12.092l-4.146-2.556H8.404v2.556v0.32v15.529h13.522c-0.229-0.649-0.357-1.349-0.357-2.077
			c0-3.436,2.795-6.23,6.231-6.23s6.231,2.795,6.231,6.23c0,0.729-0.127,1.428-0.357,2.077h0.421V12.092H21.562z"/>
		<path fill="#F6F6F6" d="M31.624,26.12h-4.08v-3.973h0.512v3.461h3.568V26.12z M27.8,20.208c-3.123,0-5.655,2.532-5.655,5.655
			c0,3.124,2.532,5.657,5.655,5.657c3.124,0,5.656-2.533,5.656-5.657C33.456,22.741,30.923,20.208,27.8,20.208z"/>
	</g>
	<g opacity="0.1515">
		<path fill="#F6F6F6" d="M21.717,12.282l-4.142-2.553h-9v2.553v0.32v15.51h13.506c-0.23-0.649-0.357-1.348-0.357-2.075
			c0-3.432,2.792-6.223,6.224-6.223s6.224,2.792,6.224,6.223c0,0.728-0.127,1.426-0.357,2.075h0.421v-15.83H21.717z"/>
		<path fill="#F6F6F6" d="M31.766,26.292h-4.074v-3.968h0.511v3.457h3.563V26.292z M27.947,20.388c-3.119,0-5.648,2.529-5.648,5.648
			c0,3.12,2.529,5.649,5.648,5.649c3.12,0,5.649-2.529,5.649-5.649C33.597,22.917,31.067,20.388,27.947,20.388z"/>
	</g>
	<g opacity="0.1485">
		<path fill="#F6F6F6" d="M21.872,12.471l-4.137-2.55H8.747v2.55v0.32v15.49h13.488c-0.229-0.648-0.356-1.346-0.356-2.072
			c0-3.427,2.789-6.216,6.216-6.216c3.428,0,6.216,2.789,6.216,6.216c0,0.727-0.127,1.424-0.356,2.072h0.42V12.471H21.872z"/>
		<path fill="#F6F6F6" d="M31.909,26.465H27.84v-3.963h0.51v3.452h3.56V26.465z M28.095,20.568c-3.115,0-5.642,2.526-5.642,5.642
			c0,3.116,2.526,5.643,5.642,5.643c3.116,0,5.642-2.526,5.642-5.643C33.737,23.094,31.211,20.568,28.095,20.568z"/>
	</g>
	<g opacity="0.1455">
		<path fill="#F6F6F6" d="M22.027,12.661l-4.132-2.546H8.918v2.546v0.319v15.471h13.472c-0.229-0.647-0.356-1.344-0.356-2.069
			c0-3.423,2.785-6.208,6.208-6.208s6.208,2.785,6.208,6.208c0,0.726-0.126,1.422-0.356,2.069h0.42V12.661H22.027z"/>
		<path fill="#F6F6F6" d="M32.052,26.637h-4.064V22.68h0.509v3.447h3.555V26.637z M28.242,20.748c-3.111,0-5.635,2.522-5.635,5.635
			s2.523,5.636,5.635,5.636c3.112,0,5.635-2.523,5.635-5.636S31.354,20.748,28.242,20.748z"/>
	</g>
	<g opacity="0.1426">
		<path fill="#F6F6F6" d="M22.183,12.851l-4.126-2.543H9.09v2.543v0.318v15.452h13.455c-0.229-0.646-0.355-1.342-0.355-2.066
			c0-3.419,2.781-6.2,6.2-6.2s6.2,2.781,6.2,6.2c0,0.725-0.126,1.42-0.355,2.066h0.419V12.851H22.183z"/>
		<path fill="#F6F6F6" d="M32.194,26.81h-4.059v-3.953h0.509V26.3h3.55V26.81z M28.39,20.927c-3.108,0-5.627,2.52-5.627,5.628
			s2.52,5.629,5.627,5.629c3.108,0,5.628-2.521,5.628-5.629S31.498,20.927,28.39,20.927z"/>
	</g>
	<g opacity="0.1396">
		<path fill="#F6F6F6" d="M22.338,13.041L18.217,10.5H9.262v2.541v0.318v15.432H22.7c-0.229-0.645-0.355-1.34-0.355-2.063
			c0-3.415,2.778-6.192,6.192-6.192c3.415,0,6.192,2.777,6.192,6.192c0,0.724-0.126,1.419-0.355,2.063h0.418v-15.75H22.338z"/>
		<path fill="#F6F6F6" d="M32.337,26.983h-4.054v-3.949h0.508v3.439h3.546V26.983z M28.537,21.107c-3.104,0-5.621,2.517-5.621,5.621
			s2.517,5.622,5.621,5.622c3.104,0,5.621-2.518,5.621-5.622S31.642,21.107,28.537,21.107z"/>
	</g>
	<g opacity="0.1366">
		<path fill="#F6F6F6" d="M22.493,13.231l-4.116-2.537H9.433v2.537v0.317v15.414h13.421C22.626,28.317,22.5,27.624,22.5,26.9
			c0-3.409,2.774-6.184,6.185-6.184s6.185,2.774,6.185,6.184c0,0.724-0.125,1.417-0.354,2.062h0.418V13.231H22.493z"/>
		<path fill="#F6F6F6" d="M32.479,27.155h-4.049v-3.943h0.508v3.436h3.541V27.155z M28.685,21.288c-3.1,0-5.613,2.513-5.613,5.612
			c0,3.102,2.514,5.615,5.613,5.615c3.101,0,5.614-2.514,5.614-5.615C34.299,23.8,31.785,21.288,28.685,21.288z"/>
	</g>
	<g opacity="0.1337">
		<path fill="#F6F6F6" d="M22.648,13.42l-4.111-2.534H9.604v2.534v0.318v15.394h13.405c-0.228-0.644-0.354-1.337-0.354-2.06
			c0-3.405,2.771-6.176,6.177-6.176c3.406,0,6.176,2.771,6.176,6.176c0,0.723-0.125,1.416-0.354,2.06h0.417V13.42H22.648z"/>
		<path fill="#F6F6F6" d="M32.623,27.328h-4.044v-3.938h0.507v3.43h3.537V27.328z M28.833,21.467c-3.097,0-5.607,2.51-5.607,5.605
			c0,3.098,2.51,5.608,5.607,5.608c3.096,0,5.606-2.511,5.606-5.608C34.439,23.977,31.929,21.467,28.833,21.467z"/>
	</g>
	<g opacity="0.1307">
		<path fill="#F6F6F6" d="M22.804,13.61l-4.106-2.53H9.775v2.53v0.317v15.375h13.389c-0.228-0.643-0.354-1.335-0.354-2.056
			c0-3.402,2.768-6.17,6.169-6.17s6.169,2.768,6.169,6.17c0,0.721-0.126,1.413-0.354,2.056h0.417V13.61H22.804z"/>
		<path fill="#F6F6F6" d="M32.766,27.5h-4.039v-3.934h0.506v3.427h3.533V27.5z M28.98,21.647c-3.092,0-5.6,2.506-5.6,5.6
			c0,3.093,2.507,5.601,5.6,5.601s5.6-2.508,5.6-5.601C34.58,24.153,32.072,21.647,28.98,21.647z"/>
	</g>
	<g opacity="0.1277">
		<path fill="#F6F6F6" d="M22.958,13.8l-4.101-2.527h-8.91V13.8v0.316v15.356h13.372c-0.228-0.643-0.353-1.334-0.353-2.055
			c0-3.397,2.764-6.161,6.162-6.161c3.396,0,6.161,2.764,6.161,6.161c0,0.721-0.126,1.412-0.354,2.055h0.417V13.8H22.958z"/>
		<path fill="#F6F6F6" d="M32.908,27.672h-4.034v-3.929h0.506v3.422h3.528V27.672z M29.128,21.827c-3.089,0-5.594,2.504-5.594,5.592
			c0,3.09,2.505,5.594,5.594,5.594c3.088,0,5.592-2.504,5.592-5.594C34.72,24.331,32.216,21.827,29.128,21.827z"/>
	</g>
	<g opacity="0.1248">
		<path fill="#F6F6F6" d="M23.114,13.99l-4.096-2.524h-8.899v2.524v0.317v15.336h13.354c-0.228-0.642-0.353-1.332-0.353-2.052
			c0-3.393,2.761-6.153,6.154-6.153c3.394,0,6.154,2.761,6.154,6.153c0,0.72-0.125,1.41-0.354,2.052h0.417V13.99H23.114z"/>
		<path fill="#F6F6F6" d="M33.051,27.844h-4.028v-3.923h0.505v3.417h3.523V27.844z M29.274,22.006c-3.084,0-5.585,2.5-5.585,5.585
			s2.5,5.587,5.585,5.587c3.085,0,5.586-2.502,5.586-5.587S32.36,22.006,29.274,22.006z"/>
	</g>
	<g opacity="0.1218">
		<path fill="#F6F6F6" d="M23.269,14.18l-4.09-2.521h-8.888v2.521v0.316v15.317h13.338c-0.227-0.641-0.353-1.33-0.353-2.049
			c0-3.389,2.757-6.146,6.146-6.146s6.146,2.758,6.146,6.146c0,0.719-0.125,1.408-0.353,2.049h0.415V14.18H23.269z"/>
		<path fill="#F6F6F6" d="M33.193,28.017H29.17v-3.918h0.504v3.413h3.519V28.017z M29.422,22.186c-3.081,0-5.579,2.497-5.579,5.578
			s2.498,5.58,5.579,5.58c3.081,0,5.579-2.499,5.579-5.58S32.503,22.186,29.422,22.186z"/>
	</g>
	<g opacity="0.1188">
		<path fill="#F6F6F6" d="M23.425,14.37l-4.086-2.519h-8.877v2.519v0.315v15.298h13.321c-0.227-0.64-0.352-1.328-0.352-2.046
			c0-3.384,2.753-6.138,6.138-6.138c3.384,0,6.138,2.754,6.138,6.138c0,0.718-0.125,1.406-0.352,2.046h0.415V14.37H23.425z"/>
		<path fill="#F6F6F6" d="M33.337,28.19h-4.019v-3.914h0.504v3.409h3.515V28.19z M29.57,22.366c-3.077,0-5.572,2.494-5.572,5.571
			s2.495,5.573,5.572,5.573s5.572-2.496,5.572-5.573S32.647,22.366,29.57,22.366z"/>
	</g>
	<g opacity="0.1158">
		<path fill="#F6F6F6" d="M23.579,14.56l-4.08-2.515h-8.866v2.515v0.315v15.279h13.304c-0.227-0.64-0.352-1.327-0.352-2.044
			c0-3.381,2.75-6.131,6.132-6.131c3.38,0,6.13,2.75,6.13,6.131c0,0.717-0.124,1.404-0.352,2.044h0.415V14.56H23.579z"/>
		<path fill="#F6F6F6" d="M33.479,28.362h-4.014v-3.908h0.503v3.404h3.511V28.362z M29.718,22.545c-3.073,0-5.565,2.491-5.565,5.564
			s2.492,5.566,5.565,5.566c3.073,0,5.564-2.493,5.564-5.566S32.791,22.545,29.718,22.545z"/>
	</g>
	<g opacity="0.1129">
		<path fill="#F6F6F6" d="M23.735,14.75l-4.076-2.512h-8.854v2.512v0.314v15.26h13.288c-0.227-0.638-0.352-1.325-0.352-2.041
			c0-3.376,2.747-6.123,6.124-6.123c3.376,0,6.123,2.747,6.123,6.123c0,0.716-0.125,1.403-0.352,2.041h0.414V14.75H23.735z"/>
		<path fill="#F6F6F6" d="M33.622,28.535h-4.009v-3.903h0.503v3.399h3.506V28.535z M29.865,22.725c-3.07,0-5.558,2.488-5.558,5.558
			s2.488,5.56,5.558,5.56c3.069,0,5.557-2.49,5.557-5.56S32.935,22.725,29.865,22.725z"/>
	</g>
	<g opacity="0.1099">
		<path fill="#F6F6F6" d="M23.89,14.939l-4.07-2.508h-8.843v2.508v0.314v15.24h13.271c-0.227-0.638-0.351-1.323-0.351-2.038
			c0-3.372,2.743-6.115,6.115-6.115s6.116,2.743,6.116,6.115c0,0.715-0.125,1.4-0.351,2.038h0.413V14.939H23.89z"/>
		<path fill="#F6F6F6" d="M33.765,28.707h-4.003v-3.898h0.502v3.396h3.501V28.707z M30.012,22.905c-3.065,0-5.55,2.485-5.55,5.551
			c0,3.066,2.485,5.552,5.55,5.552c3.066,0,5.551-2.485,5.551-5.552C35.562,25.39,33.078,22.905,30.012,22.905z"/>
	</g>
	<g opacity="0.1069">
		<path fill="#F6F6F6" d="M24.045,15.129l-4.065-2.506h-8.833v2.506v0.313v15.221h13.254c-0.226-0.636-0.351-1.321-0.351-2.036
			c0-3.367,2.74-6.106,6.108-6.106s6.108,2.739,6.108,6.106c0,0.715-0.125,1.4-0.351,2.036h0.413V15.129H24.045z"/>
		<path fill="#F6F6F6" d="M33.907,28.879h-3.998v-3.895h0.501v3.393h3.497V28.879z M30.16,23.084c-3.061,0-5.543,2.482-5.543,5.543
			c0,3.062,2.482,5.545,5.543,5.545c3.062,0,5.544-2.482,5.544-5.545C35.704,25.567,33.222,23.084,30.16,23.084z"/>
	</g>
	<g opacity="0.104">
		<path fill="#F6F6F6" d="M24.2,15.319l-4.06-2.502h-8.821v2.502v0.313v15.202h13.237c-0.225-0.637-0.35-1.32-0.35-2.033
			c0-3.363,2.736-6.1,6.1-6.1s6.1,2.736,6.1,6.1c0,0.713-0.125,1.396-0.351,2.033h0.413V15.319H24.2z"/>
		<path fill="#F6F6F6" d="M34.05,29.051h-3.993v-3.889h0.501v3.388h3.492V29.051z M30.307,23.264c-3.058,0-5.537,2.479-5.537,5.537
			c0,3.058,2.479,5.537,5.537,5.537c3.058,0,5.537-2.479,5.537-5.537C35.844,25.743,33.365,23.264,30.307,23.264z"/>
	</g>
	<g opacity="0.101">
		<path fill="#F6F6F6" d="M24.355,15.508l-4.054-2.499h-8.81v2.499v0.313v15.183h13.221c-0.226-0.635-0.35-1.318-0.35-2.031
			c0-3.358,2.733-6.092,6.093-6.092c3.358,0,6.092,2.733,6.092,6.092c0,0.713-0.124,1.396-0.35,2.031h0.412V15.508H24.355z"/>
		<path fill="#F6F6F6" d="M34.193,29.225h-3.989V25.34h0.5v3.383h3.489V29.225z M30.455,23.444c-3.054,0-5.53,2.477-5.53,5.529
			c0,3.055,2.477,5.531,5.53,5.531s5.529-2.477,5.529-5.531C35.984,25.92,33.509,23.444,30.455,23.444z"/>
	</g>
	<g opacity="0.098">
		<path fill="#F6F6F6" d="M24.511,15.699l-4.05-2.496h-8.798v2.496v0.312v15.163h13.204c-0.225-0.634-0.349-1.316-0.349-2.027
			c0-3.355,2.729-6.085,6.085-6.085c3.354,0,6.084,2.729,6.084,6.085c0,0.711-0.124,1.394-0.349,2.027h0.411V15.699H24.511z"/>
		<path fill="#F6F6F6" d="M34.336,29.397h-3.983v-3.879h0.5v3.379h3.484V29.397z M30.603,23.624c-3.051,0-5.522,2.473-5.522,5.523
			c0,3.05,2.472,5.523,5.522,5.523c3.05,0,5.522-2.474,5.522-5.523C36.125,26.096,33.652,23.624,30.603,23.624z"/>
	</g>
	<g opacity="0.095">
		<path fill="#F6F6F6" d="M24.666,15.888l-4.044-2.493h-8.788v2.493v0.312v15.144h13.188c-0.225-0.633-0.349-1.314-0.349-2.025
			c0-3.35,2.726-6.076,6.077-6.076c3.351,0,6.076,2.727,6.076,6.076c0,0.711-0.124,1.393-0.349,2.025h0.411V15.888H24.666z"/>
		<path fill="#F6F6F6" d="M34.479,29.569H30.5v-3.874h0.499v3.375h3.479V29.569z M30.75,23.803c-3.046,0-5.516,2.47-5.516,5.516
			c0,3.047,2.47,5.518,5.516,5.518c3.046,0,5.516-2.471,5.516-5.518C36.266,26.273,33.796,23.803,30.75,23.803z"/>
	</g>
	<g opacity="0.0921">
		<path fill="#F6F6F6" d="M24.821,16.078l-4.039-2.489h-8.777v2.489v0.312v15.124h13.17c-0.224-0.632-0.348-1.312-0.348-2.022
			c0-3.346,2.722-6.068,6.069-6.068c3.346,0,6.069,2.723,6.069,6.068c0,0.71-0.123,1.391-0.348,2.022h0.411V16.078H24.821z"/>
		<path fill="#F6F6F6" d="M34.621,29.742h-3.973v-3.87h0.498v3.371h3.475V29.742z M30.897,23.984c-3.042,0-5.508,2.466-5.508,5.508
			c0,3.043,2.466,5.511,5.508,5.511s5.509-2.468,5.509-5.511C36.406,26.45,33.939,23.984,30.897,23.984z"/>
	</g>
	<g opacity="0.0891">
		<path fill="#F6F6F6" d="M24.977,16.268l-4.034-2.486h-8.766v2.486v0.312v15.105h13.154c-0.224-0.632-0.347-1.312-0.347-2.021
			c0-3.342,2.719-6.061,6.062-6.061c3.342,0,6.061,2.719,6.061,6.061c0,0.709-0.123,1.389-0.348,2.021h0.41V16.268H24.977z"/>
		<path fill="#F6F6F6" d="M34.764,29.914h-3.968v-3.864h0.498v3.366h3.47V29.914z M31.045,24.164c-3.039,0-5.502,2.463-5.502,5.501
			c0,3.039,2.463,5.503,5.502,5.503c3.038,0,5.501-2.464,5.501-5.503C36.546,26.626,34.083,24.164,31.045,24.164z"/>
	</g>
	<g opacity="0.0861">
		<path fill="#F6F6F6" d="M25.132,16.458l-4.029-2.483h-8.754v2.483v0.312v15.086h13.137c-0.224-0.631-0.347-1.31-0.347-2.018
			c0-3.338,2.716-6.054,6.054-6.054s6.053,2.716,6.053,6.054c0,0.708-0.123,1.387-0.347,2.018h0.409V16.458H25.132z"/>
		<path fill="#F6F6F6" d="M34.907,30.086h-3.963v-3.859h0.497v3.361h3.467V30.086z M31.192,24.342c-3.034,0-5.495,2.461-5.495,5.495
			c0,3.035,2.46,5.495,5.495,5.495s5.494-2.46,5.494-5.495C36.687,26.803,34.227,24.342,31.192,24.342z"/>
	</g>
	<g opacity="0.0832">
		<path fill="#F6F6F6" d="M25.287,16.647l-4.024-2.48H12.52v2.48v0.311v15.067h13.121c-0.224-0.631-0.347-1.31-0.347-2.016
			c0-3.334,2.712-6.046,6.046-6.046c3.333,0,6.045,2.712,6.045,6.046c0,0.706-0.123,1.385-0.347,2.016h0.409V16.647H25.287z"/>
		<path fill="#F6F6F6" d="M35.05,30.258h-3.958v-3.854h0.496v3.358h3.462V30.258z M31.34,24.523c-3.031,0-5.488,2.456-5.488,5.487
			s2.457,5.488,5.488,5.488c3.03,0,5.487-2.457,5.487-5.488S34.37,24.523,31.34,24.523z"/>
	</g>
	<g opacity="0.0802">
		<path fill="#F6F6F6" d="M25.442,16.837l-4.019-2.477h-8.732v2.477v0.311v15.048h13.104c-0.223-0.629-0.346-1.307-0.346-2.013
			c0-3.329,2.708-6.038,6.038-6.038c3.329,0,6.038,2.709,6.038,6.038c0,0.706-0.123,1.384-0.346,2.013h0.408V16.837H25.442z"/>
		<path fill="#F6F6F6" d="M35.192,30.432h-3.953v-3.851h0.496v3.354h3.457V30.432z M31.487,24.703c-3.027,0-5.48,2.454-5.48,5.48
			c0,3.027,2.454,5.481,5.48,5.481s5.48-2.454,5.48-5.481C36.968,27.157,34.514,24.703,31.487,24.703z"/>
	</g>
	<g opacity="0.0772">
		<path fill="#F6F6F6" d="M25.598,17.027l-4.014-2.474h-8.721v2.474v0.31v15.029H25.95c-0.223-0.629-0.346-1.305-0.346-2.01
			c0-3.325,2.705-6.03,6.031-6.03c3.325,0,6.03,2.705,6.03,6.03c0,0.705-0.123,1.381-0.346,2.01h0.408V17.027H25.598z"/>
		<path fill="#F6F6F6" d="M35.335,30.604h-3.948v-3.846h0.495v3.35h3.453V30.604z M31.635,24.882c-3.023,0-5.474,2.45-5.474,5.474
			s2.45,5.475,5.474,5.475c3.023,0,5.474-2.451,5.474-5.475S34.658,24.882,31.635,24.882z"/>
	</g>
	<g opacity="0.0743">
		<path fill="#F6F6F6" d="M25.752,17.217l-4.008-2.471h-8.709v2.471v0.31v15.009h13.07c-0.223-0.627-0.345-1.303-0.345-2.008
			c0-3.32,2.702-6.021,6.023-6.021c3.321,0,6.022,2.701,6.022,6.021c0,0.705-0.123,1.381-0.346,2.008h0.407V17.217H25.752z"/>
		<path fill="#F6F6F6" d="M35.478,30.776h-3.942v-3.839h0.494v3.344h3.448V30.776z M31.782,25.062c-3.019,0-5.467,2.447-5.467,5.466
			c0,3.02,2.448,5.469,5.467,5.469s5.467-2.449,5.467-5.469C37.249,27.509,34.801,25.062,31.782,25.062z"/>
	</g>
	<g opacity="0.0713">
		<path fill="#F6F6F6" d="M25.908,17.407l-4.003-2.468h-8.699v2.468v0.309v14.991H26.26c-0.223-0.627-0.346-1.302-0.346-2.005
			c0-3.316,2.699-6.016,6.016-6.016c3.316,0,6.015,2.699,6.015,6.016c0,0.703-0.122,1.378-0.345,2.005h0.406v-15.3H25.908z"/>
		<path fill="#F6F6F6" d="M35.62,30.949h-3.938v-3.835h0.494v3.34h3.443V30.949z M31.93,25.242c-3.016,0-5.46,2.444-5.46,5.46
			c0,3.015,2.444,5.461,5.46,5.461c3.015,0,5.459-2.446,5.459-5.461C37.389,27.686,34.945,25.242,31.93,25.242z"/>
	</g>
	<g opacity="0.0683">
		<path fill="#F6F6F6" d="M26.063,17.596l-3.999-2.464h-8.687v2.464v0.31v14.971h13.037c-0.222-0.626-0.345-1.301-0.345-2.003
			c0-3.312,2.695-6.007,6.008-6.007c3.312,0,6.007,2.695,6.007,6.007c0,0.702-0.122,1.377-0.345,2.003h0.406v-15.28H26.063z"/>
		<path fill="#F6F6F6" d="M35.763,31.122h-3.933v-3.83h0.493v3.336h3.44V31.122z M32.077,25.421c-3.011,0-5.453,2.441-5.453,5.452
			c0,3.012,2.441,5.454,5.453,5.454s5.453-2.442,5.453-5.454C37.53,27.863,35.088,25.421,32.077,25.421z"/>
	</g>
	<g opacity="0.0653">
		<path fill="#F6F6F6" d="M26.218,17.787l-3.993-2.461h-8.676v2.461v0.308v14.952h13.02c-0.222-0.625-0.344-1.298-0.344-2
			c0-3.308,2.691-5.999,6-5.999c3.308,0,5.999,2.691,5.999,5.999c0,0.702-0.122,1.375-0.344,2h0.406v-15.26H26.218z"/>
		<path fill="#F6F6F6" d="M35.906,31.293h-3.927v-3.825h0.492V30.8h3.435V31.293z M32.225,25.601c-3.007,0-5.446,2.438-5.446,5.445
			c0,3.008,2.438,5.447,5.446,5.447s5.445-2.439,5.445-5.447C37.67,28.04,35.232,25.601,32.225,25.601z"/>
	</g>
	<g opacity="0.0624">
		<path fill="#F6F6F6" d="M26.374,17.976l-3.988-2.458h-8.665v2.458v0.308v14.933h13.003c-0.221-0.625-0.344-1.298-0.344-1.998
			c0-3.303,2.688-5.991,5.992-5.991s5.991,2.688,5.991,5.991c0,0.7-0.122,1.373-0.343,1.998h0.405V17.976H26.374z"/>
		<path fill="#F6F6F6" d="M36.048,31.466h-3.922v-3.82h0.492v3.327h3.43V31.466z M32.372,25.781c-3.004,0-5.438,2.436-5.438,5.438
			c0,3.004,2.435,5.439,5.438,5.439c3.003,0,5.438-2.436,5.438-5.439C37.811,28.216,35.375,25.781,32.372,25.781z"/>
	</g>
	<g opacity="0.0594">
		<path fill="#F6F6F6" d="M26.528,18.166l-3.982-2.455h-8.654v2.455v0.308v14.913h12.986c-0.221-0.624-0.343-1.296-0.343-1.995
			c0-3.3,2.685-5.983,5.984-5.983c3.299,0,5.984,2.684,5.984,5.983c0,0.699-0.122,1.371-0.343,1.995h0.404V18.166H26.528z"/>
		<path fill="#F6F6F6" d="M36.191,31.638h-3.917v-3.814h0.49v3.323h3.427V31.638z M32.52,25.961c-3,0-5.432,2.432-5.432,5.431
			c0,3,2.432,5.433,5.432,5.433s5.432-2.433,5.432-5.433C37.951,28.393,35.519,25.961,32.52,25.961z"/>
	</g>
	<g opacity="0.0564">
		<path fill="#F6F6F6" d="M26.684,18.356l-3.977-2.452h-8.643v2.452v0.307v14.894h12.97c-0.221-0.623-0.343-1.293-0.343-1.992
			c0-3.295,2.682-5.977,5.977-5.977s5.976,2.682,5.976,5.977c0,0.699-0.122,1.369-0.343,1.992h0.404V18.356H26.684z"/>
		<path fill="#F6F6F6" d="M36.334,31.811h-3.913V28h0.491v3.319h3.422V31.811z M32.667,26.141c-2.996,0-5.425,2.428-5.425,5.424
			s2.429,5.426,5.425,5.426c2.996,0,5.425-2.43,5.425-5.426S35.663,26.141,32.667,26.141z"/>
	</g>
	<g opacity="0.0535">
		<path fill="#F6F6F6" d="M26.839,18.546l-3.973-2.449h-8.631v2.449v0.307v14.875h12.953c-0.22-0.622-0.342-1.292-0.342-1.989
			c0-3.291,2.678-5.968,5.969-5.968s5.968,2.677,5.968,5.968c0,0.697-0.121,1.367-0.342,1.989h0.404V18.546H26.839z"/>
		<path fill="#F6F6F6" d="M36.477,31.983h-3.908v-3.805h0.49v3.314h3.417V31.983z M32.814,26.321c-2.992,0-5.418,2.425-5.418,5.417
			s2.426,5.419,5.418,5.419c2.992,0,5.418-2.427,5.418-5.419S35.807,26.321,32.814,26.321z"/>
	</g>
	<g opacity="0.0505">
		<path fill="#F6F6F6" d="M26.994,18.735l-3.967-2.445h-8.621v2.445v0.307v14.856h12.937c-0.22-0.622-0.342-1.29-0.342-1.987
			c0-3.287,2.674-5.961,5.961-5.961c3.287,0,5.96,2.674,5.96,5.961c0,0.697-0.121,1.365-0.341,1.987h0.403V18.735H26.994z"/>
		<path fill="#F6F6F6" d="M36.62,32.156h-3.903v-3.801h0.489v3.311h3.414V32.156z M32.962,26.5c-2.988,0-5.411,2.423-5.411,5.411
			s2.422,5.412,5.411,5.412s5.411-2.424,5.411-5.412S35.95,26.5,32.962,26.5z"/>
	</g>
	<g opacity="0.0475">
		<path fill="#F6F6F6" d="M27.149,18.925l-3.962-2.442h-8.609v2.442v0.306v14.836h12.919c-0.22-0.62-0.342-1.289-0.342-1.985
			c0-3.281,2.671-5.952,5.954-5.952s5.953,2.671,5.953,5.952c0,0.696-0.121,1.365-0.341,1.985h0.402V18.925H27.149z"/>
		<path fill="#F6F6F6" d="M36.762,32.329h-3.897v-3.796h0.489v3.306h3.409V32.329z M33.109,26.68c-2.984,0-5.403,2.419-5.403,5.402
			c0,2.985,2.419,5.405,5.403,5.405s5.404-2.42,5.404-5.405C38.513,29.099,36.094,26.68,33.109,26.68z"/>
	</g>
	<g opacity="0.0446">
		<path fill="#F6F6F6" d="M27.305,19.115l-3.957-2.439H14.75v2.439v0.306v14.816h12.903c-0.22-0.62-0.341-1.287-0.341-1.981
			c0-3.278,2.667-5.945,5.946-5.945c3.278,0,5.945,2.667,5.945,5.945c0,0.694-0.121,1.361-0.341,1.981h0.401V19.115H27.305z"/>
		<path fill="#F6F6F6" d="M36.905,32.5h-3.893v-3.79h0.488v3.301h3.404V32.5z M33.257,26.86c-2.981,0-5.397,2.416-5.397,5.396
			s2.416,5.397,5.397,5.397c2.98,0,5.396-2.417,5.396-5.397S36.237,26.86,33.257,26.86z"/>
	</g>
	<g opacity="0.0416">
		<path fill="#F6F6F6" d="M27.46,19.305l-3.952-2.436h-8.587v2.436v0.305v14.798h12.886c-0.219-0.619-0.341-1.286-0.341-1.98
			c0-3.273,2.664-5.937,5.938-5.937c3.274,0,5.938,2.663,5.938,5.937c0,0.694-0.121,1.361-0.341,1.98h0.402V19.305H27.46z"/>
		<path fill="#F6F6F6" d="M37.048,32.673h-3.887v-3.786h0.488v3.298h3.399V32.673z M33.404,27.04c-2.977,0-5.389,2.413-5.389,5.389
			c0,2.978,2.413,5.392,5.389,5.392s5.39-2.414,5.39-5.392C38.794,29.453,36.381,27.04,33.404,27.04z"/>
	</g>
	<g opacity="0.0386">
		<path fill="#F6F6F6" d="M27.615,19.495l-3.947-2.433h-8.576v2.433v0.305v14.779h12.869c-0.219-0.618-0.34-1.284-0.34-1.978
			c0-3.269,2.66-5.93,5.93-5.93s5.93,2.661,5.93,5.93c0,0.693-0.121,1.359-0.34,1.978h0.401V19.495H27.615z"/>
		<path fill="#F6F6F6" d="M37.19,32.845h-3.882v-3.78h0.486v3.293h3.396V32.845z M33.552,27.219c-2.972,0-5.382,2.41-5.382,5.382
			c0,2.974,2.41,5.385,5.382,5.385c2.973,0,5.383-2.411,5.383-5.385C38.935,29.629,36.524,27.219,33.552,27.219z"/>
	</g>
	<g opacity="0.0356">
		<path fill="#F6F6F6" d="M27.77,19.685l-3.941-2.43h-8.564v2.43v0.305v14.759h12.852c-0.218-0.617-0.339-1.282-0.339-1.975
			c0-3.265,2.657-5.922,5.922-5.922s5.922,2.657,5.922,5.922c0,0.692-0.121,1.357-0.34,1.975h0.4V19.685H27.77z"/>
		<path fill="#F6F6F6" d="M37.333,33.018h-3.877v-3.776h0.486v3.29h3.391V33.018z M33.699,27.399c-2.969,0-5.375,2.406-5.375,5.375
			c0,2.97,2.406,5.377,5.375,5.377s5.376-2.407,5.376-5.377C39.075,29.805,36.668,27.399,33.699,27.399z"/>
	</g>
	<g opacity="0.0327">
		<path fill="#F6F6F6" d="M27.926,19.875l-3.937-2.427h-8.553v2.427v0.304v14.74h12.835c-0.219-0.616-0.34-1.28-0.34-1.972
			c0-3.261,2.654-5.914,5.915-5.914s5.915,2.653,5.915,5.914c0,0.691-0.121,1.355-0.34,1.972h0.4V19.875H27.926z"/>
		<path fill="#F6F6F6" d="M37.476,33.19h-3.872v-3.771h0.486v3.284h3.386V33.19z M33.847,27.579c-2.964,0-5.368,2.404-5.368,5.368
			c0,2.966,2.404,5.37,5.368,5.37c2.965,0,5.369-2.404,5.369-5.37C39.216,29.983,36.812,27.579,33.847,27.579z"/>
	</g>
	<g opacity="0.0297">
		<path fill="#F6F6F6" d="M28.081,20.064l-3.931-2.423h-8.542v2.423v0.304v14.721h12.819c-0.218-0.615-0.338-1.278-0.338-1.969
			c0-3.257,2.65-5.906,5.907-5.906c3.257,0,5.907,2.649,5.907,5.906c0,0.69-0.12,1.354-0.339,1.969h0.4V20.064H28.081z"/>
		<path fill="#F6F6F6" d="M37.619,33.363h-3.867v-3.766h0.485v3.28h3.382V33.363z M33.995,27.758c-2.961,0-5.362,2.4-5.362,5.361
			c0,2.962,2.4,5.363,5.362,5.363c2.96,0,5.361-2.401,5.361-5.363C39.356,30.159,36.955,27.758,33.995,27.758z"/>
	</g>
	<g opacity="0.0267">
		<path fill="#F6F6F6" d="M28.236,20.254l-3.926-2.42h-8.532v2.42v0.304v14.701h12.802c-0.218-0.614-0.338-1.276-0.338-1.966
			c0-3.252,2.646-5.898,5.899-5.898c3.252,0,5.899,2.646,5.899,5.898c0,0.689-0.12,1.352-0.338,1.966h0.399V20.254H28.236z"/>
		<path fill="#F6F6F6" d="M37.762,33.536h-3.862v-3.762h0.484v3.276h3.378V33.536z M34.142,27.938c-2.958,0-5.355,2.397-5.355,5.354
			c0,2.958,2.397,5.355,5.355,5.355c2.957,0,5.354-2.397,5.354-5.355C39.497,30.335,37.099,27.938,34.142,27.938z"/>
	</g>
	<g opacity="0.0238">
		<path fill="#F6F6F6" d="M28.391,20.444l-3.921-2.417h-8.52v2.417v0.303v14.683h12.785c-0.217-0.614-0.338-1.275-0.338-1.964
			c0-3.248,2.643-5.892,5.892-5.892s5.892,2.644,5.892,5.892c0,0.688-0.12,1.35-0.338,1.964h0.398V20.444H28.391z"/>
		<path fill="#F6F6F6" d="M37.904,33.708h-3.857v-3.756h0.484v3.271h3.373V33.708z M34.289,28.118c-2.953,0-5.347,2.395-5.347,5.348
			s2.394,5.349,5.347,5.349c2.954,0,5.348-2.396,5.348-5.349S37.243,28.118,34.289,28.118z"/>
	</g>
	<g opacity="0.0208">
		<path fill="#F6F6F6" d="M28.546,20.634L24.63,18.22h-8.509v2.414v0.302v14.663H28.89c-0.217-0.613-0.337-1.273-0.337-1.961
			c0-3.244,2.64-5.883,5.884-5.883c3.245,0,5.884,2.639,5.884,5.883c0,0.688-0.119,1.348-0.337,1.961h0.397V20.634H28.546z"/>
		<path fill="#F6F6F6" d="M38.047,33.88h-3.852v-3.751h0.483v3.267h3.369V33.88z M34.437,28.297c-2.949,0-5.34,2.392-5.34,5.341
			s2.391,5.342,5.34,5.342c2.95,0,5.341-2.393,5.341-5.342S37.386,28.297,34.437,28.297z"/>
	</g>
	<g opacity="0.0178">
		<path fill="#F6F6F6" d="M28.702,20.823l-3.911-2.411h-8.497v2.411v0.302v14.644h12.752c-0.217-0.612-0.337-1.271-0.337-1.958
			c0-3.239,2.636-5.876,5.876-5.876c3.24,0,5.876,2.637,5.876,5.876c0,0.687-0.12,1.346-0.337,1.958h0.397V20.823H28.702z"/>
		<path fill="#F6F6F6" d="M38.19,34.052h-3.847v-3.746h0.482v3.264h3.364V34.052z M34.584,28.477c-2.945,0-5.333,2.389-5.333,5.334
			s2.388,5.335,5.333,5.335c2.946,0,5.333-2.39,5.333-5.335S37.53,28.477,34.584,28.477z"/>
	</g>
	<g opacity="0.0149">
		<path fill="#F6F6F6" d="M28.857,21.014l-3.906-2.408h-8.486v2.408v0.301V35.94H29.2c-0.217-0.611-0.336-1.271-0.336-1.957
			c0-3.234,2.632-5.867,5.869-5.867c3.235,0,5.868,2.633,5.868,5.867c0,0.687-0.12,1.346-0.336,1.957h0.396V21.014H28.857z"/>
		<path fill="#F6F6F6" d="M38.333,34.225h-3.842v-3.741h0.482v3.259h3.36V34.225z M34.732,28.658c-2.942,0-5.327,2.384-5.327,5.325
			c0,2.942,2.385,5.329,5.327,5.329s5.326-2.387,5.326-5.329C40.058,31.042,37.674,28.658,34.732,28.658z"/>
	</g>
	<g opacity="0.0119">
		<path fill="#F6F6F6" d="M29.012,21.204l-3.9-2.405h-8.476v2.405v0.301V36.11h12.718c-0.216-0.611-0.336-1.269-0.336-1.953
			c0-3.231,2.629-5.86,5.861-5.86c3.231,0,5.86,2.629,5.86,5.86c0,0.685-0.12,1.342-0.336,1.953H40.8V21.204H29.012z"/>
		<path fill="#F6F6F6" d="M38.476,34.397h-3.837v-3.735h0.481v3.254h3.356V34.397z M34.879,28.837c-2.938,0-5.32,2.382-5.32,5.319
			s2.382,5.32,5.32,5.32s5.32-2.383,5.32-5.32S37.817,28.837,34.879,28.837z"/>
	</g>
	<g opacity="0.0089">
		<path fill="#F6F6F6" d="M29.167,21.393l-3.896-2.401h-8.464v2.401v0.301V36.28h12.702c-0.216-0.609-0.336-1.267-0.336-1.951
			c0-3.227,2.626-5.852,5.854-5.852c3.227,0,5.853,2.625,5.853,5.852c0,0.685-0.119,1.342-0.336,1.951h0.396V21.393H29.167z"/>
		<path fill="#F6F6F6" d="M38.618,34.57h-3.832v-3.731h0.48v3.25h3.351V34.57z M35.027,29.017c-2.934,0-5.313,2.378-5.313,5.312
			c0,2.935,2.379,5.314,5.313,5.314s5.312-2.38,5.312-5.314C40.339,31.395,37.961,29.017,35.027,29.017z"/>
	</g>
	<g opacity="0.0059">
		<path fill="#F6F6F6" d="M29.322,21.583l-3.89-2.398h-8.453v2.398v0.301V36.45h12.685c-0.216-0.608-0.335-1.265-0.335-1.948
			c0-3.223,2.622-5.845,5.845-5.845c3.223,0,5.845,2.622,5.845,5.845c0,0.684-0.119,1.34-0.336,1.948h0.396V21.583H29.322z"/>
		<path fill="#F6F6F6" d="M38.761,34.743h-3.826v-3.727h0.48v3.246h3.346V34.743z M35.174,29.197c-2.93,0-5.306,2.375-5.306,5.305
			c0,2.931,2.375,5.307,5.306,5.307s5.306-2.376,5.306-5.307C40.48,31.572,38.104,29.197,35.174,29.197z"/>
	</g>
	<g opacity="0.003">
		<path fill="#F6F6F6" d="M29.478,21.773l-3.886-2.395h-8.441v2.395v0.3v14.548h12.668c-0.216-0.608-0.335-1.264-0.335-1.946
			c0-3.218,2.619-5.837,5.838-5.837c3.219,0,5.837,2.619,5.837,5.837c0,0.683-0.119,1.338-0.335,1.946h0.395V21.773H29.478z"/>
		<path fill="#F6F6F6" d="M38.904,34.916h-3.822v-3.723h0.479v3.242h3.343V34.916z M35.322,29.376c-2.926,0-5.299,2.372-5.299,5.298
			c0,2.927,2.373,5.3,5.299,5.3s5.298-2.373,5.298-5.3C40.62,31.749,38.248,29.376,35.322,29.376z"/>
	</g>
	<g opacity="0">
		<path fill="#F6F6F6" d="M29.633,21.962l-3.88-2.392h-8.431v2.392v0.3v14.528h12.651c-0.215-0.607-0.334-1.262-0.334-1.943
			c0-3.214,2.615-5.829,5.83-5.829c3.214,0,5.83,2.615,5.83,5.829c0,0.682-0.119,1.336-0.334,1.943h0.394V21.962H29.633z"/>
		<path fill="#F6F6F6" d="M39.046,35.087H35.23v-3.717h0.479v3.237h3.338V35.087z M35.469,29.556c-2.922,0-5.292,2.369-5.292,5.291
			c0,2.923,2.369,5.293,5.292,5.293s5.292-2.37,5.292-5.293C40.761,31.925,38.392,29.556,35.469,29.556z"/>
	</g>
</g>
<g>
	<path fill="#FFFFFF" d="M13.957,2.791L9.558,0.08H0v2.711v0.34v16.472h14.343c-0.244-0.689-0.379-1.431-0.379-2.203
		c0-3.645,2.965-6.609,6.609-6.609c3.644,0,6.609,2.965,6.609,6.609c0,0.772-0.134,1.514-0.379,2.203h0.447V2.791H13.957z"/>
	<path fill="#FFFFFF" d="M20.573,11.4c-3.313,0-5.999,2.686-5.999,5.999s2.686,6,5.999,6s5.999-2.687,5.999-6
		S23.886,11.4,20.573,11.4z M24.629,17.67h-4.327v-4.214h0.542v3.671h3.785V17.67z"/>
</g>
</svg>
