<?xml version="1.0" encoding="UTF-8"?>
<svg xmlns="http://www.w3.org/2000/svg" xmlns:xlink="http://www.w3.org/1999/xlink" width="20pt" height="20pt" viewBox="0 0 20 20" version="1.1">
<g id="surface1">
<path style=" stroke:none;fill-rule:nonzero;fill:rgb(0%,0%,0%);fill-opacity:1;" d="M 16.875 12.773438 L 3.125 12.773438 C 1.402344 12.773438 0 14.175781 0 15.898438 C 0 17.621094 1.402344 19.023438 3.125 19.023438 L 16.875 19.023438 C 18.597656 19.023438 20 17.621094 20 15.898438 C 20 14.175781 18.597656 12.773438 16.875 12.773438 Z M 4.140625 16.875 C 3.601562 16.875 3.164062 16.4375 3.164062 15.898438 C 3.164062 15.359375 3.601562 14.921875 4.140625 14.921875 C 4.679688 14.921875 5.117188 15.359375 5.117188 15.898438 C 5.117188 16.4375 4.679688 16.875 4.140625 16.875 Z M 8.046875 16.875 C 7.507812 16.875 7.070312 16.4375 7.070312 15.898438 C 7.070312 15.359375 7.507812 14.921875 8.046875 14.921875 C 8.585938 14.921875 9.023438 15.359375 9.023438 15.898438 C 9.023438 16.4375 8.585938 16.875 8.046875 16.875 Z M 11.953125 16.875 C 11.414062 16.875 10.976562 16.4375 10.976562 15.898438 C 10.976562 15.359375 11.414062 14.921875 11.953125 14.921875 C 12.492188 14.921875 12.929688 15.359375 12.929688 15.898438 C 12.929688 16.4375 12.492188 16.875 11.953125 16.875 Z M 15.859375 16.875 C 15.320312 16.875 14.882812 16.4375 14.882812 15.898438 C 14.882812 15.359375 15.320312 14.921875 15.859375 14.921875 C 16.398438 14.921875 16.835938 15.359375 16.835938 15.898438 C 16.835938 16.4375 16.398438 16.875 15.859375 16.875 Z M 15.859375 16.875 "/>
<path style=" stroke:none;fill-rule:nonzero;fill:rgb(0%,0%,0%);fill-opacity:1;" d="M 13.710938 4.960938 L 12.929688 4.960938 L 12.929688 3.90625 C 12.929688 2.289062 11.617188 0.976562 10 0.976562 C 8.382812 0.976562 7.070312 2.289062 7.070312 3.90625 L 7.070312 4.960938 L 6.289062 4.960938 C 5.964844 4.960938 5.703125 5.222656 5.703125 5.546875 L 5.703125 10.195312 C 5.703125 10.519531 5.964844 10.78125 6.289062 10.78125 L 13.710938 10.78125 C 14.035156 10.78125 14.296875 10.519531 14.296875 10.195312 L 14.296875 5.546875 C 14.296875 5.222656 14.035156 4.960938 13.710938 4.960938 Z M 10.585938 8.054688 L 10.585938 8.28125 C 10.585938 8.605469 10.324219 8.867188 10 8.867188 C 9.675781 8.867188 9.414062 8.605469 9.414062 8.28125 L 9.414062 8.054688 C 9.1875 7.96875 9.023438 7.757812 9.023438 7.5 C 9.023438 7.175781 9.285156 6.914062 9.609375 6.914062 L 10.390625 6.914062 C 10.714844 6.914062 10.976562 7.175781 10.976562 7.5 C 10.976562 7.757812 10.8125 7.96875 10.585938 8.054688 Z M 11.757812 4.960938 L 8.242188 4.960938 L 8.242188 3.90625 C 8.242188 2.9375 9.03125 2.148438 10 2.148438 C 10.96875 2.148438 11.757812 2.9375 11.757812 3.90625 Z M 11.757812 4.960938 "/>
</g>
</svg>
