<svg xmlns="http://www.w3.org/2000/svg" viewBox="0 0 488.43 488.43"><defs><style>.cls-1{fill:#2f2f7f;}</style></defs><g id="Capa_2" data-name="Capa 2"><g id="IconosMesaAyuda"><g id="IconoPassword"><path class="cls-1" d="M324.31,228.49H307.66c0-.63,0-1.25,0-1.89V176.75a61.18,61.18,0,1,0-122.35,0V226.6c0,.64,0,1.26,0,1.89H168.46a25.35,25.35,0,0,0-25.35,25.35v81.54a25.35,25.35,0,0,0,25.35,25.35H324.31a25.35,25.35,0,0,0,25.35-25.35V253.84A25.35,25.35,0,0,0,324.31,228.49ZM210.73,226.6V176.75a35.81,35.81,0,0,1,71.61,0V226.6q0,1-.06,1.89h-71.5C210.75,227.87,210.73,227.24,210.73,226.6Z"/><path id="Circulo" class="cls-1" d="M244.21,488.43A244.21,244.21,0,0,1,71.53,71.53,244.21,244.21,0,1,1,416.9,416.9,242.66,242.66,0,0,1,244.21,488.43Zm0-464.43C122.79,24,24,122.79,24,244.21s98.79,220.22,220.21,220.22,220.22-98.79,220.22-220.22S365.64,24,244.21,24Z"/></g></g></g></svg>