<?xml version="1.0" encoding="utf-8"?>
<!-- Generator: Adobe Illustrator 16.0.0, SVG Export Plug-In . SVG Version: 6.00 Build 0)  -->
<!DOCTYPE svg PUBLIC "-//W3C//DTD SVG 1.1//EN" "http://www.w3.org/Graphics/SVG/1.1/DTD/svg11.dtd">
<svg version="1.1" id="Capa_1" xmlns="http://www.w3.org/2000/svg" xmlns:xlink="http://www.w3.org/1999/xlink" x="0px" y="0px"
	 width="40px" height="40px" viewBox="0 0 40 40" enable-background="new 0 0 40 40" xml:space="preserve">
<g>
	<g>
		<polygon opacity="0" fill="#FFFFFF" points="45.288,26.704 32.264,26.704 32.264,13.681 29.035,13.681 29.035,26.704 
			16.011,26.704 16.011,29.933 29.035,29.933 29.035,42.956 32.264,42.956 32.264,29.933 45.288,29.933 		"/>
		<polygon opacity="0.002" fill="#FEFEFE" points="45.183,26.615 32.16,26.615 32.16,13.591 28.93,13.591 28.93,26.615 
			15.907,26.615 15.907,29.843 28.93,29.843 28.93,42.866 32.16,42.866 32.16,29.843 45.183,29.843 		"/>
		<polygon opacity="0.0039" fill="#FEFEFE" points="45.078,26.525 32.055,26.525 32.055,13.502 28.825,13.502 28.825,26.525 
			15.802,26.525 15.802,29.754 28.825,29.754 28.825,42.777 32.055,42.777 32.055,29.754 45.078,29.754 		"/>
		<polygon opacity="0.0059" fill="#FDFDFD" points="44.974,26.436 31.95,26.436 31.95,13.413 28.721,13.413 28.721,26.436 
			15.697,26.436 15.697,29.664 28.721,29.664 28.721,42.688 31.95,42.688 31.95,29.664 44.974,29.664 		"/>
		<polygon opacity="0.0078" fill="#FCFCFC" points="44.869,26.347 31.846,26.347 31.846,13.323 28.616,13.323 28.616,26.347 
			15.593,26.347 15.593,29.575 28.616,29.575 28.616,42.599 31.846,42.599 31.846,29.575 44.869,29.575 		"/>
		<polygon opacity="0.0098" fill="#FCFCFC" points="44.765,26.257 31.741,26.257 31.741,13.233 28.512,13.233 28.512,26.257 
			15.488,26.257 15.488,29.485 28.512,29.485 28.512,42.509 31.741,42.509 31.741,29.485 44.765,29.485 		"/>
		<polygon opacity="0.0118" fill="#FBFBFB" points="44.66,26.168 31.636,26.168 31.636,13.144 28.407,13.144 28.407,26.168 
			15.383,26.168 15.383,29.396 28.407,29.396 28.407,42.42 31.636,42.42 31.636,29.396 44.66,29.396 		"/>
		<polygon opacity="0.0137" fill="#FAFAFA" points="44.555,26.078 31.531,26.078 31.531,13.055 28.302,13.055 28.302,26.078 
			15.279,26.078 15.279,29.307 28.302,29.307 28.302,42.33 31.531,42.33 31.531,29.307 44.555,29.307 		"/>
		<polygon opacity="0.0157" fill="#F9F9F9" points="44.45,25.988 31.427,25.988 31.427,12.965 28.198,12.965 28.198,25.988 
			15.174,25.988 15.174,29.217 28.198,29.217 28.198,42.241 31.427,42.241 31.427,29.217 44.45,29.217 		"/>
		<polygon opacity="0.0176" fill="#F9F9F9" points="44.346,25.899 31.322,25.899 31.322,12.876 28.093,12.876 28.093,25.899 
			15.069,25.899 15.069,29.128 28.093,29.128 28.093,42.151 31.322,42.151 31.322,29.128 44.346,29.128 		"/>
		<polygon opacity="0.0196" fill="#F8F8F8" points="44.241,25.81 31.218,25.81 31.218,12.787 27.988,12.787 27.988,25.81 
			14.965,25.81 14.965,29.038 27.988,29.038 27.988,42.062 31.218,42.062 31.218,29.038 44.241,29.038 		"/>
		<polygon opacity="0.0216" fill="#F7F7F7" points="44.137,25.721 31.113,25.721 31.113,12.697 27.884,12.697 27.884,25.721 
			14.86,25.721 14.86,28.949 27.884,28.949 27.884,41.973 31.113,41.973 31.113,28.949 44.137,28.949 		"/>
		<polygon opacity="0.0235" fill="#F6F6F6" points="44.032,25.631 31.009,25.631 31.009,12.608 27.779,12.608 27.779,25.631 
			14.755,25.631 14.755,28.859 27.779,28.859 27.779,41.883 31.009,41.883 31.009,28.859 44.032,28.859 		"/>
		<polygon opacity="0.0255" fill="#F6F6F6" points="43.927,25.541 30.904,25.541 30.904,12.519 27.674,12.519 27.674,25.541 
			14.65,25.541 14.65,28.771 27.674,28.771 27.674,41.793 30.904,41.793 30.904,28.771 43.927,28.771 		"/>
		<polygon opacity="0.0275" fill="#F5F5F5" points="43.822,25.452 30.799,25.452 30.799,12.429 27.57,12.429 27.57,25.452 
			14.546,25.452 14.546,28.681 27.57,28.681 27.57,41.704 30.799,41.704 30.799,28.681 43.822,28.681 		"/>
		<polygon opacity="0.0294" fill="#F4F4F4" points="43.718,25.363 30.694,25.363 30.694,12.34 27.465,12.34 27.465,25.363 
			14.442,25.363 14.442,28.591 27.465,28.591 27.465,41.615 30.694,41.615 30.694,28.591 43.718,28.591 		"/>
		<polygon opacity="0.0314" fill="#F4F4F4" points="43.613,25.273 30.59,25.273 30.59,12.25 27.36,12.25 27.36,25.273 
			14.337,25.273 14.337,28.502 27.36,28.502 27.36,41.525 30.59,41.525 30.59,28.502 43.613,28.502 		"/>
		<polygon opacity="0.0333" fill="#F3F3F3" points="43.509,25.184 30.485,25.184 30.485,12.161 27.256,12.161 27.256,25.184 
			14.232,25.184 14.232,28.412 27.256,28.412 27.256,41.437 30.485,41.437 30.485,28.412 43.509,28.412 		"/>
		<polygon opacity="0.0353" fill="#F2F2F2" points="43.404,25.095 30.381,25.095 30.381,12.071 27.151,12.071 27.151,25.095 
			14.128,25.095 14.128,28.323 27.151,28.323 27.151,41.347 30.381,41.347 30.381,28.323 43.404,28.323 		"/>
		<polygon opacity="0.0373" fill="#F1F1F1" points="43.299,25.005 30.276,25.005 30.276,11.982 27.046,11.982 27.046,25.005 
			14.023,25.005 14.023,28.233 27.046,28.233 27.046,41.257 30.276,41.257 30.276,28.233 43.299,28.233 		"/>
		<polygon opacity="0.0392" fill="#F1F1F1" points="43.195,24.916 30.171,24.916 30.171,11.892 26.941,11.892 26.941,24.916 
			13.918,24.916 13.918,28.145 26.941,28.145 26.941,41.168 30.171,41.168 30.171,28.145 43.195,28.145 		"/>
		<polygon opacity="0.0412" fill="#F0F0F0" points="43.09,24.826 30.066,24.826 30.066,11.803 26.837,11.803 26.837,24.826 
			13.814,24.826 13.814,28.055 26.837,28.055 26.837,41.078 30.066,41.078 30.066,28.055 43.09,28.055 		"/>
		<polygon opacity="0.0431" fill="#EFEFEF" points="42.985,24.736 29.962,24.736 29.962,11.713 26.732,11.713 26.732,24.736 
			13.709,24.736 13.709,27.965 26.732,27.965 26.732,40.988 29.962,40.988 29.962,27.965 42.985,27.965 		"/>
		<polygon opacity="0.0451" fill="#EEEEEE" points="42.88,24.647 29.857,24.647 29.857,11.624 26.628,11.624 26.628,24.647 
			13.604,24.647 13.604,27.876 26.628,27.876 26.628,40.899 29.857,40.899 29.857,27.876 42.88,27.876 		"/>
		<polygon opacity="0.0471" fill="#EEEEEE" points="42.776,24.559 29.752,24.559 29.752,11.535 26.523,11.535 26.523,24.559 
			13.5,24.559 13.5,27.786 26.523,27.786 26.523,40.811 29.752,40.811 29.752,27.786 42.776,27.786 		"/>
		<polygon opacity="0.049" fill="#EDEDED" points="42.671,24.469 29.648,24.469 29.648,11.445 26.419,11.445 26.419,24.469 
			13.395,24.469 13.395,27.697 26.419,27.697 26.419,40.721 29.648,40.721 29.648,27.697 42.671,27.697 		"/>
		<polygon opacity="0.051" fill="#ECECEC" points="42.567,24.379 29.543,24.379 29.543,11.355 26.313,11.355 26.313,24.379 
			13.291,24.379 13.291,27.607 26.313,27.607 26.313,40.631 29.543,40.631 29.543,27.607 42.567,27.607 		"/>
		<polygon opacity="0.0529" fill="#ECECEB" points="42.462,24.29 29.438,24.29 29.438,11.266 26.209,11.266 26.209,24.29 
			13.186,24.29 13.186,27.519 26.209,27.519 26.209,40.542 29.438,40.542 29.438,27.519 42.462,27.519 		"/>
		<polygon opacity="0.0549" fill="#EBEBEB" points="42.357,24.2 29.334,24.2 29.334,11.177 26.104,11.177 26.104,24.2 13.081,24.2 
			13.081,27.429 26.104,27.429 26.104,40.452 29.334,40.452 29.334,27.429 42.357,27.429 		"/>
		<polygon opacity="0.0569" fill="#EAEAEA" points="42.253,24.111 29.229,24.111 29.229,11.087 26,11.087 26,24.111 12.977,24.111 
			12.977,27.34 26,27.34 26,40.363 29.229,40.363 29.229,27.34 42.253,27.34 		"/>
		<polygon opacity="0.0588" fill="#E9E9E9" points="42.148,24.021 29.125,24.021 29.125,10.998 25.896,10.998 25.896,24.021 
			12.872,24.021 12.872,27.25 25.896,27.25 25.896,40.273 29.125,40.273 29.125,27.25 42.148,27.25 		"/>
		<polygon opacity="0.0608" fill="#E9E9E8" points="42.044,23.932 29.021,23.932 29.021,10.909 25.791,10.909 25.791,23.932 
			12.767,23.932 12.767,27.16 25.791,27.16 25.791,40.184 29.021,40.184 29.021,27.16 42.044,27.16 		"/>
		<polygon opacity="0.0627" fill="#E8E8E8" points="41.939,23.843 28.916,23.843 28.916,10.819 25.686,10.819 25.686,23.843 
			12.663,23.843 12.663,27.071 25.686,27.071 25.686,40.095 28.916,40.095 28.916,27.071 41.939,27.071 		"/>
		<polygon opacity="0.0647" fill="#E7E7E7" points="41.834,23.753 28.811,23.753 28.811,10.73 25.581,10.73 25.581,23.753 
			12.558,23.753 12.558,26.981 25.581,26.981 25.581,40.005 28.811,40.005 28.811,26.981 41.834,26.981 		"/>
		<polygon opacity="0.0667" fill="#E6E6E6" points="41.729,23.664 28.706,23.664 28.706,10.641 25.477,10.641 25.477,23.664 
			12.453,23.664 12.453,26.893 25.477,26.893 25.477,39.916 28.706,39.916 28.706,26.893 41.729,26.893 		"/>
		<polygon opacity="0.0686" fill="#E6E6E6" points="41.625,23.574 28.602,23.574 28.602,10.551 25.372,10.551 25.372,23.574 
			12.349,23.574 12.349,26.803 25.372,26.803 25.372,39.826 28.602,39.826 28.602,26.803 41.625,26.803 		"/>
		<polygon opacity="0.0706" fill="#E5E5E5" points="41.52,23.485 28.497,23.485 28.497,10.462 25.267,10.462 25.267,23.485 
			12.244,23.485 12.244,26.714 25.267,26.714 25.267,39.737 28.497,39.737 28.497,26.714 41.52,26.714 		"/>
		<polygon opacity="0.0725" fill="#E4E4E4" points="41.416,23.396 28.393,23.396 28.393,10.372 25.163,10.372 25.163,23.396 
			12.139,23.396 12.139,26.624 25.163,26.624 25.163,39.647 28.393,39.647 28.393,26.624 41.416,26.624 		"/>
		<polygon opacity="0.0745" fill="#E4E4E3" points="41.311,23.307 28.288,23.307 28.288,10.283 25.058,10.283 25.058,23.307 
			12.035,23.307 12.035,26.535 25.058,26.535 25.058,39.559 28.288,39.559 28.288,26.535 41.311,26.535 		"/>
		<polygon opacity="0.0765" fill="#E3E3E3" points="41.207,23.217 28.183,23.217 28.183,10.193 24.954,10.193 24.954,23.217 
			11.93,23.217 11.93,26.445 24.954,26.445 24.954,39.469 28.183,39.469 28.183,26.445 41.207,26.445 		"/>
		<polygon opacity="0.0784" fill="#E2E2E2" points="41.102,23.127 28.078,23.127 28.078,10.104 24.849,10.104 24.849,23.127 
			11.825,23.127 11.825,26.355 24.849,26.355 24.849,39.379 28.078,39.379 28.078,26.355 41.102,26.355 		"/>
		<polygon opacity="0.0804" fill="#E1E1E1" points="40.997,23.038 27.974,23.038 27.974,10.015 24.744,10.015 24.744,23.038 
			11.721,23.038 11.721,26.267 24.744,26.267 24.744,39.29 27.974,39.29 27.974,26.267 40.997,26.267 		"/>
		<polygon opacity="0.0824" fill="#E1E1E0" points="40.893,22.948 27.869,22.948 27.869,9.925 24.64,9.925 24.64,22.948 
			11.616,22.948 11.616,26.177 24.64,26.177 24.64,39.2 27.869,39.2 27.869,26.177 40.893,26.177 		"/>
		<polygon opacity="0.0843" fill="#E0E0E0" points="40.788,22.859 27.765,22.859 27.765,9.836 24.535,9.836 24.535,22.859 
			11.511,22.859 11.511,26.088 24.535,26.088 24.535,39.111 27.765,39.111 27.765,26.088 40.788,26.088 		"/>
		<polygon opacity="0.0863" fill="#DFDFDF" points="40.684,22.77 27.66,22.77 27.66,9.746 24.43,9.746 24.43,22.77 11.406,22.77 
			11.406,25.998 24.43,25.998 24.43,39.021 27.66,39.021 27.66,25.998 40.684,25.998 		"/>
		<polygon opacity="0.0882" fill="#DFDEDE" points="40.579,22.681 27.555,22.681 27.555,9.657 24.326,9.657 24.326,22.681 
			11.302,22.681 11.302,25.908 24.326,25.908 24.326,38.933 27.555,38.933 27.555,25.908 40.579,25.908 		"/>
		<polygon opacity="0.0902" fill="#DEDEDE" points="40.474,22.591 27.45,22.591 27.45,9.567 24.221,9.567 24.221,22.591 
			11.198,22.591 11.198,25.819 24.221,25.819 24.221,38.843 27.45,38.843 27.45,25.819 40.474,25.819 		"/>
		<polygon opacity="0.0922" fill="#DDDDDD" points="40.369,22.502 27.346,22.502 27.346,9.479 24.116,9.479 24.116,22.502 
			11.093,22.502 11.093,25.73 24.116,25.73 24.116,38.754 27.346,38.754 27.346,25.73 40.369,25.73 		"/>
		<polygon opacity="0.0941" fill="#DCDCDC" points="40.265,22.412 27.241,22.412 27.241,9.389 24.012,9.389 24.012,22.412 
			10.988,22.412 10.988,25.641 24.012,25.641 24.012,38.664 27.241,38.664 27.241,25.641 40.265,25.641 		"/>
		<polygon opacity="0.0961" fill="#DCDCDB" points="40.16,22.322 27.136,22.322 27.136,9.299 23.907,9.299 23.907,22.322 
			10.884,22.322 10.884,25.551 23.907,25.551 23.907,38.574 27.136,38.574 27.136,25.551 40.16,25.551 		"/>
		<polygon opacity="0.098" fill="#DBDBDB" points="40.056,22.233 27.032,22.233 27.032,9.21 23.802,9.21 23.802,22.233 
			10.779,22.233 10.779,25.462 23.802,25.462 23.802,38.485 27.032,38.485 27.032,25.462 40.056,25.462 		"/>
		<polygon opacity="0.1" fill="#DADADA" points="39.951,22.144 26.927,22.144 26.927,9.121 23.698,9.121 23.698,22.144 
			10.675,22.144 10.675,25.372 23.698,25.372 23.698,38.396 26.927,38.396 26.927,25.372 39.951,25.372 		"/>
		<polygon opacity="0.102" fill="#D9D9D9" points="39.846,22.055 26.823,22.055 26.823,9.031 23.593,9.031 23.593,22.055 
			10.57,22.055 10.57,25.283 23.593,25.283 23.593,38.307 26.823,38.307 26.823,25.283 39.846,25.283 		"/>
		<polygon opacity="0.1039" fill="#D9D9D8" points="39.741,21.965 26.718,21.965 26.718,8.942 23.488,8.942 23.488,21.965 
			10.465,21.965 10.465,25.193 23.488,25.193 23.488,38.217 26.718,38.217 26.718,25.193 39.741,25.193 		"/>
		<polygon opacity="0.1059" fill="#D8D8D8" points="39.637,21.876 26.613,21.876 26.613,8.853 23.384,8.853 23.384,21.876 
			10.36,21.876 10.36,25.104 23.384,25.104 23.384,38.128 26.613,38.128 26.613,25.104 39.637,25.104 		"/>
		<polygon opacity="0.1078" fill="#D7D7D7" points="39.532,21.786 26.509,21.786 26.509,8.763 23.279,8.763 23.279,21.786 
			10.256,21.786 10.256,25.015 23.279,25.015 23.279,38.038 26.509,38.038 26.509,25.015 39.532,25.015 		"/>
		<polygon opacity="0.1098" fill="#D6D6D6" points="39.427,21.697 26.404,21.697 26.404,8.674 23.175,8.674 23.175,21.697 
			10.151,21.697 10.151,24.926 23.175,24.926 23.175,37.949 26.404,37.949 26.404,24.926 39.427,24.926 		"/>
		<polygon opacity="0.1118" fill="#D6D5D5" points="39.323,21.607 26.299,21.607 26.299,8.584 23.07,8.584 23.07,21.607 
			10.046,21.607 10.046,24.836 23.07,24.836 23.07,37.859 26.299,37.859 26.299,24.836 39.323,24.836 		"/>
		<polygon opacity="0.1137" fill="#D5D5D4" points="39.218,21.519 26.195,21.519 26.195,8.494 22.965,8.494 22.965,21.519 
			9.942,21.519 9.942,24.746 22.965,24.746 22.965,37.77 26.195,37.77 26.195,24.746 39.218,24.746 		"/>
		<polygon opacity="0.1157" fill="#D4D4D4" points="39.113,21.429 26.09,21.429 26.09,8.405 22.861,8.405 22.861,21.429 
			9.837,21.429 9.837,24.656 22.861,24.656 22.861,37.681 26.09,37.681 26.09,24.656 39.113,24.656 		"/>
		<polygon opacity="0.1176" fill="#D3D3D3" points="39.009,21.339 25.985,21.339 25.985,8.315 22.756,8.315 22.756,21.339 
			9.732,21.339 9.732,24.567 22.756,24.567 22.756,37.591 25.985,37.591 25.985,24.567 39.009,24.567 		"/>
		<polygon opacity="0.1196" fill="#D2D2D2" points="38.904,21.25 25.881,21.25 25.881,8.226 22.651,8.226 22.651,21.25 9.628,21.25 
			9.628,24.479 22.651,24.479 22.651,37.502 25.881,37.502 25.881,24.479 38.904,24.479 		"/>
		<polygon opacity="0.1216" fill="#D2D2D1" points="38.799,21.16 25.776,21.16 25.776,8.137 22.547,8.137 22.547,21.16 9.523,21.16 
			9.523,24.389 22.547,24.389 22.547,37.412 25.776,37.412 25.776,24.389 38.799,24.389 		"/>
		<polygon opacity="0.1235" fill="#D1D1D1" points="38.694,21.071 25.671,21.071 25.671,8.047 22.441,8.047 22.441,21.071 
			9.418,21.071 9.418,24.299 22.441,24.299 22.441,37.323 25.671,37.323 25.671,24.299 38.694,24.299 		"/>
		<polygon opacity="0.1255" fill="#D0D0D0" points="38.591,20.981 25.567,20.981 25.567,7.958 22.337,7.958 22.337,20.981 
			9.314,20.981 9.314,24.21 22.337,24.21 22.337,37.233 25.567,37.233 25.567,24.21 38.591,24.21 		"/>
		<polygon opacity="0.1275" fill="#CFCFCF" points="38.486,20.892 25.462,20.892 25.462,7.868 22.232,7.868 22.232,20.892 
			9.209,20.892 9.209,24.121 22.232,24.121 22.232,37.145 25.462,37.145 25.462,24.121 38.486,24.121 		"/>
		<polygon opacity="0.1294" fill="#CECECE" points="38.381,20.803 25.358,20.803 25.358,7.779 22.128,7.779 22.128,20.803 
			9.104,20.803 9.104,24.031 22.128,24.031 22.128,37.055 25.358,37.055 25.358,24.031 38.381,24.031 		"/>
		<polygon opacity="0.1314" fill="#CECECD" points="38.276,20.713 25.253,20.713 25.253,7.689 22.023,7.689 22.023,20.713 9,20.713 
			9,23.941 22.023,23.941 22.023,36.965 25.253,36.965 25.253,23.941 38.276,23.941 		"/>
		<polygon opacity="0.1333" fill="#CDCDCD" points="38.172,20.624 25.148,20.624 25.148,7.601 21.919,7.601 21.919,20.624 
			8.896,20.624 8.896,23.852 21.919,23.852 21.919,36.876 25.148,36.876 25.148,23.852 38.172,23.852 		"/>
		<polygon opacity="0.1353" fill="#CCCCCC" points="38.067,20.535 25.044,20.535 25.044,7.511 21.814,7.511 21.814,20.535 
			8.791,20.535 8.791,23.763 21.814,23.763 21.814,36.786 25.044,36.786 25.044,23.763 38.067,23.763 		"/>
		<polygon opacity="0.1373" fill="#CBCBCB" points="37.963,20.445 24.938,20.445 24.938,7.421 21.709,7.421 21.709,20.445 
			8.686,20.445 8.686,23.674 21.709,23.674 21.709,36.697 24.938,36.697 24.938,23.674 37.963,23.674 		"/>
		<polygon opacity="0.1392" fill="#CBCACA" points="37.858,20.355 24.834,20.355 24.834,7.332 21.604,7.332 21.604,20.355 
			8.581,20.355 8.581,23.584 21.604,23.584 21.604,36.607 24.834,36.607 24.834,23.584 37.858,23.584 		"/>
		<polygon opacity="0.1412" fill="#CACAC9" points="37.753,20.267 24.729,20.267 24.729,7.243 21.5,7.243 21.5,20.267 8.477,20.267 
			8.477,23.494 21.5,23.494 21.5,36.519 24.729,36.519 24.729,23.494 37.753,23.494 		"/>
		<polygon opacity="0.1431" fill="#C9C9C9" points="37.648,20.177 24.625,20.177 24.625,7.153 21.396,7.153 21.396,20.177 
			8.372,20.177 8.372,23.405 21.396,23.405 21.396,36.429 24.625,36.429 24.625,23.405 37.648,23.405 		"/>
		<polygon opacity="0.1451" fill="#C8C8C8" points="37.544,20.087 24.521,20.087 24.521,7.063 21.291,7.063 21.291,20.087 
			8.268,20.087 8.268,23.316 21.291,23.316 21.291,36.34 24.521,36.34 24.521,23.316 37.544,23.316 		"/>
		<polygon opacity="0.1471" fill="#C8C7C7" points="37.439,19.998 24.416,19.998 24.416,6.975 21.187,6.975 21.187,19.998 
			8.163,19.998 8.163,23.227 21.187,23.227 21.187,36.25 24.416,36.25 24.416,23.227 37.439,23.227 		"/>
		<polygon opacity="0.149" fill="#C7C7C6" points="37.334,19.908 24.312,19.908 24.312,6.885 21.082,6.885 21.082,19.908 
			8.058,19.908 8.058,23.137 21.082,23.137 21.082,36.16 24.312,36.16 24.312,23.137 37.334,23.137 		"/>
		<polygon opacity="0.151" fill="#C6C6C6" points="37.229,19.819 24.207,19.819 24.207,6.795 20.977,6.795 20.977,19.819 
			7.954,19.819 7.954,23.047 20.977,23.047 20.977,36.07 24.207,36.07 24.207,23.047 37.229,23.047 		"/>
		<polygon opacity="0.1529" fill="#C5C5C5" points="37.125,19.729 24.102,19.729 24.102,6.706 20.872,6.706 20.872,19.729 
			7.849,19.729 7.849,22.958 20.872,22.958 20.872,35.981 24.102,35.981 24.102,22.958 37.125,22.958 		"/>
		<polygon opacity="0.1549" fill="#C4C4C4" points="37.021,19.64 23.997,19.64 23.997,6.617 20.768,6.617 20.768,19.64 7.744,19.64 
			7.744,22.869 20.768,22.869 20.768,35.893 23.997,35.893 23.997,22.869 37.021,22.869 		"/>
		<polygon opacity="0.1569" fill="#C4C4C3" points="36.916,19.551 23.893,19.551 23.893,6.527 20.663,6.527 20.663,19.551 
			7.64,19.551 7.64,22.779 20.663,22.779 20.663,35.803 23.893,35.803 23.893,22.779 36.916,22.779 		"/>
		<polygon opacity="0.1588" fill="#C3C3C2" points="36.811,19.462 23.788,19.462 23.788,6.438 20.558,6.438 20.558,19.462 
			7.535,19.462 7.535,22.689 20.558,22.689 20.558,35.713 23.788,35.713 23.788,22.689 36.811,22.689 		"/>
		<polygon opacity="0.1608" fill="#C2C2C2" points="36.707,19.372 23.683,19.372 23.683,6.349 20.454,6.349 20.454,19.372 
			7.431,19.372 7.431,22.601 20.454,22.601 20.454,35.624 23.683,35.624 23.683,22.601 36.707,22.601 		"/>
		<polygon opacity="0.1627" fill="#C1C1C1" points="36.602,19.282 23.578,19.282 23.578,6.259 20.349,6.259 20.349,19.282 
			7.325,19.282 7.325,22.512 20.349,22.512 20.349,35.534 23.578,35.534 23.578,22.512 36.602,22.512 		"/>
		<polygon opacity="0.1647" fill="#C1C0C0" points="36.497,19.193 23.474,19.193 23.474,6.17 20.244,6.17 20.244,19.193 
			7.221,19.193 7.221,22.422 20.244,22.422 20.244,35.445 23.474,35.445 23.474,22.422 36.497,22.422 		"/>
		<polygon opacity="0.1667" fill="#C0C0BF" points="36.393,19.104 23.369,19.104 23.369,6.081 20.14,6.081 20.14,19.104 
			7.117,19.104 7.117,22.332 20.14,22.332 20.14,35.355 23.369,35.355 23.369,22.332 36.393,22.332 		"/>
		<polygon opacity="0.1686" fill="#BFBFBF" points="36.288,19.015 23.265,19.015 23.265,5.991 20.035,5.991 20.035,19.015 
			7.012,19.015 7.012,22.242 20.035,22.242 20.035,35.266 23.265,35.266 23.265,22.242 36.288,22.242 		"/>
		<polygon opacity="0.1706" fill="#BEBEBE" points="36.184,18.925 23.16,18.925 23.16,5.901 19.931,5.901 19.931,18.925 
			6.907,18.925 6.907,22.153 19.931,22.153 19.931,35.177 23.16,35.177 23.16,22.153 36.184,22.153 		"/>
		<polygon opacity="0.1725" fill="#BDBDBD" points="36.079,18.835 23.055,18.835 23.055,5.812 19.826,5.812 19.826,18.835 
			6.802,18.835 6.802,22.064 19.826,22.064 19.826,35.088 23.055,35.088 23.055,22.064 36.079,22.064 		"/>
		<polygon opacity="0.1745" fill="#BDBDBC" points="35.975,18.746 22.951,18.746 22.951,5.723 19.721,5.723 19.721,18.746 
			6.698,18.746 6.698,21.975 19.721,21.975 19.721,34.998 22.951,34.998 22.951,21.975 35.975,21.975 		"/>
		<polygon opacity="0.1765" fill="#BCBCBB" points="35.869,18.657 22.846,18.657 22.846,5.633 19.616,5.633 19.616,18.657 
			6.593,18.657 6.593,21.885 19.616,21.885 19.616,34.908 22.846,34.908 22.846,21.885 35.869,21.885 		"/>
		<polygon opacity="0.1784" fill="#BBBBBB" points="35.765,18.567 22.741,18.567 22.741,5.544 19.512,5.544 19.512,18.567 
			6.488,18.567 6.488,21.796 19.512,21.796 19.512,34.819 22.741,34.819 22.741,21.796 35.765,21.796 		"/>
		<polygon opacity="0.1804" fill="#BABABA" points="35.66,18.478 22.637,18.478 22.637,5.454 19.407,5.454 19.407,18.478 
			6.384,18.478 6.384,21.706 19.407,21.706 19.407,34.729 22.637,34.729 22.637,21.706 35.66,21.706 		"/>
		<polygon opacity="0.1824" fill="#BAB9B9" points="35.556,18.388 22.532,18.388 22.532,5.365 19.303,5.365 19.303,18.388 
			6.279,18.388 6.279,21.617 19.303,21.617 19.303,34.641 22.532,34.641 22.532,21.617 35.556,21.617 		"/>
		<polygon opacity="0.1843" fill="#B9B9B8" points="35.451,18.299 22.428,18.299 22.428,5.275 19.198,5.275 19.198,18.299 
			6.174,18.299 6.174,21.527 19.198,21.527 19.198,34.551 22.428,34.551 22.428,21.527 35.451,21.527 		"/>
		<polygon opacity="0.1863" fill="#B8B8B8" points="35.347,18.21 22.323,18.21 22.323,5.187 19.093,5.187 19.093,18.21 6.07,18.21 
			6.07,21.438 19.093,21.438 19.093,34.461 22.323,34.461 22.323,21.438 35.347,21.438 		"/>
		<polygon opacity="0.1882" fill="#B7B7B7" points="35.241,18.12 22.218,18.12 22.218,5.097 18.989,5.097 18.989,18.12 5.965,18.12 
			5.965,21.349 18.989,21.349 18.989,34.372 22.218,34.372 22.218,21.349 35.241,21.349 		"/>
		<polygon opacity="0.1902" fill="#B6B6B6" points="35.137,18.031 22.113,18.031 22.113,5.007 18.884,5.007 18.884,18.031 
			5.86,18.031 5.86,21.26 18.884,21.26 18.884,34.283 22.113,34.283 22.113,21.26 35.137,21.26 		"/>
		<polygon opacity="0.1922" fill="#B6B5B5" points="35.032,17.941 22.009,17.941 22.009,4.918 18.779,4.918 18.779,17.941 
			5.756,17.941 5.756,21.17 18.779,21.17 18.779,34.193 22.009,34.193 22.009,21.17 35.032,21.17 		"/>
		<polygon opacity="0.1941" fill="#B5B5B4" points="34.928,17.852 21.904,17.852 21.904,4.828 18.675,4.828 18.675,17.852 
			5.651,17.852 5.651,21.08 18.675,21.08 18.675,34.104 21.904,34.104 21.904,21.08 34.928,21.08 		"/>
		<polygon opacity="0.1961" fill="#B4B4B4" points="34.823,17.763 21.8,17.763 21.8,4.739 18.57,4.739 18.57,17.763 5.547,17.763 
			5.547,20.991 18.57,20.991 18.57,34.015 21.8,34.015 21.8,20.991 34.823,20.991 		"/>
		<polygon opacity="0.198" fill="#B3B3B3" points="34.718,17.673 21.695,17.673 21.695,4.649 18.466,4.649 18.466,17.673 
			5.442,17.673 5.442,20.901 18.466,20.901 18.466,33.925 21.695,33.925 21.695,20.901 34.718,20.901 		"/>
		<polygon opacity="0.2" fill="#B2B2B2" points="34.614,17.583 21.59,17.583 21.59,4.561 18.361,4.561 18.361,17.583 5.338,17.583 
			5.338,20.812 18.361,20.812 18.361,33.836 21.59,33.836 21.59,20.812 34.614,20.812 		"/>
		<polygon opacity="0.202" fill="#B2B1B1" points="34.509,17.494 21.486,17.494 21.486,4.471 18.256,4.471 18.256,17.494 
			5.232,17.494 5.232,20.723 18.256,20.723 18.256,33.746 21.486,33.746 21.486,20.723 34.509,20.723 		"/>
		<polygon opacity="0.2039" fill="#B1B1B0" points="34.404,17.405 21.381,17.405 21.381,4.382 18.151,4.382 18.151,17.405 
			5.128,17.405 5.128,20.633 18.151,20.633 18.151,33.656 21.381,33.656 21.381,20.633 34.404,20.633 		"/>
		<polygon opacity="0.2059" fill="#B0B0AF" points="34.3,17.315 21.276,17.315 21.276,4.292 18.047,4.292 18.047,17.315 
			5.023,17.315 5.023,20.544 18.047,20.544 18.047,33.567 21.276,33.567 21.276,20.544 34.3,20.544 		"/>
		<polygon opacity="0.2078" fill="#AFAFAF" points="34.195,17.226 21.172,17.226 21.172,4.203 17.942,4.203 17.942,17.226 
			4.919,17.226 4.919,20.454 17.942,20.454 17.942,33.479 21.172,33.479 21.172,20.454 34.195,20.454 		"/>
		<polygon opacity="0.2098" fill="#AEAEAE" points="34.09,17.136 21.067,17.136 21.067,4.113 17.838,4.113 17.838,17.136 
			4.814,17.136 4.814,20.365 17.838,20.365 17.838,33.389 21.067,33.389 21.067,20.365 34.09,20.365 		"/>
		<polygon opacity="0.2118" fill="#ADADAD" points="33.986,17.047 20.963,17.047 20.963,4.023 17.733,4.023 17.733,17.047 
			4.71,17.047 4.71,20.275 17.733,20.275 17.733,33.299 20.963,33.299 20.963,20.275 33.986,20.275 		"/>
		<polygon opacity="0.2137" fill="#ADACAC" points="33.881,16.958 20.858,16.958 20.858,3.934 17.628,3.934 17.628,16.958 
			4.604,16.958 4.604,20.186 17.628,20.186 17.628,33.21 20.858,33.21 20.858,20.186 33.881,20.186 		"/>
		<polygon opacity="0.2157" fill="#ACACAB" points="33.776,16.868 20.753,16.868 20.753,3.845 17.523,3.845 17.523,16.868 
			4.5,16.868 4.5,20.097 17.523,20.097 17.523,33.12 20.753,33.12 20.753,20.097 33.776,20.097 		"/>
		<polygon opacity="0.2176" fill="#ABABAA" points="33.672,16.779 20.648,16.779 20.648,3.755 17.419,3.755 17.419,16.779 
			4.396,16.779 4.396,20.007 17.419,20.007 17.419,33.031 20.648,33.031 20.648,20.007 33.672,20.007 		"/>
		<polygon opacity="0.2196" fill="#AAAAAA" points="33.567,16.689 20.544,16.689 20.544,3.666 17.314,3.666 17.314,16.689 
			4.291,16.689 4.291,19.918 17.314,19.918 17.314,32.941 20.544,32.941 20.544,19.918 33.567,19.918 		"/>
		<polygon opacity="0.2216" fill="#A9A9A9" points="33.463,16.6 20.439,16.6 20.439,3.577 17.21,3.577 17.21,16.6 4.187,16.6 
			4.187,19.828 17.21,19.828 17.21,32.852 20.439,32.852 20.439,19.828 33.463,19.828 		"/>
		<polygon opacity="0.2235" fill="#A8A8A8" points="33.358,16.511 20.335,16.511 20.335,3.487 17.105,3.487 17.105,16.511 
			4.082,16.511 4.082,19.739 17.105,19.739 17.105,32.763 20.335,32.763 20.335,19.739 33.358,19.739 		"/>
		<polygon opacity="0.2255" fill="#A8A7A7" points="33.253,16.421 20.23,16.421 20.23,3.398 17,3.398 17,16.421 3.977,16.421 
			3.977,19.649 17,19.649 17,32.674 20.23,32.674 20.23,19.649 33.253,19.649 		"/>
		<polygon opacity="0.2275" fill="#A7A7A6" points="33.148,16.332 20.125,16.332 20.125,3.309 16.896,3.309 16.896,16.332 
			3.873,16.332 3.873,19.561 16.896,19.561 16.896,32.584 20.125,32.584 20.125,19.561 33.148,19.561 		"/>
		<polygon opacity="0.2294" fill="#A6A6A5" points="33.044,16.243 20.021,16.243 20.021,3.219 16.791,3.219 16.791,16.243 
			3.768,16.243 3.768,19.471 16.791,19.471 16.791,32.494 20.021,32.494 20.021,19.471 33.044,19.471 		"/>
		<polygon opacity="0.2314" fill="#A5A5A5" points="32.939,16.153 19.916,16.153 19.916,3.129 16.687,3.129 16.687,16.153 
			3.663,16.153 3.663,19.381 16.687,19.381 16.687,32.405 19.916,32.405 19.916,19.381 32.939,19.381 		"/>
		<polygon opacity="0.2333" fill="#A4A4A4" points="32.835,16.063 19.812,16.063 19.812,3.04 16.582,3.04 16.582,16.063 
			3.559,16.063 3.559,19.292 16.582,19.292 16.582,32.315 19.812,32.315 19.812,19.292 32.835,19.292 		"/>
		<polygon opacity="0.2353" fill="#A3A3A3" points="32.73,15.974 19.707,15.974 19.707,2.951 16.478,2.951 16.478,15.974 
			3.454,15.974 3.454,19.203 16.478,19.203 16.478,32.227 19.707,32.227 19.707,19.203 32.73,19.203 		"/>
		<polygon opacity="0.2373" fill="#A3A2A2" points="32.625,15.885 19.602,15.885 19.602,2.861 16.373,2.861 16.373,15.885 
			3.349,15.885 3.349,19.113 16.373,19.113 16.373,32.137 19.602,32.137 19.602,19.113 32.625,19.113 		"/>
		<polygon opacity="0.2392" fill="#A2A2A1" points="32.521,15.795 19.498,15.795 19.498,2.772 16.268,2.772 16.268,15.795 
			3.245,15.795 3.245,19.024 16.268,19.024 16.268,32.047 19.498,32.047 19.498,19.024 32.521,19.024 		"/>
		<polygon opacity="0.2412" fill="#A1A1A0" points="32.416,15.706 19.393,15.706 19.393,2.683 16.164,2.683 16.164,15.706 
			3.14,15.706 3.14,18.935 16.164,18.935 16.164,31.958 19.393,31.958 19.393,18.935 32.416,18.935 		"/>
		<polygon opacity="0.2431" fill="#A0A09F" points="32.312,15.616 19.288,15.616 19.288,2.593 16.059,2.593 16.059,15.616 
			3.035,15.616 3.035,18.845 16.059,18.845 16.059,31.869 19.288,31.869 19.288,18.845 32.312,18.845 		"/>
		<polygon opacity="0.2451" fill="#9F9F9F" points="32.207,15.527 19.184,15.527 19.184,2.504 15.954,2.504 15.954,15.527 
			2.931,15.527 2.931,18.756 15.954,18.756 15.954,31.779 19.184,31.779 19.184,18.756 32.207,18.756 		"/>
		<polygon opacity="0.2471" fill="#9E9E9E" points="32.103,15.438 19.079,15.438 19.079,2.415 15.85,2.415 15.85,15.438 
			2.826,15.438 2.826,18.666 15.85,18.666 15.85,31.689 19.079,31.689 19.079,18.666 32.103,18.666 		"/>
		<polygon opacity="0.249" fill="#9D9D9D" points="31.998,15.348 18.975,15.348 18.975,2.325 15.745,2.325 15.745,15.348 
			2.721,15.348 2.721,18.577 15.745,18.577 15.745,31.601 18.975,31.601 18.975,18.577 31.998,18.577 		"/>
		<polygon opacity="0.251" fill="#9D9C9C" points="31.893,15.259 18.87,15.259 18.87,2.235 15.64,2.235 15.64,15.259 2.617,15.259 
			2.617,18.487 15.64,18.487 15.64,31.511 18.87,31.511 18.87,18.487 31.893,18.487 		"/>
		<polygon opacity="0.2529" fill="#9C9C9B" points="31.788,15.17 18.765,15.17 18.765,2.146 15.535,2.146 15.535,15.17 2.512,15.17 
			2.512,18.398 15.535,18.398 15.535,31.421 18.765,31.421 18.765,18.398 31.788,18.398 		"/>
		<polygon opacity="0.2549" fill="#9B9B9A" points="31.684,15.08 18.66,15.08 18.66,2.057 15.431,2.057 15.431,15.08 2.407,15.08 
			2.407,18.309 15.431,18.309 15.431,31.332 18.66,31.332 18.66,18.309 31.684,18.309 		"/>
		<polygon opacity="0.2569" fill="#9A9A99" points="31.579,14.991 18.556,14.991 18.556,1.967 15.326,1.967 15.326,14.991 
			2.303,14.991 2.303,18.219 15.326,18.219 15.326,31.242 18.556,31.242 18.556,18.219 31.579,18.219 		"/>
		<polygon opacity="0.2588" fill="#999999" points="31.475,14.901 18.451,14.901 18.451,1.878 15.221,1.878 15.221,14.901 
			2.198,14.901 2.198,18.13 15.221,18.13 15.221,31.153 18.451,31.153 18.451,18.13 31.475,18.13 		"/>
		<polygon opacity="0.2608" fill="#989898" points="31.37,14.812 18.347,14.812 18.347,1.788 15.117,1.788 15.117,14.812 
			2.093,14.812 2.093,18.04 15.117,18.04 15.117,31.064 18.347,31.064 18.347,18.04 31.37,18.04 		"/>
		<polygon opacity="0.2627" fill="#989797" points="31.265,14.723 18.242,14.723 18.242,1.699 15.012,1.699 15.012,14.723 
			1.989,14.723 1.989,17.951 15.012,17.951 15.012,30.975 18.242,30.975 18.242,17.951 31.265,17.951 		"/>
		<polygon opacity="0.2647" fill="#979796" points="31.16,14.633 18.137,14.633 18.137,1.609 14.907,1.609 14.907,14.633 
			1.884,14.633 1.884,17.861 14.907,17.861 14.907,30.885 18.137,30.885 18.137,17.861 31.16,17.861 		"/>
		<polygon opacity="0.2667" fill="#969695" points="31.056,14.543 18.032,14.543 18.032,1.521 14.803,1.521 14.803,14.543 
			1.779,14.543 1.779,17.772 14.803,17.772 14.803,30.796 18.032,30.796 18.032,17.772 31.056,17.772 		"/>
		<polygon opacity="0.2686" fill="#959594" points="30.951,14.454 17.928,14.454 17.928,1.431 14.698,1.431 14.698,14.454 
			1.675,14.454 1.675,17.683 14.698,17.683 14.698,30.706 17.928,30.706 17.928,17.683 30.951,17.683 		"/>
		<polygon opacity="0.2706" fill="#949494" points="30.847,14.365 17.823,14.365 17.823,1.341 14.593,1.341 14.593,14.365 
			1.57,14.365 1.57,17.593 14.593,17.593 14.593,30.616 17.823,30.616 17.823,17.593 30.847,17.593 		"/>
		<polygon opacity="0.2725" fill="#939393" points="30.742,14.275 17.718,14.275 17.718,1.251 14.489,1.251 14.489,14.275 
			1.466,14.275 1.466,17.504 14.489,17.504 14.489,30.527 17.718,30.527 17.718,17.504 30.742,17.504 		"/>
		<polygon opacity="0.2745" fill="#939292" points="30.637,14.186 17.614,14.186 17.614,1.162 14.384,1.162 14.384,14.186 
			1.361,14.186 1.361,17.414 14.384,17.414 14.384,30.438 17.614,30.438 17.614,17.414 30.637,17.414 		"/>
		<polygon opacity="0.2765" fill="#929291" points="30.533,14.096 17.509,14.096 17.509,1.073 14.279,1.073 14.279,14.096 
			1.256,14.096 1.256,17.325 14.279,17.325 14.279,30.349 17.509,30.349 17.509,17.325 30.533,17.325 		"/>
		<polygon opacity="0.2784" fill="#919190" points="30.428,14.007 17.405,14.007 17.405,0.983 14.175,0.983 14.175,14.007 
			1.152,14.007 1.152,17.235 14.175,17.235 14.175,30.259 17.405,30.259 17.405,17.235 30.428,17.235 		"/>
		<polygon opacity="0.2804" fill="#90908F" points="30.323,13.918 17.3,13.918 17.3,0.894 14.07,0.894 14.07,13.918 1.047,13.918 
			1.047,17.146 14.07,17.146 14.07,30.17 17.3,30.17 17.3,17.146 30.323,17.146 		"/>
		<polygon opacity="0.2824" fill="#8F8F8E" points="30.219,13.828 17.195,13.828 17.195,0.805 13.966,0.805 13.966,13.828 
			0.942,13.828 0.942,17.057 13.966,17.057 13.966,30.08 17.195,30.08 17.195,17.057 30.219,17.057 		"/>
		<polygon opacity="0.2843" fill="#8E8E8E" points="30.114,13.739 17.09,13.739 17.09,0.715 13.861,0.715 13.861,13.739 
			0.838,13.739 0.838,16.967 13.861,16.967 13.861,29.991 17.09,29.991 17.09,16.967 30.114,16.967 		"/>
		<polygon opacity="0.2863" fill="#8D8D8D" points="30.009,13.649 16.986,13.649 16.986,0.626 13.756,0.626 13.756,13.649 
			0.733,13.649 0.733,16.878 13.756,16.878 13.756,29.901 16.986,29.901 16.986,16.878 30.009,16.878 		"/>
		<polygon opacity="0.2882" fill="#8D8C8C" points="29.905,13.56 16.881,13.56 16.881,0.537 13.652,0.537 13.652,13.56 0.628,13.56 
			0.628,16.788 13.652,16.788 13.652,29.812 16.881,29.812 16.881,16.788 29.905,16.788 		"/>
		<polygon opacity="0.2902" fill="#8C8C8B" points="29.8,13.471 16.777,13.471 16.777,0.447 13.547,0.447 13.547,13.471 
			0.524,13.471 0.524,16.699 13.547,16.699 13.547,29.723 16.777,29.723 16.777,16.699 29.8,16.699 		"/>
		<polygon opacity="0.2922" fill="#8B8B8A" points="29.695,13.381 16.672,13.381 16.672,0.357 13.442,0.357 13.442,13.381 
			0.419,13.381 0.419,16.609 13.442,16.609 13.442,29.633 16.672,29.633 16.672,16.609 29.695,16.609 		"/>
		<polygon opacity="0.2941" fill="#8A8A89" points="29.591,13.292 16.567,13.292 16.567,0.268 13.338,0.268 13.338,13.292 
			0.314,13.292 0.314,16.521 13.338,16.521 13.338,29.544 16.567,29.544 16.567,16.521 29.591,16.521 		"/>
		<polygon opacity="0.2961" fill="#898988" points="29.486,13.203 16.463,13.203 16.463,0.179 13.233,0.179 13.233,13.203 
			0.21,13.203 0.21,16.431 13.233,16.431 13.233,29.454 16.463,29.454 16.463,16.431 29.486,16.431 		"/>
		<polygon opacity="0.298" fill="#888888" points="29.381,13.113 16.358,13.113 16.358,0.089 13.128,0.089 13.128,13.113 
			0.105,13.113 0.105,16.342 13.128,16.342 13.128,29.364 16.358,29.364 16.358,16.342 29.381,16.342 		"/>
		<polygon opacity="0.3" fill="#878787" points="29.277,13.023 16.253,13.023 16.253,0 13.024,0 13.024,13.023 0,13.023 0,16.252 
			13.024,16.252 13.024,29.275 16.253,29.275 16.253,16.252 29.277,16.252 		"/>
	</g>
	<polygon fill="#404042" points="29.388,13.375 16.365,13.375 16.365,0.353 13.135,0.353 13.135,13.375 0.112,13.375 0.112,16.604 
		13.135,16.604 13.135,29.629 16.365,29.629 16.365,16.604 29.388,16.604 	"/>
</g>
</svg>
