<svg xmlns="http://www.w3.org/2000/svg" viewBox="0 0 488.43 488.43"><defs><style>.cls-1{fill:#f3f3f3;}</style></defs><g id="Capa_2" data-name="Capa 2"><g id="IconosMesaAyuda"><g id="Gris"><g id="iconoUsuario"><path id="Circulo" class="cls-1" d="M244.21,488.43A244.21,244.21,0,0,1,71.53,71.53,244.21,244.21,0,1,1,416.9,416.9,242.66,242.66,0,0,1,244.21,488.43Zm0-464.43C122.79,24,24,122.79,24,244.21s98.79,220.22,220.21,220.22,220.22-98.79,220.22-220.22S365.64,24,244.21,24Z"/><path class="cls-1" d="M210.93,254h66.29a69,69,0,0,1,69,69v14.19a19.32,19.32,0,0,1-19.32,19.32H161.23a19.32,19.32,0,0,1-19.32-19.32V323a69,69,0,0,1,69-69Z"/><circle class="cls-1" cx="244.21" cy="183.88" r="56.1"/></g></g></g></g></svg>