<svg xmlns="http://www.w3.org/2000/svg" viewBox="0 0 488.43 488.43"><defs><style>.cls-1{fill:#f3f3f3;}</style></defs><g id="Capa_2" data-name="Capa 2"><g id="IconosMesaAyuda"><g id="Gris"><g id="IconoCatalogos"><path id="Circulo" class="cls-1" d="M244.21,488.43A244.21,244.21,0,0,1,71.53,71.53,244.21,244.21,0,1,1,416.9,416.9,242.66,242.66,0,0,1,244.21,488.43Zm0-464.43C122.79,24,24,122.79,24,244.21s98.79,220.22,220.21,220.22,220.22-98.79,220.22-220.22S365.64,24,244.21,24Z"/><rect class="cls-1" x="211.26" y="155.21" width="128.13" height="178" rx="26.02"/><rect class="cls-1" x="172.09" y="176.23" width="18.18" height="136.21" rx="9.09" transform="translate(362.36 488.66) rotate(-180)"/><rect class="cls-1" x="133.98" y="201.99" width="18.05" height="84.45" rx="9.02" transform="translate(286 488.43) rotate(-180)"/></g></g></g></g></svg>