<svg xmlns="http://www.w3.org/2000/svg" viewBox="0 0 488.43 488.43"><defs><style>.cls-1{fill:#f3f3f3;}</style></defs><g id="Capa_2" data-name="Capa 2"><g id="IconosMesaAyuda"><g id="Gris"><g id="IconoEmail"><path id="Circulo" class="cls-1" d="M244.21,488.43A244.21,244.21,0,0,1,71.53,71.53,244.21,244.21,0,1,1,416.9,416.9,242.66,242.66,0,0,1,244.21,488.43Zm0-464.43C122.79,24,24,122.79,24,244.21s98.79,220.22,220.21,220.22,220.22-98.79,220.22-220.22S365.64,24,244.21,24Z"/><path class="cls-1" d="M255.7,272.45a17.83,17.83,0,0,1-23,0l-88-74.17V306.64a19.75,19.75,0,0,0,19.75,19.75H324a19.74,19.74,0,0,0,19.74-19.75V198.28Z"/><path class="cls-1" d="M262.18,251.64l72.49-61.09a12.15,12.15,0,0,0-7.84-21.44H161.59a12.15,12.15,0,0,0-7.83,21.44l72.49,61.09A27.87,27.87,0,0,0,262.18,251.64Z"/></g></g></g></g></svg>