<?xml version="1.0" encoding="utf-8"?>
<!-- Generator: Adobe Illustrator 16.0.0, SVG Export Plug-In . SVG Version: 6.00 Build 0)  -->
<!DOCTYPE svg PUBLIC "-//W3C//DTD SVG 1.1//EN" "http://www.w3.org/Graphics/SVG/1.1/DTD/svg11.dtd">
<svg version="1.1" id="Capa_1" xmlns="http://www.w3.org/2000/svg" xmlns:xlink="http://www.w3.org/1999/xlink" x="0px" y="0px"
	 width="40px" height="40px" viewBox="0 0 40 40" enable-background="new 0 0 40 40" xml:space="preserve">
<g>
	<g>
		<polygon opacity="0" fill="#FFFFFF" points="45.287,26.704 32.264,26.704 32.264,13.681 29.034,13.681 29.034,26.704 
			16.011,26.704 16.011,29.933 29.034,29.933 29.034,42.956 32.264,42.956 32.264,29.933 45.287,29.933 		"/>
		<polygon opacity="0.0115" fill="#FEFEFE" points="44.671,26.179 31.648,26.179 31.648,13.155 28.418,13.155 28.418,26.179 
			15.395,26.179 15.395,29.406 28.418,29.406 28.418,42.431 31.648,42.431 31.648,29.406 44.671,29.406 		"/>
		<polygon opacity="0.0231" fill="#FEFEFE" points="44.056,25.651 31.032,25.651 31.032,12.628 27.802,12.628 27.802,25.651 
			14.779,25.651 14.779,28.881 27.802,28.881 27.802,41.903 31.032,41.903 31.032,28.881 44.056,28.881 		"/>
		<polygon opacity="0.0346" fill="#FDFDFD" points="43.439,25.125 30.416,25.125 30.416,12.102 27.187,12.102 27.187,25.125 
			14.163,25.125 14.163,28.354 27.187,28.354 27.187,41.377 30.416,41.377 30.416,28.354 43.439,28.354 		"/>
		<polygon opacity="0.0462" fill="#FCFCFC" points="42.824,24.6 29.8,24.6 29.8,11.576 26.571,11.576 26.571,24.6 13.547,24.6 
			13.547,27.828 26.571,27.828 26.571,40.852 29.8,40.852 29.8,27.828 42.824,27.828 		"/>
		<polygon opacity="0.0577" fill="#FCFCFC" points="42.208,24.073 29.185,24.073 29.185,11.05 25.955,11.05 25.955,24.073 
			12.932,24.073 12.932,27.302 25.955,27.302 25.955,40.325 29.185,40.325 29.185,27.302 42.208,27.302 		"/>
		<polygon opacity="0.0692" fill="#FBFBFB" points="41.592,23.547 28.569,23.547 28.569,10.523 25.339,10.523 25.339,23.547 
			12.316,23.547 12.316,26.775 25.339,26.775 25.339,39.799 28.569,39.799 28.569,26.775 41.592,26.775 		"/>
		<polygon opacity="0.0808" fill="#FAFAFA" points="40.977,23.021 27.953,23.021 27.953,9.997 24.724,9.997 24.724,23.021 
			11.7,23.021 11.7,26.249 24.724,26.249 24.724,39.272 27.953,39.272 27.953,26.249 40.977,26.249 		"/>
		<polygon opacity="0.0923" fill="#F9F9F9" points="40.361,22.495 27.337,22.495 27.337,9.471 24.108,9.471 24.108,22.495 
			11.084,22.495 11.084,25.723 24.108,25.723 24.108,38.746 27.337,38.746 27.337,25.723 40.361,25.723 		"/>
		<polygon opacity="0.1038" fill="#F9F9F9" points="39.745,21.969 26.722,21.969 26.722,8.945 23.492,8.945 23.492,21.969 
			10.469,21.969 10.469,25.197 23.492,25.197 23.492,38.221 26.722,38.221 26.722,25.197 39.745,25.197 		"/>
		<polygon opacity="0.1154" fill="#F8F8F8" points="39.129,21.442 26.105,21.442 26.105,8.419 22.876,8.419 22.876,21.442 
			9.853,21.442 9.853,24.671 22.876,24.671 22.876,37.694 26.105,37.694 26.105,24.671 39.129,24.671 		"/>
		<polygon opacity="0.1269" fill="#F7F7F7" points="38.513,20.916 25.489,20.916 25.489,7.893 22.261,7.893 22.261,20.916 
			9.237,20.916 9.237,24.145 22.261,24.145 22.261,37.168 25.489,37.168 25.489,24.145 38.513,24.145 		"/>
		<polygon opacity="0.1385" fill="#F7F7F7" points="37.897,20.39 24.874,20.39 24.874,7.366 21.645,7.366 21.645,20.39 8.621,20.39 
			8.621,23.619 21.645,23.619 21.645,36.642 24.874,36.642 24.874,23.619 37.897,23.619 		"/>
		<polygon opacity="0.15" fill="#F6F6F6" points="37.282,19.864 24.259,19.864 24.259,6.841 21.029,6.841 21.029,19.864 
			8.006,19.864 8.006,23.093 21.029,23.093 21.029,36.115 24.259,36.115 24.259,23.093 37.282,23.093 		"/>
		<polygon opacity="0.1615" fill="#F5F5F5" points="36.666,19.338 23.643,19.338 23.643,6.314 20.413,6.314 20.413,19.338 
			7.39,19.338 7.39,22.566 20.413,22.566 20.413,35.59 23.643,35.59 23.643,22.566 36.666,22.566 		"/>
		<polygon opacity="0.1731" fill="#F5F4F4" points="36.05,18.812 23.026,18.812 23.026,5.788 19.797,5.788 19.797,18.812 
			6.774,18.812 6.774,22.04 19.797,22.04 19.797,35.063 23.026,35.063 23.026,22.04 36.05,22.04 		"/>
		<polygon opacity="0.1846" fill="#F4F4F4" points="35.435,18.285 22.411,18.285 22.411,5.262 19.182,5.262 19.182,18.285 
			6.158,18.285 6.158,21.514 19.182,21.514 19.182,34.537 22.411,34.537 22.411,21.514 35.435,21.514 		"/>
		<polygon opacity="0.1962" fill="#F3F3F3" points="34.818,17.759 21.795,17.759 21.795,4.735 18.565,4.735 18.565,17.759 
			5.542,17.759 5.542,20.987 18.565,20.987 18.565,34.011 21.795,34.011 21.795,20.987 34.818,20.987 		"/>
		<polygon opacity="0.2077" fill="#F2F2F2" points="34.203,17.232 21.179,17.232 21.179,4.209 17.95,4.209 17.95,17.232 
			4.927,17.232 4.927,20.461 17.95,20.461 17.95,33.484 21.179,33.484 21.179,20.461 34.203,20.461 		"/>
		<polygon opacity="0.2192" fill="#F2F2F2" points="33.587,16.707 20.563,16.707 20.563,3.683 17.334,3.683 17.334,16.707 
			4.311,16.707 4.311,19.936 17.334,19.936 17.334,32.959 20.563,32.959 20.563,19.936 33.587,19.936 		"/>
		<polygon opacity="0.2308" fill="#F1F1F1" points="32.971,16.181 19.948,16.181 19.948,3.157 16.718,3.157 16.718,16.181 
			3.694,16.181 3.694,19.409 16.718,19.409 16.718,32.433 19.948,32.433 19.948,19.409 32.971,19.409 		"/>
		<polygon opacity="0.2423" fill="#F0F0F0" points="32.355,15.654 19.332,15.654 19.332,2.631 16.103,2.631 16.103,15.654 
			3.079,15.654 3.079,18.883 16.103,18.883 16.103,31.906 19.332,31.906 19.332,18.883 32.355,18.883 		"/>
		<polygon opacity="0.2538" fill="#F0EFEF" points="31.74,15.128 18.716,15.128 18.716,2.105 15.487,2.105 15.487,15.128 
			2.463,15.128 2.463,18.356 15.487,18.356 15.487,31.38 18.716,31.38 18.716,18.356 31.74,18.356 		"/>
		<polygon opacity="0.2654" fill="#EFEFEF" points="31.124,14.602 18.101,14.602 18.101,1.578 14.871,1.578 14.871,14.602 
			1.848,14.602 1.848,17.831 14.871,17.831 14.871,30.854 18.101,30.854 18.101,17.831 31.124,17.831 		"/>
		<polygon opacity="0.2769" fill="#EEEEEE" points="30.508,14.076 17.484,14.076 17.484,1.052 14.255,1.052 14.255,14.076 
			1.231,14.076 1.231,17.304 14.255,17.304 14.255,30.327 17.484,30.327 17.484,17.304 30.508,17.304 		"/>
		<polygon opacity="0.2885" fill="#EDEDED" points="29.892,13.549 16.869,13.549 16.869,0.526 13.639,0.526 13.639,13.549 
			0.616,13.549 0.616,16.778 13.639,16.778 13.639,29.802 16.869,29.802 16.869,16.778 29.892,16.778 		"/>
		<polygon opacity="0.3" fill="#EDEDED" points="29.276,13.023 16.253,13.023 16.253,0 13.023,0 13.023,13.023 0,13.023 0,16.252 
			13.023,16.252 13.023,29.275 16.253,29.275 16.253,16.252 29.276,16.252 		"/>
	</g>
	<polygon fill="#FFFFFF" points="29.388,13.375 16.364,13.375 16.364,0.353 13.135,0.353 13.135,13.375 0.111,13.375 0.111,16.604 
		13.135,16.604 13.135,29.629 16.364,29.629 16.364,16.604 29.388,16.604 	"/>
</g>
</svg>
