<?xml version="1.0" encoding="utf-8"?>
<!-- Generator: Adobe Illustrator 16.0.0, SVG Export Plug-In . SVG Version: 6.00 Build 0)  -->
<!DOCTYPE svg PUBLIC "-//W3C//DTD SVG 1.1//EN" "http://www.w3.org/Graphics/SVG/1.1/DTD/svg11.dtd">
<svg version="1.1" id="Capa_1" xmlns="http://www.w3.org/2000/svg" xmlns:xlink="http://www.w3.org/1999/xlink" x="0px" y="0px"
	 width="40px" height="40px" viewBox="0 0 40 40" enable-background="new 0 0 40 40" xml:space="preserve">
<g>
	<g opacity="0.7">
		<g opacity="0">
			<path fill="#FFFFFF" d="M29.656,19.938l-8.629,8.628v9.49h6.041v-4.313c0-1.43,1.16-2.589,2.588-2.589
				c1.43,0,2.59,1.159,2.59,2.589v4.313h6.039v-9.49L29.656,19.938"/>
			<polygon fill="#FFFFFF" points="36.561,23.031 36.561,17.349 33.971,17.349 33.971,20.444 29.656,16.129 17.83,27.955 
				19.051,29.176 29.656,18.569 40.264,29.176 41.482,27.955 			"/>
		</g>
		<g opacity="0.002">
			<path fill="#FDFDFD" d="M29.484,19.777l-8.629,8.628v9.49h6.041v-4.313c0-1.43,1.16-2.589,2.588-2.589
				c1.43,0,2.59,1.159,2.59,2.589v4.313h6.039v-9.49L29.484,19.777"/>
			<polygon fill="#FDFDFD" points="36.388,22.87 36.388,17.188 33.798,17.188 33.798,20.283 29.484,15.968 17.658,27.794 
				18.878,29.015 29.484,18.408 40.091,29.015 41.31,27.794 			"/>
		</g>
		<g opacity="0.004">
			<path fill="#FBFAFA" d="M29.312,19.616l-8.629,8.628v9.49h6.041v-4.313c0-1.43,1.16-2.589,2.588-2.589
				c1.43,0,2.59,1.159,2.59,2.589v4.313h6.039v-9.49L29.312,19.616"/>
			<polygon fill="#FBFAFA" points="36.216,22.71 36.216,17.027 33.626,17.027 33.626,20.123 29.312,15.808 17.485,27.634 
				18.707,28.854 29.312,18.248 39.919,28.854 41.138,27.634 			"/>
		</g>
		<g opacity="0.0059">
			<path fill="#F8F8F8" d="M29.14,19.456l-8.629,8.628v9.49h6.041v-4.313c0-1.43,1.161-2.589,2.588-2.589
				c1.43,0,2.589,1.159,2.589,2.589v4.313h6.04v-9.49L29.14,19.456"/>
			<polygon fill="#F8F8F8" points="36.044,22.549 36.044,16.867 33.454,16.867 33.454,19.961 29.14,15.646 17.313,27.473 
				18.534,28.693 29.14,18.086 39.747,28.693 40.966,27.473 			"/>
		</g>
		<g opacity="0.0079">
			<path fill="#F6F5F6" d="M28.968,19.295l-8.629,8.628v9.491h6.041V33.1c0-1.43,1.16-2.589,2.588-2.589
				c1.429,0,2.589,1.159,2.589,2.589v4.314h6.039v-9.491L28.968,19.295"/>
			<polygon fill="#F6F5F6" points="35.872,22.388 35.872,16.706 33.282,16.706 33.282,19.801 28.968,15.486 17.141,27.312 
				18.362,28.532 28.968,17.926 39.575,28.532 40.793,27.312 			"/>
		</g>
		<g opacity="0.0099">
			<path fill="#F3F3F3" d="M28.795,19.134l-8.629,8.628v9.49h6.042v-4.313c0-1.43,1.16-2.59,2.587-2.59c1.43,0,2.59,1.16,2.59,2.59
				v4.313h6.039v-9.49L28.795,19.134"/>
			<polygon fill="#F3F3F3" points="35.699,22.228 35.699,16.545 33.11,16.545 33.11,19.64 28.795,15.325 16.969,27.151 
				18.189,28.372 28.795,17.765 39.403,28.372 40.621,27.151 			"/>
		</g>
		<g opacity="0.0119">
			<path fill="#F1F0F1" d="M28.623,18.973l-8.629,8.628v9.49h6.041v-4.313c0-1.43,1.16-2.589,2.588-2.589
				c1.43,0,2.59,1.159,2.59,2.589v4.313h6.039v-9.49L28.623,18.973"/>
			<polygon fill="#F1F0F1" points="35.527,22.066 35.527,16.384 32.938,16.384 32.938,19.479 28.623,15.165 16.797,26.99 
				18.018,28.211 28.623,17.604 39.23,28.211 40.449,26.99 			"/>
		</g>
		<g opacity="0.0139">
			<path fill="#EFEEEE" d="M28.451,18.812l-8.629,8.629v9.49h6.041v-4.314c0-1.43,1.16-2.588,2.588-2.588
				c1.429,0,2.59,1.158,2.59,2.588v4.314h6.039v-9.49L28.451,18.812"/>
			<polygon fill="#EFEEEE" points="35.355,21.906 35.355,16.224 32.765,16.224 32.765,19.318 28.451,15.003 16.625,26.83 
				17.845,28.051 28.451,17.443 39.058,28.051 40.277,26.83 			"/>
		</g>
		<g opacity="0.0158">
			<path fill="#ECEBEC" d="M28.279,18.651L19.65,27.28v9.49h6.041v-4.313c0-1.43,1.161-2.589,2.588-2.589
				c1.429,0,2.589,1.159,2.589,2.589v4.313h6.039v-9.49L28.279,18.651"/>
			<polygon fill="#ECEBEC" points="35.183,21.745 35.183,16.062 32.593,16.062 32.593,19.157 28.279,14.843 16.452,26.669 
				17.673,27.89 28.279,17.282 38.886,27.89 40.105,26.669 			"/>
		</g>
		<g opacity="0.0178">
			<path fill="#EAE9EA" d="M28.106,18.491l-8.629,8.628v9.49h6.041v-4.313c0-1.43,1.16-2.589,2.588-2.589
				c1.43,0,2.59,1.159,2.59,2.589v4.313h6.039v-9.49L28.106,18.491"/>
			<polygon fill="#EAE9EA" points="35.011,21.584 35.011,15.902 32.42,15.902 32.42,18.997 28.106,14.682 16.28,26.508 
				17.501,27.729 28.106,17.122 38.714,27.729 39.933,26.508 			"/>
		</g>
		<g opacity="0.0198">
			<path fill="#E8E6E7" d="M27.934,18.33l-8.629,8.629v9.49h6.041v-4.313c0-1.43,1.16-2.589,2.588-2.589
				c1.43,0,2.59,1.159,2.59,2.589v4.313h6.039v-9.49L27.934,18.33"/>
			<polygon fill="#E8E6E7" points="34.838,21.424 34.838,15.741 32.249,15.741 32.249,18.836 27.934,14.521 16.108,26.348 
				17.329,27.568 27.934,16.961 38.542,27.568 39.76,26.348 			"/>
		</g>
		<g opacity="0.0218">
			<path fill="#E5E4E5" d="M27.762,18.169l-8.629,8.628v9.49h6.041v-4.313c0-1.43,1.16-2.589,2.588-2.589
				c1.429,0,2.589,1.159,2.589,2.589v4.313h6.039v-9.49L27.762,18.169"/>
			<polygon fill="#E5E4E5" points="34.666,21.263 34.666,15.581 32.076,15.581 32.076,18.675 27.762,14.36 15.936,26.187 
				17.156,27.407 27.762,16.8 38.369,27.407 39.588,26.187 			"/>
		</g>
		<g opacity="0.0238">
			<path fill="#E3E1E2" d="M27.59,18.008l-8.629,8.628v9.491h6.041v-4.314c0-1.43,1.161-2.589,2.588-2.589
				c1.429,0,2.589,1.159,2.589,2.589v4.314h6.04v-9.491L27.59,18.008"/>
			<polygon fill="#E3E1E2" points="34.494,21.102 34.494,15.419 31.904,15.419 31.904,18.514 27.59,14.199 15.764,26.025 
				16.984,27.247 27.59,16.64 38.197,27.247 39.416,26.025 			"/>
		</g>
		<g opacity="0.0257">
			<path fill="#E0DFE0" d="M27.417,17.848l-8.628,8.628v9.491h6.041v-4.313c0-1.43,1.16-2.589,2.588-2.589
				c1.43,0,2.589,1.159,2.589,2.589v4.313h6.039v-9.491L27.417,17.848"/>
			<polygon fill="#E0DFE0" points="34.322,20.941 34.322,15.259 31.732,15.259 31.732,18.354 27.417,14.039 15.591,25.865 
				16.812,27.086 27.417,16.479 38.025,27.086 39.244,25.865 			"/>
		</g>
		<g opacity="0.0277">
			<path fill="#DEDCDE" d="M27.246,17.687l-8.629,8.629v9.49h6.041v-4.313c0-1.43,1.16-2.589,2.588-2.589
				c1.429,0,2.589,1.159,2.589,2.589v4.313h6.039v-9.49L27.246,17.687"/>
			<polygon fill="#DEDCDE" points="34.149,20.78 34.149,15.098 31.56,15.098 31.56,18.193 27.246,13.878 15.419,25.704 
				16.64,26.925 27.246,16.318 37.853,26.925 39.071,25.704 			"/>
		</g>
		<g opacity="0.0297">
			<path fill="#DCDADB" d="M27.073,17.526l-8.629,8.628v9.49h6.041v-4.313c0-1.429,1.16-2.589,2.588-2.589
				c1.429,0,2.589,1.16,2.589,2.589v4.313h6.04v-9.49L27.073,17.526"/>
			<polygon fill="#DCDADB" points="33.977,20.62 33.977,14.938 31.388,14.938 31.388,18.032 27.073,13.717 15.247,25.544 
				16.468,26.764 27.073,16.157 37.681,26.764 38.899,25.544 			"/>
		</g>
		<g opacity="0.0317">
			<path fill="#DAD8D9" d="M26.901,17.366l-8.629,8.628v9.49h6.041v-4.313c0-1.431,1.161-2.589,2.589-2.589
				c1.429,0,2.589,1.158,2.589,2.589v4.313h6.039v-9.49L26.901,17.366"/>
			<polygon fill="#DAD8D9" points="33.805,20.459 33.805,14.776 31.215,14.776 31.215,17.871 26.901,13.556 15.075,25.383 
				16.295,26.604 26.901,15.997 37.508,26.604 38.727,25.383 			"/>
		</g>
		<g opacity="0.0337">
			<path fill="#D7D5D6" d="M26.729,17.205L18.1,25.833v9.49h6.041V31.01c0-1.43,1.16-2.589,2.588-2.589
				c1.43,0,2.59,1.159,2.59,2.589v4.313h6.039v-9.49L26.729,17.205"/>
			<polygon fill="#D7D5D6" points="33.633,20.298 33.633,14.616 31.043,14.616 31.043,17.71 26.729,13.396 14.902,25.222 
				16.123,26.442 26.729,15.835 37.336,26.442 38.555,25.222 			"/>
		</g>
		<g opacity="0.0356">
			<path fill="#D5D3D4" d="M26.557,17.044l-8.629,8.628v9.49h6.041V30.85c0-1.43,1.16-2.589,2.588-2.589
				c1.429,0,2.59,1.159,2.59,2.589v4.312h6.039v-9.49L26.557,17.044"/>
			<polygon fill="#D5D3D4" points="33.46,20.138 33.46,14.455 30.871,14.455 30.871,17.55 26.557,13.235 14.73,25.061 
				15.951,26.282 26.557,15.675 37.164,26.282 38.383,25.061 			"/>
		</g>
		<g opacity="0.0376">
			<path fill="#D3D1D2" d="M26.384,16.883l-8.629,8.629v9.49h6.041v-4.313c0-1.43,1.16-2.589,2.588-2.589
				c1.43,0,2.59,1.159,2.59,2.589v4.313h6.039v-9.49L26.384,16.883"/>
			<polygon fill="#D3D1D2" points="33.288,19.977 33.288,14.294 30.698,14.294 30.698,17.389 26.384,13.074 14.558,24.9 
				15.778,26.121 26.384,15.514 36.992,26.121 38.21,24.9 			"/>
		</g>
		<g opacity="0.0396">
			<path fill="#D1CECF" d="M26.212,16.722l-8.629,8.628v9.491h6.041v-4.314c0-1.43,1.16-2.589,2.588-2.589
				c1.43,0,2.59,1.159,2.59,2.589v4.314h6.039v-9.491L26.212,16.722"/>
			<polygon fill="#D1CECF" points="33.116,19.815 33.116,14.134 30.526,14.134 30.526,17.229 26.212,12.913 14.386,24.739 
				15.606,25.96 26.212,15.354 36.819,25.96 38.038,24.739 			"/>
		</g>
		<g opacity="0.0416">
			<path fill="#CFCCCD" d="M26.04,16.562l-8.629,8.628v9.491h6.041v-4.313c0-1.431,1.16-2.59,2.588-2.59
				c1.429,0,2.589,1.159,2.589,2.59v4.313h6.039v-9.491L26.04,16.562"/>
			<polygon fill="#CFCCCD" points="32.944,19.655 32.944,13.973 30.354,13.973 30.354,17.067 26.04,12.752 14.214,24.578 
				15.434,25.8 26.04,15.192 36.647,25.8 37.866,24.578 			"/>
		</g>
		<g opacity="0.0436">
			<path fill="#CCCACB" d="M25.868,16.401l-8.628,8.628v9.49h6.04v-4.313c0-1.43,1.16-2.589,2.588-2.589
				c1.429,0,2.589,1.159,2.589,2.589v4.313h6.039v-9.49L25.868,16.401"/>
			<polygon fill="#CCCACB" points="32.771,19.494 32.771,13.812 30.182,13.812 30.182,16.906 25.868,12.592 14.041,24.418 
				15.262,25.639 25.868,15.032 36.475,25.639 37.694,24.418 			"/>
		</g>
		<g opacity="0.0455">
			<path fill="#CAC8C9" d="M25.696,16.24l-8.629,8.628v9.49h6.041v-4.313c0-1.43,1.16-2.589,2.588-2.589
				c1.429,0,2.589,1.159,2.589,2.589v4.313h6.039v-9.49L25.696,16.24"/>
			<polygon fill="#CAC8C9" points="32.6,19.333 32.6,13.651 30.01,13.651 30.01,16.746 25.696,12.431 13.869,24.257 15.09,25.478 
				25.696,14.871 36.303,25.478 37.521,24.257 			"/>
		</g>
		<g opacity="0.0475">
			<path fill="#C8C6C7" d="M25.523,16.079l-8.629,8.629v9.49h6.041v-4.314c0-1.429,1.16-2.589,2.588-2.589
				c1.429,0,2.589,1.16,2.589,2.589v4.314h6.039v-9.49L25.523,16.079"/>
			<polygon fill="#C8C6C7" points="32.427,19.172 32.427,13.49 29.837,13.49 29.837,16.585 25.523,12.271 13.697,24.096 
				14.917,25.317 25.523,14.71 36.13,25.317 37.35,24.096 			"/>
		</g>
		<g opacity="0.0495">
			<path fill="#C6C3C4" d="M25.351,15.918l-8.629,8.629v9.49h6.041v-4.313c0-1.43,1.16-2.589,2.588-2.589
				c1.429,0,2.589,1.159,2.589,2.589v4.313h6.039v-9.49L25.351,15.918"/>
			<polygon fill="#C6C3C4" points="32.255,19.012 32.255,13.33 29.665,13.33 29.665,16.424 25.351,12.109 13.524,23.936 
				14.745,25.156 25.351,14.549 35.958,25.156 37.177,23.936 			"/>
		</g>
		<g opacity="0.0515">
			<path fill="#C4C1C2" d="M25.179,15.758l-8.629,8.628v9.491h6.041v-4.314c0-1.43,1.16-2.588,2.588-2.588
				c1.429,0,2.589,1.158,2.589,2.588v4.314h6.039v-9.491L25.179,15.758"/>
			<polygon fill="#C4C1C2" points="32.083,18.851 32.083,13.169 29.493,13.169 29.493,16.263 25.179,11.948 13.352,23.774 
				14.573,24.996 25.179,14.389 35.786,24.996 37.005,23.774 			"/>
		</g>
		<g opacity="0.0535">
			<path fill="#C2BFC0" d="M25.007,15.597l-8.629,8.629v9.49h6.04v-4.313c0-1.43,1.161-2.589,2.589-2.589
				c1.429,0,2.589,1.159,2.589,2.589v4.313h6.039v-9.49L25.007,15.597"/>
			<polygon fill="#C2BFC0" points="31.91,18.69 31.91,13.008 29.32,13.008 29.32,16.103 25.007,11.788 13.18,23.614 14.401,24.835 
				25.007,14.228 35.614,24.835 36.833,23.614 			"/>
		</g>
		<g opacity="0.0554">
			<path fill="#C0BDBE" d="M24.835,15.436l-8.629,8.629v9.49h6.041v-4.313c0-1.43,1.16-2.589,2.589-2.589s2.589,1.159,2.589,2.589
				v4.313h6.039v-9.49L24.835,15.436"/>
			<polygon fill="#C0BDBE" points="31.738,18.53 31.738,12.848 29.148,12.848 29.148,15.942 24.835,11.627 13.008,23.453 
				14.229,24.674 24.835,14.067 35.441,24.674 36.661,23.453 			"/>
		</g>
		<g opacity="0.0574">
			<path fill="#BDBBBC" d="M24.662,15.275l-8.628,8.629v9.49h6.04v-4.313c0-1.431,1.161-2.589,2.588-2.589
				c1.43,0,2.589,1.158,2.589,2.589v4.313h6.039v-9.49L24.662,15.275"/>
			<polygon fill="#BDBBBC" points="31.566,18.369 31.566,12.687 28.976,12.687 28.976,15.781 24.662,11.466 12.836,23.293 
				14.057,24.514 24.662,13.906 35.27,24.514 36.488,23.293 			"/>
		</g>
		<g opacity="0.0594">
			<path fill="#BBB9BA" d="M24.49,15.114l-8.629,8.628v9.491h6.04V28.92c0-1.43,1.161-2.589,2.589-2.589
				c1.429,0,2.589,1.159,2.589,2.589v4.313h6.039v-9.491L24.49,15.114"/>
			<polygon fill="#BBB9BA" points="31.394,18.208 31.394,12.526 28.804,12.526 28.804,15.62 24.49,11.306 12.663,23.132 
				13.884,24.353 24.49,13.746 35.097,24.353 36.316,23.132 			"/>
		</g>
		<g opacity="0.0614">
			<path fill="#B9B6B8" d="M24.318,14.954l-8.629,8.628v9.49h6.04v-4.313c0-1.43,1.16-2.589,2.589-2.589s2.589,1.159,2.589,2.589
				v4.313h6.039v-9.49L24.318,14.954"/>
			<polygon fill="#B9B6B8" points="31.222,18.047 31.222,12.365 28.632,12.365 28.632,15.459 24.318,11.145 12.491,22.971 
				13.712,24.191 24.318,13.584 34.925,24.191 36.145,22.971 			"/>
		</g>
		<g opacity="0.0634">
			<path fill="#B7B4B5" d="M24.146,14.793l-8.629,8.628v9.491h6.041v-4.314c0-1.43,1.161-2.588,2.588-2.588
				c1.429,0,2.59,1.158,2.59,2.588v4.314h6.039v-9.491L24.146,14.793"/>
			<polygon fill="#B7B4B5" points="31.049,17.887 31.049,12.204 28.46,12.204 28.46,15.299 24.146,10.984 12.319,22.811 
				13.54,24.031 24.146,13.424 34.752,24.031 35.972,22.811 			"/>
		</g>
		<g opacity="0.0653">
			<path fill="#B5B2B3" d="M23.974,14.632l-8.629,8.629v9.49h6.04v-4.313c0-1.43,1.16-2.589,2.589-2.589s2.589,1.159,2.589,2.589
				v4.313h6.039v-9.49L23.974,14.632"/>
			<polygon fill="#B5B2B3" points="30.877,17.726 30.877,12.043 28.287,12.043 28.287,15.138 23.974,10.823 12.146,22.649 
				13.367,23.87 23.974,13.263 34.58,23.87 35.8,22.649 			"/>
		</g>
		<g opacity="0.0673">
			<path fill="#B3B0B1" d="M23.801,14.471L15.172,23.1v9.49h6.041v-4.312c0-1.431,1.16-2.59,2.588-2.59c1.43,0,2.59,1.159,2.59,2.59
				v4.312h6.039V23.1L23.801,14.471"/>
			<polygon fill="#B3B0B1" points="30.705,17.565 30.705,11.883 28.115,11.883 28.115,14.977 23.801,10.662 11.975,22.488 
				13.195,23.709 23.801,13.103 34.408,23.709 35.627,22.488 			"/>
		</g>
		<g opacity="0.0693">
			<path fill="#B1AEAF" d="M23.629,14.311L15,22.939v9.49h6.041v-4.314c0-1.429,1.16-2.588,2.588-2.588
				c1.429,0,2.589,1.159,2.589,2.588v4.314h6.039v-9.49L23.629,14.311"/>
			<polygon fill="#B1AEAF" points="30.533,17.404 30.533,11.722 27.943,11.722 27.943,14.816 23.629,10.502 11.802,22.328 
				13.023,23.549 23.629,12.941 34.236,23.549 35.455,22.328 			"/>
		</g>
		<g opacity="0.0713">
			<path fill="#AFACAD" d="M23.457,14.149l-8.629,8.629v9.49h6.04v-4.313c0-1.43,1.16-2.589,2.589-2.589s2.589,1.159,2.589,2.589
				v4.313h6.039v-9.49L23.457,14.149"/>
			<polygon fill="#AFACAD" points="30.361,17.243 30.361,11.561 27.771,11.561 27.771,14.655 23.457,10.341 11.63,22.167 
				12.851,23.388 23.457,12.781 34.063,23.388 35.283,22.167 			"/>
		</g>
		<g opacity="0.0733">
			<path fill="#ADAAAB" d="M23.285,13.989l-8.629,8.628v9.49h6.041v-4.313c0-1.429,1.16-2.589,2.588-2.589
				c1.429,0,2.589,1.16,2.589,2.589v4.313h6.039v-9.49L23.285,13.989"/>
			<polygon fill="#ADAAAB" points="30.188,17.083 30.188,11.4 27.599,11.4 27.599,14.494 23.285,10.18 11.458,22.006 12.679,23.227 
				23.285,12.62 33.892,23.227 35.11,22.006 			"/>
		</g>
		<g opacity="0.0752">
			<path fill="#ABA8A9" d="M23.112,13.828l-8.628,8.629v9.49h6.04v-4.313c0-1.43,1.16-2.589,2.588-2.589
				c1.429,0,2.589,1.159,2.589,2.589v4.313h6.039v-9.49L23.112,13.828"/>
			<polygon fill="#ABA8A9" points="30.016,16.922 30.016,11.239 27.426,11.239 27.426,14.334 23.112,10.019 11.285,21.846 
				12.507,23.066 23.112,12.459 33.719,23.066 34.938,21.846 			"/>
		</g>
		<g opacity="0.0772">
			<path fill="#A9A6A7" d="M22.94,13.667l-8.629,8.629v9.49h6.04v-4.313c0-1.43,1.16-2.589,2.589-2.589s2.589,1.159,2.589,2.589
				v4.313h6.039v-9.49L22.94,13.667"/>
			<polygon fill="#A9A6A7" points="29.844,16.761 29.844,11.079 27.254,11.079 27.254,14.173 22.94,9.858 11.113,21.685 
				12.334,22.905 22.94,12.299 33.547,22.905 34.767,21.685 			"/>
		</g>
		<g opacity="0.0792">
			<path fill="#A7A4A5" d="M22.768,13.506l-8.628,8.629v9.491h6.04v-4.313c0-1.43,1.16-2.59,2.588-2.59
				c1.429,0,2.589,1.16,2.589,2.59v4.313h6.04v-9.491L22.768,13.506"/>
			<polygon fill="#A7A4A5" points="29.672,16.6 29.672,10.918 27.082,10.918 27.082,14.012 22.768,9.698 10.941,21.523 
				12.162,22.745 22.768,12.138 33.375,22.745 34.594,21.523 			"/>
		</g>
		<g opacity="0.0812">
			<path fill="#A5A2A3" d="M22.596,13.346l-8.629,8.629v9.49h6.041v-4.313c0-1.43,1.16-2.589,2.588-2.589
				c1.429,0,2.589,1.159,2.589,2.589v4.313h6.04v-9.49L22.596,13.346"/>
			<polygon fill="#A5A2A3" points="29.499,16.439 29.499,10.757 26.91,10.757 26.91,13.852 22.596,9.537 10.769,21.363 
				11.99,22.584 22.596,11.977 33.203,22.584 34.422,21.363 			"/>
		</g>
		<g opacity="0.0832">
			<path fill="#A3A0A1" d="M22.424,13.185l-8.629,8.629v9.491h6.04V26.99c0-1.43,1.16-2.589,2.589-2.589s2.589,1.159,2.589,2.589
				v4.314h6.039v-9.491L22.424,13.185"/>
			<polygon fill="#A3A0A1" points="29.327,16.278 29.327,10.596 26.737,10.596 26.737,13.691 22.424,9.376 10.597,21.202 
				11.817,22.423 22.424,11.816 33.03,22.423 34.25,21.202 			"/>
		</g>
		<g opacity="0.0851">
			<path fill="#A19E9F" d="M22.252,13.024l-8.63,8.628v9.491h6.041V26.83c0-1.43,1.161-2.59,2.589-2.59
				c1.428,0,2.589,1.16,2.589,2.59v4.313h6.039v-9.491L22.252,13.024"/>
			<polygon fill="#A19E9F" points="29.155,16.118 29.155,10.436 26.565,10.436 26.565,13.53 22.252,9.215 10.424,21.042 
				11.646,22.262 22.252,11.655 32.858,22.262 34.078,21.042 			"/>
		</g>
		<g opacity="0.0871">
			<path fill="#9F9C9D" d="M22.079,12.863l-8.629,8.629v9.49h6.04v-4.313c0-1.43,1.16-2.589,2.589-2.589
				c1.429,0,2.589,1.159,2.589,2.589v4.313h6.039v-9.49L22.079,12.863"/>
			<polygon fill="#9F9C9D" points="28.982,15.957 28.982,10.274 26.393,10.274 26.393,13.369 22.079,9.055 10.252,20.881 
				11.473,22.102 22.079,11.494 32.686,22.102 33.905,20.881 			"/>
		</g>
		<g opacity="0.0891">
			<path fill="#9D9A9B" d="M21.907,12.702l-8.629,8.629v9.49h6.04v-4.313c0-1.43,1.16-2.589,2.589-2.589s2.589,1.159,2.589,2.589
				v4.313h6.039v-9.49L21.907,12.702"/>
			<polygon fill="#9D9A9B" points="28.811,15.797 28.811,10.114 26.221,10.114 26.221,13.208 21.907,8.894 10.08,20.72 
				11.301,21.941 21.907,11.333 32.514,21.941 33.733,20.72 			"/>
		</g>
		<g opacity="0.0911">
			<path fill="#9B9899" d="M21.734,12.542l-8.628,8.628v9.491h6.04v-4.313c0-1.43,1.16-2.589,2.588-2.589
				c1.43,0,2.59,1.159,2.59,2.589v4.313h6.039V21.17L21.734,12.542"/>
			<polygon fill="#9B9899" points="28.638,15.636 28.638,9.953 26.048,9.953 26.048,13.048 21.734,8.733 9.908,20.56 11.129,21.78 
				21.734,11.173 32.341,21.78 33.562,20.56 			"/>
		</g>
		<g opacity="0.0931">
			<path fill="#999697" d="M21.562,12.381l-8.629,8.629v9.49h6.04v-4.313c0-1.43,1.161-2.589,2.589-2.589
				c1.429,0,2.589,1.159,2.589,2.589V30.5h6.039v-9.49L21.562,12.381"/>
			<polygon fill="#999697" points="28.466,15.475 28.466,9.792 25.876,9.792 25.876,12.887 21.562,8.572 9.735,20.398 
				10.956,21.619 21.562,11.012 32.169,21.619 33.389,20.398 			"/>
		</g>
		<g opacity="0.095">
			<path fill="#979495" d="M21.391,12.22l-8.629,8.628v9.491h6.04v-4.314c0-1.43,1.16-2.588,2.589-2.588s2.589,1.158,2.589,2.588
				v4.314h6.039v-9.491L21.391,12.22"/>
			<polygon fill="#979495" points="28.294,15.314 28.294,9.632 25.704,9.632 25.704,12.726 21.391,8.411 9.563,20.238 
				10.784,21.458 21.391,10.852 31.997,21.458 33.217,20.238 			"/>
		</g>
		<g opacity="0.097">
			<path fill="#969293" d="M21.218,12.059l-8.629,8.629v9.491h6.04v-4.313c0-1.43,1.161-2.589,2.589-2.589
				c1.429,0,2.589,1.159,2.589,2.589v4.313h6.039v-9.491L21.218,12.059"/>
			<polygon fill="#969293" points="28.122,15.153 28.122,9.471 25.532,9.471 25.532,12.565 21.218,8.251 9.391,20.077 
				10.612,21.298 21.218,10.691 31.825,21.298 33.044,20.077 			"/>
		</g>
		<g opacity="0.099">
			<path fill="#949091" d="M21.046,11.898l-8.629,8.629v9.49h6.04v-4.313c0-1.43,1.16-2.589,2.589-2.589s2.589,1.159,2.589,2.589
				v4.313h6.039v-9.49L21.046,11.898"/>
			<polygon fill="#949091" points="27.949,14.993 27.949,9.31 25.359,9.31 25.359,12.404 21.046,8.09 9.219,19.916 10.439,21.137 
				21.046,10.53 31.652,21.137 32.872,19.916 			"/>
		</g>
		<g opacity="0.101">
			<path fill="#928E8F" d="M20.874,11.738l-8.629,8.628v9.491h6.04v-4.314c0-1.429,1.16-2.588,2.589-2.588s2.589,1.159,2.589,2.588
				v4.314h6.039v-9.491L20.874,11.738"/>
			<polygon fill="#928E8F" points="27.777,14.832 27.777,9.149 25.188,9.149 25.188,12.244 20.874,7.929 9.047,19.755 
				10.268,20.976 20.874,10.369 31.48,20.976 32.7,19.755 			"/>
		</g>
		<g opacity="0.103">
			<path fill="#908C8D" d="M20.702,11.577l-8.629,8.628v9.491h6.04v-4.313c0-1.43,1.161-2.59,2.589-2.59s2.588,1.16,2.588,2.59
				v4.313h6.04v-9.491L20.702,11.577"/>
			<polygon fill="#908C8D" points="27.605,14.671 27.605,8.988 25.015,8.988 25.015,12.083 20.702,7.768 8.874,19.595 
				10.095,20.815 20.702,10.208 31.308,20.815 32.528,19.595 			"/>
		</g>
		<g opacity="0.105">
			<path fill="#8E8A8C" d="M20.529,11.416L11.9,20.045v9.49h6.04v-4.313c0-1.43,1.16-2.589,2.589-2.589s2.589,1.159,2.589,2.589
				v4.313h6.039v-9.49L20.529,11.416"/>
			<polygon fill="#8E8A8C" points="27.433,14.51 27.433,8.828 24.843,8.828 24.843,11.922 20.529,7.607 8.702,19.434 9.923,20.654 
				20.529,10.048 31.136,20.654 32.355,19.434 			"/>
		</g>
		<g opacity="0.1069">
			<path fill="#8C898A" d="M20.357,11.255l-8.628,8.628v9.491h6.04v-4.314c0-1.43,1.16-2.588,2.588-2.588
				c1.429,0,2.589,1.158,2.589,2.588v4.314h6.039v-9.491L20.357,11.255"/>
			<polygon fill="#8C898A" points="27.26,14.35 27.26,8.667 24.671,8.667 24.671,11.761 20.357,7.446 8.53,19.273 9.751,20.494 
				20.357,9.887 30.964,20.494 32.184,19.273 			"/>
		</g>
		<g opacity="0.1089">
			<path fill="#8A8788" d="M20.185,11.095l-8.629,8.629v9.49h6.04V24.9c0-1.43,1.16-2.589,2.589-2.589
				c1.428,0,2.588,1.159,2.588,2.589v4.313h6.039v-9.49L20.185,11.095"/>
			<polygon fill="#8A8788" points="27.088,14.188 27.088,8.506 24.499,8.506 24.499,11.6 20.185,7.286 8.358,19.112 9.578,20.333 
				20.185,9.726 30.792,20.333 32.011,19.112 			"/>
		</g>
		<g opacity="0.1109">
			<path fill="#888586" d="M20.013,10.934l-8.629,8.629v9.49h6.04V24.74c0-1.431,1.16-2.59,2.589-2.59s2.589,1.159,2.589,2.59v4.312
				h6.039v-9.49L20.013,10.934"/>
			<polygon fill="#888586" points="26.916,14.028 26.916,8.346 24.326,8.346 24.326,11.439 20.013,7.125 8.186,18.951 9.406,20.172 
				20.013,9.565 30.619,20.172 31.839,18.951 			"/>
		</g>
		<g opacity="0.1129">
			<path fill="#868384" d="M19.841,10.773l-8.629,8.628v9.491h6.04v-4.313c0-1.431,1.16-2.589,2.589-2.589
				c1.429,0,2.589,1.158,2.589,2.589v4.313h6.039v-9.491L19.841,10.773"/>
			<polygon fill="#868384" points="26.744,13.867 26.744,8.185 24.154,8.185 24.154,11.279 19.841,6.964 8.014,18.791 9.234,20.012 
				19.841,9.404 30.447,20.012 31.667,18.791 			"/>
		</g>
		<g opacity="0.1149">
			<path fill="#858182" d="M19.668,10.612l-8.628,8.629v9.49h6.04v-4.313c0-1.43,1.16-2.589,2.588-2.589
				c1.429,0,2.589,1.159,2.589,2.589v4.313h6.039v-9.49L19.668,10.612"/>
			<polygon fill="#858182" points="26.571,13.706 26.571,8.023 23.981,8.023 23.981,11.118 19.668,6.804 7.841,18.63 9.062,19.851 
				19.668,9.244 30.274,19.851 31.495,18.63 			"/>
		</g>
		<g opacity="0.1168">
			<path fill="#838081" d="M19.496,10.451l-8.629,8.629v9.49h6.04v-4.313c0-1.429,1.16-2.589,2.589-2.589s2.589,1.16,2.589,2.589
				v4.313h6.039v-9.49L19.496,10.451"/>
			<polygon fill="#838081" points="26.399,13.545 26.399,7.863 23.81,7.863 23.81,10.957 19.496,6.643 7.669,18.469 8.89,19.69 
				19.496,9.083 30.103,19.69 31.322,18.469 			"/>
		</g>
		<g opacity="0.1188">
			<path fill="#817E7F" d="M19.324,10.291l-8.629,8.628v9.491h6.04v-4.314c0-1.429,1.16-2.588,2.589-2.588
				c1.429,0,2.588,1.159,2.588,2.588v4.314h6.04v-9.491L19.324,10.291"/>
			<polygon fill="#817E7F" points="26.227,13.385 26.227,7.703 23.638,7.703 23.638,10.797 19.324,6.482 7.497,18.308 8.718,19.529 
				19.324,8.922 29.931,19.529 31.15,18.308 			"/>
		</g>
		<g opacity="0.1208">
			<path fill="#7F7C7D" d="M19.152,10.13l-8.63,8.628v9.491h6.04v-4.313c0-1.43,1.16-2.589,2.59-2.589
				c1.428,0,2.588,1.159,2.588,2.589v4.313h6.039v-9.491L19.152,10.13"/>
			<polygon fill="#7F7C7D" points="26.055,13.224 26.055,7.542 23.465,7.542 23.465,10.636 19.152,6.321 7.324,18.147 8.545,19.368 
				19.152,8.761 29.758,19.368 30.979,18.147 			"/>
		</g>
		<g opacity="0.1228">
			<path fill="#7E7A7B" d="M18.979,9.969l-8.629,8.629v9.491h6.04v-4.314c0-1.429,1.16-2.589,2.589-2.589s2.589,1.16,2.589,2.589
				v4.314h6.039v-9.491L18.979,9.969"/>
			<polygon fill="#7E7A7B" points="25.883,13.063 25.883,7.381 23.293,7.381 23.293,10.475 18.979,6.161 7.152,17.987 8.373,19.208 
				18.979,8.601 29.586,19.208 30.806,17.987 			"/>
		</g>
		<g opacity="0.1248">
			<path fill="#7C797A" d="M18.808,9.809l-8.629,8.628v9.491h6.04v-4.314c0-1.429,1.16-2.588,2.589-2.588
				c1.428,0,2.588,1.159,2.588,2.588v4.314h6.04v-9.491L18.808,9.809"/>
			<polygon fill="#7C797A" points="25.711,12.902 25.711,7.22 23.121,7.22 23.121,10.314 18.808,6 6.98,17.826 8.2,19.047 
				18.808,8.439 29.414,19.047 30.634,17.826 			"/>
		</g>
		<g opacity="0.1267">
			<path fill="#7A7778" d="M18.635,9.647l-8.629,8.629v9.491h6.04v-4.314c0-1.43,1.16-2.589,2.589-2.589
				c1.428,0,2.588,1.159,2.588,2.589v4.314h6.039v-9.491L18.635,9.647"/>
			<polygon fill="#7A7778" points="25.538,12.742 25.538,7.059 22.948,7.059 22.948,10.153 18.635,5.839 6.808,17.665 8.028,18.886 
				18.635,8.279 29.241,18.886 30.461,17.665 			"/>
		</g>
		<g opacity="0.1287">
			<path fill="#787576" d="M18.463,9.487l-8.629,8.628v9.491h6.04v-4.313c0-1.431,1.16-2.589,2.589-2.589s2.588,1.158,2.588,2.589
				v4.313h6.04v-9.491L18.463,9.487"/>
			<polygon fill="#787576" points="25.366,12.581 25.366,6.898 22.776,6.898 22.776,9.993 18.463,5.678 6.636,17.504 7.856,18.725 
				18.463,8.118 29.069,18.725 30.289,17.504 			"/>
		</g>
		<g opacity="0.1307">
			<path fill="#777475" d="M18.291,9.326l-8.629,8.628v9.491h6.039v-4.313c0-1.431,1.161-2.589,2.59-2.589
				c1.428,0,2.589,1.158,2.589,2.589v4.313h6.039v-9.491L18.291,9.326"/>
			<polygon fill="#777475" points="25.194,12.42 25.194,6.738 22.604,6.738 22.604,9.832 18.291,5.518 6.463,17.344 7.684,18.564 
				18.291,7.957 28.897,18.564 30.117,17.344 			"/>
		</g>
		<g opacity="0.1327">
			<path fill="#757273" d="M18.119,9.165L9.49,17.794v9.491h6.04v-4.314c0-1.43,1.16-2.589,2.589-2.589
				c1.428,0,2.588,1.159,2.588,2.589v4.314h6.039v-9.491L18.119,9.165"/>
			<polygon fill="#757273" points="25.021,12.26 25.021,6.577 22.432,6.577 22.432,9.671 18.119,5.356 6.291,17.183 7.512,18.403 
				18.119,7.797 28.725,18.403 29.945,17.183 			"/>
		</g>
		<g opacity="0.1347">
			<path fill="#737071" d="M17.946,9.004l-8.629,8.629v9.491h6.04v-4.313c0-1.43,1.16-2.59,2.589-2.59
				c1.428,0,2.589,1.16,2.589,2.59v4.313h6.039v-9.491L17.946,9.004"/>
			<polygon fill="#737071" points="24.85,12.099 24.85,6.416 22.26,6.416 22.26,9.51 17.946,5.196 6.119,17.022 7.34,18.243 
				17.946,7.636 28.553,18.243 29.772,17.022 			"/>
		</g>
		<g opacity="0.1366">
			<path fill="#726F70" d="M17.774,8.844l-8.628,8.629v9.49h6.04v-4.313c0-1.43,1.16-2.589,2.589-2.589
				c1.428,0,2.588,1.159,2.588,2.589v4.313h6.04v-9.49L17.774,8.844"/>
			<polygon fill="#726F70" points="24.677,11.938 24.677,6.255 22.087,6.255 22.087,9.349 17.774,5.035 5.946,16.861 7.167,18.083 
				17.774,7.475 28.38,18.083 29.601,16.861 			"/>
		</g>
		<g opacity="0.1386">
			<path fill="#706D6E" d="M17.602,8.683l-8.629,8.629v9.491h6.04v-4.314c0-1.43,1.16-2.588,2.589-2.588s2.589,1.159,2.589,2.588
				v4.314h6.039v-9.491L17.602,8.683"/>
			<polygon fill="#706D6E" points="24.505,11.777 24.505,6.095 21.915,6.095 21.915,9.188 17.602,4.875 5.774,16.701 6.995,17.921 
				17.602,7.314 28.208,17.921 29.428,16.701 			"/>
		</g>
		<g opacity="0.1406">
			<path fill="#6E6B6C" d="M17.43,8.522l-8.629,8.629v9.491h6.04v-4.313c0-1.43,1.161-2.589,2.589-2.589
				c1.428,0,2.589,1.159,2.589,2.589v4.313h6.039v-9.491L17.43,8.522"/>
			<polygon fill="#6E6B6C" points="24.333,11.616 24.333,5.934 21.743,5.934 21.743,9.027 17.43,4.713 5.602,16.54 6.823,17.761 
				17.43,7.153 28.036,17.761 29.256,16.54 			"/>
		</g>
		<g opacity="0.1426">
			<path fill="#6D6A6B" d="M17.258,8.361L8.629,16.99v9.49h6.04v-4.313c0-1.43,1.16-2.589,2.589-2.589
				c1.428,0,2.588,1.159,2.588,2.589v4.313h6.039v-9.49L17.258,8.361"/>
			<polygon fill="#6D6A6B" points="24.161,11.455 24.161,5.773 21.571,5.773 21.571,8.867 17.258,4.553 5.43,16.379 6.65,17.6 
				17.258,6.993 27.863,17.6 29.083,16.379 			"/>
		</g>
		<g opacity="0.1446">
			<path fill="#6B6869" d="M17.085,8.2l-8.628,8.629v9.491h6.039v-4.314c0-1.43,1.16-2.588,2.589-2.588s2.589,1.159,2.589,2.588
				v4.314h6.039v-9.491L17.085,8.2"/>
			<polygon fill="#6B6869" points="23.988,11.295 23.988,5.612 21.398,5.612 21.398,8.706 17.085,4.392 5.258,16.218 6.479,17.439 
				17.085,6.832 27.691,17.439 28.912,16.218 			"/>
		</g>
		<g opacity="0.1465">
			<path fill="#6A6768" d="M16.913,8.039l-8.629,8.629v9.491h6.04v-4.313c0-1.43,1.161-2.589,2.589-2.589
				c1.428,0,2.588,1.159,2.588,2.589v4.313h6.039v-9.491L16.913,8.039"/>
			<polygon fill="#6A6768" points="23.816,11.134 23.816,5.451 21.226,5.451 21.226,8.546 16.913,4.231 5.086,16.058 6.307,17.278 
				16.913,6.671 27.52,17.278 28.739,16.058 			"/>
		</g>
		<g opacity="0.1485">
			<path fill="#686566" d="M16.741,7.879l-8.629,8.628v9.492h6.039v-4.314c0-1.43,1.161-2.589,2.59-2.589
				c1.428,0,2.588,1.159,2.588,2.589v4.314h6.039v-9.492L16.741,7.879"/>
			<polygon fill="#686566" points="23.644,10.973 23.644,5.291 21.054,5.291 21.054,8.385 16.741,4.07 4.914,15.896 6.134,17.118 
				16.741,6.511 27.347,17.118 28.567,15.896 			"/>
		</g>
		<g opacity="0.1505">
			<path fill="#666364" d="M16.569,7.718L7.94,16.347v9.491h6.039v-4.314c0-1.429,1.161-2.589,2.59-2.589
				c1.428,0,2.588,1.16,2.588,2.589v4.314h6.039v-9.491L16.569,7.718"/>
			<polygon fill="#666364" points="23.472,10.812 23.472,5.13 20.881,5.13 20.881,8.224 16.569,3.91 4.741,15.736 5.962,16.957 
				16.569,6.35 27.175,16.957 28.395,15.736 			"/>
		</g>
		<g opacity="0.1525">
			<path fill="#656263" d="M16.396,7.557l-8.629,8.629v9.491h6.04v-4.313c0-1.43,1.16-2.589,2.589-2.589
				c1.429,0,2.588,1.159,2.588,2.589v4.313h6.039v-9.491L16.396,7.557"/>
			<polygon fill="#656263" points="23.299,10.651 23.299,4.969 20.71,4.969 20.71,8.063 16.396,3.749 4.569,15.575 5.789,16.796 
				16.396,6.189 27.002,16.796 28.223,15.575 			"/>
		</g>
		<g opacity="0.1545">
			<path fill="#636061" d="M16.225,7.396l-8.629,8.629v9.49h6.04v-4.313c0-1.43,1.16-2.588,2.59-2.588
				c1.428,0,2.588,1.159,2.588,2.588v4.313h6.04v-9.49L16.225,7.396"/>
			<polygon fill="#636061" points="23.127,10.491 23.127,4.808 20.537,4.808 20.537,7.902 16.225,3.588 4.396,15.415 5.617,16.635 
				16.225,6.028 26.83,16.635 28.051,15.415 			"/>
		</g>
		<g opacity="0.1564">
			<path fill="#625F60" d="M16.052,7.235l-8.629,8.629v9.491h6.04v-4.314c0-1.429,1.16-2.588,2.589-2.588
				c1.428,0,2.588,1.159,2.588,2.588v4.314h6.039v-9.491L16.052,7.235"/>
			<polygon fill="#625F60" points="22.955,10.33 22.955,4.647 20.365,4.647 20.365,7.742 16.052,3.427 4.224,15.253 5.445,16.475 
				16.052,5.867 26.658,16.475 27.878,15.253 			"/>
		</g>
		<g opacity="0.1584">
			<path fill="#605D5E" d="M15.88,7.075l-8.629,8.629v9.492h6.039v-4.314c0-1.43,1.16-2.589,2.59-2.589
				c1.428,0,2.589,1.159,2.589,2.589v4.314h6.039v-9.492L15.88,7.075"/>
			<polygon fill="#605D5E" points="22.782,10.169 22.782,4.486 20.193,4.486 20.193,7.581 15.88,3.267 4.052,15.093 5.272,16.313 
				15.88,5.707 26.486,16.313 27.706,15.093 			"/>
		</g>
		<g opacity="0.1604">
			<path fill="#5E5C5D" d="M15.708,6.914l-8.628,8.629v9.491h6.04V20.72c0-1.43,1.16-2.589,2.589-2.589
				c1.428,0,2.588,1.159,2.588,2.589v4.314h6.039v-9.491L15.708,6.914"/>
			<polygon fill="#5E5C5D" points="22.61,10.009 22.61,4.326 20.021,4.326 20.021,7.42 15.708,3.105 3.88,14.932 5.101,16.153 
				15.708,5.545 26.313,16.153 27.534,14.932 			"/>
		</g>
		<g opacity="0.1624">
			<path fill="#5D5A5B" d="M15.536,6.753l-8.629,8.628v9.491h6.04V20.56c0-1.43,1.16-2.589,2.589-2.589
				c1.428,0,2.588,1.16,2.588,2.589v4.313h6.039v-9.491L15.536,6.753"/>
			<polygon fill="#5D5A5B" points="22.438,9.848 22.438,4.165 19.849,4.165 19.849,7.259 15.536,2.945 3.708,14.771 4.929,15.992 
				15.536,5.385 26.142,15.992 27.362,14.771 			"/>
		</g>
		<g opacity="0.1644">
			<path fill="#5B595A" d="M15.363,6.593l-8.629,8.629v9.49h6.04v-4.313c0-1.43,1.16-2.589,2.589-2.589
				c1.428,0,2.588,1.159,2.588,2.589v4.313h6.04v-9.49L15.363,6.593"/>
			<polygon fill="#5B595A" points="22.266,9.687 22.266,4.005 19.676,4.005 19.676,7.098 15.363,2.784 3.536,14.61 4.756,15.832 
				15.363,5.224 25.969,15.832 27.189,14.61 			"/>
		</g>
		<g opacity="0.1663">
			<path fill="#595758" d="M15.191,6.432l-8.629,8.629v9.491h6.039v-4.314c0-1.43,1.16-2.589,2.59-2.589
				c1.428,0,2.588,1.16,2.588,2.589v4.314h6.039v-9.491L15.191,6.432"/>
			<polygon fill="#595758" points="22.094,9.526 22.094,3.844 19.504,3.844 19.504,6.938 15.191,2.624 3.363,14.449 4.584,15.67 
				15.191,5.063 25.797,15.67 27.018,14.449 			"/>
		</g>
		<g opacity="0.1683">
			<path fill="#585657" d="M15.019,6.271L6.39,14.9v9.491h6.039v-4.314c0-1.429,1.16-2.588,2.589-2.588
				c1.428,0,2.589,1.159,2.589,2.588v4.314h6.039V14.9L15.019,6.271"/>
			<polygon fill="#585657" points="21.922,9.365 21.922,3.683 19.332,3.683 19.332,6.776 15.019,2.463 3.191,14.289 4.412,15.51 
				15.019,4.902 25.625,15.51 26.845,14.289 			"/>
		</g>
		<g opacity="0.1703">
			<path fill="#565455" d="M14.847,6.11l-8.629,8.629v9.491h6.04v-4.314c0-1.43,1.16-2.589,2.589-2.589
				c1.428,0,2.588,1.159,2.588,2.589v4.314h6.039v-9.491L14.847,6.11"/>
			<polygon fill="#565455" points="21.75,9.205 21.75,3.522 19.159,3.522 19.159,6.616 14.847,2.302 3.019,14.128 4.239,15.349 
				14.847,4.742 25.452,15.349 26.673,14.128 			"/>
		</g>
		<g opacity="0.1723">
			<path fill="#555354" d="M14.675,5.949l-8.629,8.629v9.491h6.04v-4.314c0-1.429,1.16-2.589,2.59-2.589
				c1.428,0,2.588,1.16,2.588,2.589v4.314h6.039v-9.491L14.675,5.949"/>
			<polygon fill="#555354" points="21.577,9.044 21.577,3.361 18.987,3.361 18.987,6.455 14.675,2.141 2.847,13.967 4.067,15.188 
				14.675,4.581 25.28,15.188 26.5,13.967 			"/>
		</g>
		<g opacity="0.1743">
			<path fill="#535152" d="M14.502,5.789l-8.628,8.628v9.491h6.039v-4.314c0-1.43,1.16-2.588,2.589-2.588
				c1.428,0,2.588,1.159,2.588,2.588v4.314h6.039v-9.491L14.502,5.789"/>
			<polygon fill="#535152" points="21.405,8.883 21.405,3.2 18.815,3.2 18.815,6.294 14.502,1.98 2.674,13.807 3.896,15.027 
				14.502,4.42 25.108,15.027 26.329,13.807 			"/>
		</g>
		<g opacity="0.1762">
			<path fill="#525051" d="M14.33,5.628l-8.629,8.628v9.492h6.039v-4.314c0-1.43,1.16-2.589,2.59-2.589
				c1.428,0,2.588,1.159,2.588,2.589v4.314h6.039v-9.492L14.33,5.628"/>
			<polygon fill="#525051" points="21.233,8.722 21.233,3.04 18.643,3.04 18.643,6.134 14.33,1.82 2.502,13.646 3.723,14.867 
				14.33,4.259 24.936,14.867 26.156,13.646 			"/>
		</g>
		<g opacity="0.1782">
			<path fill="#504F50" d="M14.158,5.467l-8.629,8.629v9.491h6.039v-4.314c0-1.429,1.16-2.589,2.59-2.589
				c1.427,0,2.588,1.16,2.588,2.589v4.314h6.039v-9.491L14.158,5.467"/>
			<polygon fill="#504F50" points="21.061,8.562 21.061,2.879 18.471,2.879 18.471,5.973 14.158,1.659 2.33,13.485 3.551,14.706 
				14.158,4.099 24.764,14.706 25.984,13.485 			"/>
		</g>
		<g opacity="0.1802">
			<path fill="#4F4D4E" d="M13.986,5.306l-8.629,8.629v9.491h6.04v-4.313c0-1.43,1.161-2.589,2.59-2.589
				c1.428,0,2.588,1.159,2.588,2.589v4.313h6.039v-9.491L13.986,5.306"/>
			<polygon fill="#4F4D4E" points="20.888,8.401 20.888,2.718 18.298,2.718 18.298,5.812 13.986,1.498 2.158,13.324 3.379,14.545 
				13.986,3.938 24.591,14.545 25.812,13.324 			"/>
		</g>
		<g opacity="0.1822">
			<path fill="#4D4C4D" d="M13.813,5.145l-8.629,8.629v9.491h6.039v-4.314c0-1.43,1.16-2.589,2.59-2.589
				c1.428,0,2.588,1.16,2.588,2.589v4.314h6.039v-9.491L13.813,5.145"/>
			<polygon fill="#4D4C4D" points="20.716,8.24 20.716,2.558 18.126,2.558 18.126,5.651 13.813,1.337 1.985,13.163 3.206,14.384 
				13.813,3.777 24.419,14.384 25.64,13.163 			"/>
		</g>
		<g opacity="0.1842">
			<path fill="#4C4B4C" d="M13.641,4.985l-8.628,8.628v9.491h6.039v-4.314c0-1.43,1.16-2.589,2.589-2.589
				c1.428,0,2.588,1.159,2.588,2.589v4.314h6.04v-9.491L13.641,4.985"/>
			<polygon fill="#4C4B4C" points="20.543,8.079 20.543,2.396 17.954,2.396 17.954,5.491 13.641,1.176 1.813,13.002 3.034,14.224 
				13.641,3.617 24.247,14.224 25.468,13.002 			"/>
		</g>
		<g opacity="0.1861">
			<path fill="#4A494A" d="M13.469,4.824L4.84,13.453v9.491h6.039V18.63c0-1.43,1.161-2.589,2.59-2.589
				c1.428,0,2.588,1.159,2.588,2.589v4.313h6.039v-9.491L13.469,4.824"/>
			<polygon fill="#4A494A" points="20.372,7.918 20.372,2.236 17.782,2.236 17.782,5.33 13.469,1.016 1.641,12.842 2.861,14.062 
				13.469,3.456 24.075,14.062 25.295,12.842 			"/>
		</g>
		<g opacity="0.1881">
			<path fill="#494849" d="M13.297,4.663l-8.629,8.629v9.491h6.04v-4.314c0-1.43,1.16-2.589,2.589-2.589
				c1.428,0,2.588,1.159,2.588,2.589v4.314h6.039v-9.491L13.297,4.663"/>
			<polygon fill="#494849" points="20.199,7.757 20.199,2.075 17.609,2.075 17.609,5.168 13.297,0.854 1.469,12.681 2.689,13.902 
				13.297,3.294 23.902,13.902 25.123,12.681 			"/>
		</g>
		<g opacity="0.1901">
			<path fill="#474748" d="M13.125,4.502l-8.629,8.629v9.491h6.04v-4.314c0-1.43,1.16-2.588,2.589-2.588
				c1.428,0,2.588,1.159,2.588,2.588v4.314h6.039v-9.491L13.125,4.502"/>
			<polygon fill="#474748" points="20.027,7.597 20.027,1.915 17.437,1.915 17.437,5.008 13.125,0.694 1.297,12.52 2.518,13.741 
				13.125,3.134 23.73,13.741 24.951,12.52 			"/>
		</g>
		<g opacity="0.1921">
			<path fill="#464546" d="M12.953,4.341L4.324,12.97v9.492h6.039v-4.314c0-1.43,1.16-2.589,2.59-2.589
				c1.428,0,2.588,1.159,2.588,2.589v4.314h6.039V12.97L12.953,4.341"/>
			<polygon fill="#464546" points="19.855,7.436 19.855,1.753 17.265,1.753 17.265,4.847 12.953,0.533 1.124,12.359 2.345,13.581 
				12.953,2.973 23.558,13.581 24.779,12.359 			"/>
		</g>
		<g opacity="0.1941">
			<path fill="#454445" d="M12.78,4.18L4.151,12.81v9.491h6.039v-4.314c0-1.43,1.16-2.589,2.59-2.589
				c1.428,0,2.588,1.159,2.588,2.589v4.314h6.039V12.81L12.78,4.18"/>
			<polygon fill="#454445" points="19.683,7.275 19.683,1.593 17.093,1.593 17.093,4.687 12.78,0.373 0.952,12.199 2.173,13.419 
				12.78,2.812 23.386,13.419 24.606,12.199 			"/>
		</g>
		<g opacity="0.196">
			<path fill="#434344" d="M12.608,4.02l-8.629,8.629v9.491h6.04v-4.313c0-1.43,1.16-2.589,2.59-2.589
				c1.428,0,2.588,1.159,2.588,2.589v4.313h6.039v-9.491L12.608,4.02"/>
			<polygon fill="#434344" points="19.511,7.114 19.511,1.432 16.921,1.432 16.921,4.525 12.608,0.211 0.78,12.038 2.001,13.259 
				12.608,2.651 23.213,13.259 24.434,12.038 			"/>
		</g>
		<g opacity="0.198">
			<path fill="#424243" d="M12.436,3.859l-8.629,8.629v9.491h6.04v-4.313c0-1.43,1.16-2.589,2.589-2.589
				c1.428,0,2.588,1.159,2.588,2.589v4.313h6.039v-9.491L12.436,3.859"/>
			<polygon fill="#424243" points="19.338,6.954 19.338,1.271 16.749,1.271 16.749,4.365 12.436,0.051 0.608,11.877 1.828,13.098 
				12.436,2.491 23.041,13.098 24.262,11.877 			"/>
		</g>
		<g opacity="0.2">
			<path fill="#404042" d="M12.264,3.698l-8.629,8.629v9.491h6.039v-4.314c0-1.43,1.16-2.589,2.59-2.589
				c1.428,0,2.588,1.159,2.588,2.589v4.314h6.039v-9.491L12.264,3.698"/>
			<polygon fill="#404042" points="19.166,6.793 19.166,1.11 16.576,1.11 16.576,4.204 12.264,-0.11 0.436,11.716 1.656,12.938 
				12.264,2.33 22.869,12.938 24.09,11.716 			"/>
		</g>
	</g>
	<g>
		<path fill="#404042" d="M11.828,3.698l-8.629,8.629v9.491h6.039v-4.314c0-1.43,1.16-2.589,2.59-2.589s2.588,1.159,2.588,2.589
			v4.314h6.039v-9.491L11.828,3.698"/>
		<polygon fill="#404042" points="18.73,6.793 18.73,1.11 16.143,1.11 16.143,4.204 11.828,-0.11 0,11.716 1.221,12.938 
			11.828,2.33 22.434,12.938 23.654,11.716 		"/>
	</g>
</g>
</svg>
