<svg xmlns="http://www.w3.org/2000/svg" viewBox="0 0 500 500"><defs><style>.cls-1{fill:none;stroke:#f3f3f3;stroke-miterlimit:10;stroke-width:10px;}.cls-2{fill:#f3f3f3;}</style></defs><g id="IconoAreas"><circle class="cls-1" cx="250.37" cy="249.82" r="237.21"/><path class="cls-2" d="M236.68,303.62,119.55,228,97.06,242.5a10.53,10.53,0,0,0,0,17.69l139.62,90.14a24.58,24.58,0,0,0,26.64,0l139.62-90.14a10.53,10.53,0,0,0,0-17.69L380.45,228,263.32,303.62A24.54,24.54,0,0,1,236.68,303.62Z"/><path class="cls-2" d="M236.68,375.62,119.55,300,97.06,314.5a10.53,10.53,0,0,0,0,17.69l139.62,90.14a24.58,24.58,0,0,0,26.64,0l139.62-90.14a10.53,10.53,0,0,0,0-17.69L380.45,300,263.32,375.62A24.54,24.54,0,0,1,236.68,375.62Z"/><path class="cls-2" d="M235.39,276.79,103,191.34a15.11,15.11,0,0,1,0-25.4L235.41,80.62a26.92,26.92,0,0,1,29.18,0L397,165.94a15.11,15.11,0,0,1,0,25.4L264.61,276.79A26.94,26.94,0,0,1,235.39,276.79Z"/></g></svg>