<svg xmlns="http://www.w3.org/2000/svg" viewBox="0 0 488.43 488.43"><defs><style>.cls-1{fill:#f3f3f3;}</style></defs><g id="Capa_2" data-name="Capa 2"><g id="IconosMesaAyuda"><g id="Gris"><g id="iconoTiket"><path id="Circulo" class="cls-1" d="M244.21,488.43A244.21,244.21,0,0,1,71.53,71.53,244.21,244.21,0,1,1,416.9,416.9,242.66,242.66,0,0,1,244.21,488.43Zm0-464.43C122.79,24,24,122.79,24,244.21s98.79,220.22,220.21,220.22,220.22-98.79,220.22-220.22S365.64,24,244.21,24Z"/><path class="cls-1" d="M328.77,244.32a18,18,0,0,1,18-18v-18.7a21.14,21.14,0,0,0-21.14-21.15H162.83a21.15,21.15,0,0,0-21.14,21.15v18.6a18,18,0,1,1,0,35.93v18.6a21.14,21.14,0,0,0,21.14,21.14H325.59a21.13,21.13,0,0,0,21.14-21.14V262.29A18,18,0,0,1,328.77,244.32Z"/></g></g></g></g></svg>