<svg xmlns="http://www.w3.org/2000/svg" viewBox="0 0 500 500"><defs><style>.cls-1{fill:none;stroke:#2f2f7f;stroke-miterlimit:10;stroke-width:10px;}.cls-2{fill:#2f2f7f;}</style></defs><g id="IconoPassword"><circle class="cls-1" cx="250.18" cy="250" r="237.21"/><path class="cls-2" d="M348.26,223.57h-21c0-.79.06-1.58.06-2.38V158.32a77.15,77.15,0,0,0-154.29,0v62.87c0,.8,0,1.59.06,2.38H151.74a32,32,0,0,0-32,32V358.37a32,32,0,0,0,32,32H348.26a32,32,0,0,0,32-32V255.54A32,32,0,0,0,348.26,223.57ZM205,221.19V158.32a45.15,45.15,0,0,1,90.29,0v62.87c0,.8,0,1.59-.06,2.38H205.1C205.06,222.78,205,222,205,221.19Z"/></g></svg>