<?xml version="1.0" encoding="UTF-8"?>
<svg xmlns="http://www.w3.org/2000/svg" xmlns:xlink="http://www.w3.org/1999/xlink" width="28pt" height="28pt" viewBox="0 0 28 28" version="1.1">
<g id="surface1">
<path style=" stroke:none;fill-rule:nonzero;fill:rgb(0%,0%,0%);fill-opacity:1;" d="M 4.976562 10.296875 L 12.582031 10.296875 L 12.582031 15.503906 L 4.976562 15.503906 Z M 4.976562 10.296875 "/>
<path style=" stroke:none;fill-rule:nonzero;fill:rgb(0%,0%,0%);fill-opacity:1;" d="M 4.976562 17.667969 L 12.582031 17.667969 L 12.582031 22.878906 L 4.976562 22.878906 Z M 4.976562 17.667969 "/>
<path style=" stroke:none;fill-rule:nonzero;fill:rgb(0%,0%,0%);fill-opacity:1;" d="M 14.398438 10.296875 L 21.996094 10.296875 L 21.996094 15.503906 L 14.398438 15.503906 Z M 14.398438 10.296875 "/>
<path style=" stroke:none;fill-rule:nonzero;fill:rgb(0%,0%,0%);fill-opacity:1;" d="M 14.398438 17.667969 L 21.996094 17.667969 L 21.996094 22.878906 L 14.398438 22.878906 Z M 14.398438 17.667969 "/>
<path style=" stroke:none;fill-rule:nonzero;fill:rgb(0%,0%,0%);fill-opacity:1;" d="M 26.980469 1.082031 L 0 1.082031 L 0 8.609375 L 2.0625 8.609375 L 2.0625 25.894531 L 24.914062 25.894531 L 24.914062 8.609375 L 26.980469 8.609375 Z M 12.589844 2.882812 L 14.390625 2.882812 L 14.390625 6.777344 L 12.589844 6.777344 Z M 23.433594 24.421875 L 3.546875 24.421875 L 3.546875 8.609375 L 23.433594 8.609375 Z M 23.433594 24.421875 "/>
</g>
</svg>
