<svg xmlns="http://www.w3.org/2000/svg" viewBox="0 0 488.43 488.43"><defs><style>.cls-1{fill:#f3f3f3;}</style></defs><g id="Capa_2" data-name="Capa 2"><g id="IconosMesaAyuda"><g id="Gris"><g id="IconoNuevo"><path class="cls-1" d="M323.7,230.08H258.45V164.82a15.24,15.24,0,0,0-30.47,0v65.26H162.72a15.23,15.23,0,0,0-15.23,15.23h0a15.23,15.23,0,0,0,15.23,15.23H228V325.8a15.24,15.24,0,0,0,30.47,0V260.54H323.7a15.23,15.23,0,0,0,15.23-15.23h0A15.23,15.23,0,0,0,323.7,230.08Z"/><path id="Circulo" class="cls-1" d="M244.21,488.43A244.21,244.21,0,0,1,71.53,71.53,244.21,244.21,0,1,1,416.9,416.9,242.66,242.66,0,0,1,244.21,488.43Zm0-464.43C122.79,24,24,122.79,24,244.21s98.79,220.22,220.21,220.22,220.22-98.79,220.22-220.22S365.64,24,244.21,24Z"/></g></g></g></g></svg>