<?xml version="1.0" encoding="utf-8"?>
<!-- Generator: Adobe Illustrator 16.0.0, SVG Export Plug-In . SVG Version: 6.00 Build 0)  -->
<!DOCTYPE svg PUBLIC "-//W3C//DTD SVG 1.1//EN" "http://www.w3.org/Graphics/SVG/1.1/DTD/svg11.dtd">
<svg version="1.1" id="Capa_1" xmlns="http://www.w3.org/2000/svg" xmlns:xlink="http://www.w3.org/1999/xlink" x="0px" y="0px"
	 width="40px" height="40px" viewBox="0 0 40 40" enable-background="new 0 0 40 40" xml:space="preserve">
<g>
	<g opacity="0.7">
		<g opacity="0">
			<path fill="#FFFFFF" d="M29.717,19.938l-8.629,8.628v9.49h6.041v-4.313c0-1.43,1.16-2.589,2.588-2.589
				c1.43,0,2.59,1.159,2.59,2.589v4.313h6.039v-9.49L29.717,19.938"/>
			<polygon fill="#FFFFFF" points="36.621,23.031 36.621,17.349 34.031,17.349 34.031,20.444 29.717,16.129 17.891,27.955 
				19.111,29.176 29.717,18.569 40.324,29.176 41.543,27.955 			"/>
		</g>
		<g opacity="0.003">
			<path fill="#FFFFFF" d="M29.544,19.777l-8.629,8.628v9.49h6.041v-4.313c0-1.43,1.16-2.589,2.588-2.589
				c1.43,0,2.59,1.159,2.59,2.589v4.313h6.039v-9.49L29.544,19.777"/>
			<polygon fill="#FFFFFF" points="36.449,22.87 36.449,17.188 33.859,17.188 33.859,20.283 29.544,15.968 17.718,27.794 
				18.939,29.015 29.544,18.408 40.152,29.015 41.371,27.794 			"/>
		</g>
		<g opacity="0.0059">
			<path fill="#FFFFFF" d="M29.372,19.616l-8.629,8.628v9.49h6.041v-4.313c0-1.43,1.16-2.589,2.588-2.589
				c1.43,0,2.59,1.159,2.59,2.589v4.313h6.039v-9.49L29.372,19.616"/>
			<polygon fill="#FFFFFF" points="36.276,22.71 36.276,17.027 33.687,17.027 33.687,20.123 29.372,15.808 17.546,27.634 
				18.767,28.854 29.372,18.248 39.979,28.854 41.198,27.634 			"/>
		</g>
		<g opacity="0.0089">
			<path fill="#FFFFFF" d="M29.2,19.456l-8.629,8.628v9.49h6.041v-4.313c0-1.43,1.16-2.589,2.588-2.589
				c1.43,0,2.59,1.159,2.59,2.589v4.313h6.039v-9.49L29.2,19.456"/>
			<polygon fill="#FFFFFF" points="36.104,22.549 36.104,16.867 33.514,16.867 33.514,19.961 29.2,15.646 17.374,27.473 
				18.595,28.693 29.2,18.086 39.807,28.693 41.026,27.473 			"/>
		</g>
		<g opacity="0.0119">
			<path fill="#FFFFFF" d="M29.028,19.295l-8.629,8.628v9.491h6.041V33.1c0-1.43,1.16-2.589,2.588-2.589
				c1.43,0,2.59,1.159,2.59,2.589v4.314h6.039v-9.491L29.028,19.295"/>
			<polygon fill="#FFFFFF" points="35.932,22.388 35.932,16.706 33.342,16.706 33.342,19.801 29.028,15.486 17.202,27.312 
				18.422,28.532 29.028,17.926 39.635,28.532 40.854,27.312 			"/>
		</g>
		<g opacity="0.0149">
			<path fill="#FFFFFF" d="M28.855,19.134l-8.628,8.628v9.49h6.041v-4.313c0-1.43,1.16-2.59,2.588-2.59c1.43,0,2.59,1.16,2.59,2.59
				v4.313h6.039v-9.49L28.855,19.134"/>
			<polygon fill="#FFFFFF" points="35.76,22.228 35.76,16.545 33.17,16.545 33.17,19.64 28.855,15.325 17.029,27.151 18.25,28.372 
				28.855,17.765 39.463,28.372 40.682,27.151 			"/>
		</g>
		<g opacity="0.0178">
			<path fill="#FEFEFE" d="M28.684,18.973l-8.629,8.628v9.49h6.041v-4.313c0-1.43,1.16-2.589,2.588-2.589
				c1.429,0,2.59,1.159,2.59,2.589v4.313h6.039v-9.49L28.684,18.973"/>
			<polygon fill="#FEFEFE" points="35.587,22.066 35.587,16.384 32.998,16.384 32.998,19.479 28.684,15.165 16.857,26.99 
				18.078,28.211 28.684,17.604 39.291,28.211 40.51,26.99 			"/>
		</g>
		<g opacity="0.0208">
			<path fill="#FEFEFE" d="M28.511,18.812l-8.629,8.629v9.49h6.041v-4.314c0-1.43,1.16-2.588,2.588-2.588
				c1.43,0,2.59,1.158,2.59,2.588v4.314h6.039v-9.49L28.511,18.812"/>
			<polygon fill="#FEFEFE" points="35.416,21.906 35.416,16.224 32.826,16.224 32.826,19.318 28.511,15.003 16.685,26.83 
				17.906,28.051 28.511,17.443 39.119,28.051 40.338,26.83 			"/>
		</g>
		<g opacity="0.0238">
			<path fill="#FEFEFE" d="M28.339,18.651L19.71,27.28v9.49h6.041v-4.313c0-1.43,1.16-2.589,2.588-2.589
				c1.43,0,2.59,1.159,2.59,2.589v4.313h6.039v-9.49L28.339,18.651"/>
			<polygon fill="#FEFEFE" points="35.244,21.745 35.244,16.062 32.653,16.062 32.653,19.157 28.339,14.843 16.513,26.669 
				17.733,27.89 28.339,17.282 38.946,27.89 40.165,26.669 			"/>
		</g>
		<g opacity="0.0267">
			<path fill="#FEFEFE" d="M28.167,18.491l-8.629,8.628v9.49h6.041v-4.313c0-1.43,1.16-2.589,2.588-2.589
				c1.43,0,2.589,1.159,2.589,2.589v4.313h6.04v-9.49L28.167,18.491"/>
			<polygon fill="#FEFEFE" points="35.071,21.584 35.071,15.902 32.481,15.902 32.481,18.997 28.167,14.682 16.341,26.508 
				17.561,27.729 28.167,17.122 38.774,27.729 39.993,26.508 			"/>
		</g>
		<g opacity="0.0297">
			<path fill="#FEFEFE" d="M27.995,18.33l-8.628,8.629v9.49h6.041v-4.313c0-1.43,1.16-2.589,2.588-2.589
				c1.43,0,2.59,1.159,2.59,2.589v4.313h6.039v-9.49L27.995,18.33"/>
			<polygon fill="#FEFEFE" points="34.899,21.424 34.899,15.741 32.309,15.741 32.309,18.836 27.995,14.521 16.168,26.348 
				17.389,27.568 27.995,16.961 38.602,27.568 39.821,26.348 			"/>
		</g>
		<g opacity="0.0327">
			<path fill="#FEFEFE" d="M27.822,18.169l-8.628,8.628v9.49h6.041v-4.313c0-1.43,1.16-2.589,2.588-2.589
				c1.43,0,2.59,1.159,2.59,2.589v4.313h6.039v-9.49L27.822,18.169"/>
			<polygon fill="#FEFEFE" points="34.727,21.263 34.727,15.581 32.137,15.581 32.137,18.675 27.822,14.36 15.996,26.187 
				17.217,27.407 27.822,16.8 38.43,27.407 39.648,26.187 			"/>
		</g>
		<g opacity="0.0356">
			<path fill="#FEFEFE" d="M27.65,18.008l-8.629,8.628v9.491h6.041v-4.314c0-1.43,1.161-2.589,2.588-2.589
				c1.43,0,2.589,1.159,2.589,2.589v4.314h6.04v-9.491L27.65,18.008"/>
			<polygon fill="#FEFEFE" points="34.554,21.102 34.554,15.419 31.965,15.419 31.965,18.514 27.65,14.199 15.824,26.025 
				17.044,27.247 27.65,16.64 38.257,27.247 39.477,26.025 			"/>
		</g>
		<g opacity="0.0386">
			<path fill="#FEFEFE" d="M27.479,17.848l-8.629,8.628v9.491h6.041v-4.313c0-1.43,1.16-2.589,2.588-2.589
				c1.429,0,2.589,1.159,2.589,2.589v4.313h6.039v-9.491L27.479,17.848"/>
			<polygon fill="#FEFEFE" points="34.382,20.941 34.382,15.259 31.792,15.259 31.792,18.354 27.479,14.039 15.652,25.865 
				16.872,27.086 27.479,16.479 38.085,27.086 39.304,25.865 			"/>
		</g>
		<g opacity="0.0416">
			<path fill="#FEFEFE" d="M27.306,17.687l-8.629,8.629v9.49h6.041v-4.313c0-1.43,1.16-2.589,2.588-2.589
				c1.429,0,2.589,1.159,2.589,2.589v4.313h6.039v-9.49L27.306,17.687"/>
			<polygon fill="#FEFEFE" points="34.21,20.78 34.21,15.098 31.62,15.098 31.62,18.193 27.306,13.878 15.479,25.704 16.7,26.925 
				27.306,16.318 37.913,26.925 39.132,25.704 			"/>
		</g>
		<g opacity="0.0446">
			<path fill="#FEFEFE" d="M27.134,17.526l-8.629,8.628v9.49h6.041v-4.313c0-1.429,1.16-2.589,2.588-2.589
				c1.429,0,2.589,1.16,2.589,2.589v4.313h6.039v-9.49L27.134,17.526"/>
			<polygon fill="#FEFEFE" points="34.038,20.62 34.038,14.938 31.448,14.938 31.448,18.032 27.134,13.717 15.307,25.544 
				16.528,26.764 27.134,16.157 37.741,26.764 38.96,25.544 			"/>
		</g>
		<g opacity="0.0475">
			<path fill="#FEFEFE" d="M26.961,17.366l-8.628,8.628v9.49h6.041v-4.313c0-1.431,1.16-2.589,2.588-2.589
				c1.429,0,2.589,1.158,2.589,2.589v4.313h6.04v-9.49L26.961,17.366"/>
			<polygon fill="#FEFEFE" points="33.865,20.459 33.865,14.776 31.275,14.776 31.275,17.871 26.961,13.556 15.135,25.383 
				16.355,26.604 26.961,15.997 37.569,26.604 38.788,25.383 			"/>
		</g>
		<g opacity="0.0505">
			<path fill="#FEFEFE" d="M26.789,17.205l-8.628,8.628v9.49h6.041V31.01c0-1.43,1.16-2.589,2.588-2.589
				c1.43,0,2.59,1.159,2.59,2.589v4.313h6.039v-9.49L26.789,17.205"/>
			<polygon fill="#FEFEFE" points="33.693,20.298 33.693,14.616 31.104,14.616 31.104,17.71 26.789,13.396 14.963,25.222 
				16.184,26.442 26.789,15.835 37.396,26.442 38.616,25.222 			"/>
		</g>
		<g opacity="0.0535">
			<path fill="#FDFDFD" d="M26.617,17.044l-8.629,8.628v9.49h6.041V30.85c0-1.43,1.161-2.589,2.588-2.589
				c1.43,0,2.589,1.159,2.589,2.589v4.312h6.039v-9.49L26.617,17.044"/>
			<polygon fill="#FDFDFD" points="33.521,20.138 33.521,14.455 30.931,14.455 30.931,17.55 26.617,13.235 14.791,25.061 
				16.012,26.282 26.617,15.675 37.224,26.282 38.443,25.061 			"/>
		</g>
		<g opacity="0.0564">
			<path fill="#FDFDFD" d="M26.445,16.883l-8.629,8.629v9.49h6.041v-4.313c0-1.43,1.16-2.589,2.589-2.589s2.589,1.159,2.589,2.589
				v4.313h6.039v-9.49L26.445,16.883"/>
			<polygon fill="#FDFDFD" points="33.349,19.977 33.349,14.294 30.759,14.294 30.759,17.389 26.445,13.074 14.618,24.9 
				15.839,26.121 26.445,15.514 37.052,26.121 38.271,24.9 			"/>
		</g>
		<g opacity="0.0594">
			<path fill="#FDFDFD" d="M26.272,16.722l-8.629,8.628v9.491h6.041v-4.314c0-1.43,1.16-2.589,2.588-2.589
				c1.43,0,2.59,1.159,2.59,2.589v4.314h6.039v-9.491L26.272,16.722"/>
			<polygon fill="#FDFDFD" points="33.177,19.815 33.177,14.134 30.587,14.134 30.587,17.229 26.272,12.913 14.446,24.739 
				15.667,25.96 26.272,15.354 36.88,25.96 38.099,24.739 			"/>
		</g>
		<g opacity="0.0624">
			<path fill="#FDFDFD" d="M26.101,16.562l-8.629,8.628v9.491h6.041v-4.313c0-1.431,1.16-2.59,2.588-2.59
				c1.429,0,2.589,1.159,2.589,2.59v4.313h6.039v-9.491L26.101,16.562"/>
			<polygon fill="#FDFDFD" points="33.004,19.655 33.004,13.973 30.415,13.973 30.415,17.067 26.101,12.752 14.274,24.578 
				15.495,25.8 26.101,15.192 36.708,25.8 37.927,24.578 			"/>
		</g>
		<g opacity="0.0653">
			<path fill="#FDFDFD" d="M25.928,16.401L17.3,25.029v9.49h6.04v-4.313c0-1.43,1.16-2.589,2.588-2.589
				c1.43,0,2.589,1.159,2.589,2.589v4.313h6.039v-9.49L25.928,16.401"/>
			<polygon fill="#FDFDFD" points="32.832,19.494 32.832,13.812 30.242,13.812 30.242,16.906 25.928,12.592 14.102,24.418 
				15.322,25.639 25.928,15.032 36.535,25.639 37.755,24.418 			"/>
		</g>
		<g opacity="0.0683">
			<path fill="#FDFDFD" d="M25.756,16.24l-8.629,8.628v9.49h6.041v-4.313c0-1.43,1.16-2.589,2.588-2.589
				c1.429,0,2.589,1.159,2.589,2.589v4.313h6.039v-9.49L25.756,16.24"/>
			<polygon fill="#FDFDFD" points="32.66,19.333 32.66,13.651 30.07,13.651 30.07,16.746 25.756,12.431 13.93,24.257 15.15,25.478 
				25.756,14.871 36.363,25.478 37.582,24.257 			"/>
		</g>
		<g opacity="0.0713">
			<path fill="#FDFDFD" d="M25.584,16.079l-8.629,8.629v9.49h6.041v-4.314c0-1.429,1.16-2.589,2.588-2.589
				c1.429,0,2.589,1.16,2.589,2.589v4.314h6.039v-9.49L25.584,16.079"/>
			<polygon fill="#FDFDFD" points="32.488,19.172 32.488,13.49 29.898,13.49 29.898,16.585 25.584,12.271 13.757,24.096 
				14.978,25.317 25.584,14.71 36.191,25.317 37.41,24.096 			"/>
		</g>
		<g opacity="0.0743">
			<path fill="#FDFDFD" d="M25.412,15.918l-8.629,8.629v9.49h6.041v-4.313c0-1.43,1.16-2.589,2.588-2.589
				c1.429,0,2.589,1.159,2.589,2.589v4.313h6.039v-9.49L25.412,15.918"/>
			<polygon fill="#FDFDFD" points="32.315,19.012 32.315,13.33 29.726,13.33 29.726,16.424 25.412,12.109 13.585,23.936 
				14.806,25.156 25.412,14.549 36.019,25.156 37.238,23.936 			"/>
		</g>
		<g opacity="0.0772">
			<path fill="#FDFDFD" d="M25.239,15.758l-8.629,8.628v9.491h6.041v-4.314c0-1.43,1.16-2.588,2.588-2.588
				c1.429,0,2.59,1.158,2.59,2.588v4.314h6.039v-9.491L25.239,15.758"/>
			<polygon fill="#FDFDFD" points="32.144,18.851 32.144,13.169 29.554,13.169 29.554,16.263 25.239,11.948 13.413,23.774 
				14.633,24.996 25.239,14.389 35.847,24.996 37.065,23.774 			"/>
		</g>
		<g opacity="0.0802">
			<path fill="#FDFDFD" d="M25.067,15.597l-8.629,8.629v9.49h6.04v-4.313c0-1.43,1.16-2.589,2.589-2.589
				c1.429,0,2.589,1.159,2.589,2.589v4.313h6.039v-9.49L25.067,15.597"/>
			<polygon fill="#FDFDFD" points="31.971,18.69 31.971,13.008 29.381,13.008 29.381,16.103 25.067,11.788 13.24,23.614 
				14.461,24.835 25.067,14.228 35.674,24.835 36.894,23.614 			"/>
		</g>
		<g opacity="0.0832">
			<path fill="#FDFDFD" d="M24.896,15.436l-8.629,8.629v9.49h6.04v-4.313c0-1.43,1.16-2.589,2.589-2.589s2.589,1.159,2.589,2.589
				v4.313h6.039v-9.49L24.896,15.436"/>
			<polygon fill="#FDFDFD" points="31.799,18.53 31.799,12.848 29.209,12.848 29.209,15.942 24.896,11.627 13.068,23.453 
				14.289,24.674 24.896,14.067 35.502,24.674 36.721,23.453 			"/>
		</g>
		<g opacity="0.0861">
			<path fill="#FCFCFC" d="M24.723,15.275l-8.629,8.629v9.49h6.041v-4.313c0-1.431,1.16-2.589,2.588-2.589
				c1.43,0,2.59,1.158,2.59,2.589v4.313h6.039v-9.49L24.723,15.275"/>
			<polygon fill="#FCFCFC" points="31.627,18.369 31.627,12.687 29.037,12.687 29.037,15.781 24.723,11.466 12.896,23.293 
				14.117,24.514 24.723,13.906 35.33,24.514 36.549,23.293 			"/>
		</g>
		<g opacity="0.0891">
			<path fill="#FCFCFC" d="M24.551,15.114l-8.629,8.628v9.491h6.04V28.92c0-1.43,1.16-2.589,2.589-2.589s2.589,1.159,2.589,2.589
				v4.313h6.039v-9.491L24.551,15.114"/>
			<polygon fill="#FCFCFC" points="31.454,18.208 31.454,12.526 28.864,12.526 28.864,15.62 24.551,11.306 12.724,23.132 
				13.944,24.353 24.551,13.746 35.157,24.353 36.377,23.132 			"/>
		</g>
		<g opacity="0.0921">
			<path fill="#FCFCFC" d="M24.378,14.954l-8.629,8.628v9.49h6.041v-4.313c0-1.43,1.16-2.589,2.588-2.589
				c1.429,0,2.589,1.159,2.589,2.589v4.313h6.039v-9.49L24.378,14.954"/>
			<polygon fill="#FCFCFC" points="31.282,18.047 31.282,12.365 28.692,12.365 28.692,15.459 24.378,11.145 12.552,22.971 
				13.772,24.191 24.378,13.584 34.985,24.191 36.205,22.971 			"/>
		</g>
		<g opacity="0.095">
			<path fill="#FCFCFC" d="M24.206,14.793l-8.629,8.628v9.491h6.041v-4.314c0-1.43,1.16-2.588,2.588-2.588
				c1.43,0,2.59,1.158,2.59,2.588v4.314h6.039v-9.491L24.206,14.793"/>
			<polygon fill="#FCFCFC" points="31.11,17.887 31.11,12.204 28.521,12.204 28.521,15.299 24.206,10.984 12.379,22.811 
				13.6,24.031 24.206,13.424 34.813,24.031 36.032,22.811 			"/>
		</g>
		<g opacity="0.098">
			<path fill="#FCFCFC" d="M24.034,14.632l-8.629,8.629v9.49h6.04v-4.313c0-1.43,1.16-2.589,2.589-2.589s2.589,1.159,2.589,2.589
				v4.313h6.039v-9.49L24.034,14.632"/>
			<polygon fill="#FCFCFC" points="30.938,17.726 30.938,12.043 28.348,12.043 28.348,15.138 24.034,10.823 12.207,22.649 
				13.428,23.87 24.034,13.263 34.641,23.87 35.86,22.649 			"/>
		</g>
		<g opacity="0.101">
			<path fill="#FCFCFC" d="M23.862,14.471L15.233,23.1v9.49h6.04v-4.312c0-1.431,1.16-2.59,2.589-2.59s2.589,1.159,2.589,2.59v4.312
				h6.039V23.1L23.862,14.471"/>
			<polygon fill="#FCFCFC" points="30.766,17.565 30.766,11.883 28.176,11.883 28.176,14.977 23.862,10.662 12.035,22.488 
				13.256,23.709 23.862,13.103 34.469,23.709 35.688,22.488 			"/>
		</g>
		<g opacity="0.104">
			<path fill="#FCFCFC" d="M23.689,14.311l-8.629,8.629v9.49h6.041v-4.314c0-1.429,1.16-2.588,2.588-2.588
				c1.429,0,2.589,1.159,2.589,2.588v4.314h6.039v-9.49L23.689,14.311"/>
			<polygon fill="#FCFCFC" points="30.593,17.404 30.593,11.722 28.003,11.722 28.003,14.816 23.689,10.502 11.863,22.328 
				13.084,23.549 23.689,12.941 34.296,23.549 35.516,22.328 			"/>
		</g>
		<g opacity="0.1069">
			<path fill="#FCFCFC" d="M23.518,14.149l-8.629,8.629v9.49h6.04v-4.313c0-1.43,1.16-2.589,2.589-2.589
				c1.429,0,2.589,1.159,2.589,2.589v4.313h6.039v-9.49L23.518,14.149"/>
			<polygon fill="#FCFCFC" points="30.421,17.243 30.421,11.561 27.831,11.561 27.831,14.655 23.518,10.341 11.69,22.167 
				12.911,23.388 23.518,12.781 34.124,23.388 35.344,22.167 			"/>
		</g>
		<g opacity="0.1099">
			<path fill="#FCFCFC" d="M23.345,13.989l-8.628,8.628v9.49h6.041v-4.313c0-1.429,1.16-2.589,2.588-2.589
				c1.43,0,2.59,1.16,2.59,2.589v4.313h6.039v-9.49L23.345,13.989"/>
			<polygon fill="#FCFCFC" points="30.249,17.083 30.249,11.4 27.659,11.4 27.659,14.494 23.345,10.18 11.519,22.006 12.739,23.227 
				23.345,12.62 33.952,23.227 35.172,22.006 			"/>
		</g>
		<g opacity="0.1129">
			<path fill="#FCFCFC" d="M23.173,13.828l-8.629,8.629v9.49h6.041v-4.313c0-1.43,1.16-2.589,2.588-2.589s2.589,1.159,2.589,2.589
				v4.313h6.039v-9.49L23.173,13.828"/>
			<polygon fill="#FCFCFC" points="30.077,16.922 30.077,11.239 27.487,11.239 27.487,14.334 23.173,10.019 11.346,21.846 
				12.566,23.066 23.173,12.459 33.779,23.066 34.999,21.846 			"/>
		</g>
		<g opacity="0.1158">
			<path fill="#FCFCFC" d="M23.001,13.667l-8.629,8.629v9.49h6.04v-4.313c0-1.43,1.16-2.589,2.589-2.589s2.589,1.159,2.589,2.589
				v4.313h6.039v-9.49L23.001,13.667"/>
			<polygon fill="#FCFCFC" points="29.904,16.761 29.904,11.079 27.314,11.079 27.314,14.173 23.001,9.858 11.174,21.685 
				12.395,22.905 23.001,12.299 33.607,22.905 34.827,21.685 			"/>
		</g>
		<g opacity="0.1188">
			<path fill="#FCFCFB" d="M22.829,13.506L14.2,22.135v9.491h6.04v-4.313c0-1.43,1.16-2.59,2.588-2.59
				c1.429,0,2.589,1.16,2.589,2.59v4.313h6.04v-9.491L22.829,13.506"/>
			<polygon fill="#FCFCFB" points="29.732,16.6 29.732,10.918 27.143,10.918 27.143,14.012 22.829,9.698 11.002,21.523 
				12.223,22.745 22.829,12.138 33.435,22.745 34.655,21.523 			"/>
		</g>
		<g opacity="0.1218">
			<path fill="#FBFBFB" d="M22.656,13.346l-8.629,8.629v9.49h6.041v-4.313c0-1.43,1.16-2.589,2.588-2.589
				c1.429,0,2.589,1.159,2.589,2.589v4.313h6.039v-9.49L22.656,13.346"/>
			<polygon fill="#FBFBFB" points="29.56,16.439 29.56,10.757 26.97,10.757 26.97,13.852 22.656,9.537 10.829,21.363 12.05,22.584 
				22.656,11.977 33.263,22.584 34.482,21.363 			"/>
		</g>
		<g opacity="0.1248">
			<path fill="#FBFBFB" d="M22.484,13.185l-8.629,8.629v9.491h6.04V26.99c0-1.43,1.16-2.589,2.589-2.589s2.589,1.159,2.589,2.589
				v4.314h6.039v-9.491L22.484,13.185"/>
			<polygon fill="#FBFBFB" points="29.388,16.278 29.388,10.596 26.798,10.596 26.798,13.691 22.484,9.376 10.657,21.202 
				11.878,22.423 22.484,11.816 33.091,22.423 34.311,21.202 			"/>
		</g>
		<g opacity="0.1277">
			<path fill="#FBFBFB" d="M22.312,13.024l-8.629,8.628v9.491h6.041V26.83c0-1.43,1.16-2.59,2.589-2.59
				c1.429,0,2.588,1.16,2.588,2.59v4.313h6.04v-9.491L22.312,13.024"/>
			<polygon fill="#FBFBFB" points="29.216,16.118 29.216,10.436 26.626,10.436 26.626,13.53 22.312,9.215 10.485,21.042 
				11.706,22.262 22.312,11.655 32.919,22.262 34.138,21.042 			"/>
		</g>
		<g opacity="0.1307">
			<path fill="#FBFBFB" d="M22.14,12.863l-8.629,8.629v9.49h6.041v-4.313c0-1.43,1.16-2.589,2.588-2.589
				c1.429,0,2.589,1.159,2.589,2.589v4.313h6.039v-9.49L22.14,12.863"/>
			<polygon fill="#FBFBFB" points="29.043,15.957 29.043,10.274 26.453,10.274 26.453,13.369 22.14,9.055 10.312,20.881 
				11.533,22.102 22.14,11.494 32.747,22.102 33.966,20.881 			"/>
		</g>
		<g opacity="0.1337">
			<path fill="#FBFBFB" d="M21.968,12.702l-8.629,8.629v9.49h6.04v-4.313c0-1.43,1.16-2.589,2.589-2.589s2.589,1.159,2.589,2.589
				v4.313h6.039v-9.49L21.968,12.702"/>
			<polygon fill="#FBFBFB" points="28.871,15.797 28.871,10.114 26.281,10.114 26.281,13.208 21.968,8.894 10.141,20.72 
				11.361,21.941 21.968,11.333 32.574,21.941 33.794,20.72 			"/>
		</g>
		<g opacity="0.1366">
			<path fill="#FBFBFB" d="M21.795,12.542l-8.628,8.628v9.491h6.04v-4.313c0-1.43,1.161-2.589,2.589-2.589
				c1.429,0,2.589,1.159,2.589,2.589v4.313h6.039V21.17L21.795,12.542"/>
			<polygon fill="#FBFBFB" points="28.699,15.636 28.699,9.953 26.109,9.953 26.109,13.048 21.795,8.733 9.968,20.56 11.189,21.78 
				21.795,11.173 32.402,21.78 33.622,20.56 			"/>
		</g>
		<g opacity="0.1396">
			<path fill="#FBFBFB" d="M21.623,12.381l-8.629,8.629v9.49h6.041v-4.313c0-1.43,1.16-2.589,2.588-2.589s2.589,1.159,2.589,2.589
				V30.5h6.04v-9.49L21.623,12.381"/>
			<polygon fill="#FBFBFB" points="28.526,15.475 28.526,9.792 25.937,9.792 25.937,12.887 21.623,8.572 9.796,20.398 
				11.017,21.619 21.623,11.012 32.229,21.619 33.449,20.398 			"/>
		</g>
		<g opacity="0.1426">
			<path fill="#FBFBFB" d="M21.451,12.22l-8.629,8.628v9.491h6.04v-4.314c0-1.43,1.16-2.588,2.589-2.588s2.589,1.158,2.589,2.588
				v4.314h6.039v-9.491L21.451,12.22"/>
			<polygon fill="#FBFBFB" points="28.354,15.314 28.354,9.632 25.765,9.632 25.765,12.726 21.451,8.411 9.624,20.238 
				10.845,21.458 21.451,10.852 32.058,21.458 33.277,20.238 			"/>
		</g>
		<g opacity="0.1455">
			<path fill="#FBFBFB" d="M21.279,12.059l-8.63,8.629v9.491h6.041v-4.313c0-1.43,1.16-2.589,2.589-2.589
				c1.428,0,2.588,1.159,2.588,2.589v4.313h6.04v-9.491L21.279,12.059"/>
			<polygon fill="#FBFBFB" points="28.183,15.153 28.183,9.471 25.592,9.471 25.592,12.565 21.279,8.251 9.452,20.077 
				10.672,21.298 21.279,10.691 31.885,21.298 33.104,20.077 			"/>
		</g>
		<g opacity="0.1485">
			<path fill="#FBFBFB" d="M21.106,11.898l-8.629,8.629v9.49h6.04v-4.313c0-1.43,1.16-2.589,2.589-2.589s2.589,1.159,2.589,2.589
				v4.313h6.039v-9.49L21.106,11.898"/>
			<polygon fill="#FBFBFB" points="28.01,14.993 28.01,9.31 25.42,9.31 25.42,12.404 21.106,8.09 9.279,19.916 10.5,21.137 
				21.106,10.53 31.713,21.137 32.933,19.916 			"/>
		</g>
		<g opacity="0.1515">
			<path fill="#FBFAFA" d="M20.935,11.738l-8.629,8.628v9.491h6.04v-4.314c0-1.429,1.16-2.588,2.589-2.588s2.589,1.159,2.589,2.588
				v4.314h6.039v-9.491L20.935,11.738"/>
			<polygon fill="#FBFAFA" points="27.838,14.832 27.838,9.149 25.248,9.149 25.248,12.244 20.935,7.929 9.107,19.755 
				10.328,20.976 20.935,10.369 31.541,20.976 32.761,19.755 			"/>
		</g>
		<g opacity="0.1545">
			<path fill="#FAFAFA" d="M20.763,11.577l-8.629,8.628v9.491h6.04v-4.313c0-1.43,1.16-2.59,2.589-2.59
				c1.428,0,2.588,1.16,2.588,2.59v4.313h6.04v-9.491L20.763,11.577"/>
			<polygon fill="#FAFAFA" points="27.666,14.671 27.666,8.988 25.076,8.988 25.076,12.083 20.763,7.768 8.935,19.595 
				10.156,20.815 20.763,10.208 31.368,20.815 32.588,19.595 			"/>
		</g>
		<g opacity="0.1574">
			<path fill="#FAFAFA" d="M20.59,11.416l-8.629,8.629v9.49h6.04v-4.313c0-1.43,1.16-2.589,2.589-2.589s2.589,1.159,2.589,2.589
				v4.313h6.039v-9.49L20.59,11.416"/>
			<polygon fill="#FAFAFA" points="27.493,14.51 27.493,8.828 24.903,8.828 24.903,11.922 20.59,7.607 8.763,19.434 9.983,20.654 
				20.59,10.048 31.196,20.654 32.416,19.434 			"/>
		</g>
		<g opacity="0.1604">
			<path fill="#FAFAFA" d="M20.418,11.255l-8.629,8.628v9.491h6.04v-4.314c0-1.43,1.16-2.588,2.589-2.588
				c1.429,0,2.589,1.158,2.589,2.588v4.314h6.039v-9.491L20.418,11.255"/>
			<polygon fill="#FAFAFA" points="27.321,14.35 27.321,8.667 24.731,8.667 24.731,11.761 20.418,7.446 8.59,19.273 9.812,20.494 
				20.418,9.887 31.024,20.494 32.244,19.273 			"/>
		</g>
		<g opacity="0.1634">
			<path fill="#FAFAFA" d="M20.246,11.095l-8.628,8.629v9.49h6.04V24.9c0-1.43,1.16-2.589,2.589-2.589
				c1.428,0,2.588,1.159,2.588,2.589v4.313h6.039v-9.49L20.246,11.095"/>
			<polygon fill="#FAFAFA" points="27.149,14.188 27.149,8.506 24.559,8.506 24.559,11.6 20.246,7.286 8.418,19.112 9.639,20.333 
				20.246,9.726 30.852,20.333 32.072,19.112 			"/>
		</g>
		<g opacity="0.1663">
			<path fill="#FAFAFA" d="M20.073,10.934l-8.629,8.629v9.49h6.04V24.74c0-1.431,1.16-2.59,2.589-2.59s2.589,1.159,2.589,2.59v4.312
				h6.039v-9.49L20.073,10.934"/>
			<polygon fill="#FAFAFA" points="26.977,14.028 26.977,8.346 24.387,8.346 24.387,11.439 20.073,7.125 8.246,18.951 9.467,20.172 
				20.073,9.565 30.68,20.172 31.899,18.951 			"/>
		</g>
		<g opacity="0.1693">
			<path fill="#FAFAFA" d="M19.901,10.773l-8.629,8.628v9.491h6.04v-4.313c0-1.431,1.16-2.589,2.589-2.589
				c1.428,0,2.588,1.158,2.588,2.589v4.313h6.039v-9.491L19.901,10.773"/>
			<polygon fill="#FAFAFA" points="26.805,13.867 26.805,8.185 24.215,8.185 24.215,11.279 19.901,6.964 8.074,18.791 9.294,20.012 
				19.901,9.404 30.507,20.012 31.728,18.791 			"/>
		</g>
		<g opacity="0.1723">
			<path fill="#FAFAFA" d="M19.729,10.612L11.1,19.241v9.49h6.04v-4.313c0-1.43,1.16-2.589,2.588-2.589
				c1.429,0,2.589,1.159,2.589,2.589v4.313h6.039v-9.49L19.729,10.612"/>
			<polygon fill="#FAFAFA" points="26.632,13.706 26.632,8.023 24.042,8.023 24.042,11.118 19.729,6.804 7.902,18.63 9.122,19.851 
				19.729,9.244 30.335,19.851 31.555,18.63 			"/>
		</g>
		<g opacity="0.1752">
			<path fill="#FAFAFA" d="M19.557,10.451l-8.629,8.629v9.49h6.04v-4.313c0-1.429,1.16-2.589,2.589-2.589s2.589,1.16,2.589,2.589
				v4.313h6.039v-9.49L19.557,10.451"/>
			<polygon fill="#FAFAFA" points="26.46,13.545 26.46,7.863 23.87,7.863 23.87,10.957 19.557,6.643 7.729,18.469 8.95,19.69 
				19.557,9.083 30.163,19.69 31.383,18.469 			"/>
		</g>
		<g opacity="0.1782">
			<path fill="#FAFAFA" d="M19.385,10.291l-8.629,8.628v9.491h6.041v-4.314c0-1.429,1.16-2.588,2.589-2.588
				c1.429,0,2.588,1.159,2.588,2.588v4.314h6.04v-9.491L19.385,10.291"/>
			<polygon fill="#FAFAFA" points="26.288,13.385 26.288,7.703 23.698,7.703 23.698,10.797 19.385,6.482 7.557,18.308 8.778,19.529 
				19.385,8.922 29.991,19.529 31.211,18.308 			"/>
		</g>
		<g opacity="0.1812">
			<path fill="#FAFAFA" d="M19.212,10.13l-8.628,8.628v9.491h6.039v-4.313c0-1.43,1.16-2.589,2.589-2.589
				c1.428,0,2.588,1.159,2.588,2.589v4.313h6.04v-9.491L19.212,10.13"/>
			<polygon fill="#FAFAFA" points="26.115,13.224 26.115,7.542 23.525,7.542 23.525,10.636 19.212,6.321 7.385,18.147 8.605,19.368 
				19.212,8.761 29.818,19.368 31.039,18.147 			"/>
		</g>
		<g opacity="0.1842">
			<path fill="#F9F9F9" d="M19.04,9.969l-8.629,8.629v9.491h6.04v-4.314c0-1.429,1.16-2.589,2.589-2.589s2.589,1.16,2.589,2.589
				v4.314h6.039v-9.491L19.04,9.969"/>
			<polygon fill="#F9F9F9" points="25.943,13.063 25.943,7.381 23.354,7.381 23.354,10.475 19.04,6.161 7.213,17.987 8.434,19.208 
				19.04,8.601 29.646,19.208 30.866,17.987 			"/>
		</g>
		<g opacity="0.1871">
			<path fill="#F9F9F9" d="M18.868,9.809l-8.629,8.628v9.491h6.04v-4.314c0-1.429,1.16-2.588,2.589-2.588
				c1.428,0,2.588,1.159,2.588,2.588v4.314h6.04v-9.491L18.868,9.809"/>
			<polygon fill="#F9F9F9" points="25.771,12.902 25.771,7.22 23.181,7.22 23.181,10.314 18.868,6 7.041,17.826 8.261,19.047 
				18.868,8.439 29.474,19.047 30.694,17.826 			"/>
		</g>
		<g opacity="0.1901">
			<path fill="#F9F9F9" d="M18.695,9.647l-8.628,8.629v9.491h6.04v-4.314c0-1.43,1.16-2.589,2.589-2.589s2.589,1.159,2.589,2.589
				v4.314h6.039v-9.491L18.695,9.647"/>
			<polygon fill="#F9F9F9" points="25.599,12.742 25.599,7.059 23.009,7.059 23.009,10.153 18.695,5.839 6.868,17.665 8.089,18.886 
				18.695,8.279 29.302,18.886 30.522,17.665 			"/>
		</g>
		<g opacity="0.1931">
			<path fill="#F9F9F9" d="M18.523,9.487l-8.629,8.628v9.491h6.04v-4.313c0-1.431,1.16-2.589,2.589-2.589s2.589,1.158,2.589,2.589
				v4.313h6.039v-9.491L18.523,9.487"/>
			<polygon fill="#F9F9F9" points="25.427,12.581 25.427,6.898 22.837,6.898 22.837,9.993 18.523,5.678 6.696,17.504 7.917,18.725 
				18.523,8.118 29.13,18.725 30.35,17.504 			"/>
		</g>
		<g opacity="0.196">
			<path fill="#F9F9F9" d="M18.351,9.326l-8.629,8.628v9.491h6.04v-4.313c0-1.431,1.161-2.589,2.589-2.589
				c1.428,0,2.589,1.158,2.589,2.589v4.313h6.039v-9.491L18.351,9.326"/>
			<polygon fill="#F9F9F9" points="25.254,12.42 25.254,6.738 22.665,6.738 22.665,9.832 18.351,5.518 6.524,17.344 7.745,18.564 
				18.351,7.957 28.958,18.564 30.177,17.344 			"/>
		</g>
		<g opacity="0.199">
			<path fill="#F9F9F9" d="M18.18,9.165l-8.629,8.629v9.491h6.039v-4.314c0-1.43,1.16-2.589,2.59-2.589
				c1.428,0,2.588,1.159,2.588,2.589v4.314h6.039v-9.491L18.18,9.165"/>
			<polygon fill="#F9F9F9" points="25.082,12.26 25.082,6.577 22.492,6.577 22.492,9.671 18.18,5.356 6.352,17.183 7.572,18.403 
				18.18,7.797 28.785,18.403 30.005,17.183 			"/>
		</g>
		<g opacity="0.202">
			<path fill="#F9F9F9" d="M18.007,9.004l-8.629,8.629v9.491h6.04v-4.313c0-1.43,1.16-2.59,2.589-2.59
				c1.428,0,2.589,1.16,2.589,2.59v4.313h6.039v-9.491L18.007,9.004"/>
			<polygon fill="#F9F9F9" points="24.91,12.099 24.91,6.416 22.32,6.416 22.32,9.51 18.007,5.196 6.18,17.022 7.4,18.243 
				18.007,7.636 28.613,18.243 29.833,17.022 			"/>
		</g>
		<g opacity="0.205">
			<path fill="#F9F9F9" d="M17.835,8.844l-8.629,8.629v9.49h6.039v-4.313c0-1.43,1.161-2.589,2.59-2.589
				c1.428,0,2.588,1.159,2.588,2.589v4.313h6.039v-9.49L17.835,8.844"/>
			<polygon fill="#F9F9F9" points="24.737,11.938 24.737,6.255 22.148,6.255 22.148,9.349 17.835,5.035 6.007,16.861 7.228,18.083 
				17.835,7.475 28.44,18.083 29.661,16.861 			"/>
		</g>
		<g opacity="0.2079">
			<path fill="#F9F9F9" d="M17.663,8.683l-8.629,8.629v9.491h6.04v-4.314c0-1.43,1.16-2.588,2.589-2.588
				c1.428,0,2.588,1.159,2.588,2.588v4.314h6.039v-9.491L17.663,8.683"/>
			<polygon fill="#F9F9F9" points="24.565,11.777 24.565,6.095 21.976,6.095 21.976,9.188 17.663,4.875 5.835,16.701 7.056,17.921 
				17.663,7.314 28.269,17.921 29.488,16.701 			"/>
		</g>
		<g opacity="0.2109">
			<path fill="#F9F9F9" d="M17.49,8.522l-8.629,8.629v9.491h6.04v-4.313c0-1.43,1.16-2.589,2.589-2.589s2.589,1.159,2.589,2.589
				v4.313h6.039v-9.491L17.49,8.522"/>
			<polygon fill="#F9F9F9" points="24.393,11.616 24.393,5.934 21.804,5.934 21.804,9.027 17.49,4.713 5.663,16.54 6.884,17.761 
				17.49,7.153 28.097,17.761 29.316,16.54 			"/>
		</g>
		<g opacity="0.2139">
			<path fill="#F9F9F9" d="M17.318,8.361L8.689,16.99v9.49h6.04v-4.313c0-1.43,1.16-2.589,2.59-2.589
				c1.428,0,2.588,1.159,2.588,2.589v4.313h6.039v-9.49L17.318,8.361"/>
			<polygon fill="#F9F9F9" points="24.221,11.455 24.221,5.773 21.631,5.773 21.631,8.867 17.318,4.553 5.491,16.379 6.711,17.6 
				17.318,6.993 27.924,17.6 29.145,16.379 			"/>
		</g>
		<g opacity="0.2168">
			<path fill="#F8F8F8" d="M17.146,8.2l-8.628,8.629v9.491h6.039v-4.314c0-1.43,1.16-2.588,2.589-2.588s2.589,1.159,2.589,2.588
				v4.314h6.039v-9.491L17.146,8.2"/>
			<polygon fill="#F8F8F8" points="24.049,11.295 24.049,5.612 21.459,5.612 21.459,8.706 17.146,4.392 5.318,16.218 6.539,17.439 
				17.146,6.832 27.752,17.439 28.972,16.218 			"/>
		</g>
		<g opacity="0.2198">
			<path fill="#F8F8F8" d="M16.974,8.039l-8.629,8.629v9.491h6.04v-4.313c0-1.43,1.16-2.589,2.589-2.589
				c1.429,0,2.589,1.159,2.589,2.589v4.313h6.039v-9.491L16.974,8.039"/>
			<polygon fill="#F8F8F8" points="23.877,11.134 23.877,5.451 21.287,5.451 21.287,8.546 16.974,4.231 5.146,16.058 6.367,17.278 
				16.974,6.671 27.58,17.278 28.8,16.058 			"/>
		</g>
		<g opacity="0.2228">
			<path fill="#F8F8F8" d="M16.802,7.879l-8.629,8.628v9.492h6.039v-4.314c0-1.43,1.16-2.589,2.59-2.589
				c1.428,0,2.588,1.159,2.588,2.589v4.314h6.039v-9.492L16.802,7.879"/>
			<polygon fill="#F8F8F8" points="23.705,10.973 23.705,5.291 21.114,5.291 21.114,8.385 16.802,4.07 4.974,15.896 6.194,17.118 
				16.802,6.511 27.407,17.118 28.628,15.896 			"/>
		</g>
		<g opacity="0.2257">
			<path fill="#F8F8F8" d="M16.629,7.718L8,16.347v9.491h6.04v-4.314c0-1.429,1.16-2.589,2.589-2.589
				c1.428,0,2.588,1.16,2.588,2.589v4.314h6.039v-9.491L16.629,7.718"/>
			<polygon fill="#F8F8F8" points="23.532,10.812 23.532,5.13 20.942,5.13 20.942,8.224 16.629,3.91 4.802,15.736 6.022,16.957 
				16.629,6.35 27.235,16.957 28.456,15.736 			"/>
		</g>
		<g opacity="0.2287">
			<path fill="#F8F8F8" d="M16.457,7.557l-8.629,8.629v9.491h6.04v-4.313c0-1.43,1.161-2.589,2.589-2.589
				c1.428,0,2.588,1.159,2.588,2.589v4.313h6.04v-9.491L16.457,7.557"/>
			<polygon fill="#F8F8F8" points="23.36,10.651 23.36,4.969 20.77,4.969 20.77,8.063 16.457,3.749 4.629,15.575 5.85,16.796 
				16.457,6.189 27.063,16.796 28.283,15.575 			"/>
		</g>
		<g opacity="0.2317">
			<path fill="#F8F8F8" d="M16.285,7.396l-8.629,8.629v9.49h6.04v-4.313c0-1.43,1.16-2.588,2.59-2.588
				c1.428,0,2.588,1.159,2.588,2.588v4.313h6.04v-9.49L16.285,7.396"/>
			<polygon fill="#F8F8F8" points="23.188,10.491 23.188,4.808 20.598,4.808 20.598,7.902 16.285,3.588 4.457,15.415 5.678,16.635 
				16.285,6.028 26.891,16.635 28.111,15.415 			"/>
		</g>
		<g opacity="0.2347">
			<path fill="#F8F8F8" d="M16.113,7.235l-8.629,8.629v9.491h6.039v-4.314c0-1.429,1.161-2.588,2.59-2.588
				c1.428,0,2.588,1.159,2.588,2.588v4.314h6.039v-9.491L16.113,7.235"/>
			<polygon fill="#F8F8F8" points="23.016,10.33 23.016,4.647 20.425,4.647 20.425,7.742 16.113,3.427 4.285,15.253 5.506,16.475 
				16.113,5.867 26.719,16.475 27.939,15.253 			"/>
		</g>
		<g opacity="0.2376">
			<path fill="#F8F8F8" d="M15.94,7.075l-8.629,8.629v9.492h6.04v-4.314c0-1.43,1.16-2.589,2.589-2.589
				c1.428,0,2.588,1.159,2.588,2.589v4.314h6.039v-9.492L15.94,7.075"/>
			<polygon fill="#F8F8F8" points="22.843,10.169 22.843,4.486 20.253,4.486 20.253,7.581 15.94,3.267 4.113,15.093 5.333,16.313 
				15.94,5.707 26.546,16.313 27.767,15.093 			"/>
		</g>
		<g opacity="0.2406">
			<path fill="#F8F8F8" d="M15.768,6.914L7.14,15.543v9.491h6.039V20.72c0-1.43,1.16-2.589,2.589-2.589
				c1.428,0,2.588,1.159,2.588,2.589v4.314h6.039v-9.491L15.768,6.914"/>
			<polygon fill="#F8F8F8" points="22.671,10.009 22.671,4.326 20.082,4.326 20.082,7.42 15.768,3.105 3.94,14.932 5.161,16.153 
				15.768,5.545 26.374,16.153 27.594,14.932 			"/>
		</g>
		<g opacity="0.2436">
			<path fill="#F8F8F8" d="M15.596,6.753l-8.629,8.628v9.491h6.039V20.56c0-1.43,1.16-2.589,2.59-2.589
				c1.428,0,2.588,1.16,2.588,2.589v4.313h6.039v-9.491L15.596,6.753"/>
			<polygon fill="#F8F8F8" points="22.499,9.848 22.499,4.165 19.909,4.165 19.909,7.259 15.596,2.945 3.769,14.771 4.989,15.992 
				15.596,5.385 26.202,15.992 27.422,14.771 			"/>
		</g>
		<g opacity="0.2465">
			<path fill="#F8F8F8" d="M15.424,6.593l-8.629,8.629v9.49h6.04v-4.313c0-1.43,1.16-2.589,2.589-2.589
				c1.428,0,2.588,1.159,2.588,2.589v4.313h6.039v-9.49L15.424,6.593"/>
			<polygon fill="#F8F8F8" points="22.326,9.687 22.326,4.005 19.737,4.005 19.737,7.098 15.424,2.784 3.596,14.61 4.816,15.832 
				15.424,5.224 26.03,15.832 27.25,14.61 			"/>
		</g>
		<g opacity="0.2495">
			<path fill="#F7F7F7" d="M15.252,6.432l-8.629,8.629v9.491h6.04v-4.314c0-1.43,1.16-2.589,2.59-2.589
				c1.428,0,2.588,1.16,2.588,2.589v4.314h6.039v-9.491L15.252,6.432"/>
			<polygon fill="#F7F7F7" points="22.154,9.526 22.154,3.844 19.564,3.844 19.564,6.938 15.252,2.624 3.424,14.449 4.645,15.67 
				15.252,5.063 25.857,15.67 27.078,14.449 			"/>
		</g>
		<g opacity="0.2525">
			<path fill="#F7F7F7" d="M15.08,6.271L6.45,14.9v9.491h6.04v-4.314c0-1.429,1.161-2.588,2.59-2.588
				c1.428,0,2.588,1.159,2.588,2.588v4.314h6.039V14.9L15.08,6.271"/>
			<polygon fill="#F7F7F7" points="21.982,9.365 21.982,3.683 19.393,3.683 19.393,6.776 15.08,2.463 3.251,14.289 4.472,15.51 
				15.08,4.902 25.685,15.51 26.906,14.289 			"/>
		</g>
		<g opacity="0.2554">
			<path fill="#F7F7F7" d="M14.907,6.11l-8.629,8.629v9.491h6.04v-4.314c0-1.43,1.16-2.589,2.589-2.589
				c1.428,0,2.588,1.159,2.588,2.589v4.314h6.039v-9.491L14.907,6.11"/>
			<polygon fill="#F7F7F7" points="21.81,9.205 21.81,3.522 19.22,3.522 19.22,6.616 14.907,2.302 3.08,14.128 4.3,15.349 
				14.907,4.742 25.513,15.349 26.733,14.128 			"/>
		</g>
		<g opacity="0.2584">
			<path fill="#F7F7F7" d="M14.735,5.949l-8.628,8.629v9.491h6.039v-4.314c0-1.429,1.16-2.589,2.589-2.589
				c1.428,0,2.588,1.16,2.588,2.589v4.314h6.039v-9.491L14.735,5.949"/>
			<polygon fill="#F7F7F7" points="21.638,9.044 21.638,3.361 19.048,3.361 19.048,6.455 14.735,2.141 2.907,13.967 4.128,15.188 
				14.735,4.581 25.341,15.188 26.562,13.967 			"/>
		</g>
		<g opacity="0.2614">
			<path fill="#F7F7F7" d="M14.562,5.789l-8.628,8.628v9.491h6.039v-4.314c0-1.43,1.16-2.588,2.589-2.588
				c1.428,0,2.588,1.159,2.588,2.588v4.314h6.039v-9.491L14.562,5.789"/>
			<polygon fill="#F7F7F7" points="21.466,8.883 21.466,3.2 18.876,3.2 18.876,6.294 14.562,1.98 2.735,13.807 3.956,15.027 
				14.562,4.42 25.169,15.027 26.389,13.807 			"/>
		</g>
		<g opacity="0.2644">
			<path fill="#F7F7F7" d="M14.391,5.628l-8.629,8.628v9.492h6.04v-4.314c0-1.43,1.16-2.589,2.589-2.589
				c1.428,0,2.588,1.159,2.588,2.589v4.314h6.039v-9.492L14.391,5.628"/>
			<polygon fill="#F7F7F7" points="21.293,8.722 21.293,3.04 18.703,3.04 18.703,6.134 14.391,1.82 2.563,13.646 3.784,14.867 
				14.391,4.259 24.997,14.867 26.217,13.646 			"/>
		</g>
		<g opacity="0.2673">
			<path fill="#F7F7F7" d="M14.219,5.467l-8.629,8.629v9.491h6.04v-4.314c0-1.429,1.16-2.589,2.59-2.589
				c1.428,0,2.588,1.16,2.588,2.589v4.314h6.039v-9.491L14.219,5.467"/>
			<polygon fill="#F7F7F7" points="21.121,8.562 21.121,2.879 18.531,2.879 18.531,5.973 14.219,1.659 2.391,13.485 3.611,14.706 
				14.219,4.099 24.824,14.706 26.045,13.485 			"/>
		</g>
		<g opacity="0.2703">
			<path fill="#F7F7F7" d="M14.046,5.306l-8.629,8.629v9.491h6.04v-4.313c0-1.43,1.161-2.589,2.59-2.589
				c1.428,0,2.588,1.159,2.588,2.589v4.313h6.039v-9.491L14.046,5.306"/>
			<polygon fill="#F7F7F7" points="20.949,8.401 20.949,2.718 18.359,2.718 18.359,5.812 14.046,1.498 2.218,13.324 3.439,14.545 
				14.046,3.938 24.652,14.545 25.873,13.324 			"/>
		</g>
		<g opacity="0.2733">
			<path fill="#F7F7F7" d="M13.874,5.145l-8.629,8.629v9.491h6.039v-4.314c0-1.43,1.161-2.589,2.59-2.589
				c1.428,0,2.588,1.16,2.588,2.589v4.314h6.039v-9.491L13.874,5.145"/>
			<polygon fill="#F7F7F7" points="20.776,8.24 20.776,2.558 18.187,2.558 18.187,5.651 13.874,1.337 2.046,13.163 3.267,14.384 
				13.874,3.777 24.479,14.384 25.7,13.163 			"/>
		</g>
		<g opacity="0.2762">
			<path fill="#F7F7F7" d="M13.702,4.985l-8.628,8.628v9.491h6.039v-4.314c0-1.43,1.16-2.589,2.589-2.589
				c1.428,0,2.588,1.159,2.588,2.589v4.314h6.039v-9.491L13.702,4.985"/>
			<polygon fill="#F7F7F7" points="20.604,8.079 20.604,2.396 18.014,2.396 18.014,5.491 13.702,1.176 1.874,13.002 3.095,14.224 
				13.702,3.617 24.308,14.224 25.528,13.002 			"/>
		</g>
		<g opacity="0.2792">
			<path fill="#F7F7F7" d="M13.53,4.824l-8.629,8.629v9.491h6.039V18.63c0-1.43,1.16-2.589,2.59-2.589
				c1.427,0,2.588,1.159,2.588,2.589v4.313h6.039v-9.491L13.53,4.824"/>
			<polygon fill="#F7F7F7" points="20.432,7.918 20.432,2.236 17.842,2.236 17.842,5.33 13.53,1.016 1.702,12.842 2.922,14.062 
				13.53,3.456 24.135,14.062 25.355,12.842 			"/>
		</g>
		<g opacity="0.2822">
			<path fill="#F6F6F6" d="M13.357,4.663l-8.629,8.629v9.491h6.039v-4.314c0-1.43,1.16-2.589,2.59-2.589
				c1.428,0,2.588,1.159,2.588,2.589v4.314h6.04v-9.491L13.357,4.663"/>
			<polygon fill="#F6F6F6" points="20.26,7.757 20.26,2.075 17.67,2.075 17.67,5.168 13.357,0.854 1.529,12.681 2.75,13.902 
				13.357,3.294 23.963,13.902 25.184,12.681 			"/>
		</g>
		<g opacity="0.2851">
			<path fill="#F6F6F6" d="M13.185,4.502l-8.629,8.629v9.491h6.04v-4.314c0-1.43,1.16-2.588,2.589-2.588
				c1.428,0,2.588,1.159,2.588,2.588v4.314h6.039v-9.491L13.185,4.502"/>
			<polygon fill="#F6F6F6" points="20.088,7.597 20.088,1.915 17.498,1.915 17.498,5.008 13.185,0.694 1.357,12.52 2.578,13.741 
				13.185,3.134 23.791,13.741 25.011,12.52 			"/>
		</g>
		<g opacity="0.2881">
			<path fill="#F6F6F6" d="M13.013,4.341L4.384,12.97v9.492h6.04v-4.314c0-1.43,1.16-2.589,2.589-2.589
				c1.428,0,2.588,1.159,2.588,2.589v4.314h6.039V12.97L13.013,4.341"/>
			<polygon fill="#F6F6F6" points="19.916,7.436 19.916,1.753 17.326,1.753 17.326,4.847 13.013,0.533 1.185,12.359 2.406,13.581 
				13.013,2.973 23.619,13.581 24.839,12.359 			"/>
		</g>
		<g opacity="0.2911">
			<path fill="#F6F6F6" d="M12.841,4.18L4.212,12.81v9.491h6.039v-4.314c0-1.43,1.161-2.589,2.59-2.589
				c1.428,0,2.588,1.159,2.588,2.589v4.314h6.039V12.81L12.841,4.18"/>
			<polygon fill="#F6F6F6" points="19.743,7.275 19.743,1.593 17.153,1.593 17.153,4.687 12.841,0.373 1.013,12.199 2.233,13.419 
				12.841,2.812 23.446,13.419 24.667,12.199 			"/>
		</g>
		<g opacity="0.2941">
			<path fill="#F6F6F6" d="M12.669,4.02L4.04,12.649v9.491h6.039v-4.313c0-1.43,1.16-2.589,2.59-2.589
				c1.428,0,2.588,1.159,2.588,2.589v4.313h6.039v-9.491L12.669,4.02"/>
			<polygon fill="#F6F6F6" points="19.571,7.114 19.571,1.432 16.981,1.432 16.981,4.525 12.669,0.211 0.84,12.038 2.062,13.259 
				12.669,2.651 23.274,13.259 24.495,12.038 			"/>
		</g>
		<g opacity="0.297">
			<path fill="#F6F6F6" d="M12.497,3.859l-8.629,8.629v9.491h6.039v-4.313c0-1.43,1.161-2.589,2.59-2.589
				c1.428,0,2.587,1.159,2.587,2.589v4.313h6.04v-9.491L12.497,3.859"/>
			<polygon fill="#F6F6F6" points="19.399,6.954 19.399,1.271 16.809,1.271 16.809,4.365 12.497,0.051 0.668,11.877 1.889,13.098 
				12.497,2.491 23.102,13.098 24.323,11.877 			"/>
		</g>
		<g opacity="0.3">
			<path fill="#F6F6F6" d="M12.324,3.698l-8.629,8.629v9.491h6.039v-4.314c0-1.43,1.16-2.589,2.59-2.589
				c1.428,0,2.588,1.159,2.588,2.589v4.314h6.039v-9.491L12.324,3.698"/>
			<polygon fill="#F6F6F6" points="19.227,6.793 19.227,1.11 16.637,1.11 16.637,4.204 12.324,-0.11 0.496,11.716 1.717,12.938 
				12.324,2.33 22.93,12.938 24.15,11.716 			"/>
		</g>
	</g>
	<g>
		<path fill="#FFFFFF" d="M11.889,3.698L3.26,12.327v9.491h6.039v-4.314c0-1.43,1.16-2.589,2.59-2.589s2.588,1.159,2.588,2.589
			v4.314h6.039v-9.491L11.889,3.698"/>
		<polygon fill="#FFFFFF" points="18.791,6.793 18.791,1.11 16.203,1.11 16.203,4.204 11.889,-0.11 0.061,11.716 1.281,12.938 
			11.889,2.33 22.494,12.938 23.715,11.716 		"/>
	</g>
</g>
</svg>
