<svg xmlns="http://www.w3.org/2000/svg" viewBox="0 0 488.43 488.43"><defs><style>.cls-1{fill:#2f2f7f;}</style></defs><g id="Capa_2" data-name="Capa 2"><g id="IconosMesaAyuda"><g id="Morados"><g id="IconoLogout"><path class="cls-1" d="M221.11,321.28H181.06a39.23,39.23,0,0,1-39.19-39.19V205.65a38.54,38.54,0,0,1,38.5-38.5h40.74V189H180.37a16.67,16.67,0,0,0-16.65,16.65v76.44a17.36,17.36,0,0,0,17.34,17.34h40.05Z"/><path class="cls-1" d="M349,243.84s0-.06,0-.09a10.83,10.83,0,0,0-3.19-7.81L308,198.11a10.92,10.92,0,0,0-15.45,15.45l19.37,19.36H192.55a10.92,10.92,0,0,0,0,21.84h119l-19.36,19.37a10.92,10.92,0,0,0,15.45,15.44l37-37A10.92,10.92,0,0,0,349,243.84Z"/><path id="Circulo" class="cls-1" d="M244.21,488.43A244.21,244.21,0,0,1,71.53,71.53,244.21,244.21,0,1,1,416.9,416.9,242.66,242.66,0,0,1,244.21,488.43Zm0-464.43C122.79,24,24,122.79,24,244.21s98.79,220.22,220.21,220.22,220.22-98.79,220.22-220.22S365.64,24,244.21,24Z"/></g></g></g></g></svg>