<?xml version="1.0" encoding="UTF-8"?>
<svg xmlns="http://www.w3.org/2000/svg" xmlns:xlink="http://www.w3.org/1999/xlink" width="20pt" height="20pt" viewBox="0 0 20 20" version="1.1">
<g id="surface1">
<path style=" stroke:none;fill-rule:nonzero;fill:rgb(0%,0%,0%);fill-opacity:1;" d="M 19.050781 17.199219 L 14.164062 14.613281 L 13.9375 13.910156 C 13.871094 13.675781 13.765625 13.4375 13.542969 13.375 C 13.472656 13.355469 13.382812 13.226562 13.371094 13.140625 L 13.242188 11.769531 C 13.234375 11.648438 13.28125 11.546875 13.34375 11.46875 C 13.722656 11.023438 13.921875 10.503906 14.011719 9.90625 C 14.050781 9.609375 14.207031 9.332031 14.289062 9.039062 L 14.601562 7.398438 C 14.636719 7.183594 14.628906 7.019531 14.390625 6.9375 C 14.320312 6.910156 14.261719 6.800781 14.261719 6.636719 L 14.265625 3.542969 C 14.214844 2.792969 13.816406 2.210938 13.257812 1.808594 C 12.179688 1.039062 10.257812 1.398438 10.886719 0.140625 C 10.921875 0.0664062 10.910156 -0.0625 10.652344 0.0351562 C 9.6875 0.386719 7.125 1.324219 6.480469 1.808594 C 5.902344 2.246094 5.519531 2.792969 5.472656 3.542969 L 5.472656 6.636719 C 5.472656 6.773438 5.414062 6.910156 5.347656 6.9375 C 5.105469 7.019531 5.101562 7.183594 5.132812 7.398438 L 5.445312 9.039062 C 5.527344 9.332031 5.683594 9.609375 5.726562 9.90625 C 5.8125 10.503906 6.015625 11.023438 6.390625 11.46875 C 6.453125 11.546875 6.5 11.648438 6.496094 11.769531 L 6.363281 13.140625 C 6.351562 13.226562 6.261719 13.355469 6.195312 13.375 C 5.972656 13.4375 5.863281 13.675781 5.796875 13.910156 L 5.570312 14.613281 L 0.683594 17.199219 C 0.558594 17.265625 0.480469 17.398438 0.480469 17.542969 L 0.480469 19.351562 C 0.480469 19.566406 0.648438 19.734375 0.863281 19.734375 L 18.871094 19.734375 C 19.085938 19.734375 19.257812 19.566406 19.257812 19.351562 L 19.257812 17.542969 C 19.257812 17.398438 19.179688 17.265625 19.050781 17.199219 Z M 19.050781 17.199219 "/>
</g>
</svg>
