<svg xmlns="http://www.w3.org/2000/svg" viewBox="0 0 484.43 484.43"><defs><style>.cls-1{fill:#f3f3f3;}</style></defs><g id="Capa_2" data-name="Capa 2"><g id="iconoUsuarioMorado_copia" data-name="iconoUsuarioMorado copia"><path class="cls-1" d="M242.21,484.43A242.22,242.22,0,0,1,70.94,70.94,242.21,242.21,0,1,1,413.48,413.48,240.61,240.61,0,0,1,242.21,484.43Zm0-474.43C114.17,10,10,114.17,10,242.21S114.17,474.43,242.21,474.43,474.43,370.26,474.43,242.21,370.26,10,242.21,10Z"/><path class="cls-1" d="M208.89,252.2h66.29a69,69,0,0,1,69,69v14.19a19.32,19.32,0,0,1-19.32,19.32H159.18a19.32,19.32,0,0,1-19.32-19.32V321.23a69,69,0,0,1,69-69Z"/><circle class="cls-1" cx="242.17" cy="182.07" r="56.1"/></g></g></svg>