<svg xmlns="http://www.w3.org/2000/svg" viewBox="0 0 488.43 488.43"><defs><style>.cls-1{fill:#f3f3f3;}</style></defs><g id="Capa_2" data-name="Capa 2"><g id="IconosMesaAyuda"><g id="Gris"><g id="IconoNotificaciones"><path class="cls-1" d="M313.24,229.74V211.21c0-32.66-24.58-59.91-57.26-66.22v-6.12a14.48,14.48,0,0,0-14.48-14.48h0A14.48,14.48,0,0,0,227,138.87V145c-32.68,6.31-57.27,33.56-57.27,66.22v19.1a65.71,65.71,0,0,1-26,52.38,8.9,8.9,0,0,0-3.57,7.07v13.9a8.8,8.8,0,0,0,8.79,8.8H334a8.8,8.8,0,0,0,8.79-8.8V289.19a8.9,8.9,0,0,0-3.57-7.07A65.7,65.7,0,0,1,313.24,229.74Z"/><path class="cls-1" d="M241.5,357.55a29.72,29.72,0,0,0,29.72-29.71H211.78A29.72,29.72,0,0,0,241.5,357.55Z"/><path id="Circulo" class="cls-1" d="M244.21,488.43A244.21,244.21,0,0,1,71.53,71.53,244.21,244.21,0,1,1,416.9,416.9,242.66,242.66,0,0,1,244.21,488.43Zm0-464.43C122.79,24,24,122.79,24,244.21s98.79,220.22,220.21,220.22,220.22-98.79,220.22-220.22S365.64,24,244.21,24Z"/></g></g></g></g></svg>