<?xml version="1.0" encoding="UTF-8"?>
<svg xmlns="http://www.w3.org/2000/svg" xmlns:xlink="http://www.w3.org/1999/xlink" width="20pt" height="20pt" viewBox="0 0 20 20" version="1.1">
<g id="surface1">
<path style=" stroke:none;fill-rule:nonzero;fill:rgb(0%,0%,0%);fill-opacity:1;" d="M 15.777344 8.402344 C 15.425781 8.402344 15.140625 8.6875 15.140625 9.042969 L 15.140625 9.664062 L 16.414062 9.664062 L 16.414062 9.042969 C 16.414062 8.6875 16.128906 8.402344 15.777344 8.402344 Z M 15.777344 8.402344 "/>
<path style=" stroke:none;fill-rule:nonzero;fill:rgb(0%,0%,0%);fill-opacity:1;" d="M 17.542969 5.375 L 2.457031 5.375 C 1.105469 5.375 0 6.484375 0 7.835938 L 0 12.164062 C 0 13.519531 1.105469 14.625 2.457031 14.625 L 17.542969 14.625 C 18.894531 14.625 20 13.519531 20 12.164062 L 20 7.835938 C 20 6.484375 18.894531 5.375 17.542969 5.375 Z M 5.34375 10.671875 L 5.933594 11.3125 L 4.914062 12.078125 L 4.496094 11.3125 C 4.433594 11.203125 4.335938 10.988281 4.199219 10.671875 C 4.050781 11.019531 3.953125 11.234375 3.902344 11.3125 L 3.480469 12.078125 L 2.429688 11.3125 L 3.066406 10.671875 C 3.242188 10.496094 3.417969 10.34375 3.585938 10.21875 C 3.414062 10.203125 3.183594 10.171875 2.902344 10.117188 L 2.023438 9.972656 L 2.429688 8.777344 L 3.21875 9.136719 C 3.300781 9.171875 3.507812 9.292969 3.835938 9.488281 C 3.765625 9.167969 3.71875 8.933594 3.699219 8.777344 L 3.589844 7.921875 L 4.839844 7.921875 L 4.738281 8.777344 C 4.714844 8.988281 4.667969 9.222656 4.597656 9.488281 C 4.738281 9.414062 4.835938 9.367188 4.878906 9.339844 C 5.039062 9.25 5.160156 9.191406 5.242188 9.152344 L 6.03125 8.777344 L 6.421875 9.972656 L 5.550781 10.15625 C 5.390625 10.1875 5.152344 10.207031 4.839844 10.21875 C 5.054688 10.386719 5.21875 10.535156 5.34375 10.671875 Z M 11.121094 10.671875 L 11.710938 11.3125 L 10.691406 12.078125 L 10.273438 11.3125 C 10.210938 11.203125 10.113281 10.988281 9.980469 10.671875 C 9.832031 11.019531 9.734375 11.234375 9.683594 11.3125 L 9.257812 12.078125 L 8.210938 11.3125 L 8.84375 10.671875 C 9.023438 10.496094 9.195312 10.34375 9.367188 10.21875 C 9.191406 10.203125 8.964844 10.171875 8.679688 10.117188 L 7.800781 9.972656 L 8.207031 8.777344 L 8.996094 9.136719 C 9.078125 9.171875 9.285156 9.292969 9.613281 9.488281 C 9.542969 9.167969 9.496094 8.933594 9.480469 8.777344 L 9.367188 7.921875 L 10.617188 7.921875 L 10.515625 8.777344 C 10.492188 8.988281 10.445312 9.222656 10.375 9.488281 C 10.519531 9.414062 10.613281 9.367188 10.660156 9.339844 C 10.816406 9.25 10.9375 9.191406 11.023438 9.152344 L 11.8125 8.777344 L 12.203125 9.972656 L 11.328125 10.15625 C 11.167969 10.1875 10.933594 10.207031 10.617188 10.21875 C 10.832031 10.386719 10.996094 10.535156 11.121094 10.671875 Z M 17.597656 11.753906 C 17.597656 12.019531 17.378906 12.234375 17.117188 12.234375 L 14.4375 12.234375 C 14.175781 12.234375 13.960938 12.019531 13.960938 11.753906 L 13.960938 10.140625 C 13.960938 9.878906 14.175781 9.664062 14.4375 9.664062 L 14.503906 9.664062 L 14.503906 9.039062 C 14.503906 8.335938 15.074219 7.765625 15.777344 7.765625 C 16.480469 7.765625 17.050781 8.335938 17.050781 9.039062 L 17.050781 9.664062 L 17.117188 9.664062 C 17.378906 9.664062 17.59375 9.878906 17.59375 10.140625 L 17.59375 11.753906 Z M 17.597656 11.753906 "/>
</g>
</svg>
