<?xml version="1.0" encoding="UTF-8"?>
<svg xmlns="http://www.w3.org/2000/svg" xmlns:xlink="http://www.w3.org/1999/xlink" width="20pt" height="20pt" viewBox="0 0 20 20" version="1.1">
<g id="surface1">
<path style=" stroke:none;fill-rule:nonzero;fill:rgb(0%,0%,0%);fill-opacity:1;" d="M 8 11 C 8 10.449219 7.550781 10 7 10 C 6.449219 10 6 10.449219 6 11 C 6 11.550781 6.449219 12 7 12 C 7.550781 12 8 11.550781 8 11 Z M 11 7 L 13 7 L 13 4 L 5 4 L 10 7.03125 L 10 15.523438 L 4 13 L 4 14 L 11 17.0625 L 11 14 L 13 14 L 13 11 L 11 11 Z M 14 8 L 12 8 L 12 10 L 14 10 L 14 12 L 17 9 L 14 6 Z M 16 0 L 4 0 C 1.789062 0 0 1.789062 0 4 L 0 16 C 0 18.210938 1.789062 20 4 20 L 16 20 C 18.207031 20 20 18.210938 20 16 L 20 4 C 20 1.789062 18.210938 0 16 0 Z M 18 15 C 18 16.65625 16.65625 18 15 18 L 5 18 C 3.34375 18 2 16.65625 2 15 L 2 5 C 2 3.34375 3.34375 2 5 2 L 15 2 C 16.65625 2 18 3.34375 18 5 Z M 18 15 "/>
</g>
</svg>
