<?xml version="1.0" encoding="utf-8"?>
<!-- Generator: Adobe Illustrator 16.0.0, SVG Export Plug-In . SVG Version: 6.00 Build 0)  -->
<!DOCTYPE svg PUBLIC "-//W3C//DTD SVG 1.1//EN" "http://www.w3.org/Graphics/SVG/1.1/DTD/svg11.dtd">
<svg version="1.1" id="Capa_1" xmlns="http://www.w3.org/2000/svg" xmlns:xlink="http://www.w3.org/1999/xlink" x="0px" y="0px"
	 width="40px" height="40px" viewBox="0 0 40 40" enable-background="new 0 0 40 40" xml:space="preserve">
<g>
	<g opacity="0.3">
		<path fill="#9D9D9C" d="M13.957,2.791L9.558,0.08H0v2.711v0.34v16.472h14.343c-0.244-0.689-0.379-1.431-0.379-2.203
			c0-3.645,2.965-6.609,6.609-6.609c3.644,0,6.609,2.965,6.609,6.609c0,0.772-0.134,1.514-0.379,2.203h0.447V2.791H13.957z"/>
		<path fill="#9D9D9C" d="M24.629,17.67h-4.327v-4.214h0.542v3.671h3.785V17.67z M20.573,11.4c-3.313,0-5.999,2.686-5.999,5.999
			s2.686,6,5.999,6s5.999-2.687,5.999-6S23.886,11.4,20.573,11.4z"/>
	</g>
	<g opacity="0.297">
		<path fill="#9C9C9C" d="M14.1,2.978L9.71,0.272H0.171v2.706v0.34v16.439h14.314c-0.244-0.688-0.378-1.428-0.378-2.199
			c0-3.637,2.959-6.596,6.596-6.596c3.637,0,6.596,2.959,6.596,6.596c0,0.771-0.134,1.511-0.378,2.199h0.446V2.978H14.1z"/>
		<path fill="#9C9C9C" d="M24.751,17.829h-4.318v-4.206h0.542v3.664h3.777V17.829z M20.704,11.57c-3.306,0-5.987,2.68-5.987,5.987
			c0,3.307,2.681,5.988,5.987,5.988c3.307,0,5.988-2.681,5.988-5.988C26.691,14.25,24.01,11.57,20.704,11.57z"/>
	</g>
	<g opacity="0.2941">
		<path fill="#9B9B9B" d="M14.244,3.166l-4.381-2.7h-9.52v2.7v0.338V19.91h14.286c-0.244-0.687-0.377-1.425-0.377-2.194
			c0-3.63,2.953-6.583,6.583-6.583c3.629,0,6.583,2.953,6.583,6.583c0,0.77-0.134,1.508-0.378,2.194h0.445V3.166H14.244z"/>
		<path fill="#9B9B9B" d="M24.874,17.986h-4.31v-4.197h0.541v3.657h3.77V17.986z M20.834,11.741c-3.3,0-5.975,2.675-5.975,5.975
			c0,3.3,2.675,5.976,5.975,5.976c3.3,0,5.976-2.676,5.976-5.976C26.81,14.416,24.135,11.741,20.834,11.741z"/>
	</g>
	<g opacity="0.2911">
		<path fill="#9A9A9A" d="M14.388,3.353l-4.373-2.695H0.514v2.695v0.338v16.374h14.258c-0.243-0.686-0.376-1.422-0.376-2.19
			c0-3.624,2.947-6.57,6.57-6.57c3.623,0,6.57,2.947,6.57,6.57c0,0.768-0.134,1.504-0.377,2.19h0.444V3.353H14.388z"/>
		<path fill="#9A9A9A" d="M24.997,18.145h-4.302v-4.188h0.54v3.649h3.762V18.145z M20.965,11.912c-3.293,0-5.963,2.669-5.963,5.963
			c0,3.293,2.67,5.964,5.963,5.964s5.963-2.671,5.963-5.964C26.929,14.581,24.259,11.912,20.965,11.912z"/>
	</g>
	<g opacity="0.2881">
		<path fill="#999999" d="M14.532,3.541l-4.364-2.689H0.686v2.689v0.337v16.341h14.229c-0.243-0.684-0.376-1.419-0.376-2.186
			c0-3.615,2.941-6.557,6.557-6.557c3.616,0,6.557,2.941,6.557,6.557c0,0.767-0.133,1.502-0.376,2.186h0.443V3.541H14.532z"/>
		<path fill="#999999" d="M25.119,18.303h-4.292v-4.18h0.538v3.642h3.754V18.303z M21.096,12.082c-3.287,0-5.951,2.665-5.951,5.951
			c0,3.288,2.665,5.953,5.951,5.953c3.287,0,5.952-2.665,5.952-5.953C27.048,14.747,24.383,12.082,21.096,12.082z"/>
	</g>
	<g opacity="0.2851">
		<path fill="#989898" d="M14.676,3.729L10.32,1.044H0.857v2.684v0.336v16.309h14.201c-0.242-0.683-0.375-1.417-0.375-2.182
			c0-3.608,2.936-6.544,6.544-6.544c3.608,0,6.543,2.936,6.543,6.544c0,0.765-0.133,1.499-0.375,2.182h0.442V3.729H14.676z"/>
		<path fill="#989898" d="M25.242,18.461h-4.284v-4.172h0.537v3.635h3.747V18.461z M21.227,12.252c-3.28,0-5.939,2.659-5.939,5.939
			s2.66,5.94,5.939,5.94c3.28,0,5.94-2.66,5.94-5.94S24.507,12.252,21.227,12.252z"/>
	</g>
	<g opacity="0.2822">
		<path fill="#979797" d="M14.82,3.916l-4.347-2.678H1.029v2.678v0.336v16.275h14.172c-0.241-0.681-0.375-1.413-0.375-2.177
			c0-3.601,2.93-6.53,6.531-6.53c3.601,0,6.531,2.929,6.531,6.53c0,0.764-0.133,1.496-0.375,2.177h0.441V3.916H14.82z"/>
		<path fill="#979797" d="M25.365,18.619h-4.275v-4.164h0.536v3.627h3.739V18.619z M21.357,12.423c-3.273,0-5.927,2.654-5.927,5.928
			s2.654,5.929,5.927,5.929c3.274,0,5.928-2.655,5.928-5.929S24.631,12.423,21.357,12.423z"/>
	</g>
	<g opacity="0.2792">
		<path fill="#969696" d="M14.963,4.104L10.625,1.43H1.201v2.673v0.335v16.243h14.144c-0.241-0.68-0.374-1.411-0.374-2.173
			c0-3.594,2.924-6.518,6.518-6.518c3.593,0,6.517,2.924,6.517,6.518c0,0.762-0.132,1.493-0.374,2.173h0.44V4.104H14.963z"/>
		<path fill="#969696" d="M25.488,18.777h-4.267v-4.155h0.535v3.62h3.732V18.777z M21.488,12.594c-3.267,0-5.916,2.648-5.916,5.916
			s2.649,5.917,5.916,5.917c3.267,0,5.916-2.649,5.916-5.917S24.755,12.594,21.488,12.594z"/>
	</g>
	<g opacity="0.2762">
		<path fill="#959595" d="M15.107,4.292l-4.329-2.668H1.372v2.668v0.334v16.21h14.115c-0.24-0.679-0.373-1.408-0.373-2.168
			c0-3.586,2.918-6.504,6.505-6.504c3.586,0,6.504,2.918,6.504,6.504c0,0.76-0.132,1.49-0.373,2.168h0.439V4.292H15.107z"/>
		<path fill="#959595" d="M25.61,18.935h-4.259v-4.146h0.534v3.612h3.725V18.935z M21.619,12.764c-3.26,0-5.904,2.643-5.904,5.904
			s2.644,5.905,5.904,5.905s5.904-2.644,5.904-5.905S24.879,12.764,21.619,12.764z"/>
	</g>
	<g opacity="0.2733">
		<path fill="#949494" d="M15.251,4.479l-4.32-2.663H1.543v2.663v0.334V20.99H15.63c-0.24-0.677-0.372-1.405-0.372-2.164
			c0-3.58,2.912-6.492,6.492-6.492c3.579,0,6.491,2.912,6.491,6.492c0,0.759-0.132,1.487-0.372,2.164h0.438V4.479H15.251z"/>
		<path fill="#949494" d="M25.733,19.093h-4.25v-4.139h0.533v3.605h3.718V19.093z M21.75,12.935c-3.254,0-5.892,2.638-5.892,5.892
			c0,3.255,2.638,5.893,5.892,5.893c3.253,0,5.892-2.638,5.892-5.893C27.642,15.572,25.003,12.935,21.75,12.935z"/>
	</g>
	<g opacity="0.2703">
		<path fill="#939393" d="M15.395,4.667l-4.312-2.657H1.715v2.657V5v16.145h14.059c-0.239-0.676-0.371-1.402-0.371-2.16
			c0-3.572,2.906-6.478,6.479-6.478c3.571,0,6.477,2.905,6.477,6.478c0,0.758-0.131,1.484-0.371,2.16h0.438V4.667H15.395z"/>
		<path fill="#939393" d="M25.855,19.251h-4.241v-4.13h0.532v3.598h3.709V19.251z M21.881,13.105c-3.248,0-5.88,2.632-5.88,5.879
			c0,3.248,2.632,5.882,5.88,5.882c3.247,0,5.879-2.634,5.879-5.882C27.76,15.737,25.128,13.105,21.881,13.105z"/>
	</g>
	<g opacity="0.2673">
		<path fill="#929292" d="M15.539,4.854l-4.303-2.651H1.887v2.651v0.333v16.113h14.03c-0.239-0.675-0.371-1.4-0.371-2.155
			c0-3.565,2.9-6.465,6.465-6.465c3.564,0,6.464,2.9,6.464,6.465c0,0.755-0.131,1.48-0.37,2.155h0.437V4.854H15.539z"/>
		<path fill="#929292" d="M25.979,19.41h-4.233v-4.122h0.531v3.591h3.702V19.41z M22.011,13.276c-3.241,0-5.869,2.627-5.869,5.868
			s2.628,5.869,5.869,5.869s5.868-2.628,5.868-5.869S25.252,13.276,22.011,13.276z"/>
	</g>
	<g opacity="0.2644">
		<path fill="#919191" d="M15.683,5.042l-4.294-2.647h-9.33v2.647v0.332v16.08H16.06c-0.238-0.673-0.37-1.397-0.37-2.151
			c0-3.558,2.895-6.452,6.453-6.452c3.557,0,6.452,2.895,6.452,6.452c0,0.754-0.131,1.478-0.37,2.151h0.436V5.042H15.683z"/>
		<path fill="#919191" d="M26.101,19.568h-4.224v-4.114h0.529v3.583h3.695V19.568z M22.142,13.447c-3.234,0-5.856,2.621-5.856,5.856
			s2.622,5.857,5.856,5.857c3.234,0,5.856-2.622,5.856-5.857S25.376,13.447,22.142,13.447z"/>
	</g>
	<g opacity="0.2614">
		<path fill="#909090" d="M15.827,5.229l-4.286-2.641H2.229v2.641V5.56v16.047h13.973c-0.238-0.671-0.369-1.393-0.369-2.146
			c0-3.55,2.888-6.439,6.439-6.439c3.55,0,6.438,2.889,6.438,6.439c0,0.753-0.131,1.475-0.37,2.146h0.436V5.229H15.827z"/>
		<path fill="#909090" d="M26.224,19.726h-4.216v-4.105h0.529v3.576h3.687V19.726z M22.273,13.617c-3.228,0-5.845,2.616-5.845,5.844
			c0,3.229,2.617,5.846,5.845,5.846c3.227,0,5.844-2.617,5.844-5.846C28.117,16.233,25.5,13.617,22.273,13.617z"/>
	</g>
	<g opacity="0.2584">
		<path fill="#8F8F8F" d="M15.97,5.417l-4.276-2.636H2.401v2.636v0.33v16.015h13.944c-0.237-0.67-0.368-1.392-0.368-2.143
			c0-3.543,2.882-6.425,6.426-6.425c3.543,0,6.425,2.882,6.425,6.425c0,0.751-0.13,1.472-0.368,2.143h0.434V5.417H15.97z"/>
		<path fill="#8F8F8F" d="M26.346,19.884h-4.207v-4.097h0.527v3.569h3.68V19.884z M22.403,13.787c-3.221,0-5.833,2.611-5.833,5.833
			c0,3.222,2.612,5.834,5.833,5.834s5.832-2.612,5.832-5.834C28.235,16.398,25.625,13.787,22.403,13.787z"/>
	</g>
	<g opacity="0.2554">
		<path fill="#8E8E8E" d="M16.114,5.604l-4.268-2.63H2.573v2.63v0.33v15.982h13.916c-0.237-0.669-0.368-1.388-0.368-2.138
			c0-3.537,2.877-6.413,6.413-6.413c3.536,0,6.412,2.876,6.412,6.413c0,0.75-0.13,1.469-0.368,2.138h0.434V5.604H16.114z"/>
		<path fill="#8E8E8E" d="M26.469,20.042h-4.199v-4.088h0.526v3.562h3.672V20.042z M22.534,13.958c-3.214,0-5.821,2.606-5.821,5.821
			S19.32,25.6,22.534,25.6c3.214,0,5.82-2.606,5.82-5.821S25.748,13.958,22.534,13.958z"/>
	</g>
	<g opacity="0.2525">
		<path fill="#8D8D8D" d="M16.258,5.792l-4.259-2.625H2.744v2.625v0.33V22.07h13.888c-0.236-0.667-0.367-1.385-0.367-2.133
			c0-3.529,2.871-6.399,6.4-6.399c3.528,0,6.399,2.871,6.399,6.399c0,0.748-0.131,1.466-0.367,2.133h0.433V5.792H16.258z"/>
		<path fill="#8D8D8D" d="M26.592,20.2h-4.19V16.12h0.525v3.555h3.665V20.2z M22.665,14.128c-3.208,0-5.809,2.601-5.809,5.809
			c0,3.209,2.601,5.81,5.809,5.81c3.208,0,5.808-2.601,5.808-5.81C28.473,16.729,25.873,14.128,22.665,14.128z"/>
	</g>
	<g opacity="0.2495">
		<path fill="#8C8C8C" d="M16.401,5.98l-4.25-2.62H2.916v2.62v0.329v15.917h13.859c-0.236-0.667-0.366-1.383-0.366-2.129
			c0-3.521,2.865-6.386,6.386-6.386c3.521,0,6.386,2.865,6.386,6.386c0,0.747-0.13,1.462-0.366,2.129h0.432V5.98H16.401z"/>
		<path fill="#8C8C8C" d="M26.714,20.358h-4.181v-4.072h0.524v3.547h3.657V20.358z M22.795,14.299c-3.201,0-5.797,2.595-5.797,5.796
			s2.596,5.798,5.797,5.798s5.797-2.597,5.797-5.798S25.997,14.299,22.795,14.299z"/>
	</g>
	<g opacity="0.2465">
		<path fill="#8B8B8B" d="M16.545,6.167l-4.242-2.614H3.087v2.614v0.328v15.883h13.831c-0.235-0.664-0.365-1.379-0.365-2.124
			c0-3.514,2.859-6.373,6.374-6.373c3.514,0,6.373,2.859,6.373,6.373c0,0.745-0.129,1.46-0.366,2.124h0.431V6.167H16.545z"/>
		<path fill="#8B8B8B" d="M26.837,20.516h-4.173v-4.063h0.523v3.54h3.649V20.516z M22.926,14.47c-3.195,0-5.785,2.589-5.785,5.785
			s2.59,5.786,5.785,5.786s5.785-2.591,5.785-5.786S26.121,14.47,22.926,14.47z"/>
	</g>
	<g opacity="0.2436">
		<path fill="#8A8A8A" d="M16.689,6.355l-4.233-2.609H3.259v2.609v0.327v15.852h13.802c-0.235-0.663-0.365-1.377-0.365-2.121
			c0-3.507,2.854-6.36,6.361-6.36c3.506,0,6.36,2.853,6.36,6.36c0,0.744-0.13,1.458-0.365,2.121h0.43V6.355H16.689z"/>
		<path fill="#8A8A8A" d="M26.959,20.674h-4.164V16.62h0.522v3.532h3.642V20.674z M23.057,14.64c-3.188,0-5.773,2.584-5.773,5.773
			s2.585,5.774,5.773,5.774c3.188,0,5.773-2.585,5.773-5.774S26.245,14.64,23.057,14.64z"/>
	</g>
	<g opacity="0.2406">
		<path fill="#898989" d="M16.833,6.542l-4.224-2.603H3.43v2.603v0.326v15.818h13.774c-0.234-0.661-0.364-1.373-0.364-2.115
			c0-3.5,2.847-6.348,6.348-6.348c3.5,0,6.346,2.848,6.346,6.348c0,0.742-0.129,1.454-0.364,2.115H29.6V6.542H16.833z"/>
		<path fill="#898989" d="M27.083,20.833h-4.156v-4.047h0.521v3.525h3.634V20.833z M23.188,14.811c-3.182,0-5.762,2.579-5.762,5.761
			s2.58,5.763,5.762,5.763c3.181,0,5.761-2.581,5.761-5.763S26.369,14.811,23.188,14.811z"/>
	</g>
	<g opacity="0.2376">
		<path fill="#888888" d="M16.977,6.73l-4.216-2.598h-9.16V6.73v0.326v15.785h13.746c-0.234-0.66-0.363-1.371-0.363-2.111
			c0-3.492,2.841-6.333,6.334-6.333c3.492,0,6.334,2.841,6.334,6.333c0,0.74-0.129,1.451-0.364,2.111h0.428V6.73H16.977z"/>
		<path fill="#888888" d="M27.205,20.991h-4.147v-4.039h0.52v3.518h3.627V20.991z M23.318,14.981c-3.175,0-5.749,2.573-5.749,5.749
			c0,3.176,2.574,5.751,5.749,5.751s5.749-2.575,5.749-5.751C29.067,17.555,26.494,14.981,23.318,14.981z"/>
	</g>
	<g opacity="0.2347">
		<path fill="#888787" d="M17.121,6.917l-4.207-2.592H3.773v2.592v0.326v15.753H17.49c-0.233-0.66-0.362-1.369-0.362-2.108
			c0-3.485,2.835-6.321,6.321-6.321c3.484,0,6.32,2.835,6.32,6.321c0,0.739-0.128,1.448-0.362,2.108h0.428V6.917H17.121z"/>
		<path fill="#888787" d="M27.328,21.149h-4.139v-4.03h0.519v3.511h3.62V21.149z M23.449,15.152c-3.169,0-5.738,2.568-5.738,5.737
			c0,3.169,2.569,5.739,5.738,5.739c3.168,0,5.737-2.569,5.737-5.739C29.187,17.72,26.617,15.152,23.449,15.152z"/>
	</g>
	<g opacity="0.2317">
		<path fill="#878686" d="M17.265,7.105l-4.198-2.587H3.945v2.587V7.43v15.72h13.688c-0.233-0.657-0.362-1.365-0.362-2.102
			c0-3.479,2.83-6.308,6.309-6.308c3.478,0,6.308,2.83,6.308,6.308c0,0.737-0.129,1.445-0.362,2.102h0.427V7.105H17.265z"/>
		<path fill="#878686" d="M27.45,21.307h-4.13v-4.022h0.518v3.503h3.612V21.307z M23.58,15.322c-3.162,0-5.726,2.563-5.726,5.726
			c0,3.162,2.563,5.726,5.726,5.726c3.162,0,5.725-2.564,5.725-5.726C29.305,17.885,26.742,15.322,23.58,15.322z"/>
	</g>
	<g opacity="0.2287">
		<path fill="#868585" d="M17.409,7.293l-4.19-2.582H4.116v2.582v0.324v15.687h13.661c-0.233-0.656-0.361-1.362-0.361-2.098
			c0-3.471,2.824-6.295,6.295-6.295c3.471,0,6.294,2.824,6.294,6.295c0,0.735-0.128,1.441-0.361,2.098h0.425V7.293H17.409z"/>
		<path fill="#868585" d="M27.573,21.465h-4.121v-4.014h0.517v3.496h3.604V21.465z M23.71,15.493c-3.155,0-5.713,2.558-5.713,5.714
			c0,3.155,2.558,5.714,5.713,5.714s5.713-2.559,5.713-5.714C29.424,18.05,26.866,15.493,23.71,15.493z"/>
	</g>
	<g opacity="0.2257">
		<path fill="#858484" d="M17.552,7.481l-4.181-2.577H4.288v2.577v0.323v15.655H17.92c-0.232-0.654-0.36-1.359-0.36-2.094
			c0-3.463,2.818-6.281,6.282-6.281c3.463,0,6.281,2.818,6.281,6.281c0,0.734-0.127,1.439-0.36,2.094h0.425V7.481H17.552z"/>
		<path fill="#858484" d="M27.696,21.624h-4.113v-4.005h0.516v3.489h3.597V21.624z M23.841,15.664c-3.149,0-5.702,2.552-5.702,5.701
			c0,3.149,2.553,5.703,5.702,5.703s5.702-2.554,5.702-5.703C29.543,18.216,26.99,15.664,23.841,15.664z"/>
	</g>
	<g opacity="0.2228">
		<path fill="#848383" d="M17.696,7.668l-4.172-2.571H4.459v2.571v0.322v15.622h13.604c-0.232-0.653-0.36-1.356-0.36-2.09
			c0-3.456,2.812-6.268,6.269-6.268c3.456,0,6.268,2.812,6.268,6.268c0,0.733-0.128,1.437-0.36,2.09h0.424V7.668H17.696z"/>
		<path fill="#848383" d="M27.818,21.781h-4.104v-3.996h0.515v3.481h3.589V21.781z M23.972,15.834c-3.142,0-5.69,2.547-5.69,5.689
			c0,3.144,2.548,5.691,5.69,5.691s5.689-2.548,5.689-5.691C29.662,18.381,27.114,15.834,23.972,15.834z"/>
	</g>
	<g opacity="0.2198">
		<path fill="#838282" d="M17.84,7.856l-4.163-2.565H4.631v2.565v0.322v15.59h13.575c-0.231-0.652-0.359-1.354-0.359-2.086
			c0-3.449,2.807-6.255,6.256-6.255c3.449,0,6.254,2.806,6.254,6.255c0,0.731-0.127,1.434-0.358,2.086h0.423V7.856H17.84z"/>
		<path fill="#838282" d="M27.941,21.939h-4.095v-3.988h0.513v3.475h3.582V21.939z M24.103,16.004c-3.136,0-5.678,2.542-5.678,5.678
			c0,3.137,2.542,5.679,5.678,5.679c3.135,0,5.677-2.542,5.677-5.679C29.78,18.546,27.238,16.004,24.103,16.004z"/>
	</g>
	<g opacity="0.2168">
		<path fill="#828181" d="M17.984,8.043L13.83,5.483H4.802v2.561v0.321v15.557h13.546c-0.23-0.65-0.357-1.351-0.357-2.081
			c0-3.441,2.8-6.242,6.242-6.242c3.441,0,6.242,2.801,6.242,6.242c0,0.73-0.127,1.431-0.358,2.081h0.422V8.043H17.984z"/>
		<path fill="#828181" d="M28.064,22.097h-4.087v-3.98h0.513v3.467h3.575V22.097z M24.233,16.175c-3.129,0-5.666,2.536-5.666,5.665
			c0,3.131,2.537,5.667,5.666,5.667c3.129,0,5.666-2.536,5.666-5.667C29.899,18.711,27.362,16.175,24.233,16.175z"/>
	</g>
	<g opacity="0.2139">
		<path fill="#818080" d="M18.128,8.231l-4.146-2.555H4.974v2.555v0.32v15.524h13.519c-0.23-0.649-0.357-1.349-0.357-2.076
			c0-3.435,2.794-6.229,6.229-6.229c3.435,0,6.229,2.794,6.229,6.229c0,0.728-0.126,1.427-0.357,2.076h0.421V8.231H18.128z"/>
		<path fill="#818080" d="M28.187,22.255h-4.078v-3.972h0.511v3.46h3.567V22.255z M24.364,16.346c-3.123,0-5.654,2.531-5.654,5.654
			s2.531,5.655,5.654,5.655c3.122,0,5.653-2.532,5.653-5.655S27.486,16.346,24.364,16.346z"/>
	</g>
	<g opacity="0.2109">
		<path fill="#807F7F" d="M18.271,8.418l-4.137-2.549H5.146v2.549v0.32V24.23h13.489c-0.229-0.647-0.356-1.345-0.356-2.072
			c0-3.428,2.789-6.216,6.217-6.216c3.427,0,6.215,2.788,6.215,6.216c0,0.728-0.126,1.425-0.356,2.072h0.42V8.418H18.271z"/>
		<path fill="#807F7F" d="M28.31,22.414h-4.07v-3.963h0.511v3.452h3.56V22.414z M24.495,16.516c-3.116,0-5.643,2.525-5.643,5.642
			c0,3.117,2.526,5.644,5.643,5.644c3.115,0,5.642-2.526,5.642-5.644C30.137,19.042,27.61,16.516,24.495,16.516z"/>
	</g>
	<g opacity="0.2079">
		<path fill="#7F7E7E" d="M18.416,8.606l-4.128-2.544h-8.97v2.544v0.319v15.459h13.461c-0.229-0.646-0.356-1.343-0.356-2.067
			c0-3.42,2.783-6.203,6.203-6.203c3.421,0,6.203,2.783,6.203,6.203c0,0.725-0.126,1.421-0.355,2.067h0.419V8.606H18.416z"/>
		<path fill="#7F7E7E" d="M28.432,22.572h-4.061v-3.955h0.509v3.445h3.552V22.572z M24.625,16.687c-3.109,0-5.63,2.521-5.63,5.63
			s2.521,5.631,5.63,5.631c3.11,0,5.631-2.521,5.631-5.631S27.735,16.687,24.625,16.687z"/>
	</g>
	<g opacity="0.205">
		<path fill="#7E7D7D" d="M18.56,8.794l-4.12-2.539H5.488v2.539v0.318v15.426h13.433c-0.229-0.646-0.354-1.34-0.354-2.063
			c0-3.413,2.776-6.189,6.189-6.189s6.19,2.776,6.19,6.189c0,0.724-0.126,1.418-0.355,2.063h0.418V8.794H18.56z"/>
		<path fill="#7E7D7D" d="M28.555,22.73h-4.053v-3.947h0.508v3.438h3.545V22.73z M24.756,16.857c-3.103,0-5.618,2.515-5.618,5.618
			c0,3.104,2.516,5.62,5.618,5.62c3.103,0,5.619-2.517,5.619-5.62C30.375,19.373,27.859,16.857,24.756,16.857z"/>
	</g>
	<g opacity="0.202">
		<path fill="#7D7C7C" d="M18.703,8.981l-4.111-2.534H5.66v2.534v0.318v15.394h13.405c-0.229-0.644-0.354-1.337-0.354-2.06
			c0-3.405,2.771-6.176,6.177-6.176c3.405,0,6.177,2.771,6.177,6.176c0,0.723-0.126,1.416-0.354,2.06h0.418V8.981H18.703z"/>
		<path fill="#7D7C7C" d="M28.677,22.888h-4.044V18.95h0.507v3.431h3.537V22.888z M24.887,17.028c-3.096,0-5.606,2.51-5.606,5.605
			c0,3.098,2.511,5.608,5.606,5.608c3.097,0,5.607-2.511,5.607-5.608C30.494,19.538,27.983,17.028,24.887,17.028z"/>
	</g>
	<g opacity="0.199">
		<path fill="#7C7B7C" d="M18.847,9.169l-4.102-2.528H5.831v2.528v0.317v15.36h13.376c-0.228-0.643-0.354-1.334-0.354-2.055
			c0-3.398,2.765-6.164,6.164-6.164c3.398,0,6.164,2.765,6.164,6.164c0,0.721-0.125,1.412-0.354,2.055h0.417V9.169H18.847z"/>
		<path fill="#7C7B7C" d="M28.8,23.045h-4.035v-3.93h0.506v3.424H28.8V23.045z M25.018,17.198c-3.089,0-5.595,2.504-5.595,5.594
			c0,3.091,2.505,5.596,5.595,5.596c3.09,0,5.595-2.505,5.595-5.596C30.612,19.703,28.107,17.198,25.018,17.198z"/>
	</g>
	<g opacity="0.196">
		<path fill="#7B7A7B" d="M18.991,9.357l-4.093-2.523H6.003v2.523v0.316v15.328h13.348c-0.228-0.642-0.353-1.331-0.353-2.05
			c0-3.392,2.759-6.151,6.151-6.151c3.391,0,6.15,2.76,6.15,6.151c0,0.719-0.125,1.408-0.353,2.05h0.416V9.357H18.991z"/>
		<path fill="#7B7A7B" d="M28.923,23.204h-4.027v-3.921H25.4v3.416h3.522V23.204z M25.148,17.369c-3.083,0-5.583,2.499-5.583,5.583
			c0,3.083,2.5,5.583,5.583,5.583c3.083,0,5.583-2.5,5.583-5.583C30.731,19.868,28.231,17.369,25.148,17.369z"/>
	</g>
	<g opacity="0.1931">
		<path fill="#7A797A" d="M19.135,9.544L15.05,7.027H6.174v2.518V9.86v15.295h13.319c-0.227-0.64-0.352-1.328-0.352-2.046
			c0-3.384,2.753-6.137,6.138-6.137c3.384,0,6.137,2.753,6.137,6.137c0,0.718-0.125,1.406-0.352,2.046h0.415V9.544H19.135z"/>
		<path fill="#7A797A" d="M29.045,23.362h-4.018v-3.913h0.504v3.409h3.514V23.362z M25.279,17.54c-3.077,0-5.571,2.494-5.571,5.57
			c0,3.077,2.494,5.572,5.571,5.572c3.076,0,5.57-2.495,5.57-5.572C30.85,20.033,28.355,17.54,25.279,17.54z"/>
	</g>
	<g opacity="0.1901">
		<path fill="#7A7879" d="M19.278,9.732L15.202,7.22H6.346v2.512v0.315V25.31h13.291c-0.226-0.638-0.351-1.325-0.351-2.042
			c0-3.377,2.747-6.124,6.125-6.124c3.376,0,6.124,2.747,6.124,6.124c0,0.717-0.125,1.404-0.352,2.042h0.414V9.732H19.278z"/>
		<path fill="#7A7879" d="M29.168,23.52h-4.01v-3.904h0.503v3.401h3.507V23.52z M25.41,17.71c-3.07,0-5.56,2.488-5.56,5.558
			c0,3.071,2.489,5.561,5.56,5.561c3.069,0,5.559-2.489,5.559-5.561C30.969,20.198,28.479,17.71,25.41,17.71z"/>
	</g>
	<g opacity="0.1871">
		<path fill="#797778" d="M19.422,9.919l-4.068-2.506H6.518v2.506v0.314v15.23h13.262c-0.226-0.637-0.351-1.323-0.351-2.037
			c0-3.37,2.742-6.111,6.111-6.111c3.37,0,6.111,2.742,6.111,6.111c0,0.714-0.124,1.4-0.351,2.037h0.414V9.919H19.422z"/>
		<path fill="#797778" d="M29.29,23.678h-4v-3.896h0.501v3.395h3.499V23.678z M25.54,17.88c-3.063,0-5.546,2.483-5.546,5.547
			s2.483,5.548,5.546,5.548c3.064,0,5.548-2.484,5.548-5.548S28.604,17.88,25.54,17.88z"/>
	</g>
	<g opacity="0.1842">
		<path fill="#787677" d="M19.566,10.107l-4.059-2.501H6.689v2.501v0.314v15.198h13.233c-0.225-0.636-0.349-1.319-0.349-2.032
			c0-3.363,2.735-6.099,6.098-6.099s6.099,2.735,6.099,6.099c0,0.713-0.124,1.396-0.351,2.032h0.413V10.107H19.566z"/>
		<path fill="#787677" d="M29.413,23.836h-3.992v-3.888h0.5v3.387h3.492V23.836z M25.671,18.051c-3.057,0-5.535,2.478-5.535,5.535
			c0,3.057,2.479,5.535,5.535,5.535c3.057,0,5.535-2.479,5.535-5.535C31.206,20.529,28.728,18.051,25.671,18.051z"/>
	</g>
	<g opacity="0.1812">
		<path fill="#777576" d="M19.71,10.295l-4.05-2.497h-8.8v2.497v0.313v15.165h13.205c-0.225-0.635-0.349-1.317-0.349-2.028
			c0-3.355,2.729-6.085,6.085-6.085s6.085,2.729,6.085,6.085c0,0.711-0.124,1.394-0.349,2.028h0.411V10.295H19.71z"/>
		<path fill="#777576" d="M29.536,23.995h-3.984v-3.879h0.5v3.379h3.484V23.995z M25.802,18.222c-3.05,0-5.523,2.472-5.523,5.523
			s2.473,5.523,5.523,5.523c3.051,0,5.523-2.473,5.523-5.523S28.853,18.222,25.802,18.222z"/>
	</g>
	<g opacity="0.1782">
		<path fill="#767475" d="M19.854,10.482l-4.041-2.491H7.031v2.491v0.313v15.132h13.177c-0.224-0.633-0.348-1.314-0.348-2.024
			c0-3.348,2.724-6.071,6.072-6.071c3.348,0,6.072,2.724,6.072,6.071c0,0.71-0.124,1.392-0.348,2.024h0.41V10.482H19.854z"/>
		<path fill="#767475" d="M29.659,24.153h-3.976v-3.871h0.499v3.372h3.477V24.153z M25.933,18.392c-3.044,0-5.511,2.467-5.511,5.511
			c0,3.045,2.467,5.513,5.511,5.513s5.511-2.468,5.511-5.513C31.444,20.859,28.977,18.392,25.933,18.392z"/>
	</g>
	<g opacity="0.1752">
		<path fill="#757374" d="M19.998,10.67l-4.032-2.485H7.203v2.485v0.312v15.1h13.148c-0.224-0.632-0.347-1.312-0.347-2.021
			c0-3.34,2.718-6.058,6.059-6.058c3.341,0,6.059,2.718,6.059,6.058c0,0.709-0.123,1.389-0.348,2.021h0.41V10.67H19.998z"/>
		<path fill="#757374" d="M29.781,24.311h-3.967v-3.863h0.497v3.365h3.47V24.311z M26.063,18.562c-3.037,0-5.5,2.461-5.5,5.499
			c0,3.038,2.463,5.502,5.5,5.502s5.499-2.464,5.499-5.502C31.562,21.024,29.101,18.562,26.063,18.562z"/>
	</g>
	<g opacity="0.1723">
		<path fill="#747273" d="M20.142,10.858l-4.023-2.48H7.375v2.48v0.311v15.067h13.12c-0.223-0.63-0.346-1.309-0.346-2.016
			c0-3.333,2.712-6.046,6.046-6.046c3.333,0,6.045,2.712,6.045,6.046c0,0.707-0.122,1.386-0.347,2.016h0.409V10.858H20.142z"/>
		<path fill="#747273" d="M29.904,24.469h-3.958v-3.855h0.496v3.358h3.462V24.469z M26.194,18.733c-3.031,0-5.487,2.457-5.487,5.487
			c0,3.031,2.457,5.489,5.487,5.489c3.03,0,5.487-2.458,5.487-5.489C31.682,21.19,29.225,18.733,26.194,18.733z"/>
	</g>
	<g opacity="0.1693">
		<path fill="#737172" d="M20.285,11.045l-4.015-2.474H7.546v2.474v0.311v15.034h13.091c-0.223-0.628-0.346-1.305-0.346-2.01
			c0-3.326,2.706-6.033,6.033-6.033c3.325,0,6.032,2.707,6.032,6.033c0,0.705-0.123,1.382-0.347,2.01h0.408V11.045H20.285z"/>
		<path fill="#737172" d="M30.026,24.627h-3.949v-3.847h0.495v3.351h3.454V24.627z M26.325,18.904c-3.024,0-5.476,2.451-5.476,5.476
			s2.452,5.477,5.476,5.477c3.023,0,5.475-2.452,5.475-5.477S29.349,18.904,26.325,18.904z"/>
	</g>
	<g opacity="0.1663">
		<path fill="#727171" d="M20.429,11.233l-4.006-2.469H7.718v2.469v0.31v15.002h13.063c-0.222-0.628-0.345-1.304-0.345-2.007
			c0-3.318,2.701-6.02,6.02-6.02c3.319,0,6.02,2.701,6.02,6.02c0,0.703-0.123,1.379-0.345,2.007h0.407V11.233H20.429z"/>
		<path fill="#727171" d="M30.149,24.785h-3.941v-3.838h0.494v3.344h3.447V24.785z M26.456,19.074c-3.018,0-5.464,2.446-5.464,5.463
			c0,3.019,2.446,5.465,5.464,5.465c3.017,0,5.463-2.446,5.463-5.465C31.919,21.52,29.473,19.074,26.456,19.074z"/>
	</g>
	<g opacity="0.1634">
		<path fill="#717070" d="M20.573,11.42l-3.998-2.464H7.89v2.464v0.309v14.968h13.034c-0.222-0.625-0.344-1.299-0.344-2.002
			c0-3.312,2.694-6.006,6.007-6.006c3.312,0,6.006,2.694,6.006,6.006c0,0.703-0.122,1.377-0.345,2.002h0.406V11.42H20.573z"/>
		<path fill="#717070" d="M30.272,24.943H26.34v-3.829h0.493v3.336h3.439V24.943z M26.586,19.245c-3.011,0-5.452,2.44-5.452,5.451
			c0,3.012,2.441,5.453,5.452,5.453c3.011,0,5.452-2.441,5.452-5.453C32.038,21.685,29.597,19.245,26.586,19.245z"/>
	</g>
	<g opacity="0.1604">
		<path fill="#706F6F" d="M20.717,11.608l-3.989-2.458H8.061v2.458v0.309v14.936h13.007c-0.222-0.624-0.344-1.297-0.344-1.997
			c0-3.305,2.688-5.993,5.993-5.993s5.993,2.688,5.993,5.993c0,0.7-0.122,1.373-0.344,1.997h0.405V11.608H20.717z"/>
		<path fill="#706F6F" d="M30.395,25.102h-3.924V21.28h0.492v3.329h3.432V25.102z M26.717,19.416c-3.004,0-5.439,2.435-5.439,5.439
			s2.436,5.44,5.439,5.44c3.004,0,5.44-2.436,5.44-5.44S29.721,19.416,26.717,19.416z"/>
	</g>
	<g opacity="0.1574">
		<path fill="#706E6E" d="M20.86,11.795l-3.979-2.453H8.232v2.453v0.309v14.903H21.21c-0.221-0.623-0.343-1.295-0.343-1.993
			c0-3.298,2.683-5.98,5.98-5.98c3.297,0,5.98,2.683,5.98,5.98c0,0.698-0.122,1.37-0.344,1.993h0.404V11.795H20.86z"/>
		<path fill="#706E6E" d="M30.518,25.26h-3.916v-3.813h0.491v3.321h3.425V25.26z M26.848,19.586c-2.998,0-5.428,2.43-5.428,5.428
			s2.43,5.429,5.428,5.429s5.428-2.431,5.428-5.429S29.846,19.586,26.848,19.586z"/>
	</g>
	<g opacity="0.1545">
		<path fill="#6F6D6D" d="M21.004,11.983l-3.971-2.448H8.404v2.448v0.307v14.87h12.95c-0.221-0.621-0.343-1.291-0.343-1.988
			c0-3.291,2.677-5.967,5.968-5.967c3.29,0,5.967,2.676,5.967,5.967c0,0.697-0.121,1.367-0.343,1.988h0.404V11.983H21.004z"/>
		<path fill="#6F6D6D" d="M30.64,25.417h-3.906v-3.805h0.49v3.314h3.417V25.417z M26.979,19.756c-2.991,0-5.417,2.424-5.417,5.416
			s2.425,5.417,5.417,5.417s5.416-2.425,5.416-5.417S29.97,19.756,26.979,19.756z"/>
	</g>
	<g opacity="0.1515">
		<path fill="#6E6C6C" d="M21.148,12.17l-3.963-2.441h-8.61v2.441v0.307v14.838h12.921c-0.22-0.62-0.341-1.289-0.341-1.985
			c0-3.283,2.671-5.954,5.954-5.954c3.282,0,5.954,2.67,5.954,5.954c0,0.696-0.121,1.365-0.341,1.985h0.402V12.17H21.148z"/>
		<path fill="#6E6C6C" d="M30.763,25.576h-3.898V21.78h0.489v3.307h3.409V25.576z M27.109,19.927c-2.985,0-5.404,2.419-5.404,5.403
			c0,2.985,2.419,5.405,5.404,5.405c2.984,0,5.404-2.42,5.404-5.405C32.513,22.346,30.094,19.927,27.109,19.927z"/>
	</g>
	<g opacity="0.1485">
		<path fill="#6D6B6B" d="M21.292,12.358l-3.954-2.437H8.747v2.437v0.307V27.47H21.64c-0.22-0.619-0.341-1.286-0.341-1.98
			c0-3.276,2.665-5.941,5.941-5.941c3.275,0,5.94,2.665,5.94,5.941c0,0.694-0.121,1.361-0.341,1.98h0.401V12.358H21.292z"/>
		<path fill="#6D6B6B" d="M30.885,25.734h-3.889v-3.788h0.487v3.3h3.402V25.734z M27.24,20.097c-2.979,0-5.393,2.414-5.393,5.393
			s2.414,5.394,5.393,5.394c2.978,0,5.392-2.415,5.392-5.394S30.218,20.097,27.24,20.097z"/>
	</g>
	<g opacity="0.1455">
		<path fill="#6C6A6A" d="M21.436,12.546l-3.945-2.431H8.918v2.431v0.305v14.772h12.864c-0.219-0.617-0.34-1.282-0.34-1.976
			c0-3.269,2.659-5.927,5.929-5.927c3.268,0,5.927,2.659,5.927,5.927c0,0.693-0.121,1.358-0.34,1.976h0.4V12.546H21.436z"/>
		<path fill="#6C6A6A" d="M31.008,25.892h-3.881v-3.779h0.487v3.292h3.394V25.892z M27.371,20.268c-2.972,0-5.381,2.408-5.381,5.38
			s2.409,5.382,5.381,5.382c2.971,0,5.38-2.41,5.38-5.382S30.342,20.268,27.371,20.268z"/>
	</g>
	<g opacity="0.1426">
		<path fill="#6B696A" d="M21.58,12.734l-3.937-2.426H9.09v2.426v0.305v14.739h12.836c-0.219-0.615-0.339-1.279-0.339-1.971
			c0-3.262,2.653-5.915,5.915-5.915c3.261,0,5.915,2.653,5.915,5.915c0,0.691-0.12,1.355-0.34,1.971h0.4V12.734H21.58z"/>
		<path fill="#6B696A" d="M31.131,26.05h-3.872v-3.771h0.485v3.285h3.387V26.05z M27.501,20.438c-2.965,0-5.369,2.404-5.369,5.369
			s2.403,5.369,5.369,5.369c2.964,0,5.369-2.404,5.369-5.369S30.466,20.438,27.501,20.438z"/>
	</g>
	<g opacity="0.1396">
		<path fill="#6A6869" d="M21.724,12.921L17.796,10.5H9.262v2.421v0.304v14.707h12.807c-0.218-0.614-0.338-1.276-0.338-1.967
			c0-3.254,2.647-5.901,5.901-5.901s5.901,2.647,5.901,5.901c0,0.69-0.12,1.353-0.338,1.967h0.399V12.921H21.724z"/>
		<path fill="#6A6869" d="M31.253,26.208H27.39v-3.762h0.484v3.277h3.379V26.208z M27.632,20.609c-2.958,0-5.356,2.398-5.356,5.356
			c0,2.959,2.398,5.357,5.356,5.357c2.958,0,5.357-2.398,5.357-5.357C32.989,23.007,30.59,20.609,27.632,20.609z"/>
	</g>
	<g opacity="0.1366">
		<path fill="#696768" d="M21.867,13.109l-3.919-2.415H9.433v2.415v0.303v14.675h12.779c-0.218-0.613-0.338-1.273-0.338-1.963
			c0-3.246,2.642-5.888,5.889-5.888c3.247,0,5.889,2.642,5.889,5.888c0,0.689-0.12,1.35-0.338,1.963h0.397V13.109H21.867z"/>
		<path fill="#696768" d="M31.376,26.366h-3.855v-3.754h0.483v3.271h3.372V26.366z M27.763,20.78c-2.952,0-5.345,2.393-5.345,5.344
			c0,2.953,2.393,5.346,5.345,5.346c2.952,0,5.345-2.393,5.345-5.346C33.107,23.172,30.714,20.78,27.763,20.78z"/>
	</g>
	<g opacity="0.1337">
		<path fill="#686667" d="M22.012,13.296l-3.911-2.41H9.604v2.41v0.303v14.642h12.75c-0.217-0.611-0.337-1.271-0.337-1.958
			c0-3.239,2.636-5.875,5.876-5.875c3.239,0,5.875,2.636,5.875,5.875c0,0.687-0.12,1.347-0.337,1.958h0.397V13.296H22.012z"/>
		<path fill="#686667" d="M31.499,26.524h-3.846v-3.746h0.482v3.264h3.364V26.524z M27.894,20.95c-2.945,0-5.333,2.387-5.333,5.333
			c0,2.946,2.388,5.334,5.333,5.334c2.945,0,5.333-2.388,5.333-5.334C33.226,23.337,30.838,20.95,27.894,20.95z"/>
	</g>
	<g opacity="0.1307">
		<path fill="#676566" d="M22.155,13.484l-3.901-2.404H9.776v2.404v0.302v14.609h12.722c-0.217-0.61-0.336-1.269-0.336-1.953
			c0-3.232,2.63-5.863,5.863-5.863c3.232,0,5.862,2.63,5.862,5.863c0,0.685-0.12,1.343-0.337,1.953h0.396V13.484H22.155z"/>
		<path fill="#676566" d="M31.621,26.682h-3.838v-3.737h0.481v3.256h3.356V26.682z M28.024,21.121c-2.939,0-5.321,2.382-5.321,5.321
			c0,2.938,2.382,5.321,5.321,5.321c2.938,0,5.321-2.383,5.321-5.321C33.345,23.502,30.963,21.121,28.024,21.121z"/>
	</g>
	<g opacity="0.1277">
		<path fill="#666465" d="M22.299,13.672l-3.893-2.399H9.947v2.399v0.301v14.576h12.694c-0.216-0.609-0.335-1.266-0.335-1.949
			c0-3.226,2.624-5.849,5.85-5.849c3.225,0,5.849,2.623,5.849,5.849c0,0.684-0.119,1.34-0.336,1.949h0.396V13.672H22.299z"/>
		<path fill="#666465" d="M31.744,26.84h-3.83v-3.729h0.48v3.248h3.349V26.84z M28.155,21.292c-2.933,0-5.31,2.376-5.31,5.309
			s2.377,5.311,5.31,5.311c2.932,0,5.309-2.378,5.309-5.311S31.087,21.292,28.155,21.292z"/>
	</g>
	<g opacity="0.1248">
		<path fill="#666364" d="M22.443,13.859l-3.884-2.394h-8.44v2.394v0.301v14.544h12.665c-0.215-0.607-0.334-1.263-0.334-1.945
			c0-3.217,2.618-5.835,5.836-5.835c3.217,0,5.835,2.619,5.835,5.835c0,0.683-0.118,1.338-0.334,1.945h0.395V13.859H22.443z"/>
		<path fill="#666364" d="M31.867,26.999h-3.821v-3.721h0.479v3.241h3.342V26.999z M28.286,21.461c-2.925,0-5.297,2.371-5.297,5.297
			c0,2.927,2.372,5.299,5.297,5.299s5.297-2.372,5.297-5.299C33.583,23.833,31.211,21.461,28.286,21.461z"/>
	</g>
	<g opacity="0.1218">
		<path fill="#656363" d="M22.586,14.047l-3.875-2.388h-8.421v2.388v0.3v14.511h12.636c-0.215-0.606-0.333-1.26-0.333-1.94
			c0-3.211,2.612-5.823,5.823-5.823c3.21,0,5.823,2.612,5.823,5.823c0,0.681-0.119,1.334-0.334,1.94h0.394V14.047H22.586z"/>
		<path fill="#656363" d="M31.989,27.157h-3.812v-3.713h0.479v3.234h3.334V27.157z M28.417,21.632c-2.919,0-5.286,2.366-5.286,5.285
			s2.366,5.286,5.286,5.286c2.918,0,5.285-2.367,5.285-5.286S31.335,21.632,28.417,21.632z"/>
	</g>
	<g opacity="0.1188">
		<path fill="#646262" d="M22.73,14.235l-3.867-2.384h-8.402v2.384v0.299v14.479H23.07c-0.214-0.605-0.333-1.257-0.333-1.937
			c0-3.203,2.606-5.81,5.81-5.81c3.203,0,5.81,2.606,5.81,5.81c0,0.68-0.119,1.331-0.333,1.937h0.393V14.235H22.73z"/>
		<path fill="#646262" d="M32.112,27.315h-3.803v-3.704h0.477v3.227h3.327V27.315z M28.547,21.803c-2.912,0-5.273,2.36-5.273,5.272
			c0,2.913,2.361,5.274,5.273,5.274c2.913,0,5.273-2.361,5.273-5.274C33.82,24.164,31.459,21.803,28.547,21.803z"/>
	</g>
	<g opacity="0.1158">
		<path fill="#636161" d="M22.875,14.422l-3.858-2.378h-8.383v2.378v0.298v14.446h12.579c-0.214-0.604-0.332-1.254-0.332-1.932
			c0-3.197,2.6-5.797,5.797-5.797c3.196,0,5.797,2.6,5.797,5.797c0,0.678-0.118,1.328-0.333,1.932h0.392V14.422H22.875z"/>
		<path fill="#636161" d="M32.234,27.473h-3.795v-3.696h0.476v3.22h3.319V27.473z M28.678,21.973c-2.906,0-5.262,2.355-5.262,5.262
			s2.355,5.262,5.262,5.262s5.262-2.355,5.262-5.262S31.584,21.973,28.678,21.973z"/>
	</g>
	<g opacity="0.1129">
		<path fill="#626060" d="M23.018,14.61l-3.849-2.372h-8.364v2.372v0.297v14.414h12.552c-0.214-0.602-0.332-1.252-0.332-1.928
			c0-3.188,2.595-5.783,5.784-5.783c3.188,0,5.783,2.595,5.783,5.783c0,0.676-0.118,1.326-0.332,1.928h0.392V14.61H23.018z"/>
		<path fill="#626060" d="M32.357,27.631h-3.787v-3.688h0.475v3.212h3.312V27.631z M28.809,22.144c-2.899,0-5.25,2.35-5.25,5.249
			s2.351,5.251,5.25,5.251c2.899,0,5.249-2.352,5.249-5.251S31.708,22.144,28.809,22.144z"/>
	</g>
	<g opacity="0.1099">
		<path fill="#615F60" d="M23.162,14.797l-3.841-2.367h-8.345v2.367v0.297v14.38h12.522c-0.213-0.601-0.331-1.249-0.331-1.924
			c0-3.182,2.588-5.77,5.771-5.77c3.182,0,5.77,2.588,5.77,5.77c0,0.675-0.118,1.323-0.331,1.924h0.39V14.797H23.162z"/>
		<path fill="#615F60" d="M32.48,27.79h-3.778v-3.68h0.474v3.205h3.305V27.79z M28.939,22.315c-2.893,0-5.238,2.344-5.238,5.236
			c0,2.895,2.345,5.239,5.238,5.239c2.893,0,5.237-2.345,5.237-5.239C34.177,24.659,31.832,22.315,28.939,22.315z"/>
	</g>
	<g opacity="0.1069">
		<path fill="#605E5F" d="M23.306,14.985l-3.831-2.361h-8.326v2.361v0.297v14.348h12.494c-0.213-0.6-0.33-1.246-0.33-1.919
			c0-3.175,2.583-5.757,5.758-5.757c3.174,0,5.757,2.582,5.757,5.757c0,0.673-0.117,1.319-0.33,1.919h0.389V14.985H23.306z"/>
		<path fill="#605E5F" d="M32.603,27.948h-3.77v-3.672h0.474v3.198h3.296V27.948z M29.07,22.485c-2.887,0-5.227,2.34-5.227,5.226
			c0,2.887,2.34,5.228,5.227,5.228c2.886,0,5.226-2.341,5.226-5.228C34.296,24.825,31.956,22.485,29.07,22.485z"/>
	</g>
	<g opacity="0.104">
		<path fill="#5F5D5E" d="M23.45,15.172l-3.823-2.356h-8.308v2.356v0.296v14.315h12.466c-0.212-0.599-0.329-1.243-0.329-1.915
			c0-3.167,2.577-5.744,5.745-5.744s5.745,2.577,5.745,5.744c0,0.672-0.117,1.316-0.33,1.915h0.388V15.172H23.45z"/>
		<path fill="#5F5D5E" d="M32.726,28.106h-3.761v-3.663h0.472v3.19h3.289V28.106z M29.201,22.656c-2.88,0-5.214,2.334-5.214,5.213
			c0,2.88,2.334,5.216,5.214,5.216c2.879,0,5.213-2.336,5.213-5.216C34.414,24.99,32.08,22.656,29.201,22.656z"/>
	</g>
	<g opacity="0.101">
		<path fill="#5E5C5D" d="M23.593,15.36l-3.814-2.351h-8.289v2.351v0.296v14.282h12.438c-0.212-0.597-0.329-1.24-0.329-1.91
			c0-3.16,2.571-5.73,5.732-5.73c3.16,0,5.731,2.57,5.731,5.73c0,0.67-0.117,1.313-0.329,1.91h0.388V15.36H23.593z"/>
		<path fill="#5E5C5D" d="M32.848,28.264h-3.752v-3.655h0.471v3.184h3.282V28.264z M29.332,22.826c-2.873,0-5.202,2.329-5.202,5.202
			s2.329,5.203,5.202,5.203c2.873,0,5.202-2.33,5.202-5.203S32.204,22.826,29.332,22.826z"/>
	</g>
	<g opacity="0.098">
		<path fill="#5E5C5C" d="M23.737,15.547l-3.806-2.345h-8.269v2.345v0.295v14.25h12.409c-0.211-0.596-0.328-1.237-0.328-1.906
			c0-3.152,2.565-5.718,5.718-5.718c3.153,0,5.718,2.565,5.718,5.718c0,0.669-0.117,1.311-0.329,1.906h0.387V15.547H23.737z"/>
		<path fill="#5E5C5C" d="M32.971,28.421h-3.744v-3.646h0.47v3.176h3.274V28.421z M29.462,22.997c-2.866,0-5.19,2.323-5.19,5.189
			c0,2.867,2.324,5.191,5.19,5.191s5.19-2.324,5.19-5.191C34.652,25.32,32.328,22.997,29.462,22.997z"/>
	</g>
	<g opacity="0.095">
		<path fill="#5D5B5B" d="M23.881,15.735l-3.797-2.34h-8.25v2.34v0.293v14.218h12.381c-0.211-0.594-0.327-1.234-0.327-1.902
			c0-3.145,2.559-5.704,5.705-5.704c3.146,0,5.705,2.56,5.705,5.704c0,0.668-0.116,1.309-0.328,1.902h0.385V15.735H23.881z"/>
		<path fill="#5D5B5B" d="M33.093,28.58h-3.735v-3.638h0.468v3.169h3.267V28.58z M29.593,23.167c-2.86,0-5.179,2.317-5.179,5.177
			c0,2.861,2.318,5.181,5.179,5.181c2.86,0,5.178-2.319,5.178-5.181C34.771,25.485,32.453,23.167,29.593,23.167z"/>
	</g>
	<g opacity="0.0921">
		<path fill="#5C5A5A" d="M24.025,15.923l-3.788-2.335h-8.231v2.335v0.292v14.185h12.352c-0.21-0.593-0.326-1.232-0.326-1.897
			c0-3.138,2.553-5.691,5.692-5.691c3.138,0,5.691,2.554,5.691,5.691c0,0.665-0.116,1.305-0.327,1.897h0.385V15.923H24.025z"/>
		<path fill="#5C5A5A" d="M33.216,28.738h-3.727v-3.629h0.468v3.161h3.259V28.738z M29.724,23.337c-2.854,0-5.167,2.312-5.167,5.166
			c0,2.854,2.313,5.168,5.167,5.168c2.853,0,5.166-2.313,5.166-5.168C34.89,25.65,32.576,23.337,29.724,23.337z"/>
	</g>
	<g opacity="0.0891">
		<path fill="#5B5959" d="M24.169,16.11l-3.779-2.329h-8.213v2.329v0.293v14.152h12.324c-0.21-0.592-0.326-1.229-0.326-1.893
			c0-3.132,2.547-5.679,5.679-5.679c3.131,0,5.679,2.547,5.679,5.679c0,0.664-0.116,1.301-0.326,1.893h0.384V16.11H24.169z"/>
		<path fill="#5B5959" d="M33.339,28.896h-3.718v-3.621h0.466v3.154h3.252V28.896z M29.854,23.508c-2.847,0-5.155,2.307-5.155,5.154
			c0,2.847,2.309,5.155,5.155,5.155c2.846,0,5.154-2.309,5.154-5.155C35.009,25.815,32.701,23.508,29.854,23.508z"/>
	</g>
	<g opacity="0.0861">
		<path fill="#5A5859" d="M24.312,16.298l-3.771-2.324h-8.193v2.324v0.292v14.119h12.295c-0.209-0.59-0.325-1.227-0.325-1.889
			c0-3.124,2.542-5.666,5.667-5.666c3.123,0,5.665,2.542,5.665,5.666c0,0.662-0.115,1.299-0.325,1.889h0.383V16.298H24.312z"/>
		<path fill="#5A5859" d="M33.462,29.054h-3.709v-3.612h0.465v3.146h3.245V29.054z M29.985,23.678c-2.841,0-5.143,2.303-5.143,5.143
			c0,2.841,2.302,5.144,5.143,5.144c2.84,0,5.142-2.303,5.142-5.144C35.127,25.981,32.825,23.678,29.985,23.678z"/>
	</g>
	<g opacity="0.0832">
		<path fill="#595758" d="M24.456,16.486l-3.761-2.318h-8.174v2.318v0.291v14.087h12.267c-0.209-0.589-0.324-1.224-0.324-1.885
			c0-3.116,2.536-5.651,5.653-5.651c3.116,0,5.653,2.535,5.653,5.651c0,0.661-0.116,1.296-0.325,1.885h0.382V16.486H24.456z"/>
		<path fill="#595758" d="M33.584,29.211h-3.701v-3.604h0.464v3.14h3.237V29.211z M30.116,23.849c-2.834,0-5.131,2.297-5.131,5.13
			c0,2.835,2.297,5.132,5.131,5.132c2.833,0,5.13-2.297,5.13-5.132C35.246,26.146,32.949,23.849,30.116,23.849z"/>
	</g>
	<g opacity="0.0802">
		<path fill="#585657" d="M24.6,16.673l-3.753-2.313h-8.156v2.313v0.291v14.054H24.93c-0.208-0.588-0.324-1.221-0.324-1.88
			c0-3.109,2.53-5.64,5.64-5.64c3.109,0,5.639,2.53,5.639,5.64c0,0.659-0.115,1.292-0.324,1.88h0.381V16.673H24.6z"/>
		<path fill="#585657" d="M33.707,29.37h-3.692v-3.596h0.463v3.133h3.229V29.37z M30.247,24.02c-2.827,0-5.119,2.291-5.119,5.118
			c0,2.828,2.292,5.12,5.119,5.12c2.827,0,5.118-2.292,5.118-5.12C35.365,26.311,33.073,24.02,30.247,24.02z"/>
	</g>
	<g opacity="0.0772">
		<path fill="#585556" d="M24.744,16.861L21,14.553h-8.137v2.308v0.29v14.021h12.21c-0.208-0.586-0.323-1.218-0.323-1.876
			c0-3.102,2.524-5.626,5.626-5.626s5.626,2.524,5.626,5.626c0,0.658-0.115,1.29-0.323,1.876h0.38V16.861H24.744z"/>
		<path fill="#585556" d="M33.83,29.528h-3.684v-3.587h0.463v3.125h3.221V29.528z M30.377,24.19c-2.82,0-5.107,2.286-5.107,5.106
			c0,2.821,2.287,5.108,5.107,5.108s5.107-2.287,5.107-5.108C35.484,26.476,33.197,24.19,30.377,24.19z"/>
	</g>
	<g opacity="0.0743">
		<path fill="#575555" d="M24.888,17.048l-3.736-2.302h-8.118v2.302v0.29v13.989h12.182c-0.208-0.584-0.322-1.215-0.322-1.871
			c0-3.095,2.518-5.613,5.613-5.613c3.095,0,5.613,2.519,5.613,5.613c0,0.656-0.114,1.287-0.322,1.871h0.379V17.048H24.888z"/>
		<path fill="#575555" d="M33.952,29.687h-3.675v-3.579h0.461v3.117h3.214V29.687z M30.508,24.361c-2.814,0-5.095,2.28-5.095,5.095
			s2.281,5.096,5.095,5.096s5.095-2.281,5.095-5.096S33.322,24.361,30.508,24.361z"/>
	</g>
	<g opacity="0.0713">
		<path fill="#565454" d="M25.032,17.236l-3.727-2.297h-8.099v2.297v0.288v13.957h12.153c-0.207-0.583-0.321-1.212-0.321-1.867
			c0-3.087,2.513-5.6,5.601-5.6s5.6,2.513,5.6,5.6c0,0.655-0.114,1.284-0.322,1.867h0.378V17.236H25.032z"/>
		<path fill="#565454" d="M34.075,29.845h-3.667v-3.571h0.459v3.11h3.207V29.845z M30.639,24.532c-2.808,0-5.083,2.275-5.083,5.082
			c0,2.809,2.275,5.084,5.083,5.084c2.807,0,5.083-2.275,5.083-5.084C35.722,26.807,33.446,24.532,30.639,24.532z"/>
	</g>
	<g opacity="0.0683">
		<path fill="#555353" d="M25.176,17.424l-3.719-2.292h-8.08v2.292v0.288v13.923h12.125c-0.207-0.582-0.321-1.209-0.321-1.862
			c0-3.081,2.506-5.587,5.588-5.587c3.08,0,5.587,2.506,5.587,5.587c0,0.653-0.114,1.28-0.321,1.862h0.378V17.424H25.176z"/>
		<path fill="#555353" d="M34.197,30.002H30.54V26.44h0.459v3.104h3.199V30.002z M30.77,24.702c-2.801,0-5.071,2.271-5.071,5.071
			s2.271,5.072,5.071,5.072c2.8,0,5.071-2.271,5.071-5.072S33.57,24.702,30.77,24.702z"/>
	</g>
	<g opacity="0.0653">
		<path fill="#545253" d="M25.32,17.611l-3.71-2.286h-8.061v2.286v0.287V31.79h12.096c-0.206-0.581-0.32-1.206-0.32-1.858
			c0-3.073,2.5-5.573,5.575-5.573c3.073,0,5.574,2.5,5.574,5.573c0,0.652-0.114,1.277-0.321,1.858h0.377V17.611H25.32z"/>
		<path fill="#545253" d="M34.32,30.161h-3.649v-3.554h0.458v3.096h3.192V30.161z M30.9,24.873c-2.795,0-5.06,2.265-5.06,5.059
			c0,2.795,2.265,5.061,5.06,5.061c2.793,0,5.059-2.266,5.059-5.061C35.959,27.137,33.694,24.873,30.9,24.873z"/>
	</g>
	<g opacity="0.0624">
		<path fill="#535152" d="M25.463,17.799l-3.7-2.281h-8.042v2.281v0.287v13.858h12.068c-0.206-0.579-0.319-1.204-0.319-1.854
			c0-3.065,2.494-5.56,5.561-5.56c3.066,0,5.561,2.494,5.561,5.56c0,0.65-0.113,1.275-0.319,1.854h0.376V17.799H25.463z"/>
		<path fill="#535152" d="M34.443,30.319h-3.641v-3.545h0.457v3.088h3.184V30.319z M31.031,25.043c-2.788,0-5.047,2.259-5.047,5.046
			c0,2.789,2.26,5.049,5.047,5.049s5.047-2.26,5.047-5.049C36.078,27.302,33.818,25.043,31.031,25.043z"/>
	</g>
	<g opacity="0.0594">
		<path fill="#525051" d="M25.607,17.987l-3.692-2.276h-8.022v2.276v0.285v13.826h12.039c-0.205-0.578-0.318-1.201-0.318-1.85
			c0-3.059,2.489-5.548,5.548-5.548c3.059,0,5.547,2.489,5.547,5.548c0,0.648-0.113,1.271-0.318,1.85h0.375V17.987H25.607z"/>
		<path fill="#525051" d="M34.565,30.477h-3.632V26.94h0.456v3.081h3.176V30.477z M31.162,25.213c-2.781,0-5.036,2.255-5.036,5.035
			c0,2.781,2.254,5.037,5.036,5.037c2.781,0,5.035-2.256,5.035-5.037C36.197,27.468,33.942,25.213,31.162,25.213z"/>
	</g>
	<g opacity="0.0564">
		<path fill="#525050" d="M25.751,18.174l-3.684-2.27h-8.004v2.27v0.285v13.793h12.011c-0.205-0.576-0.318-1.197-0.318-1.845
			c0-3.052,2.483-5.534,5.535-5.534s5.535,2.482,5.535,5.534c0,0.647-0.113,1.269-0.318,1.845h0.374V18.174H25.751z"/>
		<path fill="#525050" d="M34.688,30.635h-3.623v-3.529h0.454v3.074h3.169V30.635z M31.292,25.384c-2.774,0-5.024,2.249-5.024,5.023
			s2.25,5.024,5.024,5.024s5.024-2.25,5.024-5.024S34.066,25.384,31.292,25.384z"/>
	</g>
	<g opacity="0.0535">
		<path fill="#514F4F" d="M25.895,18.362l-3.674-2.265h-7.985v2.265v0.285v13.759h11.983c-0.204-0.574-0.317-1.194-0.317-1.84
			c0-3.044,2.477-5.521,5.522-5.521c3.044,0,5.521,2.478,5.521,5.521c0,0.646-0.112,1.266-0.317,1.84H37V18.362H25.895z"/>
		<path fill="#514F4F" d="M34.811,30.793h-3.615v-3.521h0.454v3.066h3.161V30.793z M31.423,25.555c-2.768,0-5.012,2.243-5.012,5.011
			c0,2.769,2.244,5.013,5.012,5.013c2.768,0,5.012-2.244,5.012-5.013C36.435,27.798,34.19,25.555,31.423,25.555z"/>
	</g>
	<g opacity="0.0505">
		<path fill="#504E4E" d="M26.039,18.549l-3.666-2.259h-7.966v2.259v0.284v13.728h11.954c-0.204-0.574-0.316-1.192-0.316-1.837
			c0-3.036,2.471-5.508,5.509-5.508c3.037,0,5.508,2.472,5.508,5.508c0,0.645-0.112,1.263-0.316,1.837h0.372V18.549H26.039z"/>
		<path fill="#504E4E" d="M34.934,30.952h-3.606v-3.513h0.452v3.06h3.154V30.952z M31.554,25.725c-2.762,0-5,2.238-5,4.999
			c0,2.763,2.238,5.001,5,5.001c2.761,0,5-2.238,5-5.001C36.553,27.963,34.315,25.725,31.554,25.725z"/>
	</g>
	<g opacity="0.0475">
		<path fill="#4F4D4E" d="M26.183,18.737l-3.657-2.254h-7.947v2.254v0.284v13.694h11.926c-0.203-0.571-0.315-1.188-0.315-1.831
			c0-3.03,2.465-5.495,5.496-5.495c3.03,0,5.495,2.465,5.495,5.495c0,0.643-0.112,1.26-0.315,1.831h0.372V18.737H26.183z"/>
		<path fill="#4F4D4E" d="M35.057,31.11h-3.599v-3.504h0.452v3.052h3.146V31.11z M31.685,25.896c-2.755,0-4.988,2.232-4.988,4.987
			c0,2.756,2.233,4.989,4.988,4.989c2.754,0,4.987-2.233,4.987-4.989C36.672,28.128,34.438,25.896,31.685,25.896z"/>
	</g>
	<g opacity="0.0446">
		<path fill="#4E4C4D" d="M26.327,18.925l-3.649-2.249H14.75v2.249v0.283V32.87h11.897c-0.203-0.571-0.314-1.187-0.314-1.828
			c0-3.022,2.459-5.481,5.482-5.481s5.482,2.459,5.482,5.481c0,0.642-0.111,1.257-0.314,1.828h0.371V18.925H26.327z"/>
		<path fill="#4E4C4D" d="M35.179,31.267H31.59v-3.495h0.45v3.045h3.139V31.267z M31.815,26.066c-2.748,0-4.976,2.228-4.976,4.976
			c0,2.749,2.228,4.978,4.976,4.978s4.976-2.229,4.976-4.978C36.791,28.293,34.563,26.066,31.815,26.066z"/>
	</g>
	<g opacity="0.0416">
		<path fill="#4D4B4C" d="M26.47,19.112l-3.64-2.243h-7.909v2.243v0.282v13.63H26.79c-0.202-0.569-0.313-1.184-0.313-1.823
			c0-3.016,2.453-5.469,5.469-5.469c3.015,0,5.469,2.453,5.469,5.469c0,0.64-0.111,1.254-0.313,1.823h0.37V19.112H26.47z"/>
		<path fill="#4D4B4C" d="M35.302,31.425h-3.581v-3.486h0.449v3.037h3.132V31.425z M31.946,26.237c-2.742,0-4.964,2.223-4.964,4.964
			c0,2.742,2.223,4.965,4.964,4.965s4.964-2.223,4.964-4.965C36.91,28.459,34.688,26.237,31.946,26.237z"/>
	</g>
	<g opacity="0.0386">
		<path fill="#4C4B4B" d="M26.614,19.3l-3.631-2.238h-7.89V19.3v0.281v13.597h11.84c-0.201-0.567-0.312-1.18-0.312-1.818
			c0-3.008,2.447-5.455,5.457-5.455c3.008,0,5.456,2.447,5.456,5.455c0,0.639-0.112,1.251-0.313,1.818h0.369V19.3H26.614z"/>
		<path fill="#4C4B4B" d="M35.424,31.583h-3.572v-3.479H32.3v3.03h3.124V31.583z M32.077,26.408c-2.736,0-4.953,2.217-4.953,4.951
			c0,2.736,2.217,4.954,4.953,4.954c2.735,0,4.952-2.218,4.952-4.954C37.028,28.625,34.812,26.408,32.077,26.408z"/>
	</g>
	<g opacity="0.0356">
		<path fill="#4B4A4B" d="M26.758,19.487l-3.622-2.232h-7.871v2.232v0.281v13.564h11.812c-0.201-0.567-0.312-1.178-0.312-1.814
			c0-3.001,2.442-5.443,5.443-5.443c3.001,0,5.443,2.442,5.443,5.443c0,0.637-0.111,1.247-0.313,1.814h0.368V19.487H26.758z"/>
		<path fill="#4B4A4B" d="M35.547,31.742h-3.563v-3.471h0.447v3.023h3.116V31.742z M32.207,26.578c-2.729,0-4.94,2.212-4.94,4.94
			s2.212,4.941,4.94,4.941s4.94-2.213,4.94-4.941S34.936,26.578,32.207,26.578z"/>
	</g>
	<g opacity="0.0327">
		<path fill="#4A494A" d="M26.901,19.675l-3.613-2.228h-7.853v2.228v0.28v13.531h11.783c-0.2-0.564-0.311-1.175-0.311-1.81
			c0-2.993,2.436-5.43,5.43-5.43c2.994,0,5.43,2.437,5.43,5.43c0,0.635-0.111,1.245-0.312,1.81h0.367V19.675H26.901z"/>
		<path fill="#4A494A" d="M35.67,31.9h-3.555v-3.462h0.446v3.016h3.109V31.9z M32.338,26.749c-2.722,0-4.929,2.206-4.929,4.928
			c0,2.723,2.207,4.93,4.929,4.93c2.722,0,4.928-2.207,4.928-4.93C37.266,28.955,35.06,26.749,32.338,26.749z"/>
	</g>
	<g opacity="0.0297">
		<path fill="#494849" d="M27.045,19.862l-3.605-2.221h-7.833v2.221v0.279V33.64h11.755c-0.2-0.563-0.311-1.172-0.311-1.805
			c0-2.987,2.43-5.417,5.417-5.417c2.986,0,5.417,2.43,5.417,5.417c0,0.633-0.11,1.241-0.311,1.805h0.366V19.862H27.045z"/>
		<path fill="#494849" d="M35.792,32.058h-3.546v-3.453h0.445v3.008h3.101V32.058z M32.469,26.919c-2.716,0-4.917,2.2-4.917,4.916
			s2.201,4.917,4.917,4.917c2.715,0,4.916-2.201,4.916-4.917S35.184,26.919,32.469,26.919z"/>
	</g>
	<g opacity="0.0267">
		<path fill="#484748" d="M27.189,20.05l-3.596-2.216h-7.814v2.216v0.279v13.465h11.727c-0.2-0.562-0.31-1.169-0.31-1.801
			c0-2.979,2.424-5.403,5.404-5.403c2.979,0,5.403,2.424,5.403,5.403c0,0.632-0.11,1.239-0.31,1.801h0.365V20.05H27.189z"/>
		<path fill="#484748" d="M35.915,32.216h-3.538v-3.445h0.443v3.001h3.094V32.216z M32.6,27.09c-2.709,0-4.905,2.195-4.905,4.903
			c0,2.71,2.196,4.905,4.905,4.905c2.708,0,4.904-2.195,4.904-4.905C37.503,29.286,35.308,27.09,32.6,27.09z"/>
	</g>
	<g opacity="0.0238">
		<path fill="#474747" d="M27.333,20.238l-3.587-2.211H15.95v2.211v0.278v13.433h11.698c-0.199-0.561-0.31-1.166-0.31-1.796
			c0-2.973,2.418-5.391,5.391-5.391c2.972,0,5.391,2.418,5.391,5.391c0,0.63-0.11,1.235-0.31,1.796h0.364V20.238H27.333z"/>
		<path fill="#474747" d="M36.038,32.375h-3.529v-3.438h0.443v2.994h3.086V32.375z M32.73,27.26c-2.702,0-4.893,2.19-4.893,4.893
			s2.191,4.894,4.893,4.894s4.893-2.191,4.893-4.894S35.432,27.26,32.73,27.26z"/>
	</g>
	<g opacity="0.0208">
		<path fill="#474647" d="M27.477,20.426l-3.579-2.206h-7.777v2.206v0.277v13.4h11.67c-0.199-0.56-0.309-1.163-0.309-1.792
			c0-2.965,2.413-5.377,5.378-5.377c2.964,0,5.377,2.412,5.377,5.377c0,0.629-0.11,1.232-0.309,1.792h0.364V20.426H27.477z"/>
		<path fill="#474647" d="M36.161,32.533H32.64v-3.429h0.441v2.986h3.08V32.533z M32.861,27.43c-2.696,0-4.881,2.186-4.881,4.881
			c0,2.696,2.186,4.882,4.881,4.882c2.695,0,4.88-2.186,4.88-4.882C37.741,29.616,35.556,27.43,32.861,27.43z"/>
	</g>
	<g opacity="0.0178">
		<path fill="#464546" d="M27.621,20.613l-3.57-2.2h-7.758v2.2v0.277v13.368h11.641c-0.198-0.558-0.308-1.16-0.308-1.788
			c0-2.957,2.406-5.363,5.365-5.363c2.957,0,5.364,2.406,5.364,5.363c0,0.628-0.11,1.23-0.308,1.788h0.362V20.613H27.621z"/>
		<path fill="#464546" d="M36.283,32.691h-3.512V29.27h0.441v2.979h3.071V32.691z M32.992,27.601c-2.689,0-4.869,2.18-4.869,4.868
			c0,2.69,2.18,4.87,4.869,4.87c2.689,0,4.869-2.18,4.869-4.87C37.86,29.781,35.681,27.601,32.992,27.601z"/>
	</g>
	<g opacity="0.0149">
		<path fill="#454445" d="M27.765,20.801l-3.562-2.195h-7.739v2.195v0.276v13.335h11.613c-0.198-0.557-0.307-1.157-0.307-1.783
			c0-2.95,2.401-5.351,5.352-5.351s5.352,2.4,5.352,5.351c0,0.626-0.109,1.227-0.308,1.783h0.362V20.801H27.765z"/>
		<path fill="#454445" d="M36.406,32.849h-3.503v-3.412h0.439v2.972h3.064V32.849z M33.122,27.772c-2.682,0-4.857,2.174-4.857,4.856
			s2.175,4.858,4.857,4.858s4.857-2.176,4.857-4.858S35.804,27.772,33.122,27.772z"/>
	</g>
	<g opacity="0.0119">
		<path fill="#444344" d="M27.908,20.988l-3.552-2.189h-7.72v2.189v0.275v13.303h11.584c-0.197-0.556-0.306-1.155-0.306-1.779
			c0-2.942,2.395-5.338,5.338-5.338c2.943,0,5.338,2.396,5.338,5.338c0,0.624-0.109,1.224-0.307,1.779h0.361V20.988H27.908z"/>
		<path fill="#444344" d="M36.528,33.006h-3.495v-3.403h0.438v2.965h3.057V33.006z M33.253,27.942c-2.676,0-4.845,2.169-4.845,4.845
			c0,2.677,2.169,4.847,4.845,4.847c2.676,0,4.845-2.17,4.845-4.847C38.098,30.111,35.929,27.942,33.253,27.942z"/>
	</g>
	<g opacity="0.0089">
		<path fill="#434344" d="M28.052,21.176l-3.543-2.184h-7.701v2.184v0.274v13.27h11.556c-0.197-0.554-0.305-1.152-0.305-1.774
			c0-2.937,2.388-5.324,5.325-5.324c2.936,0,5.325,2.388,5.325,5.324c0,0.622-0.108,1.221-0.306,1.774h0.36V21.176H28.052z"/>
		<path fill="#434344" d="M36.651,33.165h-3.487V29.77h0.438v2.957h3.049V33.165z M33.384,28.113c-2.67,0-4.833,2.163-4.833,4.833
			s2.164,4.834,4.833,4.834c2.669,0,4.833-2.164,4.833-4.834S36.053,28.113,33.384,28.113z"/>
	</g>
	<g opacity="0.0059">
		<path fill="#424243" d="M28.196,21.364l-3.535-2.179h-7.682v2.179v0.273v13.237h11.528c-0.196-0.553-0.305-1.149-0.305-1.771
			c0-2.929,2.383-5.312,5.312-5.312c2.928,0,5.312,2.383,5.312,5.312c0,0.621-0.109,1.218-0.306,1.771h0.359V21.364H28.196z"/>
		<path fill="#424243" d="M36.773,33.323h-3.477v-3.387h0.436v2.95h3.041V33.323z M33.515,28.284c-2.664,0-4.822,2.158-4.822,4.82
			c0,2.663,2.158,4.822,4.822,4.822c2.663,0,4.821-2.159,4.821-4.822C38.335,30.442,36.177,28.284,33.515,28.284z"/>
	</g>
	<g opacity="0.003">
		<path fill="#414142" d="M28.34,21.551l-3.526-2.173h-7.663v2.173v0.273v13.204H28.65c-0.196-0.551-0.304-1.146-0.304-1.767
			c0-2.921,2.377-5.298,5.299-5.298c2.921,0,5.299,2.377,5.299,5.298c0,0.62-0.108,1.216-0.304,1.767h0.358V21.551H28.34z"/>
		<path fill="#414142" d="M36.896,33.481h-3.469v-3.379h0.436v2.943h3.034V33.481z M33.645,28.455c-2.656,0-4.81,2.152-4.81,4.808
			c0,2.657,2.153,4.812,4.81,4.812c2.656,0,4.81-2.154,4.81-4.812C38.455,30.607,36.301,28.455,33.645,28.455z"/>
	</g>
	<g opacity="0">
		<path fill="#404042" d="M28.484,21.739l-3.518-2.168h-7.644v2.168v0.272v13.172h11.471c-0.195-0.55-0.303-1.144-0.303-1.762
			c0-2.914,2.371-5.285,5.286-5.285c2.914,0,5.286,2.371,5.286,5.285c0,0.618-0.108,1.212-0.304,1.762h0.357V21.739H28.484z"/>
		<path fill="#404042" d="M37.019,33.639h-3.46v-3.37h0.434v2.936h3.026V33.639z M33.776,28.625c-2.65,0-4.798,2.147-4.798,4.797
			c0,2.65,2.148,4.799,4.798,4.799c2.649,0,4.797-2.148,4.797-4.799C38.573,30.772,36.425,28.625,33.776,28.625z"/>
	</g>
</g>
<g>
	<path fill="#404042" d="M13.957,2.791L9.558,0.08H0v2.711v0.34v16.472h14.343c-0.244-0.689-0.379-1.431-0.379-2.203
		c0-3.645,2.965-6.609,6.609-6.609c3.644,0,6.609,2.965,6.609,6.609c0,0.772-0.134,1.514-0.379,2.203h0.447V2.791H13.957z"/>
	<path fill="#404042" d="M20.573,11.4c-3.313,0-5.999,2.686-5.999,5.999s2.686,6,5.999,6s5.999-2.687,5.999-6
		S23.886,11.4,20.573,11.4z M24.629,17.67h-4.327v-4.214h0.542v3.671h3.785V17.67z"/>
</g>
</svg>
