<svg xmlns="http://www.w3.org/2000/svg" viewBox="0 0 3198.29 1077.34"><defs><style>.cls-1{fill:#f3f3f3;}</style></defs><g id="Capa_2" data-name="Capa 2"><g id="LogoCompleto"><g id="Logo_completoOriginal" data-name="Logo completoOriginal"><path class="cls-1" d="M478.59,253.25H303.78V705.34H168.37V253.25H0V135.75H478.6Z"/><path class="cls-1" d="M966.8,257.55H683.5V360H906.32V481.8H683.5V582.46H966.79V705.34H533.51V135.75H966.79Z"/><path class="cls-1" d="M1326.88,384.36l275.48,321H1407.3L1233.74,483.41l-58.75,58V705.34H1039.58V135.75H1175V361.32l229.63-225.57h180Z"/><path class="cls-1" d="M2072.54,273.31S2059.1,128.77,1878,116.94c0,0-128.43-13.43-215.48,47.83,0,0-123.59,87-56.24,201,0,0,29,59.22,148,83.08a187.3,187.3,0,0,0,26.82,3.29c36,1.89,150.14,13.07,155,78.49a58.08,58.08,0,0,1-14.36,42.12c-20.68,23.95-72,65.09-155,15.84,0,0-40.3-25.61-43.8-58.12H1576s15,154,196.67,184c0,0,125.49,24.85,232.78-43.23,66.22-42,97.49-122.76,75.38-198-.31-1-.62-2.05-.94-3.08-12.8-41.24-53.33-67.82-92.82-85.29-34.46-15.25-85.7-30.46-154.76-32,0,0-122.51-3.23-90.27-74.16,0,0,19.36-45.62,100.75-49A99.77,99.77,0,0,1,1897.58,243c11.29,6.65,22.51,16.33,28.53,30.08Z"/><path class="cls-1" d="M2288.37,705.34h-135.2V135.75h135.2Z"/><g id="Icono_copia" data-name="Icono copia"><g id="Lineas2_copia_3" data-name="Lineas2 copia 3"><path class="cls-1" d="M2461.82,842.61l.11-.15.1-.15.26-.36a.2.2,0,0,1,0-.08l0-.07.09-.16a6.84,6.84,0,0,0,.42-.86h0l0-.09v0L2683,266.45h-.75L2672,253.7,2543.34,589.34l113.4-354.51L2645.57,221,2533.69,570.73l96.6-368.68-11.6-14.36-94.82,361.92,79.61-380.77-12.05-14.93-85.63,409.6,66.71-433-12.61-15.63L2489.77,570l47.45-483.27-13.3-16.48-49.29,502,22.56-535.13L2483.51,20.2l-.45-.4-34.47,817.74v0h0v.28c0,.12,0,.25,0,.37v.14l0,.25v0a2.85,2.85,0,0,0,0,.29v0s0,.06,0,.09,0,.2.06.3a.13.13,0,0,0,0,.06l0,.2,0,.05a.29.29,0,0,0,0,.09,3.37,3.37,0,0,0,.1.34.43.43,0,0,1,0,.05s0,.11.05.16v0l0,.09a3.45,3.45,0,0,0,.14.34v0l.06.16,0,0,0,.09.16.31h0l.09.19,0,0a.56.56,0,0,0,0,.08,2.68,2.68,0,0,0,.18.28l.15.25.05.06a2.23,2.23,0,0,0,.19.24l0,.06a1.83,1.83,0,0,0,.13.16l0,0,.05.06.19.2h0l.21.23,0,0,0,0,0,0,.2.17.26.23.08.06.22.16c.1.07.18.14.28.2l0,0,.05,0,.27.16a2.34,2.34,0,0,0,.27.15l0,0h0l.34.16.23.11.06,0c.14.06.29.1.43.15l.2.07h.09l.23.06a4.1,4.1,0,0,0,.48.1l.14,0h0l.19,0,.37,0h.63c.31,0,.62,0,.92-.07l.15,0,.09,0h.1a7.54,7.54,0,0,0,.82-.2l.09,0,.15-.05h0l.15,0,.57-.24.11,0,.11-.05,0,0,.17-.1.15-.08c.13-.07.25-.15.37-.23l.18-.12.13-.09.22-.17.13-.11.27-.22.1-.11,0,0,.16-.16.22-.23.1-.12.08-.1Z"/></g><g id="lineas1_copia_3" data-name="lineas1 copia 3"><path class="cls-1" d="M3181.72,444.51,2493.31,1.26l0,0,0,0h0L2493,1.1c-.13-.08-.25-.16-.39-.23l0,0,0,0-.14-.06-.09,0-.3-.14h0l-.05,0-.05,0-.29-.1-.33-.12h-.06l-.35-.09-.27-.07h-.07l-.38,0-.23,0h-.09l-.38,0h-1l-.3,0h-.05l-.26,0-.1,0-.24.06-.09,0-.27.06-.09,0-.21.07-.08,0-.31.1-.08,0-.26.12-.31.13-.05,0h0c-.11.05-.2.12-.3.17h0l-.23.13,0,0c-.13.08-.25.17-.37.26l0,0-.12.08,0,0-.07.06h0l-.1.09-.23.2-.06.05L2484,2h0l0,0a.46.46,0,0,0-.07.07l-.24.25,0,0-.15.17h0a.1.1,0,0,1,0,0l-.24.31-.16.21,0,0h0v0l-.2.31c-.05.08-.1.15-.15.24l0,0,0,0a2.64,2.64,0,0,0-.15.29c0,.08-.09.17-.13.26l0,.06,0,0a2,2,0,0,1-.1.26v0c0,.09-.08.17-.11.26l0,.07s0,0,0,.07l-.06.22v.08c0,.08,0,.16-.07.24v.07s0,0,0,.08l0,.19s0,.06,0,.1h0c0,.08,0,.15,0,.23v.07s0,.06,0,.1,0,.16,0,.24v0a2.28,2.28,0,0,0,0,.26v.16c0,.09,0,.19,0,.28a2.26,2.26,0,0,0,0,.26V8c0,.1,0,.2,0,.3l0,.25s0,0,0,.07v.07c0,.1,0,.2.07.31s0,.15.05.23,0,.05,0,.07l0,.07c0,.1.06.2.1.31a1.87,1.87,0,0,0,.07.22.25.25,0,0,0,0,.07l0,.08c0,.1.08.19.13.29a1.89,1.89,0,0,0,.09.21l0,.06a.54.54,0,0,0,.05.11l.14.25a.59.59,0,0,1,0,.08.75.75,0,0,1,.07.12l0,.06.09.13.15.22c.06.08.1.16.16.23l.12.16s0,.05.07.08l395.35,484.09-.14-1.35,16.09-2.6L2670.8,218.07l246.1,270.49,17.5-2.82L2686.51,213.28,2957.81,482l18.13-2.92-264.3-261.75,287.18,258.07,18.81-3-334.51-300.6c154,123,316.83,253.19,368.72,295.08l19.61-3.16c-10.2-8.35-33-26.71-85-68.35-48.56-38.91-116.16-93-200.91-160.7l-51.78-41.38,367.67,265.6,20.54-3.31a7.88,7.88,0,0,0-.87-.74L2717.51,163.22l444.06,285.91,21.31-3.43.23,0A7.85,7.85,0,0,0,3181.72,444.51Z"/></g><g id="Lineas3_copia_3" data-name="Lineas3 copia 3"><path class="cls-1" d="M3198.28,458.67h0c0-.1,0-.2,0-.29v-.08a3,3,0,0,0,0-.42v0c0-.07,0-.14,0-.22a.13.13,0,0,0,0-.06v-.08h0a.24.24,0,0,0,0-.08,3,3,0,0,0-.06-.32l0-.18v-.06s0-.06,0-.09-.07-.23-.1-.34,0-.19-.08-.28h0v0l0-.06c0-.11-.09-.22-.13-.34l-.12-.27,0-.05h0v0l-.16-.3a2.49,2.49,0,0,0-.15-.28l0-.06,0,0c-.05-.09-.11-.17-.16-.25l-.18-.27,0-.07,0,0-.15-.19,0,0-.18-.23-.07-.07-.05-.06-.06-.06-.12-.13,0,0-.18-.18-.07-.07-.28-.24-.19-.15a.27.27,0,0,0-.08-.07l-.07-.05,0,0-.17-.11-.21-.15-.08-.05-.08-.05-.2-.11h0l-.24-.13-.1,0-.06,0-.25-.11-.24-.11-.1,0-.06,0-.27-.09-.24-.08-.1,0-.07,0-.28-.07-.24-.05-.1,0H3192l-.29,0-.23,0h-1l-.25,0h-.32l-.18,0h-.09l-606.73,98.51-.69,1.24-5.71,15.27,319.71-51.91-326.57,70.25-6.35,17L2932.56,522,2554,626.5l-6.6,17.65,373-102.95L2538,669.29l-6.88,18.37,385.61-129.14-395.62,155.9-7.18,19.19,424.64-167.33-437.23,201-7.56,20.22,438-201.32-451.31,237-7.49,20-.62,1.4,721.85-379h0l0,0h0l0,0,.16-.09h0l.39-.21,0,0,0,0,.19-.14h0l.22-.16.07,0,0,0,.06-.05.22-.18,0,0,.23-.21.06-.06c.09-.08.16-.17.24-.25h0a1.8,1.8,0,0,0,.19-.2l.06-.07c.08-.09.15-.19.23-.29s.1-.12.14-.19l0,0,0-.07.2-.3.13-.21,0,0,0-.06c.06-.1.11-.2.16-.3l.12-.24,0-.05,0-.05c0-.09.07-.19.1-.28v0c0-.09.08-.18.11-.27s0-.08,0-.11a2.17,2.17,0,0,1,.07-.24l0-.06c0-.1.06-.19.08-.29l0-.12a2.07,2.07,0,0,1,0-.22v0c0-.12.05-.23.07-.34v0h0a.13.13,0,0,0,0-.06l0-.27,0-.35V459C3198.29,458.88,3198.28,458.78,3198.28,458.67Z"/></g></g><path class="cls-1" d="M228.76,940.38h-39v102.49h-17V940.38h-39V925.89h95Z"/><path class="cls-1" d="M319.72,1001.09v4.58h-70.6c.7,15.77,14,27.28,29.77,27.29a36.75,36.75,0,0,0,25.86-10.35l8.43,7.57a51,51,0,0,1-35.56,14.36,43.63,43.63,0,0,1-43.82-43.45c0-24.06,19.29-43.45,43-43.45C303.72,957.64,319.72,977,319.72,1001.09ZM249.2,997.8h55.71c0-16-10.42-28.8-27.85-28.8C261.79,969,249.2,981.85,249.2,997.8Z"/><path class="cls-1" d="M428.5,974.17l-12,6.9a30,30,0,1,0,.76,39.19l12,6.85a45.23,45.23,0,0,1-35.93,17.43c-24.76,0-44.94-19.38-44.94-43.45s20.18-43.45,44.94-43.45A45.09,45.09,0,0,1,428.5,974.17Z"/><path class="cls-1" d="M545.25,988.32v54.55H529.44V992.75c0-14.51-8.31-22.23-20.71-22.23a46.06,46.06,0,0,0-30.93,11.84v60.51H462V959.31H477.8v11.91a58.47,58.47,0,0,1,36.9-13.57C532.25,957.65,545.25,968,545.25,988.32Z"/><path class="cls-1" d="M669.24,1001.09c0,24.07-20.63,43.45-45.94,43.45s-45.93-19.38-45.93-43.45S598,957.64,623.3,957.64,669.24,977,669.24,1001.09Zm-76.36,0a30.32,30.32,0,1,0,30.32-30A30.2,30.2,0,0,0,592.88,1001.09Z"/><path class="cls-1" d="M719.79,1042.84H704v-117h15.8Z"/><path class="cls-1" d="M843.87,1001.09c0,24.07-20.63,43.45-45.94,43.45S752,1025.16,752,1001.09s20.63-43.45,45.94-43.45S843.87,977,843.87,1001.09Zm-76.37,0a30.33,30.33,0,1,0,30.33-30A30.2,30.2,0,0,0,767.5,1001.09Z"/><path class="cls-1" d="M945.91,970.62V959.31h15.81v76.23c0,28.93-18.93,41.87-43.83,41.8a76.51,76.51,0,0,1-40.56-12.08l4.86-10.24a61.32,61.32,0,0,0,32.67,10.22c18.18.07,31-9.53,31-29.71v-8.21a39.55,39.55,0,0,1-32.21,16.41c-23.37,0-39.85-18.84-39.85-43.12,0-23.81,16.48-43,39.85-43A46.64,46.64,0,0,1,945.91,970.62Zm-56.48,30c0,16.81,13.39,30.39,29.69,30.39a30.33,30.33,0,0,0,26.77-16.71V983a36,36,0,0,0-26.77-11.91A29.65,29.65,0,0,0,889.43,1000.61Z"/><path class="cls-1" d="M1028,927.06,1007.57,951H997l14.71-23.9ZM998,1042.87V962h14.71v80.88Z"/><path class="cls-1" d="M1123.39,988.88v54h-15.82v-10.5c-9.67,8.15-21.35,12.17-35,12.17-16.62,0-28.74-10.51-28.74-26.75,0-16.08,12.42-24.58,32.19-24.63h31.57v-2.87c0-14.14-9.48-20.32-23.13-20.3a51,51,0,0,0-28.93,9.48l-4.81-10.16a69.38,69.38,0,0,1,37.74-11.64C1108.29,957.59,1123.39,966.76,1123.39,988.88Zm-64,27.42c0,11.24,8.29,18.54,19.77,18.54,11.22,0,20.59-2.88,28.39-8.84V999.74h-25.84C1067.8,999.74,1059.41,1005.31,1059.41,1016.3Z"/><path class="cls-1" d="M1287.43,974.17l-12,6.9a30,30,0,1,0,.76,39.19l12,6.85a45.22,45.22,0,0,1-35.93,17.43c-24.76,0-44.93-19.38-44.93-43.45s20.17-43.45,44.93-43.45A45.12,45.12,0,0,1,1287.43,974.17Z"/><path class="cls-1" d="M1408.85,1001.09c0,24.07-20.63,43.45-45.94,43.45s-45.93-19.38-45.93-43.45,20.62-43.45,45.93-43.45S1408.85,977,1408.85,1001.09Zm-76.36,0a30.33,30.33,0,1,0,30.32-30A30.2,30.2,0,0,0,1332.49,1001.09Z"/><path class="cls-1" d="M1525.66,988.32v54.55h-15.81V992.75c0-14.51-8.31-22.23-20.71-22.23a46.06,46.06,0,0,0-30.93,11.84v60.51H1442.4V959.31h15.81v11.91a58.47,58.47,0,0,1,36.89-13.57C1512.66,957.65,1525.66,968,1525.66,988.32Z"/><path class="cls-1" d="M1632.48,936.58c0,4.28-4,7.68-8.89,7.68s-8.88-3.4-8.88-7.68,4-7.68,8.88-7.68S1632.48,932.3,1632.48,936.58Zm-.93,106.29h-15.81V959.31h15.81Z"/><path class="cls-1" d="M1745.24,971.76c11.78-10,23.68-14.11,36.88-14.11,17.24,0,30,10.31,30,30.67v54.55h-15.81V992.76c0-14.52-8.14-22.24-20.17-22.24a44.1,44.1,0,0,0-28.76,10.76,50.8,50.8,0,0,1,1.49,12.78v48.81h-15.81V992.75c0-14.52-8.14-22.23-20.18-22.23-9.89,0-17.62,3-27.26,10.91v61.44h-15.81V959.31h15.81v12.05c11.31-9.61,21.95-13.71,33.95-13.71C1731,957.65,1740.37,962.39,1745.24,971.76Z"/><path class="cls-1" d="M1935.2,1001.09c0,24.07-16.7,43.45-40.33,43.45A40.06,40.06,0,0,1,1865,1031.1v44.36h-15.81V959.31H1865v11.75a40.3,40.3,0,0,1,29.92-13.42C1918.5,957.64,1935.2,977,1935.2,1001.09Zm-70.26-17.39v34.71a30,30,0,1,0,0-34.71Z"/><path class="cls-1" d="M2043.14,988.88v54h-15.82v-10.5c-9.67,8.15-21.34,12.17-35,12.17-16.62,0-28.75-10.51-28.75-26.75,0-16.08,12.43-24.58,32.19-24.63h31.57v-2.87c0-14.14-9.48-20.32-23.13-20.3a50.9,50.9,0,0,0-28.92,9.48l-4.82-10.16a69.38,69.38,0,0,1,37.74-11.64C2028.05,957.59,2043.14,966.76,2043.14,988.88Zm-64,27.42c0,11.24,8.29,18.54,19.77,18.54,11.22,0,20.59-2.88,28.39-8.84V999.74h-25.84C1987.55,999.74,1979.16,1005.31,1979.16,1016.3Z"/><path class="cls-1" d="M2155.38,974.17l-12,6.9a30,30,0,1,0,.76,39.19l12,6.85a45.22,45.22,0,0,1-35.93,17.43c-24.76,0-44.93-19.38-44.93-43.45s20.17-43.45,44.93-43.45A45.12,45.12,0,0,1,2155.38,974.17Z"/><path class="cls-1" d="M2209.52,959.31H2235v12.15h-25.51V1013c0,11.83,8.08,18.69,18.07,18.69a24.59,24.59,0,0,0,11.79-3.2l2.35,10.89a43.69,43.69,0,0,1-19.82,5.19c-15.49.07-28.19-10.19-28.19-29V971.46h-14.29V959.31h14.29v-24h15.8Z"/><path class="cls-1" d="M2355.51,1001.09c0,24.07-20.63,43.45-45.94,43.45s-45.94-19.38-45.94-43.45,20.63-43.45,45.94-43.45S2355.51,977,2355.51,1001.09Zm-76.36,0a30.32,30.32,0,1,0,30.32-30A30.2,30.2,0,0,0,2279.15,1001.09Z"/><path class="cls-1" d="M2503.52,966.65l-5.37,9.75a58.23,58.23,0,0,0-28.51-8c-9.28,0-17.2,3.76-17.2,12.57,0,5.59,3.28,8.24,18.5,12.29,21.17,5.65,35.14,9,35.14,26.88,0,16.38-14.71,24.54-33.71,24.44-14.14,0-28.26-3.88-38.55-10.81l5.72-9.35c9.36,6.12,21.66,9.43,32.75,9.45,10.12,0,19.08-3.64,19.08-12.4,0-10.42-7.31-11.26-23.94-15.69-20-5.37-29.8-10.14-29.8-23.57,0-17.07,14.54-24.51,32.07-24.53C2481.94,957.63,2494.42,961,2503.52,966.65Z"/><path class="cls-1" d="M2627.06,1001.09c0,24.07-20.63,43.45-45.94,43.45s-45.94-19.38-45.94-43.45,20.63-43.45,45.94-43.45S2627.06,977,2627.06,1001.09Zm-76.37,0a30.33,30.33,0,1,0,30.33-30A30.2,30.2,0,0,0,2550.69,1001.09Z"/><path class="cls-1" d="M2736.74,974.17l-12,6.9a30,30,0,1,0,.75,39.19l12,6.85a45.22,45.22,0,0,1-35.93,17.43c-24.75,0-44.93-19.38-44.93-43.45s20.18-43.45,44.93-43.45A45.11,45.11,0,0,1,2736.74,974.17Z"/><path class="cls-1" d="M2789.19,936.58c0,4.28-4,7.68-8.89,7.68s-8.88-3.4-8.88-7.68,4-7.68,8.88-7.68S2789.19,932.3,2789.19,936.58Zm-.93,106.29h-15.81V959.31h15.81Z"/><path class="cls-1" d="M2901.23,988.88v54h-15.82v-10.5c-9.67,8.15-21.34,12.17-35,12.17-16.62,0-28.75-10.51-28.75-26.75,0-16.08,12.43-24.58,32.19-24.63h31.57v-2.87c0-14.14-9.48-20.32-23.13-20.3a50.9,50.9,0,0,0-28.92,9.48l-4.82-10.16a69.38,69.38,0,0,1,37.74-11.64C2886.14,957.59,2901.23,966.76,2901.23,988.88Zm-64,27.42c0,11.24,8.29,18.54,19.77,18.54,11.22,0,20.59-2.88,28.39-8.84V999.74h-25.84C2845.64,999.74,2837.25,1005.31,2837.25,1016.3Z"/><path class="cls-1" d="M2954.34,1042.84h-15.81v-117h15.81Z"/></g></g></g></svg>