<svg xmlns="http://www.w3.org/2000/svg" viewBox="0 0 1584.9 1787.29"><defs><style>.cls-1{fill:#1a374d;}</style></defs><g id="Capa_2" data-name="Capa 2"><g id="Icono"><g id="IconoAzulOscuro"><g id="Lineas2_copia_13" data-name="Lineas2 copia 13"><path class="cls-1" d="M28,1781.29l.24-.32.21-.31c.18-.25.37-.51.54-.78a1.19,1.19,0,0,1,.09-.15l.08-.16.2-.34a15.93,15.93,0,0,0,.88-1.81h0c0-.06.05-.13.07-.2l0,0L495.58,563.28l-1.59,0-21.72-26.92L200.33,1245.87,440.07,496.44l-23.61-29.25L179.94,1206.53l204.2-779.39-24.51-30.36-200.45,765.1L327.47,356.93,302,325.37,121,1191.26,262,275.82l-26.67-33L87.08,1205,187.4,183.39l-28.12-34.84L55.07,1209.8,102.76,78.53,73.84,42.7l-.94-.84L0,1770.56v.27c0,.14,0,.27,0,.4v0c0,.26,0,.53,0,.79,0,0,0,.08,0,.12s0,.11,0,.17,0,.35.05.52v.1c0,.2,0,.4.05.6v.11a1.38,1.38,0,0,1,0,.2c0,.21.09.42.13.63a.5.5,0,0,0,0,.12c0,.14,0,.28.08.42a.36.36,0,0,0,0,.11l0,.2c.06.24.14.47.21.7l0,.12.09.33,0,.09.06.19c.09.24.19.48.29.72l0,.07c0,.11.08.23.13.34l0,.07.09.18c.1.23.23.45.34.68h0l.2.41,0,.06.1.17c.12.2.25.39.38.59s.21.35.33.52l.11.14c.12.17.25.33.38.5l.09.12.27.35.08.09.1.11c.13.15.27.29.4.43h0c.15.16.29.33.44.48l.08.08.06,0,.05,0,.42.37c.18.16.35.32.54.47l.17.14.48.34c.19.14.38.29.58.42l.06,0,.1.06c.19.12.39.23.59.34s.36.22.55.32l.12.06,0,0c.24.12.49.22.73.33l.5.23.12,0c.3.12.6.22.91.32l.42.15h0l.07,0,.08,0,.49.11c.34.09.68.17,1,.23l.3,0h0l.42.05.78.09h.08l.61,0,.49,0h.13a15.86,15.86,0,0,0,2-.14l.31,0,.2,0,.2,0a14.7,14.7,0,0,0,1.74-.42l.18-.06.32-.11h0l.32-.11c.41-.15.81-.32,1.21-.51l.23-.1.24-.12.06,0,.36-.2.32-.18.79-.49.37-.25.28-.2c.16-.11.3-.23.45-.35l.29-.23.56-.47.22-.22.07-.08.34-.33c.16-.17.32-.33.47-.5s.14-.17.22-.25.1-.13.16-.19S27.91,1781.4,28,1781.29Z"/></g><g id="lineas1_copia_13" data-name="lineas1 copia 13"><path class="cls-1" d="M1549.88,939.7,94.56,2.66l-.07-.05-.06,0,0,0,0,0h0L94,2.32c-.28-.16-.55-.34-.83-.48l-.09-.05L93,1.74l-.3-.13-.17-.08-.64-.3-.08,0-.1,0-.11,0C91.4,1,91.2,1,91,.9S90.54.73,90.3.66l-.13,0c-.25-.07-.5-.12-.75-.18s-.37-.1-.57-.13l-.13,0c-.27-.05-.54-.08-.81-.12L87.43.09h-.19c-.27,0-.54,0-.81,0s-.32,0-.49,0h-.2L85,0l-.54,0h-.2c-.22,0-.43.06-.64.09h-.1L83,.24l-.2,0c-.17,0-.34.08-.51.12l-.19,0c-.19,0-.38.08-.57.14l-.21.05-.43.15-.17.06c-.21.07-.43.13-.65.22l-.17.06-.55.25c-.22.1-.44.18-.65.29l-.11.05-.06,0-.63.36,0,0c-.16.09-.33.17-.49.27l-.11.07c-.26.17-.51.35-.77.54l-.11.08-.27.18L76,3.32l-.14.12h0l-.22.19-.48.42-.12.1-.13.11h0l0,.05-.14.14c-.18.17-.34.35-.51.53l-.07.08-.34.35v0l0,0-.09.1c-.17.21-.33.43-.5.65s-.24.29-.35.45a.21.21,0,0,1,0,.06h0l0,0c-.15.21-.28.43-.42.65s-.22.34-.32.51l0,.1,0,.07c-.11.2-.21.41-.31.61s-.19.37-.27.56l-.06.12a.54.54,0,0,1-.05.11l-.21.56v0c-.07.19-.15.37-.21.56a.78.78,0,0,0,0,.14s0,.1,0,.15-.08.31-.12.46l0,.08a.3.3,0,0,1,0,.1c-.05.17-.1.33-.14.49l0,.15a1.16,1.16,0,0,0,0,.18c0,.13,0,.27-.07.4l0,.2v0c0,.16-.06.33-.08.5a.77.77,0,0,0,0,.15l0,.19,0,.51v.08c0,.18,0,.36,0,.54v.15a1.09,1.09,0,0,0,0,.18c0,.2,0,.4,0,.6s0,.37,0,.55a.76.76,0,0,0,0,.15.86.86,0,0,0,0,.16c0,.22,0,.43.07.64l.06.52,0,.15a.77.77,0,0,1,0,.15c0,.22.1.43.14.65s.07.33.11.5,0,.1,0,.14,0,.1,0,.15c.06.22.13.43.2.65s.1.32.15.47l.06.14a1.34,1.34,0,0,0,.07.18c.08.2.17.4.26.61s.11.3.18.44,0,.09.07.13.08.15.11.23l.3.54.09.17.14.25.07.12.18.28.33.47c.11.16.21.33.33.49s.18.21.26.32l.14.18L909.25,1048.75l-.3-2.87,34-5.48L469.79,461,990,1032.82l37-6-524-576,573.55,568,38.33-6.17L556.12,459.35l607.1,545.56,39.76-6.4L495.84,363c325.61,260.08,669.77,535.25,779.47,623.81l41.45-6.68c-21.57-17.67-69.83-56.47-179.68-144.49-102.67-82.27-245.57-196.57-424.73-339.74L602.88,408.47,1380.14,970l43.42-7a14.74,14.74,0,0,0-1.83-1.58L568.54,345.05l938.74,604.43,45-7.26.49-.06A15.67,15.67,0,0,0,1549.88,939.7Z"/></g><g id="Lineas3_copia_13" data-name="Lineas3 copia 13"><path class="cls-1" d="M1584.9,969.63v0c0-.21,0-.41,0-.62s0-.11,0-.17c0-.29-.05-.59-.08-.89v0c0-.16,0-.31,0-.47a.78.78,0,0,0,0-.14c0-.06,0-.11,0-.17h0c0-.06,0-.11,0-.17,0-.23-.09-.46-.13-.68s0-.26-.07-.38v0a.29.29,0,0,1,0-.09,1.05,1.05,0,0,1,0-.19c-.06-.24-.15-.48-.22-.72s-.11-.39-.17-.58v-.06s0-.09,0-.13c-.09-.25-.19-.48-.29-.72s-.15-.39-.24-.58a1,1,0,0,1,0-.1v0l0,0L1583,962c-.1-.19-.19-.39-.3-.58l-.08-.13,0-.06c-.11-.19-.23-.36-.35-.53s-.23-.38-.36-.57l-.11-.15-.07-.09c-.1-.14-.22-.26-.32-.39l0-.06-.39-.5-.14-.15-.1-.12-.13-.12c-.08-.1-.18-.18-.26-.27l0,0-.38-.39-.15-.15c-.19-.17-.4-.33-.6-.5s-.25-.23-.39-.33l-.17-.14-.15-.11-.12-.08c-.11-.09-.23-.16-.35-.24l-.44-.31-.18-.11-.15-.1c-.14-.09-.3-.16-.44-.24h0l-.51-.29-.19-.1-.15-.07-.51-.22-.52-.23-.2-.08-.13,0-.57-.19-.52-.17-.21-.06-.13,0-.6-.14-.51-.11-.22,0-.16,0-.61-.07c-.16,0-.33-.05-.5-.06l-.22,0H1570l-.58,0h-.7l-.3,0-.54,0h-.09c-.13,0-.26,0-.39,0h-.18l-.38.07-.19,0L284.06,1161.93l-1.47,2.61-12.08,32.29,675.88-109.74L256,1235.59l-13.43,35.89,780.58-167.91L222.77,1324.44l-14,37.29,788.61-217.62-808.5,270.78-14.53,38.84,815.17-273L153.24,1510.29l-15.18,40.58,897.69-353.75L111.45,1622l-16,42.75,925.87-425.61-954.07,501-15.84,42.33-1.31,3,1526-801.29.06,0,0,0,0,0h0l.07,0,.34-.21h0c.27-.15.55-.3.81-.47l.07,0,.11-.08c.13-.08.26-.19.39-.28l0,0c.16-.12.32-.22.47-.34l.15-.11.07-.05.12-.1c.16-.13.3-.27.45-.4l.06-.06c.17-.14.34-.28.5-.44l.13-.12c.18-.18.34-.36.51-.55h0c.13-.14.27-.28.4-.43l.12-.14c.17-.2.32-.41.48-.62s.21-.26.31-.4l0,0,.1-.14.41-.64c.09-.15.19-.29.28-.45l0-.08a.75.75,0,0,0,.07-.12c.12-.21.22-.42.32-.63s.19-.34.27-.52l0-.11s0-.07,0-.11.16-.38.23-.57l0-.06c.08-.19.16-.37.23-.57s0-.15.08-.23.09-.33.14-.5a.5.5,0,0,0,0-.13c.06-.21.13-.41.18-.62l.06-.24c0-.15.06-.31.09-.46s0-.08,0-.12c.05-.24.1-.47.14-.71,0,0,0,0,0-.06v0s0-.1,0-.14c0-.19,0-.38,0-.57s.06-.49.07-.74a.62.62,0,0,0,0-.13v-.09C1584.91,970.09,1584.89,969.86,1584.9,969.63Z"/></g></g></g></g></svg>