<!-- Generator: Adobe Illustrator 18.0.0, SVG Export Plug-In  -->
<svg version="1.1"
	 xmlns="http://www.w3.org/2000/svg" xmlns:xlink="http://www.w3.org/1999/xlink" xmlns:a="http://ns.adobe.com/AdobeSVGViewerExtensions/3.0/"
	 x="0px" y="0px" width="186.2px" height="68.2px" viewBox="0 0 186.2 68.2" enable-background="new 0 0 186.2 68.2"
	 xml:space="preserve">
<defs>
</defs>
<g>
	<polygon fill="#301B46" points="70.6,35.9 67.5,39.1 67.5,47.8 60,47.8 60,16.8 67.5,16.8 67.5,29.3 80.3,16.8 89.7,16.8 
		75.8,30.4 90.5,47.8 80,47.8 	"/>
	<rect x="121.3" y="16.8" fill="#301B46" width="7.5" height="31"/>
	<polygon fill="#301B46" points="31,16.8 0,16.8 0,23.5 11.8,23.5 11.8,47.8 19.3,47.8 19.3,23.5 24.4,23.5 31,16.8 	"/>
	<polygon fill="#301B46" points="40.6,41.2 40.6,35.7 46.6,35.7 53.2,29.1 53.2,29 40.6,29 40.6,23.5 49.9,23.5 56.6,16.8 
		56.6,16.8 33.2,16.8 33.2,47.8 50,47.8 56.6,41.3 56.6,41.2 	"/>
	<g>
		<polygon fill="#301B46" points="5,56 5,64.9 4.1,64.9 4.1,56 1.3,56 1.3,55.2 7.8,55.2 7.8,56 		"/>
		<path fill="#301B46" d="M10.4,61.6c0,0.4,0.1,0.8,0.2,1.2c0.1,0.3,0.3,0.6,0.5,0.9c0.2,0.2,0.5,0.4,0.7,0.5c0.3,0.1,0.6,0.2,1,0.2
			c0.8,0,1.5-0.3,2.2-0.8v0.9c-0.7,0.5-1.5,0.7-2.4,0.7c-0.5,0-0.9-0.1-1.3-0.2c-0.4-0.2-0.7-0.4-1-0.7C10,63.8,9.8,63.4,9.7,63
			c-0.1-0.5-0.2-1-0.2-1.6c0-0.5,0.1-1,0.2-1.4c0.2-0.4,0.4-0.8,0.7-1.2c0.3-0.3,0.6-0.6,1-0.8c0.4-0.2,0.8-0.3,1.3-0.3
			c0.4,0,0.8,0.1,1.2,0.2c0.3,0.2,0.6,0.4,0.9,0.7c0.2,0.3,0.4,0.6,0.5,1.1c0.1,0.4,0.2,0.9,0.2,1.4v0.4H10.4z M14.5,60.8
			c0-0.7-0.2-1.3-0.5-1.7c-0.3-0.4-0.8-0.6-1.4-0.6c-0.3,0-0.6,0.1-0.8,0.2c-0.3,0.1-0.5,0.3-0.7,0.5c-0.2,0.2-0.3,0.4-0.5,0.7
			c-0.1,0.3-0.2,0.6-0.3,1H14.5z"/>
		<path fill="#301B46" d="M23.8,64.6c-0.5,0.3-1.1,0.5-1.9,0.5c-0.5,0-0.9-0.1-1.3-0.3c-0.4-0.2-0.7-0.4-1-0.7
			c-0.3-0.3-0.5-0.7-0.6-1.1c-0.1-0.4-0.2-0.9-0.2-1.4c0-0.5,0.1-1,0.2-1.5c0.2-0.5,0.4-0.9,0.7-1.2c0.3-0.3,0.7-0.6,1.1-0.8
			c0.4-0.2,0.9-0.3,1.5-0.3c0.6,0,1.1,0.1,1.6,0.3V59c-0.5-0.3-1.1-0.5-1.6-0.5c-0.4,0-0.8,0.1-1.1,0.2c-0.3,0.2-0.6,0.4-0.8,0.6
			c-0.2,0.3-0.4,0.6-0.5,0.9c-0.1,0.4-0.2,0.7-0.2,1.1c0,0.4,0,0.7,0.1,1.1c0.1,0.3,0.2,0.6,0.4,0.9c0.2,0.3,0.5,0.5,0.8,0.6
			c0.3,0.2,0.7,0.2,1.1,0.2c0.7,0,1.2-0.2,1.8-0.6V64.6z"/>
		<path fill="#301B46" d="M32.3,64.9v-4.1c0-0.8-0.1-1.4-0.4-1.7c-0.3-0.4-0.7-0.6-1.3-0.6c-0.3,0-0.5,0.1-0.8,0.2
			c-0.3,0.1-0.5,0.3-0.7,0.5c-0.2,0.2-0.3,0.5-0.5,0.8c-0.1,0.3-0.2,0.7-0.2,1v3.9h-0.9V54.6h0.9v4.6h0c0.5-0.9,1.3-1.4,2.3-1.4
			c0.8,0,1.4,0.2,1.7,0.7c0.4,0.5,0.6,1.2,0.6,2.1v4.3H32.3z"/>
		<path fill="#301B46" d="M42.1,64.9v-4c0-1.6-0.6-2.4-1.7-2.4c-0.3,0-0.6,0.1-0.8,0.2c-0.3,0.1-0.5,0.3-0.7,0.5
			c-0.2,0.2-0.3,0.5-0.4,0.8c-0.1,0.3-0.2,0.6-0.2,0.9v4h-0.9v-7h0.9v1.2h0c0.5-0.9,1.3-1.4,2.3-1.4c0.8,0,1.3,0.2,1.7,0.7
			c0.4,0.5,0.6,1.2,0.6,2.1v4.2H42.1z"/>
		<path fill="#301B46" d="M50,65.1c-0.5,0-1-0.1-1.4-0.3c-0.4-0.2-0.8-0.4-1.1-0.7c-0.3-0.3-0.5-0.7-0.7-1.1
			c-0.2-0.4-0.2-0.9-0.2-1.5c0-0.6,0.1-1.1,0.2-1.6c0.2-0.5,0.4-0.8,0.7-1.2c0.3-0.3,0.7-0.6,1.1-0.7c0.4-0.2,0.9-0.3,1.4-0.3
			c0.5,0,1,0.1,1.4,0.2c0.4,0.2,0.7,0.4,1,0.7c0.3,0.3,0.5,0.7,0.6,1.1c0.1,0.4,0.2,1,0.2,1.5c0,0.5-0.1,1-0.2,1.5
			c-0.2,0.4-0.4,0.8-0.7,1.2c-0.3,0.3-0.6,0.6-1.1,0.7C51,65,50.5,65.1,50,65.1 M50,58.5c-0.4,0-0.7,0.1-1,0.2
			c-0.3,0.1-0.6,0.3-0.8,0.6c-0.2,0.3-0.4,0.6-0.5,0.9c-0.1,0.4-0.2,0.8-0.2,1.2c0,0.4,0.1,0.8,0.2,1.2c0.1,0.3,0.3,0.6,0.5,0.9
			c0.2,0.2,0.5,0.4,0.8,0.6c0.3,0.1,0.7,0.2,1,0.2c0.4,0,0.7-0.1,1-0.2c0.3-0.1,0.6-0.3,0.8-0.6c0.2-0.2,0.4-0.6,0.5-0.9
			c0.1-0.4,0.2-0.8,0.2-1.2c0-0.9-0.2-1.7-0.6-2.2C51.4,58.8,50.8,58.5,50,58.5"/>
		<rect x="57.2" y="54.6" fill="#301B46" width="0.9" height="10.3"/>
		<path fill="#301B46" d="M65.3,65.1c-0.5,0-1-0.1-1.4-0.3c-0.4-0.2-0.8-0.4-1.1-0.7c-0.3-0.3-0.5-0.7-0.7-1.1
			c-0.2-0.4-0.2-0.9-0.2-1.5c0-0.6,0.1-1.1,0.2-1.6c0.2-0.5,0.4-0.8,0.7-1.2c0.3-0.3,0.7-0.6,1.1-0.7c0.4-0.2,0.9-0.3,1.4-0.3
			c0.5,0,1,0.1,1.4,0.2c0.4,0.2,0.7,0.4,1,0.7c0.3,0.3,0.5,0.7,0.6,1.1c0.1,0.4,0.2,1,0.2,1.5c0,0.5-0.1,1-0.2,1.5
			c-0.2,0.4-0.4,0.8-0.7,1.2c-0.3,0.3-0.6,0.6-1.1,0.7C66.3,65,65.8,65.1,65.3,65.1 M65.3,58.5c-0.4,0-0.7,0.1-1,0.2
			c-0.3,0.1-0.6,0.3-0.8,0.6c-0.2,0.3-0.4,0.6-0.5,0.9c-0.1,0.4-0.2,0.8-0.2,1.2c0,0.4,0.1,0.8,0.2,1.2c0.1,0.3,0.3,0.6,0.5,0.9
			c0.2,0.2,0.5,0.4,0.8,0.6c0.3,0.1,0.7,0.2,1,0.2c0.4,0,0.7-0.1,1-0.2c0.3-0.1,0.6-0.3,0.8-0.6c0.2-0.2,0.4-0.6,0.5-0.9
			c0.1-0.4,0.2-0.8,0.2-1.2c0-0.9-0.2-1.7-0.6-2.2C66.7,58.8,66.1,58.5,65.3,58.5"/>
		<path fill="#301B46" d="M78.3,64.4c0,1.3-0.3,2.3-0.9,2.9c-0.6,0.6-1.5,0.9-2.7,0.9c-0.8,0-1.5-0.2-2.2-0.5v-0.9
			c0.8,0.4,1.5,0.6,2.2,0.6c1.8,0,2.7-1,2.7-2.9v-0.8h0c-0.5,0.9-1.4,1.4-2.5,1.4c-0.4,0-0.8-0.1-1.2-0.2c-0.4-0.2-0.7-0.4-0.9-0.7
			c-0.3-0.3-0.5-0.7-0.6-1.1c-0.1-0.4-0.2-0.9-0.2-1.5c0-0.6,0.1-1.1,0.2-1.6c0.1-0.5,0.4-0.9,0.6-1.2c0.3-0.3,0.6-0.6,1-0.8
			c0.4-0.2,0.8-0.3,1.3-0.3c1,0,1.7,0.4,2.2,1.2h0v-1h0.9V64.4z M77.4,60.7c0-0.3-0.1-0.6-0.2-0.8c-0.1-0.3-0.2-0.5-0.4-0.7
			c-0.2-0.2-0.4-0.4-0.7-0.5c-0.3-0.1-0.5-0.2-0.8-0.2c-0.4,0-0.7,0.1-1,0.2c-0.3,0.1-0.5,0.3-0.7,0.6c-0.2,0.3-0.4,0.6-0.5,0.9
			c-0.1,0.4-0.2,0.8-0.2,1.2c0,0.4,0.1,0.8,0.2,1.2c0.1,0.3,0.3,0.6,0.4,0.9c0.2,0.2,0.4,0.4,0.7,0.6c0.3,0.1,0.6,0.2,0.9,0.2
			c0.3,0,0.7-0.1,0.9-0.2c0.3-0.1,0.5-0.3,0.7-0.5c0.2-0.2,0.4-0.5,0.5-0.8c0.1-0.3,0.2-0.6,0.2-1V60.7z"/>
		<path fill="#301B46" d="M84.6,66.2c-0.3,0.7-0.6,1.2-0.9,1.5c-0.4,0.3-0.8,0.5-1.3,0.5c-0.2,0-0.5,0-0.6-0.1v-0.8
			c0.1,0,0.2,0.1,0.3,0.1c0.1,0,0.2,0,0.3,0c0.3,0,0.5-0.1,0.7-0.3c0.2-0.2,0.4-0.5,0.5-0.8l0.6-1.4L81.6,58h1l2,5.5
			c0,0.1,0.1,0.2,0.1,0.2c0,0.1,0,0.2,0.1,0.3h0c0-0.1,0-0.2,0.1-0.2c0-0.1,0-0.2,0.1-0.3L87,58h0.9L84.6,66.2z"/>
		<path fill="#301B46" d="M103.8,64.6c-0.8,0.4-1.6,0.5-2.6,0.5c-0.7,0-1.3-0.1-1.9-0.4c-0.6-0.2-1-0.6-1.4-1
			c-0.4-0.4-0.7-0.9-0.9-1.5c-0.2-0.6-0.3-1.2-0.3-1.9c0-0.7,0.1-1.4,0.3-2.1c0.2-0.6,0.6-1.2,1-1.7c0.4-0.5,0.9-0.8,1.5-1.1
			c0.6-0.3,1.3-0.4,2-0.4c0.8,0,1.6,0.1,2.2,0.4v1c-0.7-0.3-1.4-0.5-2.2-0.5c-0.6,0-1.2,0.1-1.7,0.3c-0.5,0.2-0.9,0.5-1.2,0.9
			c-0.3,0.4-0.6,0.8-0.8,1.4c-0.2,0.5-0.3,1.1-0.3,1.7c0,0.6,0.1,1.1,0.2,1.6c0.2,0.5,0.4,0.9,0.7,1.3c0.3,0.4,0.7,0.7,1.2,0.9
			c0.5,0.2,1,0.3,1.6,0.3c0.9,0,1.8-0.2,2.5-0.6V64.6z"/>
		<path fill="#301B46" d="M110.7,65.1c-0.5,0-1-0.1-1.4-0.3c-0.4-0.2-0.8-0.4-1.1-0.7c-0.3-0.3-0.5-0.7-0.7-1.1
			c-0.2-0.4-0.2-0.9-0.2-1.5c0-0.6,0.1-1.1,0.2-1.6c0.2-0.5,0.4-0.8,0.7-1.2c0.3-0.3,0.7-0.6,1.1-0.7c0.4-0.2,0.9-0.3,1.4-0.3
			c0.5,0,1,0.1,1.4,0.2c0.4,0.2,0.7,0.4,1,0.7c0.3,0.3,0.5,0.7,0.6,1.1c0.1,0.4,0.2,1,0.2,1.5c0,0.5-0.1,1-0.2,1.5
			c-0.2,0.4-0.4,0.8-0.7,1.2c-0.3,0.3-0.6,0.6-1.1,0.7C111.7,65,111.2,65.1,110.7,65.1 M110.8,58.5c-0.4,0-0.7,0.1-1,0.2
			c-0.3,0.1-0.6,0.3-0.8,0.6c-0.2,0.3-0.4,0.6-0.5,0.9c-0.1,0.4-0.2,0.8-0.2,1.2c0,0.4,0.1,0.8,0.2,1.2c0.1,0.3,0.3,0.6,0.5,0.9
			c0.2,0.2,0.5,0.4,0.8,0.6c0.3,0.1,0.7,0.2,1,0.2c0.4,0,0.7-0.1,1-0.2c0.3-0.1,0.6-0.3,0.8-0.6c0.2-0.2,0.4-0.6,0.5-0.9
			c0.1-0.4,0.2-0.8,0.2-1.2c0-0.9-0.2-1.7-0.6-2.2C112.2,58.8,111.6,58.5,110.8,58.5"/>
		<path fill="#301B46" d="M122.6,64.9v-4c0-1.6-0.6-2.4-1.7-2.4c-0.3,0-0.6,0.1-0.8,0.2c-0.3,0.1-0.5,0.3-0.7,0.5
			c-0.2,0.2-0.3,0.5-0.4,0.8c-0.1,0.3-0.2,0.6-0.2,0.9v4h-0.9v-7h0.9v1.2h0c0.5-0.9,1.3-1.4,2.3-1.4c0.8,0,1.3,0.2,1.7,0.7
			c0.4,0.5,0.6,1.2,0.6,2.1v4.2H122.6z"/>
		<path fill="#301B46" d="M127.3,63.7c0.1,0.1,0.3,0.2,0.4,0.3c0.2,0.1,0.3,0.2,0.5,0.2c0.2,0.1,0.3,0.1,0.5,0.1c0.2,0,0.3,0,0.5,0
			c1,0,1.6-0.4,1.6-1.2c0-0.2,0-0.3-0.1-0.5c-0.1-0.1-0.2-0.2-0.3-0.4c-0.1-0.1-0.3-0.2-0.5-0.3c-0.2-0.1-0.4-0.2-0.6-0.3
			c-0.3-0.1-0.6-0.3-0.8-0.4c-0.2-0.1-0.4-0.3-0.6-0.4c-0.1-0.2-0.3-0.3-0.3-0.5c-0.1-0.2-0.1-0.4-0.1-0.7c0-0.3,0.1-0.6,0.2-0.8
			c0.1-0.2,0.3-0.4,0.5-0.6c0.2-0.2,0.5-0.3,0.8-0.4c0.3-0.1,0.6-0.1,0.9-0.1c0.6,0,1.1,0.1,1.6,0.3V59c-0.5-0.3-1.1-0.5-1.7-0.5
			c-0.2,0-0.4,0-0.6,0.1c-0.2,0.1-0.3,0.1-0.5,0.2c-0.1,0.1-0.2,0.2-0.3,0.4c-0.1,0.1-0.1,0.3-0.1,0.5c0,0.2,0,0.3,0.1,0.5
			c0.1,0.1,0.1,0.2,0.3,0.4c0.1,0.1,0.3,0.2,0.4,0.3c0.2,0.1,0.4,0.2,0.7,0.3c0.3,0.1,0.6,0.3,0.9,0.4c0.2,0.1,0.4,0.3,0.6,0.4
			c0.2,0.2,0.3,0.3,0.4,0.5c0.1,0.2,0.1,0.4,0.1,0.7c0,0.3-0.1,0.6-0.2,0.8c-0.1,0.2-0.3,0.5-0.5,0.6c-0.2,0.2-0.5,0.3-0.8,0.4
			c-0.3,0.1-0.6,0.1-1,0.1c-0.7,0-1.3-0.1-1.8-0.4V63.7z"/>
		<path fill="#301B46" d="M140,64.9v-1.2h0c-0.5,0.9-1.2,1.3-2.2,1.3c-1.7,0-2.5-1-2.5-3V58h0.9v3.9c0,0.8,0.1,1.5,0.4,1.9
			c0.3,0.4,0.8,0.6,1.4,0.6c0.3,0,0.6-0.1,0.8-0.2c0.2-0.1,0.5-0.3,0.6-0.5c0.2-0.2,0.3-0.5,0.4-0.8c0.1-0.3,0.2-0.6,0.2-1v-4h0.9v7
			H140z"/>
		<rect x="145.2" y="54.6" fill="#301B46" width="0.9" height="10.3"/>
		<path fill="#301B46" d="M153.4,64.8c-0.3,0.1-0.6,0.2-1,0.2c-1.1,0-1.7-0.6-1.7-1.9v-4.4h-1.2V58h1.2v-1.8l0.9-0.3v2h1.8v0.8h-1.8
			V63c0,0.5,0.1,0.8,0.2,1c0.2,0.2,0.4,0.3,0.8,0.3c0.3,0,0.5-0.1,0.8-0.2V64.8z"/>
		<path fill="#301B46" d="M161,64.9v-1.2h0c-0.2,0.4-0.5,0.8-0.9,1c-0.4,0.2-0.8,0.4-1.3,0.4c-0.3,0-0.6,0-0.9-0.1
			c-0.3-0.1-0.5-0.2-0.7-0.4c-0.2-0.2-0.3-0.4-0.4-0.6c-0.1-0.2-0.2-0.5-0.2-0.8c0-0.6,0.2-1.1,0.6-1.5c0.4-0.4,1-0.6,1.8-0.7
			l2.1-0.3c0-1.3-0.5-2-1.6-2c-0.8,0-1.6,0.3-2.3,0.9v-1c0.1-0.1,0.3-0.2,0.5-0.3c0.2-0.1,0.4-0.2,0.6-0.2c0.2-0.1,0.4-0.1,0.6-0.1
			c0.2,0,0.4-0.1,0.6-0.1c0.8,0,1.4,0.2,1.8,0.7c0.4,0.4,0.6,1.1,0.6,1.9v4.5H161z M159.2,61.5c-0.3,0-0.6,0.1-0.8,0.2
			c-0.2,0.1-0.4,0.2-0.6,0.3c-0.1,0.1-0.3,0.3-0.3,0.4c-0.1,0.2-0.1,0.4-0.1,0.6c0,0.2,0,0.4,0.1,0.5c0.1,0.2,0.2,0.3,0.3,0.4
			c0.1,0.1,0.3,0.2,0.5,0.3c0.2,0.1,0.4,0.1,0.6,0.1c0.3,0,0.6-0.1,0.9-0.2c0.3-0.1,0.5-0.3,0.7-0.5s0.3-0.5,0.4-0.7
			c0.1-0.3,0.2-0.6,0.2-0.9v-0.7L159.2,61.5z"/>
		<path fill="#301B46" d="M170.7,64.9v-4c0-1.6-0.6-2.4-1.7-2.4c-0.3,0-0.6,0.1-0.8,0.2c-0.3,0.1-0.5,0.3-0.7,0.5
			c-0.2,0.2-0.3,0.5-0.4,0.8c-0.1,0.3-0.2,0.6-0.2,0.9v4H166v-7h0.9v1.2h0c0.5-0.9,1.3-1.4,2.3-1.4c0.8,0,1.3,0.2,1.7,0.7
			c0.4,0.5,0.6,1.2,0.6,2.1v4.2H170.7z"/>
		<path fill="#301B46" d="M178.8,64.8c-0.3,0.1-0.6,0.2-1,0.2c-1.1,0-1.7-0.6-1.7-1.9v-4.4h-1.2V58h1.2v-1.8l0.9-0.3v2h1.8v0.8H177
			V63c0,0.5,0.1,0.8,0.2,1c0.2,0.2,0.4,0.3,0.8,0.3c0.3,0,0.5-0.1,0.8-0.2V64.8z"/>
		<path fill="#301B46" d="M181.9,63.7c0.1,0.1,0.3,0.2,0.4,0.3c0.2,0.1,0.3,0.2,0.5,0.2c0.2,0.1,0.3,0.1,0.5,0.1c0.2,0,0.3,0,0.5,0
			c1,0,1.6-0.4,1.6-1.2c0-0.2,0-0.3-0.1-0.5c-0.1-0.1-0.2-0.2-0.3-0.4c-0.1-0.1-0.3-0.2-0.5-0.3c-0.2-0.1-0.4-0.2-0.6-0.3
			c-0.3-0.1-0.6-0.3-0.8-0.4c-0.2-0.1-0.4-0.3-0.6-0.4c-0.1-0.2-0.3-0.3-0.3-0.5c-0.1-0.2-0.1-0.4-0.1-0.7c0-0.3,0.1-0.6,0.2-0.8
			c0.1-0.2,0.3-0.4,0.5-0.6c0.2-0.2,0.5-0.3,0.8-0.4c0.3-0.1,0.6-0.1,0.9-0.1c0.6,0,1.1,0.1,1.6,0.3V59c-0.5-0.3-1.1-0.5-1.7-0.5
			c-0.2,0-0.4,0-0.6,0.1c-0.2,0.1-0.3,0.1-0.5,0.2c-0.1,0.1-0.2,0.2-0.3,0.4c-0.1,0.1-0.1,0.3-0.1,0.5c0,0.2,0,0.3,0.1,0.5
			c0.1,0.1,0.1,0.2,0.3,0.4c0.1,0.1,0.3,0.2,0.4,0.3c0.2,0.1,0.4,0.2,0.7,0.3c0.3,0.1,0.6,0.3,0.9,0.4c0.2,0.1,0.4,0.3,0.6,0.4
			c0.2,0.2,0.3,0.3,0.4,0.5c0.1,0.2,0.1,0.4,0.1,0.7c0,0.3-0.1,0.6-0.2,0.8c-0.1,0.2-0.3,0.5-0.5,0.6c-0.2,0.2-0.5,0.3-0.8,0.4
			c-0.3,0.1-0.6,0.1-1,0.1c-0.7,0-1.3-0.1-1.8-0.4V63.7z"/>
	</g>
	<path fill="#301B46" d="M108.4,29.3c-1-0.2-2-0.4-2.8-0.5c-0.1,0-0.2,0-0.3,0c-1.5-0.2-4.4-0.3-5.7-1.5c0,0,0,0-0.1,0
		c0,0,0-0.1-0.1-0.1c0,0-0.1-0.1-0.1-0.1c0,0,0,0,0,0c-0.2-0.3-0.3-0.6-0.3-1c0-2.1,2.3-3.8,5-3.8c1.3,0,2.3,0.2,3,0.4
		c1.7,0.5,2.3,1.5,2.3,2h0.1l0,0c0,0,0,0,0,0h7.7c0-3.1-2.5-6.4-7.4-7.8c-1.6-0.5-3.6-0.8-5.8-0.8c-4.3,0-8.1,1.6-10.4,4
		c-1.7,1.7-2.6,3.7-2.6,6c0,5.9,6.2,7.5,9.9,8.2c0.8,0.2,2.5,0.3,4.2,0.7c2.5,0.6,5,1.6,5,4c0,1.9-2.7,3.7-5.6,3.7
		c-0.3,0-0.6,0-0.8,0l0,0c-0.1,0-0.1,0-0.2,0c-0.1,0-0.2,0-0.3,0c0,0,0,0-0.1,0c-0.3,0-0.5-0.1-0.7-0.2c0,0,0,0,0,0
		c-0.2-0.1-0.4-0.1-0.6-0.2c0,0,0,0,0,0c-2.8-1.1-3-3.7-3-3.8h-8.1c0,2.7,1.8,6.2,5.6,8.3c0,0,0.1,0.1,0.1,0.1
		c0.2,0.1,0.3,0.2,0.5,0.3c0.2,0.1,0.5,0.2,0.7,0.3c0,0,0.1,0,0.1,0c0.2,0.1,0.3,0.1,0.5,0.2c0.7,0.3,1.5,0.5,2.3,0.7c0,0,0,0,0,0
		c0.2,0.1,0.5,0.1,0.7,0.1c0,0,0.1,0,0.1,0c0.2,0,0.5,0.1,0.7,0.1c0,0,0.1,0,0.1,0c0.2,0,0.5,0.1,0.7,0.1c0.1,0,0.1,0,0.2,0
		c0.2,0,0.4,0,0.7,0c0.2,0,0.3,0,0.5,0c0.1,0,0.2,0,0.4,0c0,0,0,0,0,0l0,0c7.5,0,13.8-4.5,13.8-9.8
		C118.3,32.1,112.8,30.2,108.4,29.3z"/>
	<g>
		
			<rect x="151.6" y="27" transform="matrix(0.9952 9.835577e-002 -9.835577e-002 0.9952 3.494 -15.4272)" fill="#009A66" width="13.2" height="1.5"/>
		<circle fill="#301B46" cx="151.1" cy="27.3" r="2.7"/>
		
			<rect x="149.3" y="20.4" transform="matrix(0.5594 -0.8289 0.8289 0.5594 51.1419 138.5591)" fill="#301B46" width="13.2" height="1.5"/>
		
			<rect x="157.1" y="21" transform="matrix(-0.2489 -0.9685 0.9685 -0.2489 183.3166 185.763)" fill="#009A66" width="13.2" height="1.5"/>
		<circle fill="#301B46" cx="161" cy="14.4" r="2.7"/>
		<circle fill="#009A66" cx="165.7" cy="28.2" r="2.8"/>
		<g>
			<path fill="#301B46" d="M142.4,7.8c0.1,0,0.2-0.1,0.1-0.1c0,0,0,0-0.1,0c-0.1,0.1-0.2,0.2-0.3,0.2L142.4,7.8z"/>
			<path fill="#301B46" d="M135.5,27c-0.1-0.1-0.2,0-0.2,0.1l-0.2,0.6c0,0.1,0,0.2,0.1,0.3c0.1,0.1,0.2,0,0.2-0.1l0.2-0.6
				C135.6,27.2,135.6,27.1,135.5,27z"/>
			<path fill="#301B46" d="M150.2,4.5l1-0.1c0.2,0,0.3,0,0.2-0.1c0,0-0.2,0-0.3,0l-1,0.1c-0.2,0-0.2,0-0.2,0.1
				C149.9,4.6,150.1,4.6,150.2,4.5z"/>
			<path fill="#301B46" d="M166.1,7.6c0.1,0.1,0.1,0.1,0.2,0.2l0.7-0.1c0-0.1-0.1-0.2-0.1-0.3c0,0-0.1,0-0.1,0.1
				C166.5,7.5,166.3,7.6,166.1,7.6z"/>
			<path fill="#301B46" d="M164.1,4.4c0,0,0.1,0,0.2,0C164.2,4.4,164.2,4.4,164.1,4.4C164.1,4.4,164,4.4,164.1,4.4z"/>
			<path fill="#301B46" d="M147.3,4.9c0.2,0,0.2-0.1,0.2-0.1c0,0-0.1,0-0.2,0c-0.1,0.1-0.2,0.1-0.3,0.2L147.3,4.9z"/>
			<path fill="#301B46" d="M158.3,3.9c0,0,0.2,0,0.4,0l1.1,0c0.2,0,0.3,0,0.3,0c0,0-0.2,0-0.4,0l-1.1,0
				C158.4,3.8,158.3,3.8,158.3,3.9z"/>
			<path fill="#301B46" d="M144.8,7l0.8-0.2c0.2,0,0.2-0.1,0.2-0.1c-0.1,0-0.2,0-0.3,0l-0.8,0.2c-0.2,0-0.2,0.1-0.1,0.1
				C144.5,7.1,144.6,7.1,144.8,7z"/>
			<path fill="#301B46" d="M157,3.1c0,0,0.2,0,0.4,0l1.2,0c0.2,0,0.3,0,0.3,0c0,0-0.2,0-0.4,0l-1.2,0C157.1,3,157,3,157,3.1z"/>
			<path fill="#301B46" d="M134.4,28.9c0.2-0.1,0.3,0,0.6,0.1c0.1,0,0.1,0.1,0.1,0.1c0.1-0.2,0.3-0.4,0.5-0.6c-0.1,0-0.3,0-0.5-0.1
				c-0.2-0.1-0.4-0.3-0.5-0.5c-0.1-0.2-0.1-0.5,0-0.7l0.1-0.4c0.1-0.2,0.2-0.4,0.4-0.4c0.2-0.1,0.3,0,0.6,0.1
				c0.2,0.1,0.3,0.3,0.4,0.5c0.1,0.2,0.1,0.4,0,0.7l-0.1,0.4c0,0,0,0,0,0.1c0.4-0.4,0.8-0.9,1.3-1.4l-0.1,0l0.6-1.8l0.5,0.3L138,26
				c0.4-0.4,0.8-0.8,1.3-1.2c0-0.1,0-0.2,0.1-0.3l0.2-0.4c0.1-0.2,0.2-0.4,0.4-0.4c0.2-0.1,0.3,0,0.5,0.1c0,0,0,0,0,0
				c0.2-0.1,0.3-0.3,0.5-0.4c-0.1,0-0.2,0-0.2-0.1c-0.2-0.1-0.3-0.3-0.3-0.5c0-0.2,0-0.4,0.1-0.6l0.2-0.4c0.1-0.2,0.3-0.3,0.4-0.4
				c0.2-0.1,0.3,0,0.5,0.1c0.2,0.1,0.3,0.3,0.3,0.4c0,0.2,0,0.4-0.1,0.6l-0.1,0.1c0.4-0.3,0.9-0.7,1.3-1l1-1.6l0.4,0.3l-0.3,0.5
				c0.5-0.3,1-0.7,1.5-1c0-0.1,0.1-0.2,0.2-0.3l0.3-0.3c0.1-0.2,0.3-0.3,0.5-0.4c0.2-0.1,0.3,0,0.5,0.1c0,0,0.1,0.1,0.1,0.1
				c0.7-0.4,1.5-0.8,2.3-1.2l0.2-0.2l0.1,0.1c0.5-0.2,1.1-0.5,1.6-0.7l-0.3-0.2l-0.6,0.6l-0.3-0.2l0.6-0.6l-0.4-0.3l-0.1,0.1
				c-0.2,0.2-0.4,0.3-0.5,0.3c-0.2,0.1-0.3,0-0.5-0.1c-0.1-0.1-0.2-0.2-0.2-0.4c0-0.1,0.1-0.3,0.3-0.5l0.1-0.1l-0.4-0.3l-0.7,0.6
				l-0.4-0.2l0.8-0.6l-0.4-0.3L148,15c-0.2,0.2-0.4,0.3-0.6,0.3c-0.2,0-0.4,0-0.5-0.1c-0.1-0.1-0.2-0.2-0.2-0.4
				c0-0.1,0.2-0.3,0.4-0.5l0.2-0.2l-0.4-0.3l-0.9,0.6l-0.4-0.2l0.9-0.7l-0.4-0.3c0,0,0,0,0.1-0.1c0,0,0,0,0,0l-0.4,0.3
				c-0.2,0.2-0.4,0.2-0.6,0.3c-0.2,0-0.4,0-0.5-0.1c-0.1-0.1-0.2-0.2-0.2-0.3c0-0.1,0.2-0.3,0.4-0.4l0.4-0.2
				c0.2-0.1,0.4-0.2,0.7-0.3c0.2,0,0.4,0,0.5,0.1c0.1,0,0.1,0.1,0.1,0.2c0.1-0.1,0.2-0.3,0.4-0.5c-0.1-0.1-0.1-0.2-0.1-0.3
				c0.1-0.1,0.2-0.3,0.5-0.4l0.3-0.2c0.3-0.3,0.6-0.7,1-1.1l-0.2-0.1l0.5-0.2c0.3-0.2,0.5-0.5,0.8-0.7c-0.1,0.1-0.2,0.1-0.3,0.2
				l-0.5,0.2c-0.3,0.1-0.5,0.2-0.8,0.2c-0.2,0-0.4,0-0.5-0.1c-0.1-0.1-0.1-0.2-0.1-0.3c0.1-0.1,0.3-0.2,0.6-0.3l0.5-0.2
				c0.3-0.1,0.6-0.2,0.8-0.2c0.2,0,0.4,0,0.5,0.1c0.1,0.1,0.1,0.1,0.1,0.2c0.2-0.2,0.4-0.3,0.6-0.5c0-0.1,0-0.1,0-0.2
				c0.1-0.1,0.3-0.2,0.6-0.3c0.2-0.2,0.5-0.4,0.8-0.5l-2,0.5L149.8,8l2.5-0.7l0.1,0.1c0.4-0.2,0.8-0.5,1.2-0.7
				c-0.2,0-0.5,0.1-0.7,0.1c-0.3,0-0.4,0-0.5-0.1c-0.1-0.1-0.1-0.1,0.1-0.2c0.1-0.1,0.4-0.1,0.7-0.2l0.6-0.1
				c0.4-0.1,0.7-0.1,0.9-0.1c0.1,0,0.2,0,0.3,0c0.6-0.2,1.3-0.5,2-0.6l-1.4,0.2l-0.2-0.2l3-0.3l0.1,0.1c0.3,0,0.7-0.1,1.1-0.1
				L159.4,5l3.2-0.2l0.2,0.1l-2.2,0.2c0.3,0,0.7,0,1,0.1l0.2,0c0.4,0,0.8,0,1,0c0.3,0,0.5,0,0.5,0.1c0.1,0,0,0.1-0.2,0.1
				c-0.1,0-0.3,0.1-0.5,0.1c0.2,0,0.3,0.1,0.5,0.1l0.6-0.1l0.2,0.1l-0.5,0.1c0.1,0.1,0.2,0.1,0.4,0.2c0.1,0,0.1,0,0.2,0
				c0.3,0,0.4,0,0.5,0.1c0.1,0,0,0.1-0.2,0.1c0,0-0.1,0-0.1,0c0.1,0.1,0.2,0.1,0.3,0.2l0.4,0l0.2,0.1l-0.4,0.1
				c0.1,0.1,0.2,0.1,0.2,0.2c0.1,0,0.1,0,0.2,0c0.3,0,0.4,0,0.5,0.1c0.1,0,0,0.1-0.2,0.1c-0.1,0-0.1,0-0.2,0.1
				c0.1,0.1,0.1,0.1,0.2,0.2l0.6-0.1l0.2,0.1l-0.6,0.1c0.1,0.1,0.1,0.1,0.2,0.2c0.2,0,0.3,0,0.5,0c0.2,0,0.3,0,0.4,0
				c-0.3-0.5-0.6-0.9-1-1.4c-0.1,0-0.3,0-0.3-0.1c-0.1,0,0-0.1,0.1-0.1c-0.1-0.1-0.1-0.1-0.2-0.2l-0.4,0l-0.2-0.1l0.4,0
				c-0.1-0.1-0.1-0.1-0.2-0.2c-0.1,0-0.2,0-0.3,0c-0.3,0-0.5,0-0.5-0.1c-0.1,0,0-0.1,0.2-0.1c0.1,0,0.2,0,0.4,0
				c-0.1,0-0.1-0.1-0.2-0.1l-0.8,0l-0.2-0.1l0.8,0c-0.1-0.1-0.1-0.1-0.2-0.2c-0.2,0-0.5,0-0.6,0c-0.3,0-0.5,0-0.6-0.1
				c-0.1,0,0-0.1,0.2-0.1c0.2,0,0.4,0,0.6-0.1c-0.1,0-0.1-0.1-0.2-0.1l-1,0l-0.2-0.1l1,0c-0.1-0.1-0.2-0.1-0.2-0.2
				c-0.3,0-0.6,0-0.8,0c-0.3,0-0.5-0.1-0.6-0.1c-0.1,0,0-0.1,0.2-0.1c0.2,0,0.4,0,0.7,0c-0.1,0-0.2-0.1-0.3-0.1l-1,0l-0.2-0.1l0.9,0
				c-0.1-0.1-0.3-0.1-0.4-0.2c-0.2,0-0.4,0-0.5,0c-0.3,0-0.5-0.1-0.6-0.1c-0.1,0,0-0.1,0.2-0.1c0,0,0.1,0,0.1,0
				c-0.2-0.1-0.4-0.1-0.7-0.2l-0.1,0l0,0c-0.1,0-0.3-0.1-0.4-0.1c-0.6-0.1-1.2-0.2-1.8-0.2c-0.2,0-0.5,0-0.9,0l-0.8,0
				c-0.1,0-0.2,0-0.3,0c-0.7,0-1.3,0.1-2,0.2l0.2,0.1l-1,0c-0.3,0.1-0.7,0.1-1,0.2c0.1,0,0.2,0,0.3,0l0.7,0c0.4,0,0.8,0,1.1,0
				c0.3,0,0.5,0.1,0.6,0.1c0.1,0.1,0,0.1-0.2,0.1c-0.2,0-0.5,0.1-0.9,0.1l-0.7,0c-0.4,0-0.8,0-1.1,0c-0.3,0-0.5-0.1-0.6-0.1
				c0,0,0,0,0,0c-0.7,0.2-1.3,0.4-2,0.6l1.6-0.2l0.3,0.2L149,4.1c-0.4,0.2-0.8,0.3-1.2,0.5c0.2,0,0.4,0.1,0.5,0.1
				c0.1,0.1,0.1,0.1-0.1,0.2c-0.1,0.1-0.4,0.1-0.8,0.2l-0.6,0.1c-0.2,0-0.4,0.1-0.5,0.1c-0.4,0.2-0.7,0.4-1.1,0.6l0.3,0.2l-1.1,0.3
				c-0.6,0.3-1.1,0.7-1.6,1c0.1,0,0.2,0,0.3,0.1c0.1,0.1,0.2,0.2,0.1,0.3c-0.1,0.1-0.3,0.2-0.6,0.3l-0.5,0.2
				c-0.2,0.1-0.5,0.1-0.7,0.2c-0.5,0.4-0.9,0.7-1.1,0.9L140,9c-0.1,0.1-0.2,0.1-0.3,0.2l-0.5,0.2c-0.3,0.1-0.5,0.2-0.8,0.2
				c-0.2,0-0.4,0-0.6-0.1c-0.2-0.1-0.2-0.2-0.1-0.3c0.1-0.1,0.2-0.2,0.5-0.4l0.5-0.2c0.2-0.1,0.5-0.1,0.7-0.2L138.9,8l-2,0.8
				l-0.1-0.1c-0.1,0.3-0.2,0.6-0.3,0.9c0.1,0,0.1,0,0.2,0c0.2,0,0.4,0,0.6,0.1c0.2,0.1,0.2,0.2,0.2,0.3c-0.1,0.1-0.2,0.3-0.4,0.4
				l-0.4,0.2c-0.1,0.1-0.3,0.1-0.4,0.2c-0.1,0.3-0.2,0.7-0.3,1.1l0.3,0.2l-0.4,0.3c-0.1,0.3-0.1,0.6-0.2,0.9c0,0,0.1-0.1,0.1-0.1
				l0.4-0.3c0.2-0.1,0.4-0.2,0.7-0.3c0.2,0,0.4,0,0.6,0.1c0.2,0.1,0.2,0.2,0.2,0.4c0,0.1-0.1,0.3-0.3,0.5l-0.3,0.3
				c-0.2,0.2-0.4,0.3-0.6,0.3c-0.2,0-0.4,0-0.6-0.1c-0.1,0-0.1-0.1-0.2-0.2c0,0.2-0.1,0.4-0.1,0.7c0.1,0.1,0.1,0.2,0.1,0.3
				c0,0.2-0.1,0.3-0.3,0.5c-0.1,0.4-0.2,0.8-0.2,1.2l1.4-1.3l0.5,0.3l-1.3,1.4l-0.5-0.3c0,0.2-0.1,0.5-0.1,0.7l0.1,0.1l-0.2,0.3
				c-0.1,0.8-0.3,1.6-0.4,2.4c0.1,0,0.2,0.1,0.3,0.1c0.2,0.1,0.3,0.3,0.3,0.5c0,0.2,0,0.4-0.1,0.6l-0.2,0.4
				c-0.1,0.2-0.3,0.3-0.4,0.4c0,0-0.1,0-0.1,0c-0.1,1.2-0.2,2.5-0.2,3.7l0.3,0.2l-0.3,1c0,0.8,0.1,1.7,0.2,2.5
				C134.2,29.1,134.3,29,134.4,28.9z M147.4,17.5l0.3-0.3c0.2-0.2,0.4-0.3,0.5-0.3c0.2,0,0.3,0,0.5,0.1c0.1,0.1,0.2,0.2,0.2,0.4
				c0,0.2-0.1,0.3-0.3,0.5l-0.3,0.3c-0.2,0.2-0.3,0.3-0.5,0.4c-0.2,0.1-0.3,0-0.5-0.1c-0.1-0.1-0.2-0.2-0.2-0.4
				C147.1,17.9,147.2,17.7,147.4,17.5z M141.9,17.1c-0.2,0.2-0.3,0.3-0.5,0.3c-0.2,0-0.4,0-0.5-0.1c-0.2-0.1-0.2-0.2-0.2-0.4
				c0-0.2,0.1-0.3,0.3-0.5l0.3-0.3c0.2-0.2,0.4-0.3,0.6-0.3c0.2,0,0.4,0,0.5,0.1c0.2,0.1,0.2,0.2,0.2,0.4c0,0.2-0.1,0.3-0.3,0.5
				L141.9,17.1z M144.2,10.4l-0.4-0.2l2.1-0.9l0.3,0.2L144.2,10.4z M146.6,9.9c0.2,0,0.4,0,0.5,0.1c0.1,0.1,0.1,0.2,0.1,0.3
				c-0.1,0.1-0.2,0.2-0.5,0.4l-0.4,0.2c-0.3,0.1-0.5,0.2-0.7,0.2c-0.2,0-0.4,0-0.5-0.1c-0.1-0.1-0.2-0.2-0.1-0.3
				c0.1-0.1,0.2-0.2,0.5-0.4l0.5-0.2C146.1,10,146.4,9.9,146.6,9.9z M146.4,8.6c-0.2,0-0.4,0-0.6-0.1c-0.1-0.1-0.1-0.2,0-0.3
				c0.1-0.1,0.3-0.2,0.6-0.3l0.5-0.2c0.3-0.1,0.6-0.1,0.8-0.1c0.2,0,0.4,0,0.6,0.1c0.1,0.1,0.1,0.2,0,0.3c-0.1,0.1-0.3,0.2-0.6,0.3
				l-0.5,0.2C146.9,8.5,146.6,8.6,146.4,8.6z M148.3,7L148,6.8l2.6-0.6l0.3,0.2L148.3,7z M150.8,5.7c-0.1-0.1-0.1-0.1,0.1-0.2
				c0.1-0.1,0.4-0.1,0.8-0.2l0.6-0.1c0.4-0.1,0.7-0.1,1-0.1c0.3,0,0.5,0,0.6,0.1c0.1,0.1,0.1,0.1-0.1,0.2c-0.2,0.1-0.4,0.1-0.8,0.2
				l-0.6,0.1c-0.4,0.1-0.7,0.1-0.9,0.1C151.1,5.8,150.9,5.7,150.8,5.7z M154.1,4.7l-0.2-0.2l3.1-0.3l0.2,0.1L154.1,4.7z M156.4,4.1
				c-0.2,0-0.5,0.1-0.9,0.1l-0.7,0.1c-0.4,0-0.7,0-1,0c-0.3,0-0.5-0.1-0.6-0.1c-0.1-0.1-0.1-0.1,0.1-0.2c0.2-0.1,0.5-0.1,0.9-0.1
				l0.7,0c0.4,0,0.8,0,1.1,0c0.3,0,0.5,0.1,0.6,0.1C156.6,4,156.5,4.1,156.4,4.1z M152.8,4.7l0.3,0.2l-2.9,0.4l-0.3-0.2L152.8,4.7z
				 M150,5.8c0.1,0.1,0.1,0.1,0,0.2c-0.1,0.1-0.4,0.2-0.7,0.2l-0.6,0.1c-0.3,0.1-0.6,0.1-0.9,0.1c-0.3,0-0.5,0-0.6-0.1
				c-0.1-0.1-0.1-0.2,0-0.2c0.1-0.1,0.4-0.2,0.7-0.2l0.6-0.1c0.3-0.1,0.7-0.1,0.9-0.1C149.7,5.7,149.9,5.7,150,5.8z M147.1,7.1
				l0.3,0.2L145,8l-0.3-0.2L147.1,7.1z M144.6,8.6c0.2,0,0.4,0,0.6,0.1c0.1,0.1,0.2,0.2,0.1,0.3c-0.1,0.1-0.3,0.2-0.5,0.3l-0.5,0.2
				c-0.3,0.1-0.5,0.2-0.8,0.2c-0.2,0-0.4,0-0.6-0.1c-0.1-0.1-0.2-0.2-0.1-0.3c0.1-0.1,0.3-0.2,0.5-0.3l0.5-0.2
				C144.1,8.7,144.3,8.6,144.6,8.6z M143.1,10.5l0.4,0.2l-1.9,1l-0.4-0.2L143.1,10.5z M141,12.1l-1.7,1.1l-0.4-0.3l1.7-1.1L141,12.1
				z M140.4,13.1l0.4-0.3c0.2-0.1,0.4-0.2,0.7-0.3c0.2,0,0.4,0,0.5,0.1c0.1,0.1,0.2,0.2,0.2,0.4c0,0.1-0.2,0.3-0.4,0.4l-0.4,0.3
				c-0.2,0.2-0.4,0.2-0.6,0.3c-0.2,0-0.4,0-0.6-0.1c-0.2-0.1-0.2-0.2-0.2-0.4C140.1,13.4,140.2,13.3,140.4,13.1z M142.5,12.4
				c-0.1-0.1-0.2-0.2-0.1-0.3c0-0.1,0.2-0.3,0.4-0.4l0.4-0.2c0.2-0.1,0.5-0.2,0.7-0.2c0.2,0,0.4,0,0.5,0.1c0.1,0.1,0.2,0.2,0.1,0.3
				c-0.1,0.1-0.2,0.3-0.4,0.4l-0.4,0.2c-0.2,0.1-0.5,0.2-0.7,0.3C142.8,12.5,142.7,12.5,142.5,12.4z M142.9,13.3l0.4,0.2l-1.6,1.2
				l-0.4-0.3L142.9,13.3z M140.5,17.7c0.2,0.1,0.3,0.2,0.3,0.4c0,0.2-0.1,0.3-0.2,0.5l-0.3,0.3c-0.1,0.2-0.3,0.3-0.5,0.4
				c-0.2,0-0.4,0-0.5-0.1c-0.2-0.1-0.3-0.3-0.3-0.4c0-0.2,0-0.4,0.2-0.5l0.3-0.3c0.2-0.2,0.3-0.3,0.5-0.3
				C140.1,17.6,140.3,17.6,140.5,17.7z M140,20.5l0.4,0.3l-0.9,1.6l-0.5-0.3L140,20.5z M140.4,19.9l1.1-1.5l0.4,0.3l-1.1,1.5
				L140.4,19.9z M138,24.4l0.8-1.7l0.5,0.3l-0.8,1.7L138,24.4z M142.3,18.2l-0.4-0.3l1.3-1.4l0.4,0.3L142.3,18.2z M142.9,20.7
				c-0.1,0.2-0.3,0.3-0.4,0.4c-0.2,0.1-0.3,0-0.5-0.1c-0.2-0.1-0.3-0.3-0.3-0.4c0-0.2,0-0.4,0.2-0.6l0.2-0.3
				c0.1-0.2,0.3-0.3,0.5-0.4c0.2-0.1,0.3,0,0.5,0.1c0.2,0.1,0.2,0.2,0.3,0.4c0,0.2,0,0.4-0.2,0.6L142.9,20.7z M144.6,18.3l-0.3,0.3
				c-0.2,0.2-0.3,0.3-0.5,0.4c-0.2,0.1-0.3,0-0.5-0.1c-0.2-0.1-0.2-0.2-0.2-0.4c0-0.2,0.1-0.3,0.2-0.5l0.3-0.3
				c0.2-0.2,0.3-0.3,0.5-0.3c0.2,0,0.4,0,0.5,0.1c0.2,0.1,0.2,0.2,0.2,0.4C144.9,17.9,144.8,18.1,144.6,18.3z M147.4,16.2l0.4,0.2
				l-1.3,1.4l-0.4-0.2L147.4,16.2z M146,18.3l-1.2,1.5l-0.4-0.3l1.2-1.5L146,18.3z M145.1,16.1l0.3-0.3c0.2-0.2,0.4-0.3,0.6-0.3
				c0.2,0,0.4,0,0.5,0.1c0.1,0.1,0.2,0.2,0.2,0.4c0,0.2-0.1,0.3-0.3,0.5l-0.3,0.3c-0.2,0.2-0.4,0.3-0.5,0.3c-0.2,0-0.4,0-0.5-0.1
				c-0.1-0.1-0.2-0.2-0.2-0.4C144.8,16.4,144.9,16.3,145.1,16.1z M145.2,14.8l0.4,0.2l-1.5,1.3l-0.4-0.2L145.2,14.8z M144.3,14.2
				c0.1,0.1,0.2,0.2,0.2,0.4c0,0.1-0.1,0.3-0.3,0.5l-0.3,0.3c-0.2,0.2-0.4,0.3-0.6,0.3c-0.2,0-0.4,0-0.5-0.1
				c-0.2-0.1-0.2-0.2-0.2-0.4c0-0.2,0.1-0.3,0.3-0.5l0.3-0.3c0.2-0.2,0.4-0.3,0.6-0.3C144,14,144.1,14.1,144.3,14.2z M143.9,13.2
				l-0.4-0.2l1.8-1.1l0.4,0.2L143.9,13.2z M147.9,10.5l0.3,0.2l-2,1l-0.3-0.2L147.9,10.5z M147,9.2L146.7,9l2.3-0.8l0.3,0.2L147,9.2
				z M151.6,7.1c-0.1,0.1-0.4,0.2-0.7,0.2l-0.6,0.1c-0.3,0.1-0.6,0.1-0.9,0.1c-0.3,0-0.4,0-0.5-0.1c-0.1-0.1-0.1-0.2,0-0.2
				c0.1-0.1,0.3-0.2,0.7-0.3l0.6-0.1c0.3-0.1,0.6-0.1,0.9-0.1c0.3,0,0.4,0,0.5,0.1C151.8,6.9,151.8,7,151.6,7.1z M151.8,6.3
				l-0.3-0.2l2.8-0.5l0.3,0.2L151.8,6.3z M157.7,4.9c-0.2,0.1-0.5,0.1-0.9,0.1l-0.7,0.1c-0.4,0-0.7,0.1-1,0.1c-0.3,0-0.5,0-0.6-0.1
				c-0.1-0.1-0.1-0.1,0.1-0.2c0.2-0.1,0.4-0.1,0.8-0.1l0.7-0.1c0.4,0,0.7,0,1,0c0.3,0,0.5,0,0.6,0.1C158,4.8,157.9,4.9,157.7,4.9z
				 M161.6,4.4c0.3,0,0.5,0,0.6,0.1c0.1,0,0,0.1-0.2,0.1c-0.2,0-0.5,0.1-0.9,0.1l-0.7,0c-0.4,0-0.8,0-1,0c-0.3,0-0.5,0-0.6-0.1
				c-0.1-0.1,0-0.1,0.2-0.1c0.2,0,0.5-0.1,0.9-0.1l0.7,0C161,4.4,161.3,4.4,161.6,4.4z M161.4,4.1l0.2,0.1l-3.3,0.2l-0.2-0.1
				L161.4,4.1z M160.4,3.7c0.3,0,0.5,0.1,0.6,0.1c0.1,0,0,0.1-0.2,0.1c-0.2,0-0.5,0.1-1,0.1l-0.7,0c-0.4,0-0.8,0-1.1,0
				c-0.3,0-0.5-0.1-0.6-0.1c-0.1-0.1,0-0.1,0.2-0.1c0.2,0,0.5-0.1,0.9-0.1l0.7,0C159.7,3.6,160.1,3.7,160.4,3.7z M160.2,3.4l0.2,0.1
				L157,3.6l-0.2-0.1L160.2,3.4z M159.8,3c0.1,0,0,0.1-0.2,0.1c-0.2,0-0.5,0-1,0.1l-0.8,0c-0.4,0-0.8,0-1.1,0
				c-0.3,0-0.5-0.1-0.6-0.1c-0.1-0.1,0-0.1,0.2-0.1c0.2,0,0.5-0.1,1-0.1l0.8,0c0.5,0,0.8,0,1.1,0C159.5,3,159.7,3,159.8,3z
				 M155.4,2.6l3.6,0l0.2,0.1l-3.5,0L155.4,2.6z M155.6,3.5l0.2,0.1l-3.2,0.2l-0.3-0.2L155.6,3.5z M149.2,4.4
				c0.2-0.1,0.4-0.1,0.8-0.2l0.7-0.1c0.4,0,0.7-0.1,1,0c0.3,0,0.5,0.1,0.6,0.1c0.1,0.1,0.1,0.1-0.1,0.2c-0.2,0.1-0.4,0.1-0.8,0.2
				l-0.7,0.1c-0.4,0-0.7,0.1-1,0.1c-0.3,0-0.5,0-0.6-0.1C149,4.6,149,4.5,149.2,4.4z M148.9,5.2l0.3,0.2l-2.7,0.5l-0.3-0.2
				L148.9,5.2z M143.8,7c0.1-0.1,0.3-0.2,0.6-0.3l0.6-0.1c0.3-0.1,0.6-0.1,0.9-0.1c0.3,0,0.5,0,0.6,0.1c0.1,0.1,0.1,0.2,0,0.2
				c-0.1,0.1-0.3,0.2-0.7,0.3l-0.5,0.1c-0.3,0.1-0.6,0.1-0.8,0.1c-0.3,0-0.4,0-0.6-0.1C143.7,7.2,143.7,7.1,143.8,7z M143.9,8
				l0.3,0.2L142,9l-0.4-0.2L143.9,8z M141.7,9.8c0.2,0,0.4,0,0.6,0.1c0.1,0.1,0.2,0.2,0.1,0.3c-0.1,0.1-0.2,0.2-0.5,0.4l-0.4,0.2
				c-0.2,0.1-0.5,0.2-0.7,0.2c-0.2,0-0.4,0-0.6-0.1c-0.2-0.1-0.2-0.2-0.1-0.3c0.1-0.1,0.2-0.3,0.5-0.4L141,10
				C141.2,9.9,141.5,9.8,141.7,9.8z M140.9,9.1l0.4,0.2l-2,0.9l-0.4-0.2L140.9,9.1z M136.7,11.7l-0.4-0.3l1.9-1l0.4,0.3L136.7,11.7z
				 M137.8,12.4c-0.2-0.1-0.2-0.2-0.2-0.4c0-0.1,0.2-0.3,0.4-0.4l0.4-0.2c0.2-0.1,0.5-0.2,0.7-0.2c0.2,0,0.4,0,0.6,0.1
				c0.2,0.1,0.2,0.2,0.2,0.3c0,0.1-0.2,0.3-0.4,0.4l-0.4,0.2c-0.2,0.1-0.4,0.2-0.7,0.3C138.1,12.5,137.9,12.5,137.8,12.4z
				 M136.7,14.6l1.5-1.2l0.4,0.3l-1.5,1.2L136.7,14.6z M136,19.3c-0.1,0.2-0.3,0.3-0.5,0.4c-0.2,0-0.4,0-0.6-0.1
				c-0.2-0.1-0.3-0.3-0.3-0.5c0-0.2,0-0.4,0.2-0.6l0.3-0.3c0.1-0.2,0.3-0.3,0.5-0.3c0.2,0,0.4,0,0.6,0.1c0.2,0.1,0.3,0.3,0.3,0.4
				c0,0.2,0,0.4-0.2,0.6L136,19.3z M137.9,17l-0.3,0.3c-0.2,0.2-0.3,0.3-0.5,0.3c-0.2,0-0.4,0-0.6-0.1c-0.2-0.1-0.3-0.3-0.3-0.4
				c0-0.2,0.1-0.3,0.2-0.5l0.3-0.3c0.2-0.2,0.4-0.3,0.6-0.3c0.2,0,0.4,0,0.6,0.1c0.2,0.1,0.3,0.2,0.3,0.4
				C138.1,16.6,138,16.8,137.9,17z M138.2,15.6c-0.2-0.1-0.3-0.2-0.2-0.4c0-0.2,0.1-0.3,0.3-0.5l0.3-0.3c0.2-0.2,0.4-0.3,0.6-0.3
				c0.2,0,0.4,0,0.6,0.1c0.2,0.1,0.2,0.2,0.2,0.4c0,0.2-0.1,0.3-0.3,0.5l-0.3,0.3c-0.2,0.2-0.4,0.3-0.6,0.3
				C138.6,15.8,138.4,15.8,138.2,15.6z M137.3,18.7l0.5,0.3l-1,1.5l-0.5-0.3L137.3,18.7z M135.9,20.8l0.5,0.3l-0.9,1.6l-0.5-0.3
				L135.9,20.8z M134,24.7l0.7-1.7l0.5,0.3l-0.7,1.7L134,24.7z M138.1,18.5l-0.5-0.3l1.2-1.4l0.4,0.3L138.1,18.5z M139.4,16.3
				l1.4-1.3l0.4,0.3l-1.4,1.3L139.4,16.3z M137.9,20c0.1-0.2,0.3-0.3,0.5-0.4c0.2,0,0.4,0,0.5,0.1c0.2,0.1,0.3,0.3,0.3,0.4
				c0,0.2,0,0.4-0.2,0.6l-0.2,0.4c-0.1,0.2-0.3,0.3-0.4,0.4c-0.2,0.1-0.4,0-0.5-0.1c-0.2-0.1-0.3-0.3-0.3-0.5c0-0.2,0-0.4,0.1-0.6
				L137.9,20z M136.6,22.1c0.1-0.2,0.3-0.3,0.4-0.4c0.2-0.1,0.4,0,0.5,0.1c0.2,0.1,0.3,0.3,0.3,0.5c0,0.2,0,0.4-0.1,0.6l-0.2,0.4
				c-0.1,0.2-0.2,0.4-0.4,0.4c-0.2,0.1-0.3,0-0.5-0.1c-0.2-0.1-0.3-0.3-0.4-0.5c-0.1-0.2,0-0.4,0.1-0.6L136.6,22.1z M135.4,24.8
				l0.2-0.4c0.1-0.2,0.2-0.4,0.4-0.4c0.2-0.1,0.4,0,0.6,0.1c0.2,0.1,0.3,0.3,0.4,0.5c0.1,0.2,0,0.4,0,0.6l-0.1,0.4
				c-0.1,0.2-0.2,0.4-0.4,0.4c-0.2,0.1-0.3,0-0.5-0.1c-0.2-0.1-0.3-0.3-0.4-0.5C135.3,25.3,135.3,25,135.4,24.8z"/>
			<path fill="#301B46" d="M152.9,3.2l1.1,0c0.2,0,0.3,0,0.2,0c0,0-0.2,0-0.4,0l-1.1,0c-0.2,0-0.3,0-0.2,0.1
				C152.5,3.2,152.7,3.2,152.9,3.2z"/>
			<path fill="#301B46" d="M138.4,9.2c0.1,0,0.2,0,0.3,0l0.7-0.3c0.1-0.1,0.2-0.1,0.1-0.1c-0.1,0-0.2,0-0.3,0L138.5,9
				C138.3,9.1,138.3,9.1,138.4,9.2z"/>
			<path fill="#301B46" d="M156.7,4.9l-1,0.1c-0.2,0-0.3,0-0.2,0.1c0,0,0.2,0,0.3,0l1-0.1c0.2,0,0.3,0,0.2-0.1
				C157,4.8,156.9,4.8,156.7,4.9z"/>
			<path fill="#301B46" d="M139.1,14.7l-0.5,0.4c-0.1,0.1-0.1,0.1,0,0.2c0.1,0,0.2,0,0.2-0.1l0.5-0.4c0.1-0.1,0.1-0.1,0-0.2
				C139.3,14.6,139.2,14.6,139.1,14.7z"/>
			<path fill="#301B46" d="M154.3,6.3l-0.9,0.2c-0.2,0-0.2,0.1-0.2,0.1c0,0,0.1,0,0.3,0l0.9-0.2c0.1,0,0.1-0.1,0.2-0.1
				C154.5,6.3,154.4,6.3,154.3,6.3z"/>
			<path fill="#301B46" d="M137.4,6.6c0,0,0,0.1-0.1,0.3c0.2,0,0.4,0.1,0.5,0.1c0.1,0.1,0.2,0.2,0.1,0.3c-0.1,0.1-0.3,0.2-0.6,0.3
				L137,7.8c-0.1,0.2-0.1,0.4-0.2,0.6l1.8-0.7L137.4,6.6z"/>
			<path fill="#301B46" d="M136.9,23.2c0.1,0.1,0.1,0,0.2-0.1l0.3-0.6c0.1-0.1,0-0.2,0-0.2c-0.1-0.1-0.2,0-0.2,0.1l-0.3,0.6
				C136.8,23,136.9,23.1,136.9,23.2z"/>
			<path fill="#301B46" d="M143.1,15.1c0.1,0,0.1,0,0.2-0.1l0.5-0.4c0.1-0.1,0.1-0.1,0-0.2c-0.1,0-0.1,0-0.2,0.1l-0.5,0.4
				C143,15,143,15.1,143.1,15.1z"/>
			<path fill="#301B46" d="M138.1,20.9c0.1,0.1,0.1,0,0.2-0.1l0.3-0.5c0.1-0.1,0.1-0.2,0-0.2c-0.1-0.1-0.1,0-0.2,0.1l-0.3,0.5
				C138,20.8,138,20.9,138.1,20.9z"/>
			<path fill="#301B46" d="M166.1,7.4c0,0-0.1,0-0.1,0C166,7.4,166,7.4,166.1,7.4C166,7.5,166.1,7.4,166.1,7.4z"/>
			<path fill="#301B46" d="M134.7,29.7L134.7,29.7c0,0,0.1,0,0.1-0.1C134.7,29.5,134.7,29.6,134.7,29.7z"/>
			<path fill="#301B46" d="M141.4,21.9c-0.1,0-0.1,0-0.2,0.1l-0.3,0.6c-0.1,0.1,0,0.2,0,0.2c0.1,0,0.1,0,0.2-0.1l0.3-0.6
				C141.5,22,141.4,21.9,141.4,21.9z"/>
			<path fill="#301B46" d="M145.6,16.6l0.5-0.5c0.1-0.1,0.1-0.1,0-0.2c-0.1,0-0.1,0-0.2,0.1l-0.5,0.4c-0.1,0.1-0.1,0.1,0,0.2
				C145.5,16.7,145.5,16.6,145.6,16.6z"/>
			<path fill="#301B46" d="M162.9,3.8c0,0,0.1,0,0.2,0c0,0-0.1,0-0.1-0.1C163,3.7,162.9,3.7,162.9,3.8z"/>
			<path fill="#301B46" d="M137.2,7.3C137.1,7.3,137.1,7.3,137.2,7.3C137.2,7.3,137.2,7.3,137.2,7.3z"/>
			<path fill="#301B46" d="M141,10.6l0.7-0.3c0.1-0.1,0.2-0.1,0.1-0.1c-0.1,0-0.2,0-0.3,0l-0.7,0.3c-0.1,0.1-0.1,0.1-0.1,0.2
				C140.8,10.7,140.9,10.7,141,10.6z"/>
			<path fill="#301B46" d="M136.2,25.4l0.2-0.6c0-0.1,0-0.2-0.1-0.2c-0.1-0.1-0.2,0-0.2,0.1l-0.2,0.6c0,0.1,0,0.2,0.1,0.2
				C136.1,25.6,136.1,25.5,136.2,25.4z"/>
			<path fill="#301B46" d="M145.8,12.9l-0.6,0.4c-0.1,0.1-0.1,0.1-0.1,0.2c0.1,0,0.1,0,0.2,0l0.6-0.4c0.1-0.1,0.1-0.1,0.1-0.2
				C146,12.9,145.9,12.9,145.8,12.9z"/>
			<path fill="#301B46" d="M145.8,10.7l0.7-0.3c0.1-0.1,0.2-0.1,0.1-0.1c-0.1,0-0.1,0-0.3,0l-0.7,0.3c-0.1,0.1-0.2,0.1-0.1,0.1
				C145.6,10.8,145.7,10.7,145.8,10.7z"/>
			<path fill="#301B46" d="M167.2,9.1l0.3-0.1c0,0,0,0,0-0.1L167.2,9.1C167.1,9,167.1,9,167.1,9C167.1,9.1,167.2,9.1,167.2,9.1
				C167.2,9.1,167.2,9.1,167.2,9.1z"/>
			<path fill="#301B46" d="M139.2,11.5c-0.1,0-0.2,0-0.3,0l-0.6,0.4c-0.1,0.1-0.1,0.1-0.1,0.2c0.1,0,0.2,0,0.3,0l0.6-0.4
				C139.2,11.6,139.2,11.5,139.2,11.5z"/>
			<path fill="#301B46" d="M141.7,16.3l-0.5,0.5c-0.1,0.1-0.1,0.1,0,0.2c0.1,0,0.1,0,0.2-0.1l0.5-0.5c0.1-0.1,0.1-0.1,0-0.2
				C141.8,16.2,141.7,16.2,141.7,16.3z"/>
			<path fill="#301B46" d="M167.3,9.2c0,0.1,0.1,0.1,0.1,0.2l0.4-0.1c0-0.1-0.1-0.1-0.1-0.2l-0.1,0C167.5,9.2,167.4,9.2,167.3,9.2z"
				/>
			<path fill="#301B46" d="M147.7,18.1c0.1,0,0.1,0,0.2-0.1l0.4-0.5c0.1-0.1,0.1-0.1,0-0.2c-0.1,0-0.1,0-0.2,0.1l-0.4,0.5
				C147.6,18,147.6,18,147.7,18.1z"/>
			<path fill="#301B46" d="M167.5,9.8C167.6,9.8,167.6,9.8,167.5,9.8c0.1-0.1,0.2-0.1,0.3-0.1c0-0.1,0-0.1-0.1-0.2l-0.3,0.1
				C167.5,9.7,167.5,9.8,167.5,9.8z"/>
			<path fill="#301B46" d="M143.4,9.4c0.1,0,0.2,0,0.3,0l0.7-0.3c0.1-0.1,0.2-0.1,0.1-0.1c-0.1,0-0.2,0-0.3,0l-0.7,0.3
				C143.4,9.3,143.4,9.4,143.4,9.4z"/>
			<path fill="#301B46" d="M167.6,10.1c0.2,0.5,0.4,0.9,0.5,1.4l0.2-0.1c-0.1-0.3-0.2-0.7-0.3-1l0,0l0,0c0-0.1-0.1-0.2-0.1-0.3
				c0,0,0,0,0,0C167.8,10.1,167.7,10.1,167.6,10.1z"/>
			<path fill="#301B46" d="M166.7,8.4c0,0.1,0.1,0.1,0.1,0.2l0.5-0.1c0-0.1-0.1-0.1-0.1-0.2c-0.1,0-0.2,0-0.3,0.1L166.7,8.4z"/>
			<path fill="#301B46" d="M134.4,20.6c0.1-0.1,0-0.2,0-0.2c0,0-0.1,0-0.1,0c0,0.2,0,0.4-0.1,0.6L134.4,20.6z"/>
			<path fill="#301B46" d="M167,8.2c0.2,0,0.2-0.1,0.2-0.1C167.2,8.1,167.1,8.1,167,8.2l-0.4,0c0,0,0,0,0,0.1L167,8.2z"/>
			<path fill="#301B46" d="M155.3,4l-1.1,0.1c-0.2,0-0.3,0-0.2,0.1c0,0,0.2,0,0.3,0l1.1-0.1c0.2,0,0.3,0,0.2-0.1
				C155.6,4,155.5,4,155.3,4z"/>
			<path fill="#301B46" d="M140.9,13.6l0.6-0.4c0.1-0.1,0.1-0.1,0.1-0.2c-0.1,0-0.2,0-0.3,0l-0.6,0.4c-0.1,0.1-0.1,0.1,0,0.2
				C140.7,13.7,140.8,13.6,140.9,13.6z"/>
			<path fill="#301B46" d="M148.9,5.9L148,6.1c-0.2,0-0.2,0.1-0.2,0.1c0.1,0,0.2,0,0.3,0l0.9-0.2c0.2,0,0.2-0.1,0.2-0.1
				C149.2,5.9,149.1,5.9,148.9,5.9z"/>
			<path fill="#301B46" d="M147.6,7.9c-0.1,0-0.2,0-0.3,0l-0.8,0.2c-0.1,0-0.2,0.1-0.1,0.1c0.1,0,0.2,0,0.3,0l0.8-0.3
				C147.6,8,147.7,7.9,147.6,7.9z"/>
			<path fill="#301B46" d="M151.9,5.5l1-0.1c0.2,0,0.2-0.1,0.2-0.1c0,0-0.2,0-0.3,0l-1,0.1c-0.2,0-0.2,0.1-0.2,0.1
				C151.6,5.6,151.7,5.6,151.9,5.5z"/>
			<path fill="#301B46" d="M167.1,8.9C167.1,8.9,167.1,8.9,167.1,8.9l0.4-0.1c0-0.1,0-0.1-0.1-0.2L167,8.7
				C167,8.8,167,8.8,167.1,8.9z"/>
			<path fill="#301B46" d="M143.9,11.5c-0.1,0-0.1,0-0.3,0l-0.6,0.4c-0.1,0.1-0.1,0.1-0.1,0.2c0.1,0,0.1,0,0.3,0l0.6-0.4
				C144,11.6,144,11.6,143.9,11.5z"/>
			<path fill="#301B46" d="M136.6,10.1c0.1-0.1,0.1-0.1,0.1-0.2c-0.1,0-0.2,0-0.3,0l-0.1,0c0,0.1-0.1,0.2-0.1,0.3L136.6,10.1z"/>
			<path fill="#301B46" d="M139.5,18.9c0.1,0,0.1,0,0.2-0.1l0.4-0.5c0.1-0.1,0.1-0.2,0-0.2c-0.1,0-0.1,0-0.2,0.1l-0.4,0.5
				C139.5,18.7,139.5,18.8,139.5,18.9z"/>
			<path fill="#301B46" d="M136.2,13.6l0.5-0.4c0.1-0.1,0.1-0.1,0-0.2c-0.1,0-0.2,0-0.3,0l-0.5,0.4c-0.1,0.1-0.1,0.1,0,0.2
				C136.1,13.7,136.1,13.6,136.2,13.6z"/>
			<path fill="#301B46" d="M142.7,19.7c-0.1,0-0.1,0-0.2,0.1l-0.4,0.5c-0.1,0.1-0.1,0.2,0,0.2c0.1,0,0.1,0,0.2-0.1l0.4-0.5
				C142.8,19.9,142.8,19.8,142.7,19.7z"/>
			<path fill="#301B46" d="M168.6,13.8c0,0,0-0.1,0-0.3c0,0,0,0,0,0C168.6,13.7,168.6,13.8,168.6,13.8z"/>
			<path fill="#301B46" d="M150.7,7l-0.9,0.2c-0.2,0-0.2,0.1-0.2,0.1c0,0,0.1,0,0.3,0l0.9-0.2C151,7.1,151,7,151,7
				C150.9,7,150.8,7,150.7,7z"/>
			<path fill="#301B46" d="M168.5,13C168.5,13,168.5,13,168.5,13c0-0.1,0-0.2,0-0.3l-0.1,0C168.5,12.9,168.5,13,168.5,13z"/>
			<path fill="#301B46" d="M168.4,12.6L168.4,12.6c0.1-0.1,0.1-0.2,0-0.3l-0.1,0C168.4,12.4,168.4,12.5,168.4,12.6z"/>
			<path fill="#301B46" d="M166.5,8.1L166.5,8.1c0.3-0.1,0.4-0.1,0.6-0.1c0-0.1-0.1-0.1-0.1-0.2l-0.7,0.1C166.4,8,166.5,8,166.5,8.1
				z"/>
			<path fill="#301B46" d="M168.4,12.1C168.4,12,168.4,12,168.4,12.1C168.4,12,168.4,12,168.4,12.1l-0.1,0c0,0,0,0.1,0,0.1
				L168.4,12.1z"/>
			<path fill="#301B46" d="M137.5,16.4c-0.1,0-0.2,0-0.2,0.1l-0.4,0.5c-0.1,0.1-0.1,0.2,0,0.2c0.1,0,0.2,0,0.2-0.1l0.4-0.5
				C137.6,16.5,137.6,16.4,137.5,16.4z"/>
			<path fill="#301B46" d="M135.8,18.3c-0.1-0.1-0.2,0-0.2,0.1l-0.4,0.5c-0.1,0.1-0.1,0.2,0,0.2c0.1,0.1,0.2,0,0.2-0.1l0.4-0.5
				C135.9,18.4,135.9,18.4,135.8,18.3z"/>
			<path fill="#301B46" d="M159.6,4.7c0,0,0.2,0,0.3,0l1.1-0.1c0.2,0,0.3,0,0.2,0c0,0-0.2,0-0.4,0l-1.1,0.1
				C159.7,4.6,159.6,4.6,159.6,4.7z"/>
			<path fill="#301B46" d="M162.5,5.3c0,0-0.1,0-0.3,0l-0.1,0c0.1,0,0.2,0,0.2,0C162.5,5.3,162.6,5.3,162.5,5.3z"/>
			<path fill="#301B46" d="M144.3,17.8c-0.1,0-0.1,0-0.2,0.1l-0.4,0.5c-0.1,0.1-0.1,0.2,0,0.2c0.1,0,0.1,0,0.2-0.1l0.4-0.5
				C144.4,17.9,144.4,17.8,144.3,17.8z"/>
			<path fill="#301B46" d="M149.5,16c-0.1,0.1-0.1,0.1,0,0.2c0.1,0,0.1,0,0.2-0.1l0.2-0.2l-0.2-0.1L149.5,16z"/>
			<path fill="#301B46" d="M168.2,11.8c0,0,0.1,0,0.1-0.1c0-0.1,0-0.2,0-0.2l-0.1,0.1C168.2,11.7,168.2,11.8,168.2,11.8z"/>
			<path fill="#301B46" d="M149.2,9.1l-0.7,0.3c-0.1,0.1-0.2,0.1-0.1,0.1c0.1,0,0.1,0,0.3,0l0.7-0.3c0.1,0,0.2-0.1,0.1-0.1
				C149.4,9,149.3,9,149.2,9.1z"/>
			<path fill="#301B46" d="M147.4,14.7c-0.1,0.1-0.1,0.1-0.1,0.2c0.1,0,0.1,0,0.2-0.1l0.3-0.2l-0.2-0.1L147.4,14.7z"/>
		</g>
		<g>
			<path fill="#301B46" d="M152.4,48.8c-0.1-0.1-0.2-0.1-0.2-0.1c0,0,0,0,0,0.1c0.1,0.1,0.2,0.1,0.3,0.2L152.4,48.8z"/>
			<path fill="#301B46" d="M172.8,47.7c0,0.1,0,0.2,0.1,0.1l0.6-0.1c0.1,0,0.2-0.1,0.2-0.2c0-0.1,0-0.2-0.1-0.1l-0.6,0.1
				C172.9,47.5,172.9,47.5,172.8,47.7z"/>
			<path fill="#301B46" d="M146.4,42.8l-0.5-0.9c-0.1-0.2-0.1-0.2-0.1-0.2c0,0.1,0,0.2,0.1,0.3l0.5,0.9c0.1,0.2,0.1,0.2,0.1,0.2
				C146.5,43,146.5,42.9,146.4,42.8z"/>
			<path fill="#301B46" d="M143.1,26.9c0-0.1,0.1-0.1,0.1-0.2l-0.4-0.6c-0.1,0.1-0.1,0.2-0.2,0.2c0,0,0.1,0.1,0.1,0.1
				C142.8,26.6,142.9,26.7,143.1,26.9z"/>
			<path fill="#301B46" d="M141,30c0,0,0-0.1,0-0.1C140.9,29.9,140.9,29.9,141,30C140.9,30,140.9,30.1,141,30z"/>
			<path fill="#301B46" d="M147.9,45.3c-0.1-0.1-0.1-0.2-0.2-0.1c0,0,0,0.1,0,0.2c0.1,0.1,0.2,0.2,0.3,0.2L147.9,45.3z"/>
			<path fill="#301B46" d="M142.6,35.5c0,0,0-0.2-0.1-0.3l-0.5-1c-0.1-0.2-0.1-0.3-0.1-0.2c0,0,0,0.2,0.1,0.3l0.5,1
				C142.6,35.5,142.6,35.6,142.6,35.5z"/>
			<path fill="#301B46" d="M150.8,46.8l-0.5-0.7c-0.1-0.1-0.1-0.2-0.2-0.1c0,0.1,0,0.2,0.1,0.3l0.5,0.7c0.1,0.1,0.1,0.2,0.2,0.1
				C151,47.1,150.9,47,150.8,46.8z"/>
			<path fill="#301B46" d="M142.4,37.1c0,0,0-0.2-0.1-0.4l-0.5-1.1c-0.1-0.2-0.1-0.3-0.1-0.2c0,0,0,0.2,0.1,0.4l0.5,1.1
				C142.4,37,142.4,37.1,142.4,37.1z"/>
			<path fill="#301B46" d="M175,47.9c-0.1-0.1-0.2-0.3-0.1-0.6c0-0.1,0-0.1,0.1-0.2c-0.2-0.1-0.5-0.1-0.7-0.2
				c0.1,0.1,0.1,0.3,0.1,0.5c0,0.2-0.2,0.5-0.3,0.6c-0.2,0.2-0.4,0.3-0.6,0.3l-0.4,0c-0.2,0-0.4,0-0.5-0.2c-0.1-0.1-0.2-0.3-0.1-0.6
				c0-0.2,0.1-0.4,0.3-0.6c0.2-0.2,0.4-0.2,0.6-0.3l0.4-0.1c0,0,0,0,0.1,0c-0.5-0.2-1.1-0.4-1.8-0.6l0,0.1l-1.9,0.1l0.1-0.6l0.7-0.1
				c-0.5-0.2-1.1-0.4-1.6-0.7c-0.1,0-0.2,0.1-0.4,0.1l-0.4,0c-0.2,0-0.4-0.1-0.5-0.2c-0.1-0.1-0.2-0.3-0.1-0.5c0,0,0,0,0,0
				c-0.2-0.1-0.4-0.2-0.6-0.3c0,0.1,0,0.2,0,0.3c0,0.2-0.1,0.4-0.3,0.5c-0.2,0.1-0.4,0.2-0.6,0.1l-0.4,0c-0.2,0-0.4-0.1-0.5-0.3
				c-0.1-0.1-0.2-0.3-0.1-0.5c0-0.2,0.1-0.3,0.3-0.4c0.2-0.1,0.4-0.1,0.6-0.1l0.2,0c-0.5-0.3-1-0.5-1.4-0.8l-1.8-0.3l0.1-0.5
				l0.6,0.1c-0.5-0.3-1-0.6-1.5-1c-0.1,0-0.2,0-0.4,0l-0.4-0.1c-0.2-0.1-0.4-0.2-0.5-0.3c-0.1-0.1-0.2-0.3-0.1-0.5c0,0,0-0.1,0-0.1
				c-0.7-0.5-1.3-1.1-2-1.7l-0.3-0.1l0-0.1c-0.4-0.4-0.8-0.8-1.2-1.2l-0.1,0.4l0.8,0.3l-0.1,0.4l-0.8-0.3l-0.1,0.5l0.1,0
				c0.2,0.1,0.4,0.2,0.5,0.4c0.1,0.1,0.2,0.3,0.1,0.5c0,0.2-0.1,0.3-0.3,0.3c-0.1,0-0.3,0-0.6-0.1l-0.1-0.1l-0.1,0.5l0.8,0.4
				l-0.1,0.4l-0.9-0.5l-0.1,0.5l0.2,0.1c0.2,0.1,0.4,0.3,0.5,0.4c0.1,0.2,0.2,0.3,0.1,0.5c0,0.2-0.1,0.3-0.3,0.3
				c-0.1,0-0.3,0-0.6-0.2l-0.2-0.1l-0.1,0.5l0.9,0.6l-0.1,0.4l-1-0.6l-0.1,0.5c0,0,0,0-0.1,0c0,0,0,0,0,0l0.4,0.2
				c0.2,0.1,0.4,0.3,0.5,0.5c0.1,0.2,0.2,0.3,0.1,0.5c0,0.2-0.1,0.3-0.3,0.3c-0.1,0-0.3-0.1-0.5-0.2l-0.4-0.3
				c-0.2-0.2-0.4-0.3-0.5-0.5c-0.1-0.2-0.2-0.4-0.1-0.5c0-0.1,0-0.1,0.1-0.2c-0.2,0-0.4-0.1-0.6-0.2c0,0.1-0.1,0.2-0.2,0.2
				c-0.1,0-0.3-0.1-0.5-0.3l-0.3-0.2c-0.4-0.1-0.9-0.3-1.4-0.5l0,0.2l-0.3-0.4c-0.3-0.1-0.7-0.3-1-0.5c0.1,0.1,0.2,0.2,0.3,0.3
				l0.4,0.4c0.2,0.2,0.4,0.4,0.5,0.6c0.1,0.2,0.2,0.4,0.1,0.5c0,0.1-0.1,0.2-0.2,0.2c-0.1,0-0.3-0.2-0.5-0.4l-0.4-0.4
				c-0.2-0.2-0.4-0.5-0.5-0.7c-0.1-0.2-0.1-0.4-0.1-0.5c0-0.1,0.1-0.1,0.2-0.1c-0.2-0.1-0.4-0.2-0.7-0.4c0,0.1-0.1,0.1-0.2,0
				c-0.1-0.1-0.3-0.2-0.5-0.4c-0.3-0.2-0.5-0.3-0.8-0.5l1.3,1.6l-0.1,0.3l-1.6-2l0-0.2c-0.4-0.3-0.7-0.6-1.1-0.9
				c0.1,0.2,0.2,0.4,0.3,0.6c0.1,0.2,0.1,0.4,0.1,0.5c0,0.1-0.1,0.1-0.2,0c-0.1-0.1-0.3-0.3-0.5-0.6l-0.3-0.5
				c-0.2-0.3-0.3-0.6-0.4-0.8c0-0.1-0.1-0.2-0.1-0.3c-0.5-0.5-0.9-1-1.3-1.6l0.7,1.3l0,0.3l-1.5-2.6l0-0.1c-0.2-0.3-0.3-0.6-0.5-0.9
				l0,0.1l-1.4-2.9l0-0.2l1,2c-0.1-0.3-0.2-0.6-0.3-0.9l-0.1-0.2c-0.2-0.4-0.3-0.7-0.4-0.9c-0.1-0.3-0.1-0.4-0.1-0.5
				c0-0.1,0.1-0.1,0.2,0.1c0.1,0.1,0.2,0.2,0.3,0.4c0-0.2,0-0.3,0-0.5l-0.3-0.5l0-0.2l0.3,0.5c0-0.1,0-0.3,0-0.4
				c0-0.1-0.1-0.1-0.1-0.2c-0.1-0.3-0.1-0.4-0.1-0.5c0-0.1,0.1-0.1,0.2,0.1c0,0,0,0.1,0.1,0.1c0-0.1,0-0.2,0-0.4l-0.2-0.3l0-0.2
				l0.2,0.3c0-0.1,0-0.2,0.1-0.3c0-0.1-0.1-0.1-0.1-0.2c-0.1-0.2-0.1-0.4-0.1-0.5c0-0.1,0.1-0.1,0.2,0.1c0,0,0.1,0.1,0.1,0.2
				c0-0.1,0.1-0.2,0.1-0.3l-0.3-0.5l0-0.2l0.3,0.5c0-0.1,0.1-0.1,0.1-0.2c-0.1-0.2-0.2-0.3-0.2-0.4c-0.1-0.2-0.1-0.3-0.1-0.4
				c-0.3,0.4-0.6,0.9-0.9,1.4c0,0.1,0.1,0.2,0.1,0.3c0,0.1-0.1,0-0.2-0.1c0,0.1-0.1,0.2-0.1,0.2l0.2,0.3l0,0.2l-0.2-0.4
				c0,0.1-0.1,0.2-0.1,0.2c0,0.1,0.1,0.2,0.1,0.3c0.1,0.3,0.1,0.4,0.1,0.5c0,0.1-0.1,0-0.2-0.1c-0.1-0.1-0.1-0.2-0.2-0.3
				c0,0.1,0,0.1-0.1,0.2l0.3,0.7l0,0.2l-0.3-0.8c0,0.1,0,0.2-0.1,0.2c0.1,0.2,0.2,0.4,0.2,0.6c0.1,0.3,0.1,0.5,0.1,0.5
				c0,0.1-0.1,0-0.2-0.1c-0.1-0.1-0.2-0.3-0.3-0.6c0,0.1,0,0.2,0,0.2l0.4,0.9l0,0.2l-0.4-1c0,0.1,0,0.2,0,0.3
				c0.1,0.3,0.2,0.5,0.3,0.8c0.1,0.3,0.1,0.5,0.1,0.6c0,0.1-0.1,0-0.2-0.2c-0.1-0.1-0.2-0.3-0.3-0.6c0,0.1,0,0.2,0,0.3l0.4,0.9
				l0,0.2l-0.3-0.9c0,0.1,0,0.3,0,0.4c0.1,0.2,0.1,0.4,0.2,0.5c0.1,0.3,0.1,0.5,0.1,0.6c0,0.1-0.1,0-0.2-0.2c0,0,0-0.1-0.1-0.1
				c0,0.2,0.1,0.5,0.1,0.7l0,0.1l0,0c0,0.1,0,0.3,0.1,0.4c0.1,0.6,0.3,1.2,0.5,1.8c0.1,0.2,0.2,0.5,0.3,0.8l0.3,0.7
				c0,0.1,0.1,0.2,0.1,0.3c0.3,0.6,0.6,1.2,1,1.7l0-0.2l0.4,0.9c0.2,0.3,0.4,0.6,0.6,0.8c0-0.1-0.1-0.1-0.1-0.2l-0.3-0.7
				c-0.2-0.4-0.3-0.7-0.4-1c-0.1-0.3-0.1-0.5-0.1-0.6c0-0.1,0.1-0.1,0.2,0.1c0.1,0.2,0.3,0.4,0.4,0.8l0.3,0.7c0.2,0.4,0.3,0.7,0.4,1
				c0.1,0.3,0.1,0.5,0.1,0.6c0,0,0,0,0,0c0.4,0.5,0.9,1.1,1.4,1.6l-0.8-1.4l0-0.3l1.2,2.3c0.3,0.3,0.6,0.6,0.9,0.9
				c-0.1-0.2-0.1-0.4-0.1-0.5c0-0.1,0.1-0.1,0.2,0c0.1,0.1,0.3,0.3,0.5,0.6l0.3,0.5c0.1,0.2,0.2,0.3,0.3,0.4
				c0.3,0.3,0.6,0.5,0.9,0.8l0.1-0.3l0.7,0.9c0.6,0.4,1.1,0.8,1.6,1.1c0-0.1,0-0.2,0-0.3c0-0.2,0.1-0.2,0.2-0.2
				c0.1,0,0.3,0.2,0.5,0.4l0.4,0.4c0.2,0.2,0.3,0.4,0.4,0.6c0.6,0.3,1,0.6,1.3,0.7l-0.2,0.4c0.1,0.1,0.2,0.1,0.3,0.2l0.4,0.3
				c0.2,0.2,0.4,0.4,0.5,0.6c0.1,0.2,0.1,0.4,0.1,0.6c0,0.2-0.1,0.3-0.3,0.3c-0.1,0-0.3-0.1-0.5-0.3l-0.4-0.4
				c-0.2-0.2-0.3-0.4-0.4-0.6l-0.2,0.6l1.5,1.6l0,0.2c0.3,0,0.6-0.1,0.9-0.1c0,0-0.1-0.1-0.1-0.1c-0.1-0.2-0.1-0.4-0.1-0.6
				c0-0.2,0.1-0.3,0.3-0.3c0.1,0,0.3,0.1,0.5,0.3l0.4,0.3c0.1,0.1,0.2,0.2,0.3,0.3c0.3,0,0.7-0.1,1.1-0.2l0.1-0.3l0.4,0.2
				c0.3,0,0.6-0.1,0.9-0.2c-0.1,0-0.1,0-0.2-0.1l-0.4-0.2c-0.2-0.1-0.4-0.3-0.5-0.5c-0.1-0.2-0.1-0.4-0.1-0.6c0-0.2,0.1-0.3,0.3-0.3
				c0.1,0,0.3,0,0.6,0.1l0.4,0.2c0.2,0.1,0.4,0.3,0.5,0.5c0.1,0.2,0.1,0.4,0.1,0.6c0,0.1,0,0.2-0.1,0.2c0.2,0,0.4-0.1,0.7-0.1
				c0-0.1,0.1-0.2,0.2-0.2c0.1-0.1,0.3,0,0.6,0.1c0.4-0.1,0.8-0.2,1.2-0.2l-1.7-0.7l0.1-0.5l1.8,0.7l-0.1,0.5c0.2,0,0.5-0.1,0.7-0.2
				l0-0.2l0.3,0.1c0.8-0.2,1.5-0.4,2.3-0.6c0-0.1,0-0.2,0-0.3c0-0.2,0.1-0.4,0.3-0.5c0.2-0.1,0.4-0.1,0.6-0.1l0.4,0
				c0.2,0,0.4,0.1,0.5,0.3c0,0,0,0.1,0,0.1c1.2-0.4,2.4-0.8,3.5-1.3l0.1-0.4l1.1-0.1c0.8-0.4,1.5-0.7,2.2-1.1
				C175.2,48,175.1,48,175,47.9z M159.5,40.3l-0.4-0.1c-0.2-0.1-0.4-0.2-0.5-0.4c-0.1-0.1-0.2-0.3-0.1-0.5c0-0.2,0.1-0.3,0.3-0.3
				c0.1,0,0.3,0,0.6,0.1l0.4,0.1c0.2,0.1,0.4,0.2,0.5,0.3c0.1,0.1,0.2,0.3,0.1,0.5c0,0.2-0.1,0.3-0.3,0.3
				C159.9,40.4,159.7,40.4,159.5,40.3z M161.2,45.6c0.2,0.1,0.4,0.2,0.5,0.4c0.1,0.2,0.2,0.3,0.1,0.5c0,0.2-0.1,0.3-0.3,0.4
				c-0.2,0.1-0.3,0-0.6,0l-0.4-0.2c-0.2-0.1-0.4-0.2-0.5-0.4c-0.1-0.2-0.2-0.3-0.1-0.5c0-0.2,0.1-0.3,0.3-0.3c0.2-0.1,0.3,0,0.6,0.1
				L161.2,45.6z M154.1,46.1l-0.1,0.4l-1.6-1.6l0.1-0.4L154.1,46.1z M152.7,44c-0.1-0.2-0.1-0.4-0.1-0.5c0-0.1,0.1-0.2,0.2-0.2
				c0.1,0,0.3,0.1,0.5,0.3l0.4,0.3c0.2,0.2,0.4,0.4,0.5,0.6c0.1,0.2,0.2,0.4,0.1,0.5c0,0.2-0.1,0.2-0.2,0.2c-0.1,0-0.3-0.1-0.5-0.3
				l-0.4-0.3C153,44.4,152.9,44.2,152.7,44z M151.6,44.8c0.1,0.2,0.1,0.4,0.1,0.6c0,0.1-0.1,0.2-0.2,0.1c-0.1-0.1-0.3-0.2-0.5-0.4
				l-0.3-0.4c-0.2-0.2-0.4-0.5-0.5-0.7c-0.1-0.2-0.1-0.4-0.1-0.5c0-0.1,0.1-0.2,0.2-0.1c0.1,0.1,0.3,0.2,0.5,0.5l0.4,0.4
				C151.4,44.3,151.5,44.5,151.6,44.8z M149.4,43.6l-0.1,0.4l-1.5-2.2l0.1-0.3L149.4,43.6z M147.2,41.8c0,0.1-0.1,0.1-0.2,0
				c-0.1-0.1-0.3-0.3-0.5-0.6l-0.3-0.6c-0.2-0.3-0.3-0.6-0.4-0.9c-0.1-0.3-0.1-0.4-0.1-0.6c0-0.1,0.1-0.1,0.2,0
				c0.1,0.1,0.3,0.3,0.5,0.7l0.3,0.5c0.2,0.3,0.3,0.6,0.4,0.8C147.2,41.5,147.2,41.7,147.2,41.8z M145.1,39.1l0,0.3l-1.5-2.8l0-0.3
				L145.1,39.1z M143.6,37.3c0.1,0.2,0.3,0.4,0.5,0.8l0.3,0.6c0.2,0.4,0.3,0.7,0.4,0.9c0.1,0.3,0.1,0.5,0.1,0.6c0,0.1-0.1,0.1-0.2,0
				c-0.1-0.1-0.3-0.4-0.5-0.8l-0.3-0.6c-0.2-0.4-0.3-0.7-0.4-1c-0.1-0.3-0.1-0.5-0.1-0.6C143.4,37.1,143.5,37.1,143.6,37.3z
				 M145.5,40.3l0-0.3l1.5,2.5l-0.1,0.3L145.5,40.3z M147.7,42.5c0-0.1,0.1-0.1,0.2,0c0.1,0.1,0.3,0.3,0.5,0.6l0.3,0.5
				c0.2,0.3,0.3,0.5,0.4,0.8c0.1,0.2,0.1,0.4,0.1,0.6c0,0.1-0.1,0.2-0.2,0.1c-0.1-0.1-0.3-0.3-0.5-0.6l-0.3-0.5
				c-0.2-0.3-0.3-0.6-0.4-0.8C147.7,42.8,147.7,42.6,147.7,42.5z M149.9,44.6l0.1-0.4l1.6,1.9l-0.1,0.4L149.9,44.6z M152.4,46.4
				c-0.1-0.2-0.1-0.4-0.1-0.6c0-0.2,0.1-0.2,0.2-0.2c0.1,0,0.3,0.2,0.5,0.4l0.4,0.4c0.2,0.2,0.4,0.4,0.5,0.6
				c0.1,0.2,0.1,0.4,0.1,0.6c0,0.2-0.1,0.2-0.2,0.2c-0.1,0-0.3-0.1-0.5-0.4l-0.4-0.4C152.6,46.8,152.5,46.6,152.4,46.4z M154.6,47
				l0.1-0.4l1.7,1.4l-0.1,0.4L154.6,47z M157,48.4l1.7,1.1l-0.1,0.5l-1.7-1.2L157,48.4z M158.1,48.5l-0.4-0.2
				c-0.2-0.1-0.4-0.3-0.5-0.5c-0.1-0.2-0.1-0.4-0.1-0.5c0-0.2,0.1-0.3,0.3-0.3c0.1,0,0.3,0,0.5,0.2l0.4,0.2c0.2,0.1,0.4,0.3,0.5,0.5
				c0.1,0.2,0.2,0.4,0.1,0.5c0,0.2-0.1,0.3-0.3,0.3C158.5,48.7,158.3,48.6,158.1,48.5z M156.6,46.8c0,0.2-0.1,0.3-0.3,0.3
				c-0.1,0-0.3-0.1-0.5-0.2l-0.4-0.3c-0.2-0.2-0.4-0.4-0.5-0.6c-0.1-0.2-0.1-0.4-0.1-0.5c0-0.2,0.1-0.2,0.3-0.2
				c0.1,0,0.3,0.1,0.5,0.3l0.4,0.3c0.2,0.2,0.4,0.3,0.5,0.5C156.6,46.5,156.7,46.7,156.6,46.8z M157.4,46.1l0.1-0.4l1.7,1l-0.1,0.5
				L157.4,46.1z M162.3,46.7c0-0.2,0.1-0.3,0.3-0.4c0.2-0.1,0.3-0.1,0.6,0l0.4,0.1c0.2,0.1,0.4,0.2,0.5,0.3c0.1,0.1,0.2,0.3,0.1,0.5
				c0,0.2-0.1,0.4-0.3,0.4c-0.2,0.1-0.3,0.1-0.6,0l-0.4-0.1c-0.2-0.1-0.4-0.2-0.5-0.3C162.3,47,162.3,46.8,162.3,46.7z M165,46
				l0.1-0.5l1.9,0.2l-0.1,0.5L165,46z M164.4,45.9l-1.8-0.5l0.1-0.5l1.8,0.4L164.4,45.9z M169.4,46.4l-1.9-0.1l0.1-0.6l1.9,0
				L169.4,46.4z M162.1,44.7l-0.1,0.5l-1.8-0.7l0.1-0.5L162.1,44.7z M164.1,43.3c0.2,0,0.4,0.1,0.5,0.3c0.1,0.1,0.2,0.3,0.1,0.5
				c0,0.2-0.1,0.3-0.3,0.4c-0.2,0.1-0.4,0.1-0.6,0.1l-0.4-0.1c-0.2-0.1-0.4-0.2-0.5-0.3c-0.1-0.1-0.2-0.3-0.1-0.5
				c0-0.2,0.1-0.3,0.3-0.4c0.2-0.1,0.4-0.1,0.6,0L164.1,43.3z M161.3,42.6l0.4,0.1c0.2,0.1,0.4,0.2,0.5,0.3c0.1,0.1,0.2,0.3,0.1,0.5
				c0,0.2-0.1,0.3-0.3,0.4c-0.2,0.1-0.3,0.1-0.6,0l-0.4-0.1c-0.2-0.1-0.4-0.2-0.5-0.4c-0.1-0.2-0.2-0.3-0.1-0.5
				c0-0.2,0.1-0.3,0.3-0.3C160.8,42.5,161,42.5,161.3,42.6z M158.2,40.9l0.1-0.4l1.8,0.7l-0.1,0.4L158.2,40.9z M160.7,41.4l1.8,0.5
				l-0.1,0.5l-1.8-0.5L160.7,41.4z M159,43l-0.4-0.2c-0.2-0.1-0.4-0.2-0.5-0.4c-0.1-0.2-0.2-0.3-0.1-0.5c0-0.2,0.1-0.3,0.3-0.3
				c0.1,0,0.3,0,0.6,0.1l0.4,0.2c0.2,0.1,0.4,0.2,0.5,0.4c0.1,0.2,0.2,0.3,0.1,0.5c0,0.2-0.1,0.3-0.3,0.3
				C159.5,43.1,159.3,43.1,159,43z M157.8,43.4l0.1-0.4l1.8,0.8l-0.1,0.5L157.8,43.4z M157.6,44.5c0-0.2,0.1-0.3,0.3-0.3
				c0.1,0,0.3,0,0.6,0.1l0.4,0.2c0.2,0.1,0.4,0.2,0.5,0.4c0.1,0.2,0.2,0.3,0.1,0.5c0,0.2-0.1,0.3-0.3,0.3c-0.1,0-0.3,0-0.6-0.1
				l-0.4-0.2c-0.2-0.1-0.4-0.3-0.5-0.5C157.6,44.9,157.5,44.7,157.6,44.5z M156.8,45.3l-0.1,0.4l-1.7-1.2l0.1-0.4L156.8,45.3z
				 M152.8,42.6l0.1-0.4l1.7,1.4l-0.1,0.4L152.8,42.6z M151.9,43.9l-0.1,0.4l-1.6-1.8l0.1-0.4L151.9,43.9z M148.2,40.5
				c0.1,0.1,0.3,0.3,0.5,0.5l0.3,0.5c0.2,0.3,0.4,0.5,0.5,0.7c0.1,0.2,0.1,0.4,0.1,0.5c0,0.1-0.1,0.2-0.2,0.1
				c-0.1-0.1-0.3-0.2-0.5-0.5l-0.3-0.5c-0.2-0.3-0.3-0.5-0.5-0.8c-0.1-0.2-0.1-0.4-0.1-0.5C148,40.4,148.1,40.4,148.2,40.5z
				 M147.4,40.6l-0.1,0.3l-1.5-2.4l0-0.3L147.4,40.6z M143.9,35.7c0.1,0.1,0.3,0.4,0.5,0.7l0.3,0.6c0.2,0.3,0.3,0.6,0.4,0.9
				c0.1,0.3,0.1,0.4,0.1,0.6c0,0.1-0.1,0.1-0.2,0c-0.1-0.1-0.3-0.4-0.5-0.7l-0.3-0.6c-0.2-0.4-0.3-0.7-0.4-0.9
				c-0.1-0.3-0.1-0.4-0.1-0.6C143.7,35.5,143.8,35.5,143.9,35.7z M141.9,32.3c-0.1-0.3-0.1-0.5-0.1-0.5c0-0.1,0.1,0,0.2,0.1
				c0.1,0.2,0.3,0.4,0.4,0.8l0.3,0.6c0.2,0.4,0.3,0.7,0.4,0.9c0.1,0.3,0.1,0.4,0.1,0.5c0,0.1-0.1,0.1-0.2-0.1
				c-0.1-0.2-0.3-0.4-0.4-0.8l-0.3-0.6C142.1,32.9,142,32.6,141.9,32.3z M141.7,32.6l0-0.2l1.4,3l0,0.3L141.7,32.6z M141.7,33.7
				c-0.1-0.3-0.1-0.5-0.1-0.6c0-0.1,0.1,0,0.2,0.1c0.1,0.2,0.3,0.5,0.4,0.9l0.3,0.7c0.2,0.4,0.3,0.7,0.4,1c0.1,0.3,0.1,0.5,0.1,0.6
				c0,0.1-0.1,0.1-0.2-0.1c-0.1-0.2-0.3-0.4-0.4-0.8l-0.3-0.7C141.9,34.3,141.8,34,141.7,33.7z M141.5,34l0-0.2l1.4,3.1l0,0.3
				L141.5,34z M141.3,34.6c0-0.1,0.1,0,0.2,0.1c0.1,0.2,0.3,0.5,0.4,0.9l0.3,0.7c0.2,0.4,0.3,0.7,0.4,1c0.1,0.3,0.1,0.5,0.1,0.6
				c0,0.1-0.1,0.1-0.2-0.1c-0.1-0.2-0.3-0.5-0.4-0.9l-0.3-0.7c-0.2-0.4-0.3-0.8-0.4-1.1C141.4,34.8,141.3,34.6,141.3,34.6z
				 M142.6,38.8l-1.4-3.3l0-0.2l1.4,3.3L142.6,38.8z M143.3,38.2l0-0.3l1.4,2.9l0,0.3L143.3,38.2z M146.7,43.8
				c-0.1-0.1-0.3-0.3-0.5-0.7l-0.3-0.6c-0.2-0.3-0.3-0.7-0.4-0.9c-0.1-0.3-0.1-0.5-0.1-0.6c0-0.1,0.1-0.1,0.2,0
				c0.1,0.1,0.3,0.4,0.5,0.7l0.3,0.6c0.2,0.3,0.3,0.6,0.4,0.9c0.1,0.3,0.1,0.5,0.1,0.6C146.9,43.9,146.8,43.9,146.7,43.8z
				 M147.5,43.7l0.1-0.3l1.5,2.3l-0.1,0.4L147.5,43.7z M151.1,47.8c-0.1-0.1-0.3-0.2-0.5-0.5l-0.3-0.5c-0.2-0.3-0.3-0.5-0.5-0.8
				c-0.1-0.2-0.1-0.4-0.1-0.6c0-0.1,0.1-0.2,0.2-0.1c0.1,0.1,0.3,0.2,0.5,0.5l0.3,0.4c0.2,0.3,0.4,0.5,0.5,0.7
				c0.1,0.2,0.1,0.4,0.1,0.6C151.4,47.8,151.3,47.8,151.1,47.8z M152,47.3l0.1-0.4l1.6,1.7l-0.1,0.4L152,47.3z M154.5,48.6
				c-0.1-0.2-0.1-0.4-0.1-0.6c0-0.2,0.1-0.2,0.2-0.2c0.1,0,0.3,0.1,0.5,0.3l0.4,0.3c0.2,0.2,0.4,0.4,0.5,0.6
				c0.1,0.2,0.1,0.4,0.1,0.6c0,0.2-0.1,0.3-0.3,0.3c-0.1,0-0.3-0.1-0.5-0.3l-0.4-0.3C154.8,49,154.6,48.8,154.5,48.6z M154.2,49.6
				l0.1-0.4l1.6,1.5l-0.1,0.5L154.2,49.6z M158.2,52.4l-0.1,0.5l-1.7-1.3l0.1-0.5L158.2,52.4z M158.4,51.2c0,0.2-0.1,0.3-0.3,0.3
				c-0.1,0-0.3,0-0.5-0.2l-0.4-0.3c-0.2-0.2-0.4-0.4-0.5-0.6c-0.1-0.2-0.1-0.4-0.1-0.6c0-0.2,0.1-0.3,0.3-0.3c0.1,0,0.3,0.1,0.5,0.2
				l0.4,0.3c0.2,0.1,0.4,0.3,0.5,0.5C158.4,50.8,158.5,51,158.4,51.2z M160.9,51.3l-1.7-1l0.1-0.5l1.7,0.9L160.9,51.3z M165.5,50.2
				c0.2,0.1,0.4,0.2,0.5,0.3c0.1,0.2,0.2,0.3,0.1,0.6c0,0.2-0.1,0.4-0.3,0.5c-0.2,0.1-0.4,0.1-0.6,0.1l-0.4-0.1
				c-0.2-0.1-0.4-0.2-0.5-0.3c-0.1-0.2-0.1-0.4-0.1-0.6c0-0.2,0.1-0.4,0.3-0.5c0.2-0.1,0.4-0.1,0.6,0L165.5,50.2z M162.7,49.4
				l0.4,0.1c0.2,0.1,0.4,0.2,0.5,0.4c0.1,0.2,0.2,0.4,0.1,0.6c0,0.2-0.1,0.4-0.3,0.4c-0.2,0.1-0.3,0.1-0.6,0l-0.4-0.2
				c-0.2-0.1-0.4-0.2-0.5-0.4c-0.1-0.2-0.1-0.4-0.1-0.6c0-0.2,0.1-0.3,0.3-0.4C162.2,49.3,162.4,49.3,162.7,49.4z M161.3,49.5
				c0,0.2-0.1,0.3-0.3,0.4c-0.2,0.1-0.3,0-0.6-0.1l-0.4-0.2c-0.2-0.1-0.4-0.3-0.5-0.4c-0.1-0.2-0.1-0.4-0.1-0.6
				c0-0.2,0.1-0.3,0.3-0.3c0.1,0,0.3,0,0.6,0.1l0.4,0.2c0.2,0.1,0.4,0.2,0.5,0.4C161.3,49.1,161.3,49.3,161.3,49.5z M164.5,49.2
				l0.1-0.5l1.8,0.4l-0.1,0.6L164.5,49.2z M166.9,49.7l0.1-0.6l1.9,0.2l-0.1,0.6L166.9,49.7z M171.3,49.9l-1.9,0l0.1-0.6l1.9,0
				L171.3,49.9z M164,48.5l-0.1,0.5l-1.8-0.6l0.1-0.5L164,48.5z M161.5,48.2l-1.8-0.8l0.1-0.5l1.8,0.8L161.5,48.2z M165.4,48.1
				c-0.2,0-0.4-0.1-0.5-0.3c-0.1-0.2-0.2-0.3-0.1-0.5c0-0.2,0.1-0.4,0.3-0.4c0.2-0.1,0.4-0.1,0.6-0.1l0.4,0.1c0.2,0,0.4,0.1,0.5,0.3
				c0.1,0.1,0.2,0.3,0.1,0.5c0,0.2-0.1,0.4-0.3,0.5c-0.2,0.1-0.4,0.1-0.6,0.1L165.4,48.1z M167.9,48.5c-0.2,0-0.4-0.1-0.5-0.2
				c-0.1-0.1-0.2-0.3-0.1-0.5c0-0.2,0.1-0.4,0.3-0.5c0.2-0.1,0.4-0.2,0.6-0.2l0.4,0c0.2,0,0.4,0.1,0.5,0.2c0.1,0.1,0.2,0.3,0.1,0.5
				c0,0.2-0.1,0.4-0.3,0.5c-0.2,0.1-0.4,0.2-0.6,0.2L167.9,48.5z M170.8,48.6l-0.4,0c-0.2,0-0.4-0.1-0.5-0.2
				c-0.1-0.1-0.2-0.3-0.1-0.5c0-0.2,0.1-0.4,0.3-0.5c0.2-0.1,0.4-0.2,0.6-0.2l0.4,0c0.2,0,0.4,0,0.5,0.2c0.1,0.1,0.2,0.3,0.1,0.5
				c0,0.2-0.1,0.4-0.3,0.6C171.3,48.5,171.1,48.6,170.8,48.6z"/>
			<path fill="#301B46" d="M144.2,40.8l-0.5-1c-0.1-0.2-0.1-0.3-0.1-0.2c0,0,0,0.2,0.1,0.3l0.5,1c0.1,0.2,0.1,0.2,0.1,0.2
				C144.3,41.1,144.3,41,144.2,40.8z"/>
			<path fill="#301B46" d="M155.3,51.9c0-0.1,0-0.2-0.1-0.3l-0.5-0.5c-0.1-0.1-0.2-0.1-0.2,0c0,0.1,0,0.2,0.1,0.3l0.5,0.5
				C155.2,52,155.3,52,155.3,51.9z"/>
			<path fill="#301B46" d="M144.2,36.7l0.5,0.9c0.1,0.2,0.1,0.2,0.1,0.2c0,0,0-0.2-0.1-0.3l-0.5-0.9c-0.1-0.2-0.1-0.2-0.1-0.2
				C144.1,36.4,144.1,36.5,144.2,36.7z"/>
			<path fill="#301B46" d="M160,49.1l0.6,0.3c0.1,0.1,0.2,0,0.2-0.1c0-0.1,0-0.2-0.1-0.2l-0.6-0.3c-0.1-0.1-0.2,0-0.2,0
				C159.9,48.9,159.9,49,160,49.1z"/>
			<path fill="#301B46" d="M146.5,38.4l0.5,0.8c0.1,0.1,0.1,0.2,0.2,0.1c0-0.1,0-0.1-0.1-0.3l-0.5-0.8c-0.1,0-0.1-0.1-0.2-0.1
				C146.3,38.1,146.4,38.2,146.5,38.4z"/>
			<path fill="#301B46" d="M153.3,53.8c0,0,0.1,0,0.4,0c-0.1-0.2-0.1-0.4-0.1-0.5c0-0.2,0.1-0.2,0.2-0.2c0.1,0,0.3,0.2,0.5,0.4
				l0.2,0.2c0.2,0,0.4,0,0.6-0.1l-1.3-1.4L153.3,53.8z"/>
			<path fill="#301B46" d="M168.7,47.8c0-0.1,0-0.1-0.1-0.2l-0.6,0c-0.1,0-0.2,0-0.2,0.1c0,0.1,0,0.1,0.1,0.2l0.6,0
				C168.6,47.9,168.7,47.9,168.7,47.8z"/>
			<path fill="#301B46" d="M158.9,45.3c0-0.1,0-0.1-0.1-0.2l-0.6-0.3c-0.1-0.1-0.2,0-0.2,0c0,0.1,0,0.1,0.1,0.2l0.6,0.3
				C158.9,45.3,158.9,45.3,158.9,45.3z"/>
			<path fill="#301B46" d="M166.2,47.6c0-0.1,0-0.1-0.1-0.2l-0.6-0.1c-0.1,0-0.2,0-0.2,0.1c0,0.1,0,0.1,0.1,0.2l0.6,0.1
				C166.1,47.7,166.2,47.7,166.2,47.6z"/>
			<path fill="#301B46" d="M142.9,27.1c0,0,0,0.1,0,0.1C143,27.1,143,27.1,142.9,27.1C143,27.1,142.9,27,142.9,27.1z"/>
			<path fill="#301B46" d="M175.6,47.4L175.6,47.4c0,0-0.1-0.1-0.1-0.1C175.5,47.4,175.5,47.4,175.6,47.4z"/>
			<path fill="#301B46" d="M165.8,44.2c0,0.1,0,0.1,0.1,0.2l0.6,0.1c0.1,0,0.2,0,0.2-0.1c0-0.1,0-0.1-0.1-0.1l-0.6-0.1
				C165.9,44.1,165.8,44.1,165.8,44.2z"/>
			<path fill="#301B46" d="M159.3,42.4l-0.6-0.3c-0.1,0-0.2,0-0.2,0c0,0.1,0,0.1,0.1,0.2l0.6,0.3c0.1,0,0.2,0,0.2,0
				C159.4,42.5,159.4,42.4,159.3,42.4z"/>
			<path fill="#301B46" d="M140.8,31.4c0,0,0-0.1-0.1-0.2c0,0,0,0.1,0,0.1C140.7,31.3,140.8,31.4,140.8,31.4z"/>
			<path fill="#301B46" d="M154,53.8C154,53.8,154,53.8,154,53.8C154,53.7,154,53.7,154,53.8z"/>
			<path fill="#301B46" d="M155.6,48.9l-0.6-0.5c-0.1-0.1-0.2-0.1-0.2,0c0,0.1,0,0.2,0.1,0.2l0.6,0.5c0.1,0.1,0.2,0.1,0.2,0
				C155.7,49.1,155.7,49,155.6,48.9z"/>
			<path fill="#301B46" d="M171.1,47.6l-0.6,0c-0.1,0-0.2,0.1-0.2,0.2c0,0.1,0,0.2,0.1,0.1l0.6,0c0.1,0,0.2-0.1,0.2-0.2
				C171.3,47.7,171.2,47.6,171.1,47.6z"/>
			<path fill="#301B46" d="M155.9,43.5l0.6,0.4c0.1,0.1,0.2,0.1,0.2,0c0-0.1,0-0.1-0.1-0.2l-0.6-0.4c-0.1-0.1-0.2-0.1-0.2,0
				C155.7,43.4,155.8,43.5,155.9,43.5z"/>
			<path fill="#301B46" d="M153.8,44.5l-0.6-0.5c-0.1-0.1-0.2-0.1-0.2,0c0,0.1,0,0.1,0.1,0.2l0.6,0.5c0.1,0.1,0.2,0.1,0.2,0
				C153.9,44.6,153.9,44.6,153.8,44.5z"/>
			<path fill="#301B46" d="M144,25.3l-0.2-0.3c0,0,0,0-0.1,0.1l0.3,0.3c0,0,0,0,0,0C144,25.4,144,25.4,144,25.3
				C144,25.4,144,25.3,144,25.3z"/>
			<path fill="#301B46" d="M157.1,50.3c0,0.1,0,0.2,0.1,0.2l0.6,0.4c0.1,0.1,0.2,0.1,0.2,0c0-0.1,0-0.2-0.1-0.2l-0.6-0.4
				C157.2,50.2,157.1,50.2,157.1,50.3z"/>
			<path fill="#301B46" d="M160.5,46.1l0.6,0.2c0.1,0,0.2,0,0.2-0.1c0-0.1,0-0.1-0.1-0.2l-0.6-0.2c-0.1,0-0.2,0-0.2,0.1
				C160.4,46,160.4,46.1,160.5,46.1z"/>
			<path fill="#301B46" d="M144.1,25.2c0-0.1,0.1-0.1,0.1-0.2l-0.2-0.3c-0.1,0-0.1,0.1-0.2,0.1l0,0.1
				C144,25.1,144.1,25.2,144.1,25.2z"/>
			<path fill="#301B46" d="M159.9,39.9c0-0.1,0-0.1-0.1-0.2l-0.6-0.2c-0.1,0-0.2,0-0.2,0c0,0.1,0,0.1,0.1,0.2l0.6,0.2
				C159.8,40,159.9,40,159.9,39.9z"/>
			<path fill="#301B46" d="M144.6,24.7C144.6,24.7,144.6,24.7,144.6,24.7c-0.1-0.1-0.2-0.1-0.2-0.2c-0.1,0-0.1,0.1-0.2,0.1l0.2,0.3
				C144.5,24.9,144.5,24.8,144.6,24.7z"/>
			<path fill="#301B46" d="M153.5,47.1c0-0.1,0-0.2-0.1-0.3l-0.5-0.6c-0.1-0.1-0.2-0.1-0.2-0.1c0,0.1,0,0.2,0.1,0.3l0.5,0.6
				C153.4,47.2,153.5,47.2,153.5,47.1z"/>
			<path fill="#301B46" d="M144.7,24.6c0.4-0.4,0.7-0.7,1.1-1l-0.1-0.1c-0.3,0.2-0.6,0.4-0.9,0.6l0,0l0,0c-0.1,0.1-0.1,0.1-0.2,0.2
				c0,0,0,0,0,0C144.7,24.4,144.7,24.5,144.7,24.6z"/>
			<path fill="#301B46" d="M143.6,26c0-0.1,0.1-0.1,0.1-0.2l-0.3-0.4c0,0.1-0.1,0.1-0.1,0.2c0.1,0.1,0.1,0.1,0.2,0.2L143.6,26z"/>
			<path fill="#301B46" d="M167.3,51.1c-0.1,0-0.2,0-0.2,0.1c0,0,0,0.1,0,0.1c0.2-0.1,0.4-0.1,0.6-0.2L167.3,51.1z"/>
			<path fill="#301B46" d="M143.3,25.9c-0.1-0.1-0.1-0.2-0.2-0.2c0,0,0,0.1,0.1,0.3l0.2,0.3c0,0,0,0,0-0.1L143.3,25.9z"/>
			<path fill="#301B46" d="M143.9,38.3l0.5,1c0.1,0.2,0.1,0.2,0.1,0.2c0,0,0-0.2-0.1-0.3l-0.5-1c-0.1-0.2-0.1-0.2-0.1-0.2
				C143.8,38,143.8,38.1,143.9,38.3z"/>
			<path fill="#301B46" d="M158.3,47.8l-0.6-0.4c-0.1-0.1-0.2-0.1-0.2,0c0,0.1,0,0.2,0.1,0.2l0.6,0.4c0.1,0.1,0.2,0.1,0.2,0
				C158.5,48,158.4,47.9,158.3,47.8z"/>
			<path fill="#301B46" d="M148.2,43.4l0.5,0.8c0.1,0.1,0.1,0.2,0.2,0.1c0-0.1,0-0.2-0.1-0.3l-0.5-0.8c-0.1-0.1-0.1-0.2-0.2-0.1
				C148.1,43.2,148.1,43.3,148.2,43.4z"/>
			<path fill="#301B46" d="M150.5,43.8c0,0.1,0,0.2,0.1,0.3l0.5,0.6c0.1,0.1,0.2,0.1,0.2,0.1c0-0.1,0-0.2-0.1-0.3l-0.5-0.6
				C150.6,43.8,150.5,43.8,150.5,43.8z"/>
			<path fill="#301B46" d="M146.7,40.9l-0.5-0.8c-0.1-0.2-0.1-0.2-0.1-0.2c0,0.1,0,0.2,0.1,0.3l0.5,0.8c0.1,0.1,0.1,0.2,0.2,0.1
				C146.8,41.1,146.8,41,146.7,40.9z"/>
			<path fill="#301B46" d="M143.9,25.6C143.9,25.5,143.9,25.5,143.9,25.6l-0.3-0.4c0,0-0.1,0.1-0.1,0.1l0.3,0.4
				C143.8,25.7,143.9,25.6,143.9,25.6z"/>
			<path fill="#301B46" d="M155.3,45.9c0,0.1,0,0.1,0.1,0.2l0.6,0.4c0.1,0.1,0.2,0.1,0.2,0c0-0.1,0-0.1-0.1-0.2l-0.6-0.4
				C155.4,45.8,155.3,45.8,155.3,45.9z"/>
			<path fill="#301B46" d="M156.8,53.1c-0.1-0.1-0.2-0.1-0.2,0c0,0.1,0,0.2,0.1,0.3l0.1,0c0.1,0,0.2,0,0.3,0L156.8,53.1z"/>
			<path fill="#301B46" d="M163.8,47.1c0-0.1,0-0.1-0.1-0.2l-0.6-0.2c-0.1,0-0.2,0-0.2,0.1c0,0.1,0,0.1,0.1,0.2l0.6,0.2
				C163.7,47.2,163.7,47.2,163.8,47.1z"/>
			<path fill="#301B46" d="M160.2,52.2l-0.6-0.3c-0.1-0.1-0.2-0.1-0.2,0c0,0.1,0,0.2,0.1,0.2l0.6,0.3c0.1,0.1,0.2,0,0.2,0
				C160.3,52.3,160.3,52.2,160.2,52.2z"/>
			<path fill="#301B46" d="M163.3,43.8c0,0.1,0,0.1,0.1,0.2l0.6,0.1c0.1,0,0.2,0,0.2-0.1c0-0.1,0-0.1-0.1-0.2l-0.6-0.1
				C163.4,43.7,163.3,43.7,163.3,43.8z"/>
			<path fill="#301B46" d="M147.8,22.3c0,0-0.1,0-0.3,0.1c0,0,0,0,0,0C147.7,22.3,147.8,22.3,147.8,22.3z"/>
			<path fill="#301B46" d="M148.5,41.4l0.5,0.7c0.1,0.1,0.1,0.2,0.2,0.1c0-0.1,0-0.1-0.1-0.3l-0.5-0.7c-0.1-0.1-0.1-0.2-0.2-0.1
				C148.4,41.2,148.4,41.3,148.5,41.4z"/>
			<path fill="#301B46" d="M147.2,22.6C147.2,22.6,147.1,22.6,147.2,22.6c-0.1,0-0.2,0.1-0.3,0.1l0.1,0
				C147,22.7,147.1,22.7,147.2,22.6z"/>
			<path fill="#301B46" d="M146.8,22.9L146.8,22.9c-0.1,0-0.2,0-0.3,0.1l0.1,0.1C146.6,23,146.7,22.9,146.8,22.9z"/>
			<path fill="#301B46" d="M143.3,26.4L143.3,26.4c-0.1-0.2-0.2-0.4-0.3-0.5c0,0.1-0.1,0.1-0.1,0.2l0.4,0.6
				C143.3,26.5,143.3,26.5,143.3,26.4z"/>
			<path fill="#301B46" d="M146.3,23.1C146.3,23.1,146.2,23.1,146.3,23.1c-0.1,0.1-0.1,0.1,0,0.1l0,0
				C146.3,23.2,146.4,23.2,146.3,23.1L146.3,23.1z"/>
			<path fill="#301B46" d="M162.3,49.9c0,0.1,0,0.2,0.1,0.2l0.6,0.2c0.1,0,0.2,0,0.2-0.1c0-0.1,0-0.2-0.1-0.2l-0.6-0.2
				C162.3,49.8,162.3,49.8,162.3,49.9z"/>
			<path fill="#301B46" d="M164.7,50.7c0,0.1,0,0.2,0.1,0.2l0.6,0.2c0.1,0,0.2,0,0.2-0.1c0-0.1,0-0.2-0.1-0.2l-0.6-0.2
				C164.8,50.6,164.7,50.6,164.7,50.7z"/>
			<path fill="#301B46" d="M142.9,34c0,0,0-0.1-0.1-0.3l-0.5-1c-0.1-0.2-0.1-0.2-0.1-0.2c0,0,0,0.2,0.1,0.3l0.5,1
				C142.8,34,142.9,34.1,142.9,34z"/>
			<path fill="#301B46" d="M142.3,31.1c0,0,0,0.1,0.1,0.3l0,0.1c0-0.1,0-0.2,0-0.2C142.4,31.1,142.3,31.1,142.3,31.1z"/>
			<path fill="#301B46" d="M160.9,43.1c0,0.1,0,0.1,0.1,0.2l0.6,0.2c0.1,0,0.2,0,0.2-0.1c0-0.1,0-0.1-0.1-0.2l-0.6-0.2
				C161,43,160.9,43,160.9,43.1z"/>
			<path fill="#301B46" d="M157.3,39c0.1,0.1,0.2,0,0.2,0c0-0.1,0-0.1-0.1-0.2l-0.2-0.1l0,0.2L157.3,39z"/>
			<path fill="#301B46" d="M146.2,23.3C146.1,23.3,146.1,23.3,146.2,23.3c-0.2-0.1-0.2,0-0.3,0l0.1,0.1
				C146,23.4,146.1,23.4,146.2,23.3z"/>
			<path fill="#301B46" d="M151,41.9l0.5,0.6c0.1,0.1,0.2,0.1,0.2,0.1c0-0.1,0-0.1-0.1-0.2l-0.5-0.6c-0.1-0.1-0.2-0.1-0.2-0.1
				C150.9,41.7,150.9,41.8,151,41.9z"/>
			<path fill="#301B46" d="M156.9,41.4c0.1,0.1,0.2,0.1,0.2,0c0-0.1,0-0.1-0.1-0.2l-0.3-0.2l0,0.2L156.9,41.4z"/>
		</g>
		<g>
			<path fill="#009A66" d="M181.8,20.4c-0.1,0.1-0.1,0.2,0,0.2c0,0,0,0,0.1,0c0-0.1,0-0.3,0-0.4L181.8,20.4z"/>
			<path fill="#009A66" d="M172,2.4c0.1,0,0.1-0.1,0.1-0.2l-0.4-0.5c-0.1-0.1-0.2-0.1-0.3-0.1c-0.1,0-0.1,0.1-0.1,0.2l0.4,0.5
				C171.8,2.4,171.8,2.5,172,2.4z"/>
			<path fill="#009A66" d="M178.9,28.4l-0.6,0.8c-0.1,0.2-0.1,0.2-0.1,0.2c0.1,0,0.1-0.1,0.2-0.2l0.6-0.8c0.1-0.1,0.1-0.2,0.1-0.2
				C179.1,28.2,179,28.2,178.9,28.4z"/>
			<path fill="#009A66" d="M166.1,38.2c-0.1,0-0.2,0-0.2,0l-0.4,0.6c0.1,0,0.2,0,0.3,0.1c0,0,0-0.1,0-0.2
				C165.9,38.6,166,38.4,166.1,38.2z"/>
			<path fill="#009A66" d="M169.8,38.8c0,0-0.1,0-0.1,0.1C169.7,38.9,169.8,38.9,169.8,38.8C169.8,38.8,169.8,38.8,169.8,38.8z"/>
			<path fill="#009A66" d="M180.6,25.9c-0.1,0.1-0.1,0.2-0.1,0.2C180.6,26.1,180.6,26.1,180.6,25.9c0.1,0,0.1-0.2,0.2-0.3
				L180.6,25.9z"/>
			<path fill="#009A66" d="M174.1,34.9c0,0-0.1,0.1-0.3,0.3l-0.7,0.9c-0.1,0.2-0.2,0.2-0.1,0.2c0,0,0.1-0.1,0.3-0.3l0.7-0.9
				C174.1,35,174.1,34.9,174.1,34.9z"/>
			<path fill="#009A66" d="M180.7,22.6l-0.4,0.8c-0.1,0.1-0.1,0.2,0,0.2c0.1,0,0.1-0.1,0.2-0.2l0.4-0.8c0.1-0.1,0.1-0.2,0-0.2
				C180.8,22.4,180.8,22.5,180.7,22.6z"/>
			<path fill="#009A66" d="M175.5,34.4c0,0-0.1,0.1-0.3,0.3l-0.8,0.9c-0.1,0.2-0.2,0.2-0.2,0.2c0,0,0.1-0.1,0.3-0.3l0.8-0.9
				C175.5,34.5,175.6,34.4,175.5,34.4z"/>
			<path fill="#009A66" d="M171.2,0.3c-0.1,0.2-0.2,0.3-0.5,0.3c-0.1,0-0.1,0-0.2,0c0,0.2,0.1,0.5,0.1,0.7c0.1-0.1,0.2-0.2,0.4-0.3
				c0.2-0.1,0.5-0.1,0.7,0c0.2,0.1,0.4,0.2,0.5,0.4l0.2,0.4c0.1,0.2,0.2,0.4,0.1,0.6c-0.1,0.2-0.2,0.3-0.5,0.3
				c-0.2,0.1-0.5,0.1-0.7,0c-0.2-0.1-0.4-0.2-0.5-0.4L170.8,2c0,0,0,0,0-0.1c0.1,0.5,0.1,1.2,0.2,1.8l0.1,0l0.9,1.7l-0.6,0.2L171,5
				c0,0.6,0.1,1.1,0.1,1.8c0.1,0.1,0.1,0.2,0.2,0.3l0.2,0.4c0.1,0.2,0.1,0.4,0.1,0.6c-0.1,0.2-0.2,0.3-0.4,0.3l0,0
				c0,0.2,0,0.4,0,0.6c0.1,0,0.1-0.1,0.2-0.1c0.2-0.1,0.4,0,0.6,0.1c0.2,0.1,0.3,0.3,0.4,0.5l0.1,0.4c0.1,0.2,0.1,0.4,0,0.6
				c-0.1,0.2-0.2,0.3-0.4,0.3c-0.2,0.1-0.4,0-0.5-0.1c-0.2-0.1-0.3-0.3-0.4-0.5l-0.1-0.2c0,0.5-0.1,1.1-0.1,1.7l0.5,1.8l-0.5,0.1
				l-0.2-0.6c-0.1,0.6-0.1,1.1-0.2,1.7c0.1,0.1,0.1,0.2,0.1,0.4l0.1,0.4c0,0.2,0,0.4,0,0.6c-0.1,0.2-0.2,0.3-0.4,0.3
				c0,0-0.1,0-0.1,0c-0.2,0.8-0.4,1.7-0.6,2.5l0,0.3l-0.1,0c-0.2,0.5-0.4,1.1-0.6,1.6l0.4-0.1l0-0.8l0.4-0.1l0,0.8l0.5-0.1l0-0.1
				c0-0.3,0-0.5,0.1-0.6c0.1-0.2,0.2-0.3,0.4-0.3c0.2,0,0.3,0,0.4,0.1c0.1,0.1,0.1,0.3,0.1,0.6l0,0.2l0.5-0.1l0-1l0.4-0.1l0,1
				l0.5-0.1l0-0.2c0-0.3,0.1-0.5,0.2-0.6c0.1-0.2,0.2-0.3,0.4-0.3c0.2,0,0.3,0,0.4,0.1c0.1,0.1,0.1,0.3,0.1,0.6l0,0.3l0.5-0.1
				l0.1-1.1l0.4-0.1l-0.1,1.1l0.5-0.1c0,0,0,0,0,0.1c0,0,0,0,0,0l0.1-0.4c0-0.3,0.1-0.5,0.2-0.7c0.1-0.2,0.2-0.3,0.4-0.3
				c0.2,0,0.3,0,0.4,0.1c0.1,0.1,0.1,0.3,0.1,0.6l-0.1,0.5c0,0.3-0.1,0.5-0.2,0.7c-0.1,0.2-0.3,0.3-0.4,0.3c-0.1,0-0.2,0-0.2,0
				c0,0.2,0.1,0.4,0.1,0.6c0.1,0,0.2,0,0.3,0.1c0.1,0.1,0,0.3,0,0.6l-0.1,0.3c0.1,0.5,0.1,1,0.1,1.5l0.2-0.1l-0.2,0.5
				c0,0.4,0,0.7,0,1.1c0-0.1,0.1-0.2,0.1-0.4l0.2-0.5c0.1-0.3,0.2-0.5,0.4-0.7c0.1-0.2,0.3-0.3,0.4-0.3c0.1,0,0.2,0,0.2,0.1
				c0,0.1,0,0.4-0.1,0.6l-0.2,0.5c-0.1,0.3-0.3,0.5-0.4,0.7c-0.1,0.2-0.3,0.3-0.4,0.3c-0.1,0-0.2,0-0.2-0.1c0,0.2,0,0.5,0,0.8
				c0.1,0,0.1,0,0.1,0.2c0,0.1-0.1,0.3-0.2,0.6c0,0.3-0.1,0.6-0.1,0.9l0.9-1.9l0.3-0.1l-1.2,2.3l-0.2,0c-0.1,0.5-0.2,0.9-0.3,1.4
				c0.1-0.2,0.3-0.4,0.4-0.6c0.2-0.2,0.3-0.3,0.4-0.3c0.1,0,0.2,0,0.1,0.2c0,0.2-0.1,0.4-0.3,0.7l-0.3,0.5c-0.2,0.3-0.4,0.6-0.6,0.8
				c-0.1,0.1-0.1,0.1-0.2,0.2c-0.2,0.6-0.5,1.3-0.9,1.9l0.8-1.2l0.3-0.1l-1.7,2.5l-0.1,0c-0.2,0.3-0.4,0.6-0.6,0.9l0.1,0l-1.9,2.5
				l-0.2,0.1l1.3-1.8c-0.2,0.2-0.5,0.5-0.7,0.7l-0.1,0.2c-0.2,0.3-0.5,0.6-0.7,0.8c-0.2,0.2-0.3,0.3-0.4,0.3c-0.1,0-0.1,0,0-0.2
				c0.1-0.1,0.2-0.3,0.3-0.4c-0.1,0.1-0.3,0.2-0.4,0.2l-0.4,0.5l-0.2,0.1l0.3-0.4c-0.1,0.1-0.2,0.1-0.4,0.2c0,0.1-0.1,0.1-0.1,0.2
				c-0.2,0.2-0.3,0.3-0.4,0.3c-0.1,0-0.1,0,0-0.2c0,0,0-0.1,0.1-0.1c-0.1,0-0.2,0.1-0.3,0.1l-0.2,0.3l-0.2,0.1l0.2-0.3
				c-0.1,0-0.2,0-0.3,0.1c0,0-0.1,0.1-0.1,0.1c-0.2,0.2-0.3,0.3-0.4,0.3c-0.1,0-0.1,0,0-0.2c0-0.1,0.1-0.1,0.1-0.2
				c-0.1,0-0.2,0-0.3,0l-0.3,0.5l-0.2,0.1l0.3-0.5c-0.1,0-0.2,0-0.2,0c-0.1,0.1-0.2,0.3-0.3,0.4c-0.1,0.2-0.2,0.3-0.3,0.3
				c0.5,0.1,1.1,0.2,1.7,0.2c0.1-0.1,0.2-0.2,0.2-0.2c0.1,0,0.1,0,0,0.2c0.1,0,0.2,0,0.3,0l0.2-0.3l0.2-0.1l-0.3,0.3
				c0.1,0,0.2,0,0.2,0c0.1-0.1,0.1-0.2,0.2-0.2c0.2-0.2,0.3-0.3,0.4-0.3c0.1,0,0.1,0,0,0.2c0,0.1-0.1,0.2-0.2,0.3c0.1,0,0.1,0,0.2,0
				l0.5-0.6l0.2-0.1l-0.5,0.6c0.1,0,0.2,0,0.2,0c0.2-0.2,0.3-0.3,0.4-0.5c0.2-0.2,0.4-0.3,0.4-0.4c0.1,0,0.1,0.1,0,0.2
				c-0.1,0.1-0.2,0.3-0.4,0.5c0.1,0,0.2,0,0.2-0.1l0.7-0.8l0.2-0.1l-0.7,0.8c0.1,0,0.2-0.1,0.3-0.1c0.2-0.2,0.4-0.4,0.6-0.6
				c0.2-0.2,0.4-0.3,0.5-0.4c0.1,0,0.1,0.1-0.1,0.2c-0.1,0.1-0.2,0.3-0.4,0.5c0.1,0,0.2-0.1,0.3-0.1l0.7-0.7l0.2-0.1l-0.6,0.7
				c0.1-0.1,0.3-0.1,0.4-0.2c0.1-0.1,0.3-0.3,0.4-0.4c0.2-0.2,0.4-0.3,0.5-0.4c0.1,0,0.1,0.1-0.1,0.2c0,0-0.1,0.1-0.1,0.1
				c0.2-0.1,0.4-0.2,0.6-0.4l0.1-0.1l0,0c0.1-0.1,0.2-0.2,0.3-0.2c0.5-0.4,0.9-0.8,1.4-1.2c0.1-0.2,0.3-0.4,0.6-0.7l0.5-0.6
				c0.1-0.1,0.1-0.1,0.2-0.2c0.4-0.5,0.8-1.1,1.2-1.6l-0.2,0.1l0.6-0.8c0.2-0.3,0.3-0.6,0.5-0.9c0,0.1-0.1,0.1-0.2,0.2l-0.5,0.6
				c-0.3,0.3-0.5,0.6-0.7,0.8c-0.2,0.2-0.4,0.3-0.5,0.4c-0.1,0-0.1,0,0-0.2c0.1-0.2,0.3-0.4,0.5-0.8l0.5-0.6
				c0.3-0.3,0.5-0.6,0.7-0.8c0.2-0.2,0.4-0.3,0.5-0.4c0,0,0,0,0,0c0.3-0.6,0.6-1.3,0.8-1.9l-1,1.3l-0.3,0.1l1.5-2.1
				c0.1-0.4,0.3-0.8,0.4-1.2c-0.2,0.2-0.3,0.3-0.4,0.3c-0.1,0-0.2,0-0.1-0.2c0-0.2,0.2-0.4,0.4-0.7l0.3-0.5c0.1-0.2,0.2-0.3,0.3-0.4
				c0.1-0.4,0.2-0.8,0.3-1.2l-0.3,0.1l0.5-1c0.1-0.7,0.2-1.3,0.3-1.9c-0.1,0.1-0.2,0.1-0.3,0.1c-0.2,0-0.2,0-0.2-0.1
				c0-0.1,0-0.4,0.2-0.6l0.2-0.5c0.1-0.2,0.2-0.4,0.3-0.6c0.1-0.7,0.1-1.2,0-1.4l0.5,0c0-0.1,0-0.2,0.1-0.4l0.2-0.5
				c0.1-0.3,0.2-0.5,0.4-0.7c0.2-0.2,0.3-0.3,0.5-0.4c0.2-0.1,0.3,0,0.3,0.1c0,0.1,0,0.3-0.1,0.6l-0.2,0.5c-0.1,0.2-0.2,0.4-0.3,0.6
				l0.6-0.1l0.8-2l0.2,0c-0.2-0.2-0.3-0.5-0.5-0.8c0,0-0.1,0.1-0.1,0.1c-0.2,0.2-0.3,0.3-0.5,0.4c-0.2,0.1-0.3,0-0.4-0.1
				c-0.1-0.1-0.1-0.3,0-0.6l0.1-0.5c0-0.1,0.1-0.3,0.1-0.4c-0.2-0.3-0.4-0.6-0.6-0.9l-0.3,0.1l0.1-0.5c-0.2-0.2-0.4-0.5-0.5-0.8
				c0,0.1,0,0.1,0,0.2l0,0.4c0,0.3-0.1,0.5-0.2,0.7c-0.1,0.2-0.3,0.3-0.5,0.4c-0.2,0.1-0.3,0-0.4-0.1c-0.1-0.1-0.1-0.3-0.1-0.6
				l0-0.4c0-0.3,0.1-0.5,0.2-0.6c0.1-0.2,0.3-0.3,0.5-0.4c0.1,0,0.2,0,0.2,0c-0.1-0.2-0.3-0.4-0.4-0.5c-0.1,0-0.2,0-0.3-0.1
				c-0.1-0.1-0.2-0.3-0.2-0.5c-0.2-0.3-0.5-0.6-0.7-1l0.1,1.9l-0.5,0.1l-0.1-1.9l0.5-0.1c-0.1-0.2-0.3-0.4-0.4-0.5l-0.2,0l-0.1-0.3
				c-0.5-0.6-1-1.2-1.5-1.8c-0.1,0.1-0.2,0.1-0.3,0.1c-0.2,0.1-0.4,0-0.6-0.1c-0.2-0.1-0.3-0.3-0.4-0.5l-0.1-0.4
				c-0.1-0.2-0.1-0.4,0-0.6c0,0,0-0.1,0.1-0.1c-0.9-0.9-1.7-1.8-2.7-2.6l-0.4,0.1l-0.6-0.9c-0.6-0.5-1.3-1-2-1.5
				C171.3,0.1,171.3,0.2,171.2,0.3z M171.1,17.6l0,0.4c0,0.2,0,0.5-0.1,0.6c-0.1,0.2-0.2,0.3-0.4,0.3c-0.2,0-0.3,0-0.4-0.1
				c-0.1-0.1-0.2-0.3-0.2-0.5l0-0.4c0-0.2,0-0.4,0.1-0.6c0.1-0.2,0.2-0.3,0.4-0.3c0.2,0,0.3,0,0.4,0.1
				C171,17.2,171.1,17.4,171.1,17.6z M175.1,13.9c0-0.2,0-0.4,0.1-0.6c0.1-0.2,0.2-0.3,0.4-0.3c0.2-0.1,0.3,0,0.5,0.1
				c0.1,0.1,0.2,0.3,0.2,0.5l0,0.4c0,0.2,0,0.5-0.1,0.6c-0.1,0.2-0.2,0.3-0.4,0.3c-0.2,0.1-0.3,0-0.4-0.1c-0.1-0.1-0.2-0.3-0.2-0.5
				L175.1,13.9z M178.6,20l0.4-0.1l-0.7,2.2l-0.4,0.1L178.6,20z M177.4,22.1c-0.1,0.2-0.3,0.3-0.4,0.3c-0.1,0-0.2,0-0.3-0.1
				c0-0.1,0-0.3,0.1-0.6l0.1-0.5c0.1-0.3,0.2-0.5,0.3-0.7c0.1-0.2,0.3-0.3,0.4-0.3c0.2,0,0.3,0,0.3,0.1c0,0.1,0,0.3-0.1,0.6
				l-0.1,0.5C177.6,21.7,177.5,21.9,177.4,22.1z M178.5,22.8c0.2-0.2,0.3-0.3,0.4-0.3c0.1,0,0.2,0,0.2,0.1c0,0.1,0,0.4-0.2,0.6
				l-0.2,0.5c-0.1,0.3-0.3,0.5-0.4,0.7c-0.2,0.2-0.3,0.3-0.4,0.3c-0.1,0-0.2,0-0.2-0.2c0-0.1,0.1-0.4,0.2-0.6l0.2-0.5
				C178.2,23.2,178.3,23,178.5,22.8z M178.4,25.3l0.3-0.1l-1.3,2.3l-0.3,0.1L178.4,25.3z M177.7,28.1c0.1,0,0.2,0,0.1,0.2
				c0,0.2-0.2,0.4-0.4,0.7l-0.4,0.5c-0.2,0.3-0.4,0.6-0.6,0.8c-0.2,0.2-0.3,0.3-0.5,0.4c-0.1,0-0.1,0-0.1-0.2
				c0.1-0.2,0.2-0.4,0.4-0.7l0.3-0.5c0.2-0.3,0.4-0.6,0.6-0.8C177.5,28.2,177.6,28.1,177.7,28.1z M176.2,31.2l0.3-0.1l-1.9,2.5
				l-0.3,0.1L176.2,31.2z M175.2,33.3c0.1-0.2,0.3-0.4,0.5-0.7l0.4-0.6c0.2-0.3,0.5-0.6,0.7-0.8c0.2-0.2,0.4-0.3,0.5-0.4
				c0.1,0,0.1,0,0,0.2c-0.1,0.2-0.2,0.4-0.5,0.7l-0.4,0.6c-0.3,0.3-0.5,0.6-0.7,0.8c-0.2,0.2-0.4,0.3-0.5,0.4
				C175.1,33.5,175.1,33.4,175.2,33.3z M177.1,30.2l-0.3,0.1l1.6-2.4l0.3-0.1L177.1,30.2z M178.2,27.4c-0.1,0-0.2,0-0.1-0.2
				c0-0.2,0.1-0.4,0.3-0.7l0.3-0.5c0.2-0.3,0.3-0.5,0.5-0.7c0.2-0.2,0.3-0.3,0.5-0.4c0.1,0,0.2,0,0.2,0.2c0,0.2-0.1,0.4-0.3,0.7
				l-0.3,0.5c-0.2,0.3-0.4,0.6-0.5,0.8C178.4,27.2,178.3,27.3,178.2,27.4z M179.1,24.4l-0.4,0.1l1.1-2.3l0.4-0.1L179.1,24.4z
				 M179.6,21.5c-0.2,0.2-0.3,0.3-0.5,0.3c-0.1,0-0.2,0-0.3-0.1c0-0.1,0-0.3,0.1-0.6l0.2-0.5c0.1-0.3,0.2-0.5,0.4-0.7
				c0.1-0.2,0.3-0.3,0.5-0.3c0.2,0,0.3,0,0.3,0.1c0,0.1,0,0.3-0.1,0.6l-0.2,0.5C179.9,21,179.8,21.3,179.6,21.5z M179.2,19.1
				l-0.4,0.1l0.5-2.1l0.4-0.1L179.2,19.1z M179.4,16.4l0.3-2l0.5-0.1l-0.3,2L179.4,16.4z M179.1,15.4l-0.1,0.4
				c0,0.3-0.1,0.5-0.2,0.7c-0.1,0.2-0.3,0.3-0.4,0.3c-0.2,0-0.3,0-0.4-0.1c-0.1-0.1-0.1-0.3-0.1-0.6l0-0.4c0-0.3,0.1-0.5,0.2-0.6
				c0.1-0.2,0.3-0.3,0.4-0.3c0.2-0.1,0.3,0,0.4,0.1C179.1,14.9,179.1,15.1,179.1,15.4z M178.2,17.4c0.2,0,0.3,0,0.4,0.1
				c0.1,0.1,0.1,0.3,0,0.6l-0.1,0.5c-0.1,0.3-0.2,0.5-0.3,0.7c-0.1,0.2-0.3,0.3-0.4,0.3c-0.2,0-0.3,0-0.3-0.1
				c-0.1-0.1-0.1-0.3,0-0.6l0.1-0.5c0-0.3,0.1-0.5,0.3-0.7C177.9,17.6,178.1,17.5,178.2,17.4z M177.2,17.1l-0.4,0.1l0.1-2l0.5-0.1
				L177.2,17.1z M175.6,12.3c-0.2,0.1-0.4,0-0.5-0.1c-0.1-0.1-0.2-0.3-0.3-0.5l-0.1-0.4c0-0.2,0-0.4,0.1-0.6
				c0.1-0.2,0.2-0.3,0.4-0.3c0.2-0.1,0.4,0,0.5,0.1c0.1,0.1,0.2,0.3,0.3,0.5l0.1,0.4c0,0.2,0,0.4-0.1,0.6
				C175.9,12.2,175.8,12.3,175.6,12.3z M173.8,10.2l-0.5,0.1l-0.6-1.8l0.5-0.1L173.8,10.2z M174,10.8l0.4,1.8l-0.5,0.1l-0.4-1.8
				L174,10.8z M172.3,6.1l0.8,1.7l-0.5,0.2l-0.8-1.7L172.3,6.1z M174,13.4l0.5-0.1l0.2,1.9l-0.5,0.1L174,13.4z M171.8,12.2
				c-0.1-0.2-0.1-0.4,0-0.6c0.1-0.2,0.2-0.3,0.4-0.3c0.2-0.1,0.4,0,0.5,0.1c0.1,0.1,0.3,0.3,0.3,0.5l0.1,0.4c0.1,0.2,0,0.4,0,0.6
				c-0.1,0.2-0.2,0.3-0.4,0.3c-0.2,0.1-0.3,0-0.5-0.1c-0.1-0.1-0.2-0.3-0.3-0.5L171.8,12.2z M172.4,15.1l-0.1-0.4
				c0-0.2,0-0.4,0.1-0.6c0.1-0.2,0.2-0.3,0.4-0.3c0.2-0.1,0.3,0,0.5,0.1c0.1,0.1,0.2,0.3,0.2,0.5l0.1,0.4c0,0.2,0,0.4-0.1,0.6
				c-0.1,0.2-0.2,0.3-0.4,0.3c-0.2,0-0.3,0-0.4-0.1C172.5,15.5,172.4,15.3,172.4,15.1z M172.1,18.5l-0.4,0.1l-0.1-1.9l0.4-0.1
				L172.1,18.5z M171.5,16.1l-0.3-1.9l0.5-0.1l0.3,1.9L171.5,16.1z M173.7,16.9l0,0.4c0,0.3,0,0.5-0.1,0.6c-0.1,0.2-0.2,0.3-0.4,0.3
				c-0.2,0-0.3,0-0.4-0.1c-0.1-0.1-0.1-0.3-0.2-0.6l0-0.4c0-0.2,0-0.5,0.1-0.6c0.1-0.2,0.2-0.3,0.4-0.3c0.2,0,0.3,0,0.4,0.1
				C173.6,16.5,173.7,16.6,173.7,16.9z M174.6,17.8l-0.4,0.1l0-2l0.4-0.1L174.6,17.8z M175.7,17.6c-0.2,0-0.3,0-0.4-0.1
				c-0.1-0.1-0.1-0.3-0.1-0.6l0-0.4c0-0.3,0.1-0.5,0.2-0.6c0.1-0.2,0.2-0.3,0.4-0.3c0.2,0,0.3,0,0.4,0.1c0.1,0.1,0.1,0.3,0.1,0.6
				l0,0.4c0,0.3-0.1,0.5-0.2,0.6C176,17.4,175.9,17.5,175.7,17.6z M176.7,17.9l0.4-0.1l-0.4,2.1l-0.4,0.1L176.7,17.9z M176,22.7
				l-0.4,0.1l0.6-2.1l0.4-0.1L176,22.7z M177.6,22.9l0.4-0.1L177,25l-0.3,0.1L177.6,22.9z M176.1,27.7c0-0.2,0.1-0.4,0.3-0.7
				l0.3-0.5c0.1-0.3,0.3-0.5,0.5-0.7c0.2-0.2,0.3-0.3,0.4-0.3c0.1,0,0.2,0,0.2,0.2c0,0.1-0.1,0.4-0.3,0.7l-0.3,0.5
				c-0.2,0.3-0.3,0.5-0.5,0.7c-0.2,0.2-0.3,0.3-0.4,0.3C176.1,28,176.1,27.9,176.1,27.7z M176.6,28.4l0.3-0.1l-1.5,2.4l-0.3,0.1
				L176.6,28.4z M173.7,33.7c0.1-0.2,0.2-0.4,0.5-0.7l0.4-0.5c0.2-0.3,0.4-0.6,0.6-0.8c0.2-0.2,0.3-0.3,0.4-0.4c0.1,0,0.1,0,0.1,0.2
				c-0.1,0.2-0.2,0.4-0.4,0.7l-0.4,0.5c-0.2,0.3-0.5,0.6-0.7,0.8c-0.2,0.2-0.3,0.3-0.4,0.4C173.6,34,173.6,33.9,173.7,33.7z
				 M171.5,37c-0.2,0.2-0.4,0.3-0.4,0.4c-0.1,0-0.1,0,0-0.2c0.1-0.2,0.3-0.4,0.5-0.8l0.4-0.6c0.2-0.3,0.5-0.6,0.7-0.8
				c0.2-0.2,0.3-0.3,0.4-0.4c0.1,0,0.1,0,0,0.2c-0.1,0.2-0.3,0.4-0.5,0.7l-0.4,0.6C171.9,36.5,171.7,36.8,171.5,37z M171.9,37
				l-0.2,0.1l2.1-2.6l0.2-0.1L171.9,37z M172.8,36.6c-0.2,0.2-0.4,0.3-0.5,0.4c-0.1,0-0.1,0,0-0.2c0.1-0.2,0.3-0.4,0.6-0.8l0.5-0.6
				c0.3-0.3,0.5-0.6,0.7-0.8c0.2-0.2,0.4-0.3,0.5-0.4c0.1,0,0.1,0,0,0.2c-0.1,0.2-0.3,0.4-0.6,0.8l-0.5,0.6
				C173.3,36.1,173,36.4,172.8,36.6z M173.2,36.6l-0.2,0.1l2.2-2.6l0.3-0.1L173.2,36.6z M173.7,36.5c-0.1,0-0.1,0,0-0.2
				c0.1-0.2,0.3-0.4,0.6-0.8l0.5-0.6c0.3-0.3,0.5-0.6,0.8-0.8c0.2-0.2,0.4-0.3,0.5-0.4c0.1,0,0.1,0,0,0.2c-0.1,0.2-0.3,0.4-0.6,0.8
				l-0.5,0.6c-0.3,0.3-0.6,0.6-0.8,0.8C174,36.4,173.8,36.5,173.7,36.5z M177,33.5l-2.4,2.6l-0.2,0.1l2.4-2.6L177,33.5z M176.2,33.1
				l-0.3,0.1l2-2.5l0.3-0.1L176.2,33.1z M179.7,27.7c-0.1,0.2-0.2,0.4-0.4,0.7l-0.4,0.5c-0.2,0.3-0.4,0.6-0.6,0.8
				c-0.2,0.2-0.4,0.3-0.5,0.4c-0.1,0-0.1,0-0.1-0.2c0.1-0.2,0.2-0.4,0.4-0.7l0.4-0.5c0.2-0.3,0.4-0.6,0.6-0.8
				c0.2-0.2,0.4-0.3,0.5-0.4C179.7,27.5,179.8,27.5,179.7,27.7z M179.3,27l-0.3,0.1l1.4-2.4l0.3-0.1L179.3,27z M181.4,21.9
				c0,0.1-0.1,0.4-0.2,0.7l-0.3,0.5c-0.2,0.3-0.3,0.5-0.5,0.7c-0.2,0.2-0.3,0.3-0.5,0.4c-0.1,0-0.2,0-0.2-0.2c0-0.1,0.1-0.4,0.2-0.7
				l0.2-0.5c0.1-0.3,0.3-0.5,0.5-0.7c0.2-0.2,0.3-0.3,0.5-0.4C181.3,21.8,181.4,21.8,181.4,21.9z M180.6,21.4l-0.4,0.1l0.9-2.2
				l0.4-0.1L180.6,21.4z M180.7,18.5c-0.1,0.2-0.3,0.3-0.5,0.3c-0.2,0-0.3,0-0.3-0.1c0-0.1,0-0.3,0-0.6l0.1-0.5
				c0.1-0.3,0.2-0.5,0.3-0.7c0.1-0.2,0.3-0.3,0.5-0.4c0.2,0,0.3,0,0.3,0.1c0.1,0.1,0,0.3,0,0.6l-0.1,0.5
				C181,18.1,180.8,18.3,180.7,18.5z M181.7,18.4l-0.4,0.1l0.7-2.1l0.4-0.1L181.7,18.4z M182.6,13.6l0.5-0.1l-0.5,2.1l-0.5,0.1
				L182.6,13.6z M181.4,13.9c0.2-0.1,0.3,0,0.4,0.1c0.1,0.1,0.1,0.3,0,0.6l-0.1,0.5c-0.1,0.3-0.2,0.5-0.3,0.7
				c-0.1,0.2-0.3,0.3-0.5,0.4c-0.2,0.1-0.3,0-0.4-0.1c-0.1-0.1-0.1-0.3,0-0.6l0.1-0.4c0-0.3,0.1-0.5,0.3-0.7
				C181,14.1,181.2,13.9,181.4,13.9z M180.4,11.6l-0.1,2l-0.5,0.1l0.1-2L180.4,11.6z M177.4,8c-0.1-0.2,0-0.4,0.1-0.6
				c0.1-0.2,0.2-0.3,0.5-0.3c0.2-0.1,0.4,0,0.6,0.1c0.2,0.1,0.3,0.3,0.3,0.5l0.1,0.4c0,0.2,0,0.4-0.1,0.6c-0.1,0.2-0.3,0.3-0.5,0.3
				c-0.2,0.1-0.4,0-0.5-0.1c-0.1-0.1-0.2-0.3-0.3-0.5L177.4,8z M177.9,10.9l0-0.4c0-0.2,0-0.4,0.1-0.6c0.1-0.2,0.3-0.3,0.5-0.3
				c0.2-0.1,0.4,0,0.5,0.1c0.1,0.1,0.2,0.3,0.2,0.5l0,0.4c0,0.2,0,0.5-0.1,0.6c-0.1,0.2-0.3,0.3-0.5,0.3c-0.2,0.1-0.4,0-0.5-0.1
				C178,11.3,177.9,11.1,177.9,10.9z M178.6,12.1c0.2-0.1,0.3,0,0.5,0.1c0.1,0.1,0.2,0.3,0.2,0.5l0,0.4c0,0.3-0.1,0.5-0.2,0.6
				c-0.1,0.2-0.3,0.3-0.4,0.3c-0.2,0.1-0.3,0-0.4-0.1c-0.1-0.1-0.2-0.3-0.2-0.5l0-0.4c0-0.2,0-0.5,0.2-0.6
				C178.3,12.2,178.4,12.1,178.6,12.1z M177,9.3l-0.5,0.1L176,7.6l0.6-0.2L177,9.3z M176.3,6.9L175.8,7l-0.6-1.8l0.6-0.2L176.3,6.9z
				 M174.7,2.8l0.8,1.7l-0.6,0.2L174.1,3L174.7,2.8z M176.6,10.1l0.5-0.1l0.2,1.9l-0.5,0.1L176.6,10.1z M177.4,12.5l0,1.9l-0.5,0.1
				l-0.1-1.9L177.4,12.5z M175.6,8.9c0.1,0.2,0,0.4,0,0.6c-0.1,0.2-0.2,0.3-0.4,0.3c-0.2,0.1-0.4,0-0.5-0.1
				c-0.2-0.1-0.3-0.3-0.3-0.5l-0.1-0.4c-0.1-0.2-0.1-0.4,0-0.6c0.1-0.2,0.2-0.3,0.4-0.3c0.2-0.1,0.4,0,0.6,0.1
				c0.2,0.1,0.3,0.3,0.3,0.5L175.6,8.9z M174.8,6.5c0.1,0.2,0.1,0.4,0,0.6c-0.1,0.2-0.2,0.3-0.4,0.3c-0.2,0.1-0.4,0-0.6-0.1
				c-0.2-0.1-0.3-0.3-0.4-0.5l-0.2-0.4c-0.1-0.2-0.1-0.4,0-0.6c0.1-0.2,0.2-0.3,0.4-0.3c0.2-0.1,0.4,0,0.6,0
				c0.2,0.1,0.3,0.2,0.4,0.5L174.8,6.5z M173.6,3.8l0.2,0.4c0.1,0.2,0.1,0.4,0.1,0.6c-0.1,0.2-0.2,0.3-0.4,0.3c-0.2,0.1-0.4,0-0.6,0
				c-0.2-0.1-0.3-0.2-0.5-0.5l-0.2-0.4C172,4,172,3.9,172.1,3.7c0.1-0.2,0.2-0.3,0.4-0.3c0.2-0.1,0.5-0.1,0.7,0
				C173.4,3.5,173.5,3.6,173.6,3.8z"/>
			<path fill="#009A66" d="M178.2,31.2l-0.7,0.9c-0.1,0.2-0.2,0.2-0.1,0.2c0,0,0.1-0.1,0.3-0.3l0.7-0.9c0.1-0.2,0.2-0.2,0.1-0.2
				C178.4,31,178.3,31.1,178.2,31.2z"/>
			<path fill="#009A66" d="M183.4,16.4c-0.1,0-0.1,0.1-0.2,0.2l-0.2,0.7c0,0.1,0,0.2,0,0.2c0.1,0,0.1-0.1,0.2-0.2l0.3-0.7
				C183.5,16.5,183.4,16.4,183.4,16.4z"/>
			<path fill="#009A66" d="M174.4,33l0.6-0.8c0.1-0.2,0.1-0.2,0.1-0.2c0,0-0.1,0.1-0.2,0.2l-0.6,0.8c-0.1,0.2-0.1,0.2-0.1,0.2
				C174.2,33.3,174.3,33.2,174.4,33z"/>
			<path fill="#009A66" d="M178.7,13.4l0-0.7c0-0.1,0-0.2-0.1-0.1c-0.1,0-0.1,0.1-0.1,0.2l0,0.7c0,0.1,0,0.2,0.1,0.1
				C178.7,13.6,178.7,13.5,178.7,13.4z"/>
			<path fill="#009A66" d="M175,30.2l0.5-0.8c0.1-0.1,0.1-0.2,0.1-0.2c0,0-0.1,0.1-0.2,0.2l-0.5,0.8c0,0.1,0,0.1-0.1,0.2
				C174.8,30.4,174.9,30.4,175,30.2z"/>
			<path fill="#009A66" d="M186,17.4c0,0-0.1-0.1-0.2-0.3c-0.1,0.1-0.3,0.2-0.4,0.3c-0.2,0-0.3,0-0.3-0.1c0-0.1,0-0.3,0.1-0.6
				l0.1-0.3c-0.1-0.2-0.2-0.3-0.3-0.5l-0.7,1.8L186,17.4z"/>
			<path fill="#009A66" d="M173.9,6.1c-0.1,0-0.1,0.1-0.1,0.2l0.2,0.6c0,0.1,0.1,0.1,0.2,0.1c0.1,0,0.1-0.1,0.1-0.2l-0.2-0.6
				C174,6.1,174,6.1,173.9,6.1z"/>
			<path fill="#009A66" d="M175.8,16c-0.1,0-0.1,0.1-0.1,0.2l0,0.7c0,0.1,0,0.2,0.1,0.2c0.1,0,0.1-0.1,0.1-0.2l0-0.7
				C175.9,16,175.9,16,175.8,16z"/>
			<path fill="#009A66" d="M174.7,8.4c-0.1,0-0.1,0.1-0.1,0.2l0.2,0.6c0,0.1,0.1,0.2,0.2,0.1c0.1,0,0.1-0.1,0.1-0.2l-0.2-0.6
				C174.9,8.5,174.8,8.4,174.7,8.4z"/>
			<path fill="#009A66" d="M166.3,38.3C166.3,38.3,166.3,38.3,166.3,38.3C166.3,38.2,166.3,38.2,166.3,38.3
				C166.3,38.3,166.3,38.3,166.3,38.3z"/>
			<path fill="#009A66" d="M170.5,0.1L170.5,0.1c0,0,0,0.1,0,0.2C170.6,0.2,170.6,0.2,170.5,0.1z"/>
			<path fill="#009A66" d="M171.9,10.3c0.1,0,0.1-0.1,0.1-0.2l-0.2-0.6c0-0.1-0.1-0.1-0.2-0.1c-0.1,0-0.1,0.1-0.1,0.2l0.2,0.6
				C171.7,10.2,171.8,10.3,171.9,10.3z"/>
			<path fill="#009A66" d="M173,17l0,0.7c0,0.1,0,0.2,0.1,0.1c0.1,0,0.1-0.1,0.1-0.2l0-0.7c0-0.1,0-0.2-0.1-0.1
				C173.1,16.8,173,16.8,173,17z"/>
			<path fill="#009A66" d="M171.1,38.4c0,0-0.1,0.1-0.2,0.2c0,0,0.1,0,0.1,0C171.1,38.4,171.1,38.4,171.1,38.4z"/>
			<path fill="#009A66" d="M185.6,16.8C185.6,16.8,185.6,16.8,185.6,16.8C185.6,16.8,185.6,16.8,185.6,16.8z"/>
			<path fill="#009A66" d="M180.6,17.4l-0.2,0.7c0,0.1,0,0.2,0,0.2c0.1,0,0.1-0.1,0.2-0.2l0.2-0.7c0-0.1,0-0.2-0.1-0.2
				C180.6,17.2,180.6,17.3,180.6,17.4z"/>
			<path fill="#009A66" d="M172.7,4l0.3,0.6c0.1,0.1,0.1,0.1,0.2,0.1c0.1,0,0.1-0.1,0.1-0.2L173,3.9c-0.1-0.1-0.1-0.1-0.2-0.1
				C172.7,3.8,172.6,3.9,172.7,4z"/>
			<path fill="#009A66" d="M175.6,19.5l0.1-0.7c0-0.1,0-0.2-0.1-0.2c-0.1,0-0.1,0.1-0.1,0.2l-0.1,0.7c0,0.1,0,0.2,0.1,0.2
				C175.5,19.7,175.6,19.6,175.6,19.5z"/>
			<path fill="#009A66" d="M177.3,21l-0.2,0.7c0,0.1,0,0.2,0,0.2c0.1,0,0.1-0.1,0.2-0.2l0.2-0.7c0-0.1,0-0.2,0-0.2
				C177.4,20.8,177.3,20.9,177.3,21z"/>
			<path fill="#009A66" d="M164.2,38.1l-0.2,0.3c0,0,0,0,0.1,0l0.2-0.4c0,0,0,0,0,0C164.3,38,164.3,38,164.2,38.1
				C164.3,38,164.3,38.1,164.2,38.1z"/>
			<path fill="#009A66" d="M181.1,15.5c0.1,0,0.1-0.1,0.2-0.2l0.1-0.7c0-0.1,0-0.2-0.1-0.2c-0.1,0-0.1,0.1-0.1,0.2l-0.1,0.7
				C181,15.5,181,15.5,181.1,15.5z"/>
			<path fill="#009A66" d="M175.9,14.2l0-0.6c0-0.1-0.1-0.2-0.1-0.1c-0.1,0-0.1,0.1-0.1,0.2l0,0.6c0,0.1,0,0.2,0.1,0.1
				C175.8,14.4,175.9,14.3,175.9,14.2z"/>
			<path fill="#009A66" d="M164.1,38c-0.1,0-0.1,0-0.2-0.1l-0.2,0.3c0.1,0,0.1,0.1,0.2,0.1l0-0.1C164,38.2,164.1,38.1,164.1,38z"/>
			<path fill="#009A66" d="M170.6,17.5c-0.1,0-0.1,0.1-0.1,0.2l0.1,0.6c0,0.1,0,0.2,0.1,0.1c0.1,0,0.1-0.1,0.1-0.2l-0.1-0.6
				C170.7,17.5,170.6,17.5,170.6,17.5z"/>
			<path fill="#009A66" d="M163.5,37.8C163.5,37.8,163.5,37.8,163.5,37.8c0,0.1,0,0.2-0.1,0.3c0.1,0,0.1,0.1,0.2,0.1l0.2-0.3
				C163.6,37.9,163.6,37.8,163.5,37.8z"/>
			<path fill="#009A66" d="M179.8,20.1c-0.1,0-0.1,0.1-0.2,0.2l-0.3,0.7c-0.1,0.1,0,0.2,0,0.2c0.1,0,0.1-0.1,0.2-0.2l0.3-0.7
				C179.9,20.1,179.9,20.1,179.8,20.1z"/>
			<path fill="#009A66" d="M163.2,37.7c-0.5-0.2-0.9-0.3-1.3-0.5l-0.1,0.2c0.3,0.2,0.6,0.3,0.9,0.5l0,0l0,0c0.1,0,0.2,0.1,0.2,0.1
				c0,0,0,0,0,0C163.1,37.9,163.2,37.8,163.2,37.7z"/>
			<path fill="#009A66" d="M165.1,38.2c-0.1,0-0.1,0-0.2,0l-0.2,0.5c0.1,0,0.1,0,0.2,0.1c0-0.1,0.1-0.1,0.1-0.2L165.1,38.2z"/>
			<path fill="#009A66" d="M177.5,5.9c0,0.1,0.1,0.1,0.2,0.1c0,0,0.1,0,0.1-0.1c-0.1-0.2-0.3-0.3-0.4-0.5L177.5,5.9z"/>
			<path fill="#009A66" d="M165.1,38.5c-0.1,0.1-0.1,0.2-0.1,0.2c0,0,0.1-0.1,0.2-0.2l0.2-0.3c0,0-0.1,0-0.1,0L165.1,38.5z"/>
			<path fill="#009A66" d="M176,32.5l0.7-0.9c0.1-0.2,0.2-0.2,0.1-0.2c0,0-0.1,0.1-0.2,0.3l-0.7,0.8c-0.1,0.2-0.2,0.2-0.1,0.2
				C175.8,32.8,175.9,32.7,176,32.5z"/>
			<path fill="#009A66" d="M178.4,15.4l-0.1,0.7c0,0.1,0,0.2,0.1,0.2c0.1,0,0.1-0.1,0.1-0.2l0.1-0.7c0-0.1,0-0.2-0.1-0.2
				C178.4,15.2,178.4,15.3,178.4,15.4z"/>
			<path fill="#009A66" d="M178.8,26.5l0.5-0.8c0.1-0.1,0.1-0.2,0-0.2c-0.1,0-0.1,0.1-0.2,0.2l-0.5,0.8c-0.1,0.1-0.1,0.2,0,0.2
				C178.6,26.7,178.7,26.6,178.8,26.5z"/>
			<path fill="#009A66" d="M178.2,24.2c0.1,0,0.1-0.1,0.2-0.2l0.3-0.8c0.1-0.1,0.1-0.2,0-0.2c-0.1,0-0.1,0.1-0.2,0.2l-0.3,0.8
				C178.1,24.2,178.1,24.2,178.2,24.2z"/>
			<path fill="#009A66" d="M177.1,28.9l-0.5,0.8c-0.1,0.1-0.1,0.2-0.1,0.2c0,0,0.1-0.1,0.2-0.2l0.5-0.8c0.1-0.1,0.1-0.2,0.1-0.2
				C177.3,28.7,177.2,28.8,177.1,28.9z"/>
			<path fill="#009A66" d="M164.5,38.1C164.5,38.1,164.5,38.1,164.5,38.1l-0.2,0.4c0.1,0,0.1,0,0.2,0.1l0.2-0.4
				C164.6,38.1,164.6,38.1,164.5,38.1z"/>
			<path fill="#009A66" d="M177.9,19c0.1,0,0.1-0.1,0.1-0.2l0.1-0.7c0-0.1,0-0.2-0.1-0.2c-0.1,0-0.1,0.1-0.1,0.2l-0.1,0.7
				C177.8,19,177.8,19.1,177.9,19z"/>
			<path fill="#009A66" d="M183.8,14.5c0,0.1,0,0.2,0.1,0.2c0.1,0,0.1-0.1,0.2-0.2l0-0.1c-0.1-0.1-0.1-0.2-0.2-0.2L183.8,14.5z"/>
			<path fill="#009A66" d="M175.3,10.9c-0.1,0-0.1,0.1-0.1,0.2l0.1,0.6c0,0.1,0.1,0.2,0.2,0.1c0.1,0,0.1-0.1,0.1-0.2l-0.1-0.6
				C175.5,10.9,175.4,10.9,175.3,10.9z"/>
			<path fill="#009A66" d="M181.5,11.9l-0.1,0.7c0,0.1,0,0.2,0.1,0.1c0.1,0,0.1-0.1,0.1-0.2l0.1-0.7c0-0.1,0-0.2-0.1-0.1
				C181.5,11.7,181.5,11.8,181.5,11.9z"/>
			<path fill="#009A66" d="M172.6,12.7c0.1,0,0.1-0.1,0.1-0.2l-0.2-0.6c0-0.1-0.1-0.2-0.2-0.1c-0.1,0-0.1,0.1-0.1,0.2l0.2,0.6
				C172.4,12.7,172.5,12.7,172.6,12.7z"/>
			<path fill="#009A66" d="M159.8,35.9c0,0,0.1,0.1,0.3,0.2c0,0,0,0,0,0C159.9,36,159.8,35.9,159.8,35.9z"/>
			<path fill="#009A66" d="M176.8,27.1l0.4-0.8c0.1-0.1,0.1-0.2,0-0.2c-0.1,0-0.1,0.1-0.2,0.2l-0.4,0.8c-0.1,0.1-0.1,0.2,0,0.2
				C176.7,27.3,176.7,27.2,176.8,27.1z"/>
			<path fill="#009A66" d="M160.5,36.4C160.4,36.4,160.4,36.4,160.5,36.4c0.1,0.1,0.1,0.2,0.2,0.2l0-0.1
				C160.6,36.5,160.5,36.4,160.5,36.4z"/>
			<path fill="#009A66" d="M160.9,36.6L160.9,36.6c0.1,0.1,0.1,0.2,0.2,0.2l0-0.1C161,36.7,160.9,36.7,160.9,36.6z"/>
			<path fill="#009A66" d="M165.5,38.2L165.5,38.2c-0.1,0.2-0.2,0.4-0.3,0.5c0.1,0,0.1,0,0.2,0l0.3-0.6
				C165.6,38.2,165.6,38.2,165.5,38.2z"/>
			<path fill="#009A66" d="M161.2,37C161.3,37,161.3,37,161.2,37c0.1,0,0.1,0,0.1,0l0,0c0,0-0.1,0-0.1,0L161.2,37z"/>
			<path fill="#009A66" d="M178.6,11c0.1,0,0.1-0.1,0.1-0.2l-0.1-0.6c0-0.1-0.1-0.2-0.2-0.1c-0.1,0-0.1,0.1-0.1,0.2l0.1,0.6
				C178.4,11,178.5,11,178.6,11z"/>
			<path fill="#009A66" d="M178.2,8.5c0.1,0,0.1-0.1,0.1-0.2l-0.1-0.6c0-0.1-0.1-0.2-0.2-0.1c-0.1,0-0.1,0.1-0.1,0.2l0.1,0.6
				C178.1,8.5,178.1,8.5,178.2,8.5z"/>
			<path fill="#009A66" d="M172.6,35.3c0,0-0.1,0.1-0.2,0.3l-0.7,0.9c-0.1,0.2-0.2,0.2-0.1,0.2c0,0,0.1-0.1,0.2-0.3l0.7-0.9
				C172.6,35.4,172.6,35.3,172.6,35.3z"/>
			<path fill="#009A66" d="M170.2,37.1c0,0,0.1-0.1,0.2-0.2l0.1-0.1c-0.1,0-0.1,0.1-0.2,0.1C170.2,37,170.2,37.1,170.2,37.1z"/>
			<path fill="#009A66" d="M173,15.2c0.1,0,0.1-0.1,0.1-0.2l-0.1-0.6c0-0.1-0.1-0.2-0.1-0.1c-0.1,0-0.1,0.1-0.1,0.2l0.1,0.6
				C172.9,15.1,172.9,15.2,173,15.2z"/>
			<path fill="#009A66" d="M170.8,20.2c0-0.1,0-0.2-0.1-0.2c-0.1,0-0.1,0.1-0.1,0.2l0,0.2l0.2,0L170.8,20.2z"/>
			<path fill="#009A66" d="M161.5,37c0,0,0,0.1,0,0.1c0.1,0,0.1,0.1,0.2,0.1l0-0.2C161.7,37.1,161.6,37,161.5,37z"/>
			<path fill="#009A66" d="M176.2,24.6l0.3-0.7c0.1-0.1,0-0.2,0-0.2c-0.1,0-0.1,0.1-0.2,0.2l-0.3,0.7c-0.1,0.1-0.1,0.2,0,0.2
				C176.1,24.8,176.2,24.7,176.2,24.6z"/>
			<path fill="#009A66" d="M173.2,19.5c0-0.1,0-0.2-0.1-0.2c-0.1,0-0.1,0.1-0.1,0.2l0,0.4l0.2,0L173.2,19.5z"/>
		</g>
	</g>
</g>
</svg>